P2 100 100 255
0 
0 
0 
0 
0 
0 
0 
0 
0 
0 
0 
0 
0 
0 
0 
0 
0 
0 
0 
0 
0 
0 
200 
197 
193 
188 
183 
178 
172 
167 
162 
156 
151 
146 
140 
135 
129 
124 
118 
113 
107 
101 
96 
90 
84 
79 
73 
67 
61 
55 
49 
44 
38 
31 
25 
19 
13 
7 
0 
0 
0 
0 
0 
0 
0 
0 
0 
0 
0 
0 
0 
0 
0 
0 
0 
0 
0 
0 
0 
0 
0 
0 
0 
0 
0 
0 
0 
0 
0 
0 
0 
0 
0 
0 
0 
0 
0 
0 
0 
0 
0 
0 
0 
0 
0 
0 
0 
0 
0 
0 
0 
0 
0 
0 
0 
0 
0 
0 
0 
0 
0 
0 
201 
197 
193 
188 
183 
178 
172 
167 
162 
156 
151 
146 
140 
135 
129 
124 
118 
113 
107 
101 
96 
90 
84 
79 
73 
67 
61 
55 
49 
43 
37 
31 
25 
19 
13 
7 
0 
0 
0 
0 
0 
0 
0 
0 
0 
0 
0 
0 
0 
0 
0 
0 
0 
0 
0 
0 
0 
0 
0 
0 
0 
0 
0 
0 
0 
0 
0 
0 
0 
0 
0 
0 
0 
0 
0 
0 
0 
0 
0 
0 
0 
0 
0 
0 
0 
0 
0 
0 
0 
0 
0 
0 
0 
0 
0 
0 
0 
0 
0 
0 
202 
198 
193 
188 
183 
178 
172 
167 
162 
156 
151 
146 
140 
135 
129 
124 
118 
113 
107 
101 
96 
90 
84 
79 
73 
67 
61 
55 
49 
43 
37 
31 
25 
19 
13 
7 
0 
0 
0 
0 
0 
0 
0 
0 
0 
0 
0 
0 
0 
0 
0 
0 
0 
0 
0 
0 
0 
0 
0 
0 
0 
0 
0 
0 
0 
0 
0 
0 
0 
0 
0 
0 
0 
0 
0 
0 
0 
0 
0 
0 
0 
0 
0 
0 
0 
0 
0 
0 
0 
0 
0 
0 
0 
0 
0 
0 
0 
0 
0 
0 
202 
198 
193 
188 
183 
178 
172 
167 
162 
156 
151 
146 
140 
135 
129 
124 
118 
112 
107 
101 
96 
90 
84 
78 
73 
67 
61 
55 
49 
43 
37 
31 
25 
19 
13 
6 
0 
0 
0 
0 
0 
0 
0 
0 
0 
0 
0 
0 
0 
0 
0 
0 
0 
0 
0 
0 
0 
0 
0 
0 
0 
0 
0 
0 
0 
0 
0 
0 
0 
0 
0 
0 
0 
0 
0 
0 
0 
0 
0 
0 
0 
0 
0 
0 
0 
0 
0 
0 
0 
0 
0 
0 
0 
0 
0 
0 
0 
0 
0 
0 
202 
198 
193 
188 
183 
178 
172 
167 
162 
156 
151 
145 
140 
135 
129 
123 
118 
112 
107 
101 
95 
90 
84 
78 
73 
67 
61 
55 
49 
43 
37 
31 
25 
19 
13 
6 
0 
0 
0 
0 
0 
0 
0 
0 
0 
0 
0 
0 
0 
0 
0 
0 
0 
0 
0 
0 
0 
0 
0 
0 
0 
0 
0 
0 
0 
0 
0 
0 
0 
0 
0 
0 
0 
0 
0 
0 
0 
0 
0 
0 
0 
0 
0 
0 
0 
0 
0 
0 
0 
0 
0 
0 
0 
0 
0 
0 
0 
0 
0 
113 
109 
105 
100 
95 
183 
178 
172 
167 
162 
156 
151 
145 
140 
134 
129 
123 
118 
112 
107 
101 
95 
90 
84 
78 
72 
67 
61 
55 
49 
43 
37 
31 
25 
19 
12 
6 
0 
0 
0 
0 
0 
0 
0 
0 
0 
0 
0 
0 
0 
0 
0 
0 
0 
0 
0 
0 
0 
0 
0 
0 
0 
0 
0 
0 
0 
0 
0 
0 
0 
0 
0 
0 
0 
0 
0 
0 
0 
0 
0 
0 
0 
0 
0 
0 
0 
0 
0 
0 
0 
0 
0 
0 
0 
0 
0 
0 
0 
0 
119 
115 
111 
106 
101 
96 
91 
87 
81 
167 
161 
156 
151 
145 
140 
134 
129 
123 
118 
112 
106 
101 
95 
89 
84 
78 
72 
66 
61 
55 
49 
43 
37 
31 
25 
18 
12 
6 
0 
0 
0 
0 
0 
0 
0 
0 
0 
0 
0 
0 
0 
0 
0 
0 
0 
0 
0 
0 
0 
0 
0 
0 
0 
0 
0 
0 
0 
0 
0 
0 
0 
0 
0 
0 
0 
0 
0 
0 
0 
0 
0 
0 
0 
0 
0 
0 
0 
0 
0 
0 
0 
0 
0 
0 
0 
0 
0 
0 
0 
125 
121 
117 
112 
107 
102 
97 
92 
87 
82 
77 
72 
156 
150 
145 
140 
134 
128 
123 
117 
112 
106 
101 
95 
89 
83 
78 
72 
66 
60 
54 
48 
42 
36 
30 
24 
18 
12 
5 
0 
0 
0 
0 
0 
0 
0 
0 
0 
0 
0 
0 
0 
0 
0 
0 
0 
0 
0 
0 
0 
0 
0 
0 
0 
0 
0 
0 
0 
0 
0 
0 
0 
0 
0 
0 
0 
0 
0 
0 
0 
0 
0 
0 
0 
0 
0 
0 
0 
0 
0 
0 
0 
0 
0 
0 
0 
0 
0 
0 
131 
127 
122 
118 
113 
108 
103 
98 
93 
88 
83 
78 
73 
68 
63 
57 
139 
134 
128 
123 
117 
112 
106 
100 
95 
89 
83 
77 
72 
66 
60 
54 
48 
42 
36 
30 
24 
18 
11 
5 
0 
0 
0 
0 
0 
0 
0 
0 
0 
0 
0 
0 
0 
0 
0 
0 
0 
0 
0 
0 
0 
0 
0 
0 
0 
0 
0 
0 
0 
0 
0 
0 
0 
0 
0 
0 
0 
0 
0 
0 
0 
0 
0 
0 
0 
0 
0 
0 
0 
0 
0 
0 
0 
0 
0 
0 
0 
0 
0 
137 
133 
128 
123 
118 
113 
109 
104 
99 
94 
89 
84 
79 
73 
68 
63 
58 
53 
48 
128 
122 
117 
111 
106 
100 
94 
89 
83 
77 
71 
65 
60 
54 
48 
42 
36 
30 
23 
17 
11 
5 
0 
0 
0 
0 
0 
0 
0 
0 
0 
0 
0 
0 
0 
0 
0 
0 
0 
0 
0 
0 
0 
0 
0 
0 
0 
0 
0 
0 
0 
0 
0 
0 
0 
0 
0 
0 
0 
0 
0 
0 
0 
0 
0 
0 
0 
0 
0 
0 
0 
0 
0 
0 
0 
0 
0 
0 
0 
0 
142 
138 
133 
129 
124 
119 
114 
109 
104 
99 
94 
89 
84 
79 
74 
69 
64 
59 
53 
48 
43 
38 
117 
111 
105 
100 
94 
88 
82 
77 
71 
65 
59 
53 
47 
41 
35 
29 
23 
17 
11 
4 
0 
0 
0 
0 
0 
0 
0 
0 
0 
0 
0 
0 
0 
0 
0 
0 
0 
0 
0 
0 
0 
0 
0 
0 
0 
0 
0 
0 
0 
0 
0 
0 
0 
0 
0 
0 
0 
0 
0 
0 
0 
0 
0 
0 
0 
0 
0 
0 
0 
0 
0 
0 
0 
0 
0 
0 
0 
147 
143 
139 
134 
129 
124 
120 
115 
110 
105 
100 
95 
90 
85 
80 
75 
69 
64 
59 
54 
49 
44 
38 
33 
28 
105 
99 
94 
88 
82 
76 
71 
65 
59 
53 
47 
41 
35 
29 
23 
16 
10 
4 
0 
0 
0 
0 
0 
0 
0 
0 
0 
0 
0 
0 
0 
0 
0 
0 
0 
0 
0 
0 
0 
0 
0 
0 
0 
0 
0 
0 
0 
0 
0 
0 
0 
0 
0 
0 
0 
0 
0 
0 
0 
0 
0 
0 
0 
0 
0 
0 
0 
0 
0 
0 
0 
0 
0 
0 
0 
149 
144 
139 
135 
130 
125 
120 
115 
110 
105 
100 
95 
90 
85 
80 
75 
70 
65 
60 
54 
49 
44 
39 
34 
28 
23 
17 
93 
87 
82 
76 
70 
64 
58 
52 
46 
40 
34 
28 
22 
16 
9 
3 
0 
0 
0 
0 
0 
0 
0 
0 
0 
0 
0 
0 
0 
0 
0 
0 
0 
0 
0 
0 
0 
0 
0 
0 
0 
0 
0 
0 
0 
0 
0 
0 
0 
0 
0 
0 
0 
0 
0 
0 
0 
0 
0 
0 
0 
0 
0 
0 
0 
0 
0 
0 
0 
0 
0 
0 
154 
149 
145 
140 
135 
130 
125 
120 
115 
110 
106 
101 
96 
91 
85 
80 
75 
70 
65 
60 
55 
50 
44 
39 
34 
29 
23 
18 
12 
7 
81 
75 
70 
64 
58 
52 
46 
40 
34 
28 
21 
15 
9 
2 
0 
0 
0 
0 
0 
0 
0 
0 
0 
0 
0 
0 
0 
0 
0 
0 
0 
0 
0 
0 
0 
0 
0 
0 
0 
0 
0 
0 
0 
0 
0 
0 
0 
0 
0 
0 
0 
0 
0 
0 
0 
0 
0 
0 
0 
0 
0 
0 
0 
0 
0 
0 
0 
0 
0 
158 
155 
150 
145 
140 
135 
131 
126 
121 
116 
111 
106 
101 
96 
91 
86 
81 
76 
71 
66 
60 
55 
50 
45 
40 
34 
29 
24 
18 
13 
7 
2 
0 
69 
63 
57 
51 
45 
39 
33 
27 
21 
14 
8 
2 
0 
0 
0 
0 
0 
0 
0 
0 
0 
2 
0 
0 
0 
0 
0 
0 
0 
0 
0 
0 
0 
0 
0 
0 
0 
0 
0 
0 
0 
0 
0 
0 
0 
0 
0 
0 
0 
0 
0 
0 
0 
0 
0 
0 
0 
0 
0 
0 
0 
0 
0 
0 
0 
0 
0 
160 
155 
150 
146 
141 
136 
131 
126 
121 
116 
111 
106 
101 
96 
91 
86 
81 
76 
71 
66 
61 
56 
50 
45 
40 
35 
29 
24 
19 
13 
8 
2 
0 
0 
63 
57 
51 
45 
39 
32 
26 
20 
14 
7 
1 
0 
0 
0 
0 
0 
0 
26 
19 
12 
4 
0 
0 
0 
0 
0 
0 
0 
0 
0 
0 
0 
0 
0 
0 
0 
0 
0 
0 
0 
0 
0 
0 
0 
0 
0 
0 
0 
0 
0 
0 
0 
0 
0 
0 
0 
0 
0 
0 
0 
0 
0 
0 
0 
0 
164 
160 
156 
151 
146 
141 
136 
131 
126 
121 
116 
111 
106 
101 
96 
91 
86 
81 
76 
71 
66 
61 
56 
51 
46 
40 
35 
30 
24 
19 
14 
8 
3 
0 
0 
0 
0 
50 
44 
38 
32 
26 
19 
13 
7 
0 
0 
0 
0 
49 
42 
35 
28 
21 
14 
6 
0 
0 
0 
0 
0 
0 
0 
0 
0 
0 
0 
0 
0 
0 
0 
0 
0 
0 
0 
0 
0 
0 
0 
0 
0 
0 
0 
0 
0 
0 
0 
0 
0 
0 
0 
0 
0 
0 
0 
0 
0 
0 
0 
0 
165 
161 
156 
151 
146 
141 
136 
131 
126 
122 
117 
112 
107 
102 
97 
92 
87 
82 
77 
71 
66 
61 
56 
51 
46 
41 
35 
30 
25 
19 
14 
9 
3 
0 
0 
0 
0 
0 
0 
37 
31 
25 
18 
12 
6 
0 
71 
64 
57 
50 
44 
37 
30 
23 
15 
8 
1 
0 
0 
0 
0 
0 
0 
0 
0 
0 
0 
0 
0 
0 
0 
0 
0 
0 
0 
0 
0 
0 
0 
0 
0 
0 
0 
0 
0 
0 
0 
0 
0 
0 
0 
0 
0 
0 
0 
0 
0 
0 
0 
0 
166 
161 
156 
151 
146 
141 
137 
132 
127 
122 
117 
112 
107 
102 
97 
92 
87 
82 
77 
72 
67 
61 
56 
51 
46 
41 
36 
30 
25 
20 
14 
9 
3 
0 
0 
0 
0 
0 
0 
0 
0 
24 
18 
91 
85 
78 
72 
65 
59 
52 
45 
38 
31 
24 
17 
10 
2 
0 
0 
0 
0 
0 
0 
0 
0 
0 
0 
0 
0 
0 
0 
0 
0 
0 
0 
0 
0 
0 
0 
0 
0 
0 
0 
0 
0 
0 
0 
0 
0 
0 
0 
0 
0 
0 
0 
0 
0 
0 
0 
170 
166 
161 
156 
152 
147 
142 
137 
132 
127 
122 
117 
112 
107 
102 
97 
92 
87 
82 
77 
72 
67 
62 
57 
51 
46 
41 
36 
31 
25 
20 
14 
9 
4 
0 
0 
0 
0 
0 
0 
0 
0 
105 
99 
92 
86 
79 
73 
66 
60 
53 
46 
39 
32 
25 
18 
11 
4 
0 
0 
0 
0 
0 
0 
0 
0 
0 
0 
0 
0 
0 
0 
0 
0 
0 
0 
0 
0 
0 
0 
0 
0 
0 
0 
0 
0 
0 
0 
0 
0 
0 
0 
0 
0 
0 
0 
0 
0 
0 
0 
171 
166 
161 
157 
152 
147 
142 
137 
132 
127 
122 
117 
112 
107 
102 
97 
92 
87 
82 
77 
72 
67 
62 
57 
52 
46 
41 
36 
31 
25 
20 
15 
9 
4 
0 
0 
0 
0 
0 
0 
0 
0 
106 
100 
93 
87 
80 
74 
67 
61 
54 
47 
40 
33 
26 
19 
12 
5 
0 
0 
0 
0 
0 
0 
0 
0 
0 
0 
0 
0 
0 
0 
0 
0 
0 
0 
0 
0 
0 
0 
0 
0 
0 
0 
0 
0 
0 
0 
0 
0 
0 
0 
0 
0 
0 
0 
0 
0 
0 
0 
171 
166 
162 
157 
152 
147 
142 
137 
132 
127 
122 
117 
112 
107 
102 
97 
92 
87 
82 
77 
72 
67 
62 
57 
52 
47 
41 
36 
31 
26 
20 
15 
9 
4 
0 
0 
0 
0 
0 
0 
0 
0 
107 
101 
94 
88 
81 
75 
68 
62 
55 
48 
41 
34 
27 
20 
13 
6 
0 
0 
0 
0 
0 
0 
0 
0 
0 
0 
0 
0 
0 
0 
0 
0 
0 
0 
0 
0 
0 
0 
0 
0 
0 
0 
0 
0 
0 
0 
0 
0 
0 
0 
0 
0 
0 
0 
0 
0 
0 
0 
171 
167 
162 
157 
152 
147 
142 
137 
132 
127 
122 
117 
112 
107 
102 
97 
92 
87 
82 
77 
72 
67 
62 
57 
52 
47 
41 
36 
31 
26 
20 
15 
10 
4 
0 
0 
0 
0 
0 
0 
0 
114 
108 
101 
95 
89 
82 
76 
69 
63 
56 
49 
42 
35 
28 
21 
14 
7 
0 
0 
0 
0 
0 
0 
0 
0 
0 
0 
0 
0 
0 
0 
0 
0 
0 
0 
0 
0 
0 
0 
0 
0 
0 
0 
0 
0 
0 
0 
0 
0 
0 
0 
0 
0 
0 
0 
0 
0 
0 
176 
172 
167 
162 
157 
152 
147 
142 
137 
132 
127 
122 
117 
112 
107 
102 
97 
92 
87 
82 
77 
72 
67 
62 
57 
52 
47 
42 
36 
31 
26 
20 
15 
10 
4 
0 
0 
0 
0 
0 
0 
0 
115 
108 
102 
96 
89 
83 
76 
70 
63 
57 
50 
43 
36 
29 
22 
15 
8 
0 
0 
0 
0 
0 
0 
0 
0 
0 
0 
0 
0 
0 
0 
0 
0 
0 
0 
0 
0 
0 
0 
0 
0 
0 
0 
0 
0 
0 
0 
0 
0 
0 
0 
0 
0 
0 
0 
0 
0 
0 
176 
172 
167 
162 
157 
152 
147 
142 
137 
132 
127 
122 
117 
112 
107 
102 
97 
92 
87 
82 
77 
72 
67 
62 
57 
52 
47 
42 
36 
31 
26 
20 
15 
10 
4 
0 
0 
0 
0 
0 
0 
0 
115 
109 
103 
96 
90 
84 
77 
71 
64 
57 
51 
44 
37 
30 
23 
16 
9 
1 
0 
0 
0 
0 
0 
0 
0 
0 
0 
0 
0 
0 
0 
0 
0 
0 
0 
0 
0 
0 
0 
0 
0 
0 
0 
0 
0 
0 
0 
0 
0 
0 
0 
0 
0 
0 
0 
0 
0 
0 
176 
172 
167 
162 
157 
152 
147 
142 
137 
132 
127 
122 
117 
112 
107 
102 
97 
92 
87 
82 
77 
72 
67 
62 
57 
52 
47 
42 
36 
31 
26 
20 
15 
10 
4 
0 
0 
0 
0 
0 
0 
122 
116 
109 
103 
97 
91 
84 
78 
71 
65 
58 
51 
44 
38 
31 
24 
17 
9 
2 
0 
0 
0 
0 
0 
0 
0 
0 
0 
0 
0 
0 
0 
0 
0 
0 
0 
0 
0 
0 
0 
0 
0 
0 
0 
0 
0 
0 
0 
0 
0 
0 
0 
0 
0 
0 
0 
0 
0 
0 
176 
172 
167 
162 
157 
152 
147 
142 
137 
132 
127 
122 
117 
112 
107 
102 
97 
92 
87 
82 
77 
72 
67 
62 
57 
52 
47 
42 
36 
31 
26 
20 
15 
10 
4 
0 
0 
0 
0 
0 
0 
122 
116 
110 
104 
97 
91 
85 
78 
72 
65 
58 
52 
45 
38 
31 
24 
17 
10 
3 
0 
0 
0 
0 
0 
0 
0 
0 
0 
0 
0 
0 
0 
0 
0 
0 
0 
0 
0 
0 
0 
0 
0 
0 
0 
0 
0 
0 
0 
0 
0 
0 
0 
0 
0 
0 
0 
0 
0 
0 
176 
172 
167 
162 
157 
152 
147 
142 
137 
132 
127 
122 
117 
112 
107 
102 
97 
92 
87 
82 
77 
72 
67 
62 
57 
52 
47 
42 
36 
31 
26 
20 
15 
10 
4 
0 
0 
0 
0 
0 
129 
123 
117 
110 
104 
98 
91 
85 
79 
72 
65 
59 
52 
45 
39 
32 
25 
18 
10 
3 
0 
0 
0 
0 
0 
0 
0 
0 
0 
0 
0 
0 
0 
0 
0 
0 
0 
0 
0 
0 
0 
0 
0 
0 
0 
0 
0 
0 
0 
0 
0 
0 
0 
0 
0 
0 
0 
0 
0 
0 
176 
172 
167 
162 
157 
152 
147 
142 
137 
132 
127 
122 
117 
112 
107 
102 
97 
92 
87 
82 
77 
72 
67 
62 
57 
52 
47 
41 
36 
31 
26 
20 
15 
10 
4 
0 
0 
0 
0 
0 
129 
123 
117 
111 
104 
98 
92 
85 
79 
72 
66 
59 
53 
46 
39 
32 
25 
18 
11 
4 
0 
0 
0 
0 
0 
0 
0 
0 
0 
0 
0 
0 
0 
0 
0 
0 
0 
0 
0 
0 
0 
0 
0 
0 
0 
0 
0 
0 
0 
0 
0 
0 
0 
0 
0 
0 
0 
0 
0 
0 
176 
172 
167 
162 
157 
152 
147 
142 
137 
132 
127 
122 
117 
112 
107 
102 
97 
92 
87 
82 
77 
72 
67 
62 
57 
52 
47 
41 
36 
31 
26 
20 
15 
9 
4 
0 
0 
0 
0 
0 
130 
123 
117 
111 
105 
98 
92 
86 
79 
73 
66 
60 
53 
46 
39 
32 
25 
18 
11 
4 
0 
0 
0 
0 
0 
0 
0 
0 
0 
0 
0 
0 
0 
0 
0 
0 
0 
0 
0 
0 
0 
0 
0 
0 
0 
0 
0 
0 
0 
0 
0 
0 
0 
0 
0 
0 
0 
0 
0 
0 
176 
172 
167 
162 
157 
152 
147 
142 
137 
132 
127 
122 
117 
112 
107 
102 
97 
92 
87 
82 
77 
72 
67 
62 
57 
52 
46 
41 
36 
31 
25 
20 
15 
9 
4 
0 
0 
0 
0 
136 
130 
124 
117 
111 
105 
99 
92 
86 
79 
73 
66 
60 
53 
46 
40 
33 
26 
19 
12 
4 
0 
0 
0 
0 
0 
0 
0 
0 
0 
0 
0 
0 
0 
0 
0 
0 
0 
0 
0 
0 
0 
0 
0 
0 
0 
0 
0 
0 
0 
0 
0 
0 
0 
0 
0 
0 
0 
0 
0 
0 
176 
172 
167 
162 
157 
152 
147 
142 
137 
132 
127 
122 
117 
112 
107 
102 
97 
92 
87 
82 
77 
72 
67 
62 
57 
51 
46 
41 
36 
31 
25 
20 
15 
9 
4 
0 
0 
0 
0 
136 
130 
124 
118 
111 
105 
99 
92 
86 
80 
73 
67 
60 
53 
47 
40 
33 
26 
19 
12 
5 
0 
0 
0 
0 
0 
0 
0 
0 
0 
0 
0 
0 
0 
0 
0 
0 
0 
0 
0 
0 
0 
0 
0 
0 
0 
0 
0 
0 
0 
0 
0 
0 
0 
0 
0 
0 
0 
0 
0 
0 
176 
171 
167 
162 
157 
152 
147 
142 
137 
132 
127 
122 
117 
112 
107 
102 
97 
92 
87 
82 
77 
72 
67 
62 
56 
51 
46 
41 
36 
30 
25 
20 
14 
9 
3 
0 
0 
0 
0 
136 
130 
124 
118 
111 
105 
99 
93 
86 
80 
73 
67 
60 
53 
47 
40 
33 
26 
19 
12 
5 
0 
0 
0 
0 
0 
0 
0 
0 
0 
0 
0 
0 
0 
0 
0 
0 
0 
0 
0 
0 
0 
0 
0 
0 
0 
0 
0 
0 
0 
0 
0 
0 
0 
0 
0 
0 
0 
0 
0 
0 
176 
171 
166 
162 
157 
152 
147 
142 
137 
132 
127 
122 
117 
112 
107 
102 
97 
92 
87 
82 
77 
72 
66 
61 
56 
51 
46 
41 
35 
30 
25 
19 
14 
9 
3 
0 
0 
0 
0 
136 
130 
124 
118 
112 
105 
99 
93 
86 
80 
73 
67 
60 
53 
47 
40 
33 
26 
19 
12 
5 
0 
0 
0 
0 
0 
0 
0 
0 
0 
0 
0 
0 
0 
0 
0 
0 
0 
0 
0 
0 
0 
0 
0 
0 
0 
0 
0 
0 
0 
0 
0 
0 
0 
0 
0 
0 
0 
0 
0 
0 
0 
171 
166 
161 
156 
151 
146 
142 
137 
132 
127 
122 
117 
112 
107 
102 
97 
92 
87 
81 
76 
71 
66 
61 
56 
51 
46 
40 
35 
30 
25 
19 
14 
8 
3 
0 
0 
0 
142 
136 
130 
124 
118 
112 
105 
99 
93 
86 
80 
73 
67 
60 
53 
47 
40 
33 
26 
19 
12 
5 
0 
0 
0 
0 
0 
0 
0 
0 
0 
0 
0 
0 
0 
0 
0 
0 
0 
0 
0 
0 
0 
0 
0 
0 
0 
0 
0 
0 
0 
0 
0 
0 
0 
0 
0 
0 
0 
0 
0 
0 
0 
171 
166 
161 
156 
151 
146 
141 
136 
131 
126 
121 
116 
111 
106 
101 
96 
91 
86 
81 
76 
71 
66 
61 
56 
51 
45 
40 
35 
30 
24 
19 
13 
8 
3 
0 
0 
0 
142 
136 
130 
124 
118 
111 
105 
99 
93 
86 
80 
73 
67 
60 
53 
47 
40 
33 
26 
19 
12 
5 
0 
0 
0 
0 
0 
0 
0 
0 
0 
0 
0 
0 
0 
0 
0 
0 
0 
0 
0 
0 
0 
0 
0 
0 
0 
0 
0 
0 
0 
0 
0 
0 
0 
0 
0 
0 
0 
0 
0 
0 
0 
170 
166 
161 
156 
151 
146 
141 
136 
131 
126 
121 
116 
111 
106 
101 
96 
91 
86 
81 
76 
71 
66 
61 
55 
50 
45 
40 
35 
29 
24 
19 
13 
8 
2 
0 
0 
0 
142 
136 
130 
124 
118 
111 
105 
99 
92 
86 
80 
73 
66 
60 
53 
46 
40 
33 
26 
19 
12 
5 
0 
0 
0 
0 
0 
0 
0 
0 
0 
0 
0 
0 
0 
0 
0 
0 
0 
0 
0 
0 
0 
0 
0 
0 
0 
0 
0 
0 
0 
0 
0 
0 
0 
0 
0 
0 
0 
0 
0 
0 
0 
170 
165 
161 
156 
151 
146 
141 
136 
131 
126 
121 
116 
111 
106 
101 
96 
91 
86 
81 
76 
71 
65 
60 
55 
50 
45 
39 
34 
29 
24 
18 
13 
7 
2 
0 
0 
148 
142 
136 
130 
124 
117 
111 
105 
99 
92 
86 
79 
73 
66 
60 
53 
46 
39 
33 
26 
19 
11 
4 
0 
0 
0 
0 
0 
0 
0 
0 
0 
0 
0 
0 
0 
0 
0 
0 
0 
0 
0 
0 
0 
0 
0 
0 
0 
0 
0 
0 
0 
0 
0 
0 
0 
0 
0 
0 
0 
0 
0 
0 
0 
0 
165 
160 
155 
150 
146 
141 
136 
131 
126 
121 
116 
111 
106 
101 
96 
91 
85 
80 
75 
70 
65 
60 
55 
50 
44 
39 
34 
28 
23 
18 
12 
7 
1 
0 
0 
148 
142 
136 
130 
123 
117 
111 
105 
98 
92 
86 
79 
73 
66 
59 
53 
46 
39 
32 
25 
18 
11 
4 
0 
0 
0 
0 
0 
0 
0 
0 
0 
0 
0 
0 
0 
0 
0 
0 
0 
0 
0 
0 
0 
0 
0 
0 
0 
0 
0 
0 
0 
0 
0 
0 
0 
0 
0 
0 
0 
0 
0 
0 
0 
0 
164 
160 
155 
150 
145 
140 
135 
130 
125 
120 
115 
110 
105 
100 
95 
90 
85 
80 
75 
70 
65 
60 
54 
49 
44 
39 
33 
28 
23 
17 
12 
6 
1 
0 
0 
147 
141 
135 
129 
123 
117 
111 
104 
98 
92 
85 
79 
72 
66 
59 
52 
46 
39 
32 
25 
18 
11 
4 
0 
0 
0 
0 
0 
0 
0 
0 
0 
0 
0 
0 
0 
0 
0 
0 
0 
0 
0 
0 
0 
0 
0 
0 
0 
0 
0 
0 
0 
0 
0 
0 
0 
0 
0 
0 
0 
0 
0 
0 
0 
0 
0 
159 
155 
150 
145 
140 
135 
130 
125 
120 
115 
110 
105 
100 
95 
90 
85 
80 
75 
69 
64 
59 
54 
49 
43 
38 
33 
28 
22 
17 
11 
6 
0 
0 
153 
147 
141 
135 
129 
123 
117 
110 
104 
98 
91 
85 
78 
72 
65 
59 
52 
45 
38 
32 
25 
18 
10 
3 
0 
0 
0 
0 
0 
0 
0 
0 
0 
0 
0 
0 
0 
0 
0 
0 
0 
0 
0 
0 
0 
0 
0 
0 
0 
0 
0 
0 
0 
0 
0 
0 
0 
0 
0 
0 
0 
0 
0 
0 
0 
0 
0 
158 
154 
149 
144 
140 
135 
130 
125 
120 
115 
110 
105 
100 
94 
89 
84 
79 
74 
69 
64 
59 
53 
48 
43 
38 
32 
27 
22 
16 
11 
5 
0 
0 
153 
147 
141 
135 
129 
122 
116 
110 
104 
97 
91 
85 
78 
72 
65 
58 
52 
45 
38 
31 
24 
17 
10 
3 
0 
0 
0 
0 
0 
0 
0 
0 
0 
0 
0 
0 
0 
0 
0 
0 
0 
0 
0 
0 
0 
0 
0 
0 
0 
0 
0 
0 
0 
0 
0 
0 
0 
0 
0 
0 
0 
0 
0 
0 
0 
0 
0 
0 
153 
149 
144 
139 
134 
129 
124 
119 
114 
109 
104 
99 
94 
89 
84 
79 
74 
69 
63 
58 
53 
48 
42 
37 
32 
26 
21 
16 
10 
5 
0 
0 
152 
146 
140 
134 
128 
122 
116 
109 
103 
97 
90 
84 
78 
71 
64 
58 
51 
44 
37 
31 
24 
16 
9 
2 
0 
0 
0 
0 
0 
0 
0 
0 
0 
0 
0 
0 
0 
0 
0 
0 
0 
0 
0 
0 
0 
0 
0 
0 
0 
0 
0 
0 
0 
0 
0 
0 
0 
0 
0 
0 
0 
0 
0 
0 
0 
0 
0 
0 
152 
148 
143 
139 
134 
129 
124 
119 
114 
109 
104 
99 
94 
89 
83 
78 
73 
68 
63 
58 
52 
47 
42 
37 
31 
26 
20 
15 
9 
4 
0 
158 
152 
146 
140 
134 
128 
121 
115 
109 
103 
96 
90 
84 
77 
70 
64 
57 
50 
44 
37 
30 
23 
16 
9 
1 
0 
0 
0 
0 
0 
0 
0 
0 
0 
0 
0 
0 
0 
0 
0 
0 
0 
0 
0 
0 
0 
0 
0 
0 
0 
0 
0 
0 
0 
0 
0 
0 
0 
0 
0 
0 
0 
0 
0 
0 
0 
0 
0 
0 
0 
147 
143 
138 
133 
128 
123 
118 
113 
108 
103 
98 
93 
88 
83 
78 
73 
67 
62 
57 
52 
47 
41 
36 
31 
25 
20 
14 
9 
3 
0 
157 
151 
145 
139 
133 
127 
121 
115 
108 
102 
96 
89 
83 
76 
70 
63 
57 
50 
43 
36 
29 
22 
15 
8 
1 
0 
0 
0 
0 
0 
0 
0 
0 
0 
0 
0 
0 
0 
0 
0 
0 
0 
0 
0 
0 
0 
0 
0 
0 
0 
0 
0 
0 
0 
0 
0 
0 
0 
0 
0 
0 
0 
0 
0 
0 
0 
0 
0 
0 
0 
145 
142 
137 
132 
128 
123 
118 
113 
108 
103 
98 
92 
87 
82 
77 
72 
67 
62 
56 
51 
46 
41 
35 
30 
24 
19 
13 
8 
2 
0 
157 
151 
145 
139 
132 
126 
120 
114 
108 
101 
95 
89 
82 
76 
69 
63 
56 
49 
42 
35 
28 
21 
14 
7 
0 
0 
0 
0 
0 
0 
0 
0 
0 
0 
0 
0 
0 
0 
0 
0 
0 
0 
0 
0 
0 
0 
0 
0 
0 
0 
0 
0 
0 
0 
0 
0 
0 
0 
0 
0 
0 
0 
0 
0 
0 
0 
0 
0 
0 
0 
0 
140 
136 
132 
127 
122 
117 
112 
107 
102 
97 
92 
87 
82 
77 
71 
66 
61 
56 
50 
45 
40 
35 
29 
24 
18 
13 
7 
1 
162 
156 
150 
144 
138 
132 
126 
119 
113 
107 
101 
94 
88 
81 
75 
68 
62 
55 
48 
41 
35 
28 
21 
13 
6 
0 
0 
0 
0 
0 
0 
0 
0 
0 
0 
0 
0 
0 
0 
0 
0 
0 
0 
0 
0 
0 
0 
0 
0 
0 
0 
0 
0 
0 
0 
0 
0 
0 
0 
0 
0 
0 
0 
0 
0 
0 
0 
0 
0 
0 
0 
0 
0 
135 
131 
126 
121 
116 
111 
106 
101 
96 
91 
86 
81 
76 
71 
65 
60 
55 
50 
44 
39 
34 
28 
23 
17 
12 
6 
0 
161 
155 
149 
143 
137 
131 
125 
119 
112 
106 
100 
94 
87 
81 
74 
68 
61 
54 
47 
41 
34 
27 
20 
12 
5 
0 
0 
0 
0 
0 
0 
0 
0 
0 
0 
0 
0 
0 
0 
0 
0 
0 
0 
0 
0 
0 
0 
0 
0 
0 
0 
0 
0 
0 
0 
0 
0 
0 
0 
0 
0 
0 
0 
0 
0 
0 
0 
0 
0 
0 
0 
0 
0 
0 
129 
125 
120 
115 
110 
105 
100 
95 
90 
85 
80 
75 
70 
65 
59 
54 
49 
44 
38 
33 
27 
22 
16 
11 
5 
0 
160 
154 
148 
142 
136 
130 
124 
118 
112 
105 
99 
93 
86 
80 
73 
67 
60 
53 
46 
40 
33 
26 
18 
11 
4 
0 
0 
0 
0 
0 
0 
0 
0 
0 
0 
0 
0 
0 
0 
0 
0 
0 
0 
0 
0 
0 
0 
0 
0 
0 
0 
0 
0 
0 
0 
0 
0 
0 
0 
0 
0 
0 
0 
0 
0 
0 
0 
0 
0 
0 
0 
0 
0 
0 
0 
123 
119 
114 
109 
104 
100 
95 
89 
84 
79 
74 
69 
64 
59 
53 
48 
43 
37 
32 
26 
21 
15 
10 
4 
165 
159 
153 
147 
141 
135 
129 
123 
117 
111 
104 
98 
92 
85 
79 
72 
66 
59 
52 
45 
38 
31 
24 
17 
10 
3 
0 
0 
0 
0 
0 
0 
0 
0 
0 
0 
0 
0 
0 
0 
0 
0 
0 
0 
0 
0 
0 
0 
0 
0 
0 
0 
0 
0 
0 
0 
0 
0 
0 
0 
0 
0 
0 
0 
0 
0 
0 
0 
0 
0 
0 
0 
0 
0 
0 
0 
0 
117 
113 
108 
103 
98 
93 
88 
83 
78 
73 
68 
63 
58 
52 
47 
42 
36 
31 
25 
20 
14 
8 
3 
164 
158 
152 
146 
140 
134 
128 
122 
116 
110 
103 
97 
91 
84 
78 
71 
64 
58 
51 
44 
37 
30 
23 
16 
9 
1 
0 
0 
0 
0 
0 
0 
0 
0 
0 
0 
0 
0 
0 
0 
0 
0 
0 
0 
0 
0 
0 
0 
0 
0 
0 
0 
0 
0 
0 
0 
0 
0 
0 
0 
0 
0 
0 
0 
0 
0 
0 
0 
0 
0 
0 
0 
0 
0 
0 
0 
0 
0 
110 
106 
102 
97 
92 
87 
82 
77 
72 
67 
62 
56 
51 
46 
40 
35 
29 
24 
18 
13 
7 
1 
162 
157 
151 
145 
139 
133 
127 
121 
115 
108 
102 
96 
89 
83 
76 
70 
63 
57 
50 
43 
36 
29 
22 
15 
7 
0 
0 
0 
0 
0 
0 
0 
0 
0 
0 
0 
0 
0 
0 
0 
0 
0 
0 
0 
0 
0 
0 
0 
0 
0 
0 
0 
0 
0 
0 
0 
0 
0 
0 
0 
0 
0 
0 
0 
0 
0 
0 
0 
0 
0 
0 
0 
0 
0 
0 
0 
0 
0 
0 
0 
100 
95 
91 
86 
81 
76 
71 
66 
60 
55 
50 
44 
39 
34 
28 
23 
17 
11 
6 
0 
161 
155 
149 
144 
138 
132 
126 
120 
113 
107 
101 
95 
88 
82 
75 
69 
62 
55 
48 
41 
35 
27 
20 
13 
6 
0 
0 
0 
0 
0 
0 
0 
0 
0 
0 
0 
0 
0 
0 
0 
0 
0 
0 
0 
0 
0 
0 
0 
0 
0 
0 
0 
0 
0 
0 
0 
0 
0 
0 
0 
0 
0 
0 
0 
0 
0 
0 
0 
0 
0 
0 
0 
0 
0 
0 
0 
0 
0 
0 
0 
0 
92 
89 
84 
79 
74 
69 
64 
59 
54 
48 
43 
38 
32 
27 
21 
15 
10 
4 
165 
159 
154 
148 
142 
136 
130 
124 
118 
112 
106 
100 
93 
87 
80 
74 
67 
60 
54 
47 
40 
33 
26 
19 
11 
4 
0 
0 
0 
0 
0 
0 
0 
0 
0 
0 
0 
0 
0 
0 
0 
0 
0 
0 
0 
0 
0 
0 
0 
0 
0 
0 
0 
0 
0 
0 
0 
0 
0 
0 
0 
0 
0 
0 
0 
0 
0 
0 
0 
0 
0 
0 
0 
0 
0 
0 
0 
0 
0 
0 
0 
0 
0 
0 
81 
77 
72 
67 
62 
57 
52 
47 
41 
36 
30 
25 
19 
13 
8 
2 
163 
157 
152 
146 
141 
135 
129 
123 
117 
111 
104 
98 
92 
85 
79 
72 
66 
59 
52 
45 
38 
31 
24 
17 
10 
2 
0 
0 
0 
0 
0 
0 
0 
0 
0 
0 
0 
0 
0 
0 
0 
0 
0 
0 
0 
0 
0 
0 
0 
0 
0 
0 
0 
0 
0 
0 
0 
0 
0 
0 
0 
0 
0 
0 
0 
0 
0 
0 
0 
0 
0 
0 
0 
0 
0 
0 
0 
0 
0 
0 
0 
0 
0 
0 
0 
0 
68 
64 
59 
55 
49 
44 
39 
34 
28 
22 
17 
11 
5 
0 
160 
155 
150 
144 
139 
133 
127 
121 
115 
109 
103 
96 
90 
84 
77 
71 
64 
57 
50 
43 
36 
29 
22 
15 
8 
0 
0 
0 
0 
0 
0 
0 
0 
0 
0 
0 
0 
0 
0 
0 
0 
0 
0 
0 
0 
0 
0 
0 
0 
0 
0 
0 
0 
0 
0 
0 
0 
0 
0 
0 
0 
0 
0 
0 
0 
0 
0 
0 
0 
0 
0 
0 
0 
0 
0 
0 
0 
0 
0 
0 
0 
0 
0 
0 
0 
0 
0 
0 
0 
50 
46 
41 
36 
30 
25 
19 
14 
8 
2 
0 
157 
153 
148 
142 
137 
131 
125 
119 
113 
107 
101 
95 
88 
82 
75 
69 
62 
55 
48 
41 
34 
27 
20 
13 
5 
0 
0 
0 
0 
0 
0 
0 
0 
0 
0 
0 
0 
0 
0 
0 
0 
0 
0 
0 
0 
0 
0 
0 
0 
0 
0 
0 
0 
0 
0 
0 
0 
0 
0 
0 
0 
0 
0 
0 
0 
0 
0 
0 
0 
0 
0 
0 
0 
0 
0 
0 
0 
0 
0 
0 
0 
0 
0 
0 
0 
0 
0 
0 
0 
0 
0 
0 
0 
0 
19 
14 
8 
2 
0 
154 
153 
149 
145 
140 
134 
129 
123 
117 
111 
105 
99 
92 
86 
80 
73 
67 
60 
53 
46 
39 
32 
25 
18 
10 
3 
0 
0 
0 
0 
0 
0 
0 
0 
0 
0 
0 
0 
0 
0 
0 
0 
0 
0 
0 
0 
0 
0 
0 
0 
0 
0 
0 
0 
0 
0 
0 
0 
0 
0 
0 
0 
0 
0 
0 
0 
0 
0 
0 
0 
0 
0 
0 
0 
0 
0 
0 
0 
0 
0 
0 
0 
0 
0 
0 
0 
0 
0 
0 
0 
0 
0 
0 
0 
0 
0 
0 
0 
0 
0 
0 
0 
145 
141 
136 
131 
126 
120 
114 
109 
103 
96 
90 
84 
77 
71 
64 
58 
51 
44 
37 
30 
22 
15 
8 
0 
0 
0 
0 
0 
0 
0 
0 
0 
0 
0 
0 
0 
0 
0 
0 
0 
0 
0 
0 
0 
0 
0 
0 
0 
0 
0 
0 
0 
0 
0 
0 
0 
0 
0 
0 
0 
0 
0 
0 
0 
0 
0 
0 
0 
0 
0 
0 
0 
0 
0 
0 
0 
0 
0 
0 
0 
0 
0 
0 
0 
0 
0 
0 
0 
0 
0 
0 
0 
0 
0 
0 
0 
0 
0 
0 
0 
0 
135 
132 
127 
122 
117 
112 
106 
100 
94 
88 
81 
75 
68 
62 
55 
48 
41 
34 
27 
20 
12 
5 
0 
0 
0 
0 
0 
0 
0 
0 
0 
0 
0 
0 
0 
0 
0 
0 
0 
0 
0 
0 
0 
0 
0 
0 
0 
0 
0 
0 
0 
0 
0 
0 
0 
0 
0 
0 
0 
0 
0 
0 
0 
0 
0 
0 
0 
0 
0 
0 
0 
0 
0 
0 
0 
0 
0 
0 
0 
0 
0 
0 
0 
0 
0 
0 
0 
0 
0 
0 
0 
0 
0 
0 
0 
0 
0 
0 
0 
0 
0 
123 
122 
118 
113 
108 
102 
97 
91 
84 
78 
72 
65 
59 
52 
45 
38 
31 
24 
16 
9 
1 
0 
0 
0 
0 
0 
0 
0 
0 
0 
0 
0 
0 
0 
0 
0 
0 
0 
0 
0 
0 
0 
0 
0 
0 
0 
0 
0 
0 
0 
0 
0 
0 
0 
0 
0 
0 
0 
0 
0 
0 
0 
0 
0 
0 
0 
0 
0 
0 
0 
0 
0 
0 
0 
0 
0 
0 
0 
0 
0 
0 
0 
0 
0 
0 
0 
0 
0 
0 
0 
0 
0 
0 
0 
0 
0 
0 
0 
0 
0 
0 
0 
110 
107 
103 
98 
92 
87 
81 
75 
68 
62 
55 
48 
41 
34 
27 
20 
12 
5 
0 
0 
0 
0 
0 
0 
0 
0 
0 
0 
0 
0 
0 
0 
0 
0 
0 
0 
0 
0 
0 
0 
0 
0 
0 
0 
0 
0 
0 
0 
0 
0 
0 
0 
0 
0 
0 
0 
0 
0 
0 
0 
0 
0 
0 
0 
0 
0 
0 
0 
0 
0 
0 
0 
0 
0 
0 
0 
0 
0 
0 
0 
0 
0 
0 
0 
0 
0 
0 
0 
0 
0 
0 
0 
0 
0 
0 
0 
0 
0 
0 
0 
0 
0 
94 
91 
87 
81 
76 
70 
64 
57 
51 
44 
37 
30 
23 
15 
8 
0 
0 
0 
0 
0 
0 
0 
0 
0 
0 
0 
0 
0 
0 
0 
0 
0 
0 
0 
0 
0 
0 
0 
0 
0 
0 
0 
0 
0 
0 
0 
0 
0 
0 
0 
0 
0 
0 
0 
0 
0 
0 
0 
0 
0 
0 
0 
0 
0 
0 
0 
0 
0 
0 
0 
0 
0 
0 
0 
0 
0 
0 
0 
0 
0 
0 
0 
0 
0 
0 
0 
0 
0 
0 
0 
0 
0 
0 
0 
0 
0 
0 
0 
0 
0 
0 
0 
0 
72 
68 
63 
58 
51 
45 
38 
31 
24 
17 
9 
1 
0 
0 
0 
0 
0 
0 
0 
0 
0 
0 
0 
0 
0 
0 
0 
0 
0 
0 
0 
0 
0 
0 
0 
0 
0 
0 
0 
0 
0 
0 
0 
0 
0 
0 
0 
0 
0 
0 
0 
0 
0 
0 
0 
0 
0 
0 
0 
0 
0 
0 
0 
0 
0 
0 
0 
0 
0 
0 
0 
0 
0 
0 
0 
0 
0 
0 
0 
0 
0 
0 
0 
0 
0 
0 
0 
0 
0 
0 
0 
0 
0 
0 
0 
0 
0 
0 
0 
0 
0 
0 
0 
0 
39 
35 
29 
22 
15 
7 
0 
0 
0 
0 
0 
0 
0 
0 
0 
0 
0 
0 
0 
0 
0 
0 
0 
0 
0 
0 
0 
0 
0 
0 
0 
0 
0 
0 
0 
0 
0 
0 
0 
0 
0 
0 
0 
0 
0 
0 
0 
0 
0 
0 
0 
0 
0 
0 
0 
0 
0 
0 
0 
0 
0 
0 
0 
0 
0 
0 
0 
0 
0 
0 
0 
0 
0 
0 
0 
0 
0 
0 
0 
0 
0 
0 
0 
0 
0 
0 
0 
0 
0 
0 
0 
0 
0 
0 
0 
0 
0 
0 
0 
0 
0 
0 
0 
0 
0 
0 
0 
0 
0 
0 
0 
0 
0 
0 
0 
0 
0 
0 
0 
0 
0 
0 
0 
0 
0 
0 
0 
0 
0 
0 
0 
0 
0 
0 
0 
0 
0 
0 
0 
0 
0 
0 
0 
0 
0 
0 
0 
0 
0 
0 
0 
0 
0 
0 
0 
0 
0 
0 
0 
0 
0 
0 
0 
0 
0 
0 
0 
0 
0 
0 
0 
0 
0 
0 
0 
0 
0 
0 
0 
0 
0 
0 
0 
0 
0 
0 
0 
0 
0 
0 
0 
0 
0 
0 
0 
0 
0 
0 
0 
0 
0 
0 
0 
0 
0 
0 
0 
0 
0 
0 
0 
0 
0 
0 
0 
0 
0 
0 
0 
0 
0 
0 
0 
0 
0 
0 
0 
0 
0 
0 
0 
0 
0 
0 
0 
0 
0 
0 
0 
0 
0 
0 
0 
0 
0 
0 
0 
0 
0 
0 
0 
0 
0 
0 
0 
0 
0 
0 
0 
0 
0 
0 
0 
0 
0 
0 
0 
0 
0 
0 
0 
0 
0 
0 
0 
0 
0 
0 
0 
0 
0 
0 
0 
0 
0 
0 
0 
0 
0 
0 
0 
0 
0 
0 
0 
0 
0 
0 
0 
0 
0 
0 
0 
0 
0 
0 
0 
0 
0 
0 
0 
0 
0 
0 
0 
0 
0 
0 
0 
0 
0 
0 
0 
0 
0 
0 
0 
0 
0 
0 
0 
0 
0 
0 
0 
0 
0 
0 
0 
0 
0 
0 
0 
0 
0 
0 
0 
0 
0 
0 
0 
0 
0 
0 
0 
0 
0 
0 
0 
0 
0 
0 
0 
0 
0 
0 
102 
36 
0 
0 
0 
0 
0 
0 
0 
0 
0 
0 
0 
122 
65 
0 
0 
0 
0 
0 
0 
0 
0 
0 
0 
0 
0 
91 
28 
0 
0 
0 
0 
0 
0 
0 
0 
0 
0 
0 
113 
57 
0 
0 
0 
0 
0 
0 
0 
0 
0 
0 
0 
124 
83 
19 
0 
0 
0 
0 
0 
0 
0 
0 
0 
0 
0 
0 
0 
0 
0 
0 
0 
0 
0 
0 
0 
0 
0 
0 
0 
0 
0 
0 
0 
0 
0 
0 
0 
0 
0 
0 
0 
0 
0 
0 
0 
0 
0 
170 
109 
42 
0 
0 
0 
0 
0 
0 
0 
0 
0 
0 
0 
138 
75 
7 
0 
0 
0 
0 
0 
0 
0 
0 
0 
0 
162 
106 
41 
0 
0 
0 
0 
0 
0 
0 
0 
0 
0 
176 
134 
74 
5 
0 
0 
0 
0 
0 
0 
0 
0 
0 
0 
156 
104 
40 
0 
0 
0 
0 
0 
0 
0 
0 
0 
0 
0 
0 
0 
0 
0 
0 
0 
0 
0 
0 
0 
0 
0 
0 
0 
0 
0 
0 
0 
0 
0 
0 
0 
0 
0 
0 
0 
0 
0 
0 
0 
13 
0 
174 
112 
44 
0 
0 
0 
0 
0 
0 
0 
0 
0 
0 
191 
143 
79 
10 
0 
0 
0 
0 
0 
0 
0 
0 
0 
0 
169 
112 
0 
0 
0 
0 
0 
0 
0 
0 
0 
0 
0 
187 
141 
80 
12 
0 
0 
0 
0 
0 
0 
0 
0 
0 
185 
165 
112 
48 
0 
0 
0 
0 
0 
0 
0 
0 
0 
0 
0 
0 
0 
0 
0 
0 
0 
0 
0 
0 
0 
0 
0 
0 
0 
0 
0 
0 
0 
0 
0 
0 
0 
0 
0 
0 
0 
0 
0 
137 
84 
26 
0 
0 
111 
44 
0 
0 
0 
0 
0 
0 
0 
0 
0 
112 
58 
0 
0 
9 
0 
0 
0 
0 
0 
0 
0 
0 
0 
0 
133 
87 
31 
0 
0 
0 
0 
0 
0 
0 
0 
0 
0 
179 
138 
78 
112 
62 
3 
0 
0 
0 
0 
0 
0 
0 
0 
160 
109 
46 
0 
131 
90 
36 
0 
0 
0 
0 
0 
0 
0 
0 
0 
0 
0 
0 
0 
0 
0 
0 
0 
0 
0 
0 
0 
0 
0 
0 
0 
0 
0 
0 
0 
0 
0 
0 
0 
0 
0 
145 
89 
30 
0 
0 
0 
39 
0 
0 
0 
0 
0 
0 
0 
0 
170 
121 
65 
5 
0 
0 
0 
0 
0 
0 
0 
0 
0 
0 
0 
0 
149 
98 
41 
0 
0 
0 
0 
0 
0 
0 
0 
0 
0 
0 
121 
170 
128 
76 
17 
0 
0 
0 
0 
0 
0 
0 
0 
131 
93 
30 
177 
152 
107 
53 
0 
0 
0 
0 
0 
0 
0 
0 
0 
0 
0 
0 
0 
0 
0 
0 
0 
0 
0 
0 
0 
0 
0 
0 
0 
0 
0 
0 
0 
0 
0 
0 
0 
0 
0 
147 
90 
31 
0 
0 
0 
0 
0 
0 
0 
0 
0 
0 
0 
0 
175 
124 
68 
8 
0 
0 
0 
0 
0 
0 
0 
0 
0 
0 
0 
191 
154 
103 
46 
0 
0 
0 
0 
0 
0 
0 
0 
0 
0 
0 
0 
177 
134 
82 
23 
0 
0 
0 
0 
0 
0 
0 
0 
0 
0 
0 
190 
160 
114 
60 
0 
0 
0 
0 
0 
0 
0 
0 
0 
0 
0 
0 
0 
0 
0 
0 
0 
0 
0 
0 
0 
0 
0 
0 
0 
0 
0 
0 
0 
0 
0 
36 
0 
0 
0 
147 
90 
31 
0 
0 
0 
0 
0 
0 
0 
0 
0 
0 
0 
50 
1 
0 
68 
8 
0 
0 
0 
0 
0 
0 
0 
0 
0 
0 
0 
0 
153 
62 
16 
0 
0 
0 
0 
0 
0 
0 
0 
0 
0 
0 
0 
175 
133 
81 
23 
72 
30 
0 
0 
0 
0 
0 
0 
0 
0 
0 
184 
158 
113 
60 
0 
0 
0 
78 
43 
0 
0 
0 
0 
0 
0 
0 
0 
0 
0 
0 
0 
0 
0 
0 
0 
0 
0 
0 
0 
0 
0 
0 
0 
138 
90 
41 
0 
0 
0 
143 
88 
29 
0 
0 
0 
0 
0 
0 
0 
0 
0 
146 
108 
61 
11 
0 
0 
4 
0 
0 
0 
0 
0 
0 
0 
0 
0 
0 
0 
0 
124 
81 
33 
0 
0 
0 
0 
0 
0 
0 
0 
0 
0 
0 
0 
151 
124 
73 
135 
98 
53 
2 
0 
0 
0 
0 
0 
0 
0 
0 
0 
144 
103 
50 
0 
0 
142 
113 
72 
24 
0 
0 
0 
0 
0 
0 
0 
0 
0 
0 
0 
0 
0 
0 
0 
0 
0 
0 
0 
0 
0 
0 
0 
141 
93 
43 
0 
0 
0 
0 
0 
22 
0 
0 
0 
0 
0 
0 
0 
0 
0 
159 
115 
67 
17 
0 
0 
0 
0 
0 
0 
0 
0 
0 
0 
0 
0 
0 
0 
171 
134 
89 
41 
0 
0 
0 
0 
0 
0 
0 
0 
0 
0 
0 
0 
0 
0 
177 
150 
110 
65 
14 
0 
0 
0 
0 
0 
0 
0 
0 
0 
0 
67 
20 
0 
175 
162 
128 
86 
39 
0 
0 
0 
0 
0 
0 
0 
0 
0 
0 
0 
0 
0 
0 
0 
0 
0 
0 
0 
0 
0 
0 
189 
143 
94 
44 
0 
0 
0 
0 
0 
0 
0 
0 
0 
0 
0 
0 
0 
0 
0 
162 
118 
70 
19 
0 
0 
0 
0 
0 
0 
0 
0 
0 
0 
0 
0 
0 
0 
177 
139 
94 
45 
0 
0 
0 
0 
0 
0 
0 
0 
0 
0 
0 
0 
0 
0 
187 
156 
116 
70 
20 
0 
0 
0 
0 
0 
0 
0 
0 
0 
0 
0 
0 
0 
190 
170 
135 
94 
46 
0 
0 
0 
0 
0 
0 
0 
0 
0 
0 
0 
0 
0 
0 
0 
0 
0 
0 
0 
0 
0 
0 
188 
143 
94 
45 
0 
0 
0 
0 
0 
0 
0 
0 
0 
0 
0 
0 
0 
0 
0 
163 
118 
70 
20 
0 
0 
0 
0 
0 
0 
0 
0 
0 
0 
0 
0 
0 
0 
178 
139 
95 
46 
0 
0 
0 
0 
0 
0 
0 
0 
0 
0 
0 
0 
0 
0 
186 
157 
117 
72 
22 
0 
0 
0 
0 
0 
0 
0 
0 
0 
0 
0 
0 
0 
188 
171 
136 
95 
48 
0 
0 
0 
0 
0 
0 
0 
0 
0 
0 
0 
0 
0 
0 
0 
0 
0 
24 
0 
0 
0 
0 
0 
142 
93 
44 
0 
0 
0 
0 
0 
0 
0 
0 
0 
0 
0 
0 
0 
34 
0 
0 
116 
69 
18 
0 
0 
0 
0 
0 
0 
0 
0 
0 
0 
0 
0 
0 
0 
170 
136 
42 
6 
0 
0 
0 
0 
0 
0 
0 
0 
0 
0 
0 
0 
0 
0 
168 
151 
113 
68 
18 
0 
43 
17 
0 
0 
0 
0 
0 
0 
0 
0 
0 
0 
0 
163 
131 
90 
43 
0 
0 
0 
0 
0 
0 
27 
0 
0 
0 
0 
0 
0 
0 
0 
108 
67 
26 
0 
0 
0 
0 
0 
0 
91 
42 
0 
0 
0 
0 
0 
0 
0 
0 
0 
0 
0 
120 
85 
46 
5 
0 
0 
63 
13 
0 
0 
0 
0 
0 
0 
0 
0 
0 
0 
0 
0 
0 
0 
0 
101 
65 
26 
0 
0 
0 
0 
0 
0 
0 
0 
0 
0 
0 
0 
0 
0 
0 
132 
101 
57 
7 
112 
82 
46 
4 
0 
0 
0 
0 
0 
0 
0 
0 
0 
0 
130 
115 
77 
30 
0 
0 
0 
0 
119 
96 
64 
26 
0 
0 
0 
0 
0 
0 
149 
109 
68 
27 
0 
0 
0 
0 
0 
0 
0 
0 
0 
0 
0 
0 
0 
0 
0 
0 
0 
0 
159 
129 
91 
52 
10 
0 
0 
0 
0 
0 
0 
0 
0 
0 
0 
0 
0 
0 
0 
0 
0 
0 
0 
145 
112 
75 
36 
0 
0 
0 
0 
0 
0 
0 
0 
0 
0 
0 
0 
0 
0 
0 
0 
0 
0 
155 
129 
97 
60 
19 
0 
0 
0 
0 
0 
0 
0 
0 
0 
0 
0 
0 
0 
0 
0 
0 
0 
159 
142 
115 
82 
44 
2 
0 
0 
0 
0 
0 
150 
109 
68 
27 
0 
0 
0 
0 
0 
0 
0 
0 
0 
0 
0 
0 
0 
0 
0 
0 
0 
0 
169 
133 
95 
55 
14 
0 
0 
0 
0 
0 
0 
0 
0 
0 
0 
0 
0 
0 
0 
0 
0 
0 
179 
153 
119 
81 
42 
0 
0 
0 
0 
0 
0 
0 
0 
0 
0 
0 
0 
0 
0 
0 
0 
0 
178 
167 
139 
105 
68 
28 
0 
0 
0 
0 
0 
0 
0 
0 
0 
0 
0 
0 
0 
0 
0 
0 
0 
176 
155 
126 
93 
56 
14 
0 
0 
0 
0 
0 
150 
109 
69 
28 
0 
0 
0 
0 
0 
0 
0 
0 
0 
0 
0 
0 
0 
0 
0 
0 
0 
0 
171 
135 
97 
57 
16 
0 
0 
0 
0 
0 
0 
0 
0 
0 
0 
0 
0 
0 
0 
0 
0 
0 
185 
157 
122 
85 
45 
3 
0 
0 
0 
0 
0 
0 
0 
0 
0 
0 
0 
0 
0 
0 
0 
0 
190 
173 
144 
110 
73 
33 
0 
0 
0 
0 
0 
0 
0 
0 
0 
0 
0 
0 
0 
0 
0 
0 
184 
183 
161 
132 
99 
62 
21 
0 
0 
0 
0 
0 
150 
109 
69 
28 
0 
0 
0 
0 
0 
0 
0 
0 
0 
0 
0 
0 
0 
0 
0 
0 
0 
0 
172 
136 
97 
57 
16 
0 
0 
0 
0 
0 
0 
0 
0 
0 
0 
0 
0 
0 
0 
0 
0 
0 
186 
158 
123 
86 
46 
4 
0 
0 
0 
0 
0 
0 
0 
0 
0 
0 
0 
0 
0 
0 
0 
0 
190 
174 
146 
112 
75 
35 
0 
0 
0 
0 
0 
0 
0 
0 
0 
0 
0 
0 
0 
0 
0 
0 
178 
184 
163 
135 
101 
64 
23 
0 
0 
0 
0 
0 
150 
109 
69 
28 
0 
0 
0 
0 
0 
0 
0 
0 
0 
0 
0 
0 
0 
0 
0 
0 
0 
0 
170 
135 
97 
57 
16 
0 
0 
0 
0 
0 
0 
0 
0 
0 
0 
0 
0 
0 
0 
0 
0 
0 
180 
156 
122 
85 
45 
3 
0 
0 
0 
0 
0 
0 
0 
0 
0 
0 
0 
0 
0 
0 
0 
0 
0 
171 
143 
111 
74 
34 
0 
0 
0 
0 
0 
0 
0 
0 
0 
0 
0 
0 
0 
0 
0 
0 
0 
179 
160 
132 
100 
63 
21 
0 
0 
0 
0 
0 
149 
109 
68 
27 
0 
0 
0 
0 
0 
0 
0 
0 
0 
0 
0 
0 
0 
0 
0 
0 
0 
0 
0 
132 
95 
55 
14 
0 
0 
0 
0 
0 
0 
0 
0 
0 
0 
0 
0 
0 
0 
0 
0 
0 
0 
149 
118 
81 
42 
0 
0 
0 
0 
0 
0 
0 
0 
0 
0 
0 
0 
0 
0 
0 
0 
0 
0 
158 
136 
105 
68 
28 
0 
0 
0 
0 
0 
0 
0 
0 
0 
0 
0 
0 
0 
0 
0 
0 
0 
156 
149 
124 
92 
56 
14 
0 
0 
0 
0 
0 
0 
108 
68 
27 
0 
0 
0 
0 
0 
0 
0 
0 
0 
0 
0 
0 
0 
0 
0 
0 
0 
0 
0 
0 
89 
50 
9 
0 
0 
0 
0 
0 
0 
0 
0 
0 
0 
0 
0 
0 
0 
0 
0 
0 
0 
0 
107 
73 
34 
0 
0 
0 
0 
0 
0 
0 
0 
0 
0 
0 
0 
0 
0 
0 
0 
0 
0 
0 
117 
92 
57 
16 
0 
0 
0 
0 
0 
0 
0 
0 
0 
0 
0 
0 
0 
0 
0 
0 
0 
0 
116 
106 
77 
40 
0 
0 
0 
0 
0 
0 
0 
0 
0 
0 
0 
0 
0 
0 
0 
0 
0 
0 
0 
0 
0 
0 
0 
83 
53 
21 
0 
0 
0 
0 
0 
0 
0 
0 
0 
0 
0 
0 
0 
0 
0 
0 
0 
0 
0 
0 
0 
0 
0 
0 
0 
98 
77 
49 
18 
0 
0 
0 
0 
0 
0 
0 
0 
0 
0 
0 
0 
0 
0 
0 
0 
0 
0 
0 
0 
0 
0 
0 
0 
0 
93 
72 
45 
14 
0 
0 
0 
0 
0 
0 
0 
0 
0 
0 
0 
0 
0 
0 
0 
0 
0 
0 
0 
0 
0 
0 
0 
0 
0 
0 
0 
0 
0 
0 
0 
0 
0 
0 
0 
0 
0 
0 
118 
88 
57 
26 
0 
0 
0 
0 
0 
0 
0 
0 
0 
0 
0 
0 
0 
0 
0 
0 
0 
0 
0 
0 
0 
0 
0 
0 
136 
115 
88 
59 
28 
0 
0 
0 
0 
0 
0 
0 
0 
0 
0 
0 
0 
0 
0 
0 
0 
0 
0 
0 
0 
0 
0 
0 
0 
132 
113 
89 
61 
31 
0 
0 
0 
0 
0 
0 
0 
0 
0 
0 
0 
0 
0 
0 
0 
0 
0 
0 
0 
0 
0 
0 
0 
0 
0 
0 
0 
0 
0 
0 
0 
0 
0 
0 
0 
0 
0 
150 
121 
91 
60 
29 
0 
0 
0 
0 
0 
0 
0 
0 
0 
0 
0 
0 
0 
0 
0 
0 
0 
0 
0 
0 
0 
0 
0 
0 
148 
123 
96 
66 
35 
3 
0 
0 
0 
0 
0 
0 
0 
0 
0 
0 
0 
0 
0 
0 
0 
0 
0 
0 
0 
0 
0 
0 
161 
146 
125 
100 
72 
42 
9 
0 
0 
0 
0 
0 
0 
0 
0 
0 
0 
0 
0 
0 
0 
0 
0 
0 
0 
0 
0 
0 
0 
0 
0 
0 
0 
0 
0 
0 
0 
0 
0 
0 
0 
0 
178 
153 
124 
93 
62 
31 
0 
0 
0 
0 
0 
0 
0 
0 
0 
0 
0 
0 
0 
0 
0 
0 
0 
0 
0 
0 
0 
0 
0 
175 
154 
129 
101 
71 
40 
8 
0 
0 
0 
0 
0 
0 
0 
0 
0 
0 
0 
0 
0 
0 
0 
0 
0 
0 
0 
0 
0 
0 
173 
155 
133 
107 
79 
49 
17 
0 
0 
0 
0 
0 
0 
0 
0 
0 
0 
0 
0 
0 
0 
0 
0 
0 
0 
0 
0 
0 
0 
0 
0 
0 
0 
0 
0 
0 
0 
0 
0 
0 
0 
0 
182 
155 
125 
95 
64 
32 
0 
0 
0 
0 
0 
0 
0 
0 
0 
0 
0 
0 
0 
0 
0 
0 
0 
0 
0 
0 
0 
0 
0 
181 
158 
132 
104 
74 
44 
11 
0 
0 
0 
0 
0 
0 
0 
0 
0 
0 
0 
0 
0 
0 
0 
0 
0 
0 
0 
0 
0 
186 
180 
161 
138 
112 
85 
55 
23 
0 
0 
0 
0 
0 
0 
0 
0 
0 
0 
0 
0 
0 
0 
0 
0 
0 
0 
0 
0 
0 
0 
0 
0 
0 
0 
0 
0 
0 
0 
0 
0 
0 
0 
0 
184 
156 
126 
95 
65 
33 
1 
0 
0 
0 
0 
0 
0 
0 
0 
0 
0 
0 
0 
0 
0 
0 
0 
0 
0 
0 
0 
0 
0 
183 
160 
134 
106 
76 
46 
13 
0 
0 
0 
0 
0 
0 
0 
0 
0 
0 
0 
0 
0 
0 
0 
0 
0 
0 
0 
0 
0 
190 
183 
164 
141 
115 
88 
58 
26 
0 
0 
0 
0 
0 
0 
0 
0 
0 
0 
0 
0 
0 
0 
0 
0 
0 
0 
0 
0 
0 
0 
0 
0 
0 
0 
0 
0 
0 
0 
0 
0 
0 
0 
0 
184 
156 
126 
96 
65 
33 
1 
0 
0 
0 
0 
0 
0 
0 
0 
0 
0 
0 
0 
0 
0 
0 
0 
0 
0 
0 
0 
0 
0 
183 
161 
135 
107 
77 
46 
14 
0 
0 
0 
0 
0 
0 
0 
0 
0 
0 
0 
0 
0 
0 
0 
0 
0 
0 
0 
0 
0 
184 
183 
165 
142 
117 
89 
59 
27 
0 
0 
0 
0 
0 
0 
0 
0 
0 
0 
0 
0 
0 
0 
0 
0 
0 
0 
0 
0 
0 
0 
0 
0 
0 
0 
0 
0 
0 
0 
0 
0 
0 
0 
0 
181 
155 
126 
96 
65 
33 
1 
0 
0 
0 
0 
0 
0 
0 
0 
0 
0 
0 
0 
0 
0 
0 
0 
0 
0 
0 
0 
0 
0 
180 
159 
134 
106 
77 
46 
14 
0 
0 
0 
0 
0 
0 
0 
0 
0 
0 
0 
0 
0 
0 
0 
0 
0 
0 
0 
0 
0 
0 
179 
163 
141 
115 
88 
58 
27 
0 
0 
0 
0 
0 
0 
0 
0 
0 
0 
0 
0 
0 
0 
0 
0 
0 
0 
0 
0 
0 
0 
0 
0 
0 
0 
0 
0 
0 
0 
0 
0 
0 
0 
0 
0 
154 
125 
95 
64 
32 
0 
0 
0 
0 
0 
0 
0 
0 
0 
0 
0 
0 
0 
0 
0 
0 
0 
0 
0 
0 
0 
0 
0 
0 
155 
131 
104 
75 
44 
11 
0 
0 
0 
0 
0 
0 
0 
0 
0 
0 
0 
0 
0 
0 
0 
0 
0 
0 
0 
0 
0 
0 
166 
157 
136 
112 
85 
55 
23 
0 
0 
0 
0 
0 
0 
0 
0 
0 
0 
0 
0 
0 
0 
0 
0 
0 
0 
0 
0 
0 
0 
0 
0 
0 
0 
0 
0 
0 
0 
0 
0 
0 
0 
0 
0 
0 
122 
93 
62 
30 
0 
0 
0 
0 
0 
0 
0 
0 
0 
0 
0 
0 
0 
0 
0 
0 
0 
0 
0 
0 
0 
0 
0 
0 
143 
125 
99 
70 
39 
7 
0 
0 
0 
0 
0 
0 
0 
0 
0 
0 
0 
0 
0 
0 
0 
0 
0 
0 
0 
0 
0 
0 
0 
142 
127 
104 
78 
48 
16 
0 
0 
0 
0 
0 
0 
0 
0 
0 
0 
0 
0 
0 
0 
0 
0 
0 
0 
0 
0 
0 
0 
0 
0 
0 
0 
0 
0 
0 
0 
0 
0 
0 
0 
0 
0 
0 
0 
88 
58 
27 
0 
0 
0 
0 
0 
0 
0 
0 
0 
0 
0 
0 
0 
0 
0 
0 
0 
0 
0 
0 
0 
0 
0 
0 
0 
0 
89 
62 
31 
0 
0 
0 
0 
0 
0 
0 
0 
0 
0 
0 
0 
0 
0 
0 
0 
0 
0 
0 
0 
0 
0 
0 
0 
0 
101 
89 
65 
36 
2 
0 
0 
0 
0 
0 
0 
0 
0 
0 
0 
0 
0 
0 
0 
0 
0 
0 
0 
0 
0 
0 
0 
0 
0 
0 
0 
0 
0 
0 
0 
0 
0 
0 
0 
0 
0 
0 
0 
0 
0 
0 
0 
0 
0 
0 
0 
0 
0 
0 
0 
0 
0 
0 
0 
0 
0 
0 
0 
0 
0 
0 
0 
0 
0 
0 
0 
0 
0 
0 
0 
0 
0 
0 
0 
0 
0 
0 
0 
0 
0 
0 
0 
0 
0 
0 
0 
0 
0 
0 
0 
0 
0 
0 
0 
0 
0 
0 
0 
0 
0 
0 
0 
0 
0 
0 
0 
0 
0 
0 
0 
0 
0 
0 
0 
0 
0 
0 
0 
0 