P2 100 100 255
0 
0 
0 
0 
0 
0 
0 
0 
0 
0 
0 
0 
0 
0 
0 
0 
0 
0 
0 
0 
0 
0 
0 
0 
0 
0 
0 
0 
0 
0 
0 
79 
100 
115 
126 
136 
144 
151 
157 
163 
168 
172 
176 
180 
183 
186 
189 
192 
194 
196 
197 
199 
200 
201 
202 
203 
203 
204 
204 
204 
204 
203 
203 
202 
201 
200 
198 
197 
195 
193 
191 
188 
186 
182 
179 
175 
171 
167 
161 
156 
150 
142 
134 
125 
114 
99 
79 
0 
0 
0 
0 
0 
0 
0 
0 
0 
0 
0 
0 
0 
0 
0 
0 
0 
0 
0 
0 
0 
0 
0 
0 
0 
0 
0 
0 
0 
0 
0 
0 
0 
0 
0 
0 
0 
0 
0 
0 
0 
0 
0 
0 
83 
103 
116 
127 
137 
144 
151 
157 
163 
168 
172 
176 
180 
183 
186 
189 
192 
194 
196 
197 
199 
200 
201 
202 
203 
203 
204 
204 
204 
204 
203 
203 
202 
201 
200 
198 
197 
195 
193 
191 
188 
186 
182 
179 
175 
171 
167 
162 
156 
150 
143 
135 
126 
115 
101 
82 
0 
0 
0 
0 
0 
0 
0 
0 
0 
0 
0 
0 
0 
0 
0 
0 
0 
0 
0 
0 
0 
0 
0 
0 
0 
0 
0 
0 
0 
0 
0 
0 
0 
0 
0 
0 
0 
0 
0 
0 
0 
0 
0 
46 
86 
104 
117 
128 
137 
145 
152 
158 
163 
168 
172 
176 
180 
183 
186 
189 
191 
193 
195 
197 
199 
200 
201 
202 
203 
203 
203 
204 
204 
203 
203 
202 
202 
201 
200 
198 
197 
195 
193 
191 
188 
185 
182 
179 
175 
171 
167 
162 
156 
150 
143 
136 
127 
116 
103 
85 
50 
0 
0 
0 
0 
0 
0 
0 
0 
0 
0 
0 
0 
0 
0 
0 
0 
0 
0 
0 
0 
0 
0 
0 
0 
0 
0 
0 
0 
0 
0 
0 
0 
0 
0 
0 
0 
0 
0 
0 
0 
0 
0 
55 
87 
105 
118 
128 
137 
145 
151 
157 
163 
168 
172 
176 
180 
183 
186 
189 
191 
193 
195 
197 
198 
200 
201 
201 
202 
203 
203 
203 
203 
203 
203 
202 
201 
200 
199 
198 
196 
194 
192 
190 
188 
185 
182 
179 
175 
171 
167 
162 
156 
150 
143 
136 
127 
116 
103 
86 
56 
0 
0 
0 
0 
0 
0 
0 
0 
0 
0 
0 
0 
0 
0 
0 
0 
0 
0 
0 
0 
0 
0 
0 
0 
0 
0 
0 
0 
0 
0 
0 
0 
0 
0 
0 
0 
0 
0 
0 
0 
0 
0 
59 
88 
105 
117 
128 
137 
144 
151 
157 
162 
167 
171 
175 
179 
182 
185 
188 
190 
192 
194 
196 
198 
199 
200 
201 
202 
202 
202 
203 
203 
202 
202 
201 
201 
200 
198 
197 
196 
194 
192 
190 
187 
184 
181 
178 
174 
170 
166 
161 
156 
150 
143 
135 
127 
116 
104 
87 
59 
0 
0 
0 
0 
0 
0 
0 
0 
0 
0 
0 
0 
0 
0 
0 
0 
0 
0 
0 
0 
0 
0 
0 
0 
0 
0 
0 
0 
0 
0 
0 
0 
0 
0 
0 
0 
0 
0 
0 
0 
0 
0 
76 
89 
98 
105 
127 
136 
144 
150 
156 
162 
166 
171 
175 
178 
182 
184 
187 
190 
192 
194 
195 
197 
198 
199 
200 
201 
201 
202 
202 
202 
202 
201 
201 
200 
199 
198 
196 
195 
193 
191 
189 
186 
184 
181 
177 
174 
170 
165 
160 
155 
149 
142 
135 
126 
116 
103 
87 
61 
0 
0 
0 
0 
0 
0 
0 
0 
0 
0 
0 
0 
0 
0 
0 
0 
0 
0 
0 
0 
0 
0 
0 
0 
0 
0 
0 
0 
0 
0 
0 
0 
0 
0 
0 
0 
0 
0 
0 
0 
51 
81 
93 
102 
109 
115 
119 
123 
127 
149 
155 
161 
165 
170 
174 
177 
181 
183 
186 
189 
191 
193 
194 
196 
197 
198 
199 
200 
200 
201 
201 
201 
201 
200 
200 
199 
198 
197 
195 
194 
192 
190 
188 
185 
183 
180 
176 
173 
169 
164 
159 
154 
148 
141 
134 
125 
115 
102 
86 
60 
0 
0 
0 
0 
0 
0 
0 
0 
0 
0 
0 
0 
0 
0 
0 
0 
0 
0 
0 
0 
0 
0 
0 
0 
0 
0 
0 
0 
0 
0 
0 
0 
0 
0 
0 
0 
0 
0 
0 
59 
83 
95 
104 
111 
117 
122 
126 
130 
133 
136 
138 
140 
164 
169 
172 
176 
179 
182 
185 
187 
190 
191 
193 
195 
196 
197 
198 
199 
199 
199 
200 
200 
199 
199 
198 
198 
197 
196 
194 
193 
191 
189 
187 
184 
182 
179 
175 
172 
168 
163 
158 
153 
147 
140 
132 
124 
113 
101 
85 
59 
0 
0 
0 
0 
0 
0 
0 
0 
0 
0 
0 
0 
0 
0 
0 
0 
0 
0 
0 
0 
0 
0 
0 
0 
0 
0 
0 
0 
0 
0 
0 
0 
0 
0 
0 
0 
0 
0 
59 
84 
96 
106 
113 
119 
124 
128 
132 
136 
138 
141 
143 
145 
146 
147 
171 
175 
178 
181 
184 
186 
188 
190 
192 
193 
195 
196 
197 
197 
198 
198 
198 
198 
198 
198 
197 
196 
195 
194 
193 
191 
190 
188 
185 
183 
180 
177 
174 
170 
166 
162 
157 
151 
145 
138 
131 
122 
112 
99 
82 
56 
0 
0 
0 
0 
0 
0 
0 
0 
0 
0 
0 
0 
0 
0 
0 
0 
0 
0 
0 
0 
0 
0 
0 
0 
0 
0 
0 
0 
0 
0 
0 
0 
0 
0 
0 
0 
0 
52 
83 
96 
106 
114 
120 
125 
130 
134 
137 
140 
143 
145 
147 
149 
150 
152 
152 
153 
176 
179 
182 
184 
187 
189 
190 
192 
193 
194 
195 
196 
196 
197 
197 
197 
197 
196 
196 
195 
194 
193 
191 
190 
188 
186 
184 
181 
179 
175 
172 
168 
164 
160 
155 
150 
143 
137 
129 
120 
109 
97 
80 
51 
0 
0 
0 
0 
0 
0 
0 
0 
0 
0 
0 
0 
0 
0 
0 
0 
0 
0 
0 
0 
0 
0 
0 
0 
0 
0 
0 
0 
0 
0 
0 
0 
0 
0 
0 
0 
0 
80 
95 
105 
113 
120 
126 
131 
135 
139 
142 
145 
147 
149 
151 
153 
154 
155 
156 
157 
157 
157 
180 
183 
185 
187 
189 
190 
191 
192 
193 
194 
195 
195 
195 
195 
195 
195 
194 
193 
192 
191 
190 
188 
186 
184 
182 
180 
177 
174 
170 
167 
162 
158 
153 
147 
141 
134 
127 
117 
107 
94 
76 
44 
0 
0 
0 
0 
0 
0 
0 
0 
0 
0 
0 
0 
0 
0 
0 
0 
0 
0 
0 
0 
0 
0 
0 
0 
0 
0 
0 
0 
0 
0 
0 
0 
0 
0 
0 
0 
75 
92 
104 
112 
120 
126 
131 
135 
139 
143 
146 
148 
151 
153 
155 
156 
157 
158 
159 
160 
160 
160 
160 
160 
183 
185 
187 
188 
189 
191 
192 
192 
193 
193 
193 
193 
193 
193 
192 
191 
190 
189 
188 
186 
184 
182 
180 
178 
175 
172 
168 
164 
160 
156 
151 
145 
139 
132 
124 
115 
104 
90 
71 
31 
0 
0 
0 
0 
0 
0 
0 
0 
0 
0 
0 
0 
0 
0 
0 
0 
0 
0 
0 
0 
0 
0 
0 
0 
0 
0 
0 
0 
0 
0 
0 
0 
0 
0 
0 
66 
88 
101 
111 
118 
125 
130 
135 
139 
143 
146 
149 
152 
154 
156 
158 
159 
160 
161 
162 
163 
163 
163 
163 
163 
162 
162 
185 
186 
187 
189 
189 
190 
191 
191 
191 
191 
191 
191 
190 
189 
188 
187 
186 
184 
182 
180 
178 
175 
172 
169 
166 
162 
158 
153 
148 
142 
136 
129 
121 
111 
100 
86 
66 
0 
0 
0 
0 
0 
0 
0 
0 
0 
0 
0 
0 
0 
0 
0 
0 
0 
0 
0 
0 
0 
0 
0 
0 
0 
0 
0 
0 
0 
0 
0 
0 
0 
0 
0 
0 
82 
97 
108 
116 
123 
129 
134 
139 
143 
146 
150 
152 
155 
157 
159 
160 
162 
163 
164 
165 
165 
165 
166 
166 
165 
165 
164 
163 
162 
185 
186 
187 
188 
188 
189 
189 
189 
189 
188 
188 
187 
186 
185 
183 
182 
180 
178 
175 
173 
170 
167 
163 
159 
155 
151 
145 
139 
151 
146 
140 
133 
124 
112 
97 
65 
0 
0 
0 
0 
0 
0 
0 
0 
0 
0 
0 
0 
0 
0 
0 
0 
0 
0 
0 
0 
0 
0 
0 
0 
0 
0 
0 
0 
0 
0 
0 
0 
0 
0 
72 
91 
104 
113 
121 
127 
133 
138 
142 
146 
149 
152 
155 
157 
159 
161 
163 
164 
165 
166 
167 
167 
168 
168 
168 
167 
167 
166 
166 
165 
163 
162 
185 
185 
186 
186 
187 
187 
186 
186 
185 
184 
183 
182 
181 
179 
177 
175 
173 
170 
167 
164 
161 
157 
173 
171 
168 
164 
160 
156 
150 
144 
137 
128 
116 
101 
74 
0 
0 
0 
0 
0 
0 
0 
0 
0 
0 
0 
0 
0 
0 
0 
0 
0 
0 
0 
0 
0 
0 
0 
0 
0 
0 
0 
0 
0 
0 
0 
0 
50 
84 
99 
109 
118 
125 
131 
136 
141 
145 
149 
152 
155 
157 
160 
162 
163 
165 
166 
167 
168 
169 
169 
170 
170 
170 
169 
169 
168 
168 
167 
165 
164 
163 
161 
183 
184 
184 
184 
184 
183 
183 
182 
181 
180 
178 
176 
175 
172 
170 
167 
186 
185 
184 
182 
180 
178 
175 
172 
168 
164 
159 
153 
147 
139 
130 
118 
103 
76 
0 
0 
0 
0 
0 
0 
0 
0 
0 
0 
0 
0 
0 
0 
0 
0 
0 
0 
0 
0 
0 
0 
0 
0 
0 
0 
0 
0 
0 
0 
0 
72 
92 
104 
114 
122 
128 
134 
139 
144 
148 
151 
154 
157 
160 
162 
164 
165 
167 
168 
169 
170 
171 
171 
171 
172 
171 
171 
171 
170 
169 
168 
167 
166 
164 
163 
161 
158 
181 
181 
181 
180 
180 
179 
178 
177 
175 
173 
172 
192 
192 
192 
191 
190 
189 
188 
186 
184 
181 
178 
175 
171 
167 
161 
156 
149 
141 
131 
119 
103 
74 
0 
0 
0 
0 
0 
0 
0 
0 
0 
0 
0 
0 
0 
0 
0 
0 
0 
0 
0 
0 
0 
0 
0 
0 
0 
0 
0 
0 
0 
0 
82 
97 
109 
118 
125 
131 
137 
142 
146 
150 
153 
156 
159 
161 
164 
165 
167 
169 
170 
171 
172 
172 
173 
173 
173 
173 
173 
172 
172 
171 
170 
169 
168 
166 
164 
162 
160 
158 
178 
178 
177 
177 
176 
175 
173 
195 
196 
197 
197 
197 
197 
196 
195 
194 
193 
191 
189 
187 
184 
181 
177 
173 
168 
163 
157 
149 
141 
131 
118 
101 
66 
0 
0 
0 
0 
0 
0 
0 
0 
0 
0 
0 
0 
0 
0 
0 
0 
0 
0 
0 
0 
0 
0 
0 
0 
0 
0 
0 
0 
65 
89 
102 
112 
121 
128 
134 
139 
144 
148 
152 
155 
158 
161 
163 
165 
167 
169 
170 
171 
172 
173 
174 
174 
174 
174 
174 
174 
174 
173 
172 
171 
170 
169 
167 
166 
164 
162 
159 
157 
154 
174 
173 
195 
197 
198 
199 
200 
201 
201 
201 
201 
201 
200 
199 
198 
196 
194 
192 
189 
186 
183 
179 
174 
169 
164 
157 
149 
140 
130 
116 
96 
0 
0 
0 
0 
0 
0 
0 
0 
0 
0 
0 
0 
0 
0 
0 
0 
0 
0 
0 
0 
0 
0 
0 
0 
0 
0 
0 
0 
75 
94 
106 
116 
123 
130 
136 
141 
146 
150 
153 
156 
159 
162 
164 
166 
168 
170 
171 
172 
173 
174 
175 
175 
175 
175 
175 
175 
175 
174 
173 
172 
171 
170 
169 
167 
165 
163 
161 
158 
155 
152 
197 
199 
201 
202 
203 
204 
205 
205 
205 
205 
205 
204 
203 
202 
200 
198 
196 
194 
191 
188 
184 
180 
175 
170 
163 
156 
148 
139 
127 
112 
89 
0 
0 
0 
0 
0 
0 
0 
0 
0 
0 
0 
0 
0 
0 
0 
0 
0 
0 
0 
0 
0 
0 
0 
0 
0 
0 
0 
82 
98 
109 
118 
126 
132 
138 
143 
147 
151 
155 
158 
161 
163 
165 
167 
169 
171 
172 
173 
174 
175 
176 
176 
176 
176 
176 
176 
176 
175 
174 
173 
172 
171 
170 
168 
166 
164 
162 
159 
157 
199 
201 
203 
205 
206 
207 
208 
209 
209 
209 
209 
208 
208 
207 
206 
204 
202 
200 
198 
195 
192 
188 
184 
180 
175 
169 
162 
155 
146 
136 
123 
106 
75 
0 
0 
0 
0 
0 
0 
0 
0 
0 
0 
0 
0 
0 
0 
0 
0 
0 
0 
0 
0 
0 
0 
0 
0 
0 
61 
86 
101 
111 
120 
127 
134 
139 
144 
148 
152 
156 
159 
162 
164 
166 
168 
170 
172 
173 
174 
175 
176 
176 
177 
177 
177 
177 
177 
176 
176 
175 
174 
173 
172 
170 
169 
167 
165 
163 
160 
158 
202 
205 
206 
208 
209 
210 
211 
212 
212 
212 
212 
212 
211 
210 
209 
207 
206 
204 
201 
199 
196 
192 
189 
184 
179 
174 
168 
161 
153 
143 
132 
117 
96 
0 
0 
0 
0 
0 
0 
0 
0 
0 
0 
0 
0 
0 
0 
0 
0 
0 
0 
0 
0 
0 
0 
0 
0 
0 
69 
90 
103 
113 
122 
129 
135 
140 
145 
149 
153 
157 
160 
162 
165 
167 
169 
171 
172 
174 
175 
176 
176 
177 
177 
178 
178 
178 
177 
177 
176 
176 
175 
174 
173 
171 
169 
168 
166 
163 
161 
158 
205 
208 
209 
211 
212 
213 
214 
215 
215 
215 
215 
215 
214 
213 
212 
211 
209 
207 
205 
202 
199 
196 
192 
188 
183 
178 
172 
166 
158 
149 
139 
126 
109 
82 
0 
0 
0 
0 
0 
0 
0 
0 
0 
0 
0 
0 
0 
0 
0 
0 
0 
0 
0 
0 
0 
0 
0 
0 
73 
92 
105 
115 
123 
130 
136 
141 
146 
150 
154 
157 
160 
163 
165 
168 
170 
171 
173 
174 
175 
176 
177 
177 
178 
178 
178 
178 
178 
177 
177 
176 
175 
174 
173 
172 
170 
168 
166 
164 
162 
206 
208 
210 
212 
214 
215 
216 
217 
217 
218 
218 
218 
217 
217 
216 
215 
213 
212 
210 
208 
205 
202 
199 
195 
191 
187 
182 
176 
170 
163 
155 
145 
133 
118 
98 
0 
0 
0 
0 
0 
0 
0 
0 
0 
0 
0 
0 
0 
0 
0 
0 
0 
0 
0 
0 
0 
0 
0 
0 
77 
94 
106 
116 
124 
131 
137 
142 
146 
151 
154 
158 
161 
163 
166 
168 
170 
172 
173 
174 
175 
176 
177 
178 
178 
178 
178 
178 
178 
178 
177 
176 
176 
174 
173 
172 
170 
168 
166 
164 
162 
208 
211 
213 
214 
216 
217 
218 
219 
220 
220 
220 
220 
219 
219 
218 
217 
216 
214 
212 
210 
208 
205 
202 
198 
194 
190 
185 
180 
174 
167 
159 
150 
139 
126 
108 
79 
0 
0 
0 
0 
0 
0 
0 
0 
0 
0 
0 
0 
0 
0 
0 
0 
0 
0 
0 
0 
0 
0 
0 
79 
95 
107 
117 
124 
131 
137 
142 
147 
151 
154 
158 
161 
163 
166 
168 
170 
172 
173 
174 
176 
176 
177 
178 
178 
178 
178 
178 
178 
178 
177 
176 
176 
175 
173 
172 
170 
169 
167 
164 
162 
211 
213 
215 
217 
218 
219 
220 
221 
222 
222 
222 
222 
221 
221 
220 
219 
218 
216 
214 
212 
210 
207 
204 
201 
197 
193 
188 
183 
177 
170 
163 
154 
144 
132 
116 
94 
0 
0 
0 
0 
0 
0 
0 
0 
0 
0 
0 
0 
0 
0 
0 
0 
0 
0 
0 
0 
0 
0 
0 
80 
96 
108 
117 
125 
131 
137 
142 
147 
151 
154 
158 
161 
163 
166 
168 
170 
172 
173 
174 
175 
176 
177 
178 
178 
178 
178 
178 
178 
178 
177 
176 
176 
174 
173 
172 
170 
169 
167 
164 
210 
213 
215 
217 
218 
220 
221 
222 
223 
223 
224 
224 
224 
223 
223 
222 
221 
220 
218 
216 
214 
212 
209 
206 
203 
199 
195 
191 
186 
180 
173 
166 
158 
148 
137 
123 
103 
65 
0 
0 
0 
0 
0 
0 
0 
0 
0 
0 
0 
0 
0 
0 
0 
0 
0 
0 
0 
0 
0 
46 
80 
96 
108 
117 
125 
131 
137 
142 
147 
151 
154 
158 
161 
163 
166 
168 
170 
171 
173 
174 
175 
176 
177 
177 
178 
178 
178 
178 
178 
177 
177 
176 
175 
174 
173 
172 
170 
168 
166 
164 
212 
214 
216 
218 
220 
221 
223 
224 
224 
225 
225 
225 
225 
225 
224 
223 
222 
221 
220 
218 
216 
214 
211 
208 
205 
201 
197 
193 
188 
182 
176 
169 
161 
152 
141 
128 
110 
82 
0 
0 
0 
0 
0 
0 
0 
0 
0 
0 
0 
0 
0 
0 
0 
0 
0 
0 
0 
0 
0 
47 
80 
96 
107 
116 
124 
131 
137 
142 
146 
150 
154 
157 
160 
163 
165 
167 
169 
171 
172 
174 
175 
176 
176 
177 
177 
178 
178 
178 
177 
177 
177 
176 
175 
174 
173 
171 
170 
168 
166 
164 
213 
216 
218 
220 
221 
223 
224 
225 
226 
226 
226 
226 
226 
226 
226 
225 
224 
223 
221 
219 
217 
215 
213 
210 
206 
203 
199 
195 
190 
184 
178 
171 
164 
155 
144 
132 
116 
92 
0 
0 
0 
0 
0 
0 
0 
0 
0 
0 
0 
0 
0 
0 
0 
0 
0 
0 
0 
0 
0 
44 
79 
95 
107 
116 
123 
130 
136 
141 
145 
150 
153 
157 
160 
162 
165 
167 
169 
170 
172 
173 
174 
175 
176 
176 
177 
177 
177 
177 
177 
177 
176 
175 
174 
173 
172 
171 
169 
167 
165 
212 
214 
217 
219 
221 
222 
224 
225 
226 
227 
227 
227 
228 
227 
227 
227 
226 
225 
224 
222 
220 
218 
216 
214 
211 
208 
204 
200 
196 
191 
186 
180 
173 
166 
157 
147 
135 
120 
99 
0 
0 
0 
0 
0 
0 
0 
0 
0 
0 
0 
0 
0 
0 
0 
0 
0 
0 
0 
0 
0 
0 
77 
94 
105 
115 
122 
129 
135 
140 
145 
149 
152 
156 
159 
161 
164 
166 
168 
170 
171 
172 
174 
174 
175 
176 
176 
176 
177 
176 
176 
176 
175 
175 
174 
173 
171 
170 
168 
167 
165 
213 
215 
218 
220 
222 
223 
225 
226 
227 
227 
228 
228 
228 
228 
228 
227 
227 
226 
224 
223 
221 
219 
217 
215 
212 
209 
205 
202 
197 
193 
187 
181 
175 
167 
159 
149 
138 
123 
104 
67 
0 
0 
0 
0 
0 
0 
0 
0 
0 
0 
0 
0 
0 
0 
0 
0 
0 
0 
0 
0 
0 
75 
92 
104 
113 
121 
128 
134 
139 
144 
148 
151 
155 
158 
160 
163 
165 
167 
169 
170 
171 
173 
174 
174 
175 
175 
176 
176 
176 
175 
175 
174 
174 
173 
172 
170 
169 
168 
166 
164 
213 
216 
218 
220 
222 
224 
225 
226 
227 
228 
229 
229 
229 
229 
229 
228 
227 
226 
225 
224 
222 
220 
218 
215 
213 
210 
206 
202 
198 
193 
188 
183 
176 
169 
160 
151 
140 
126 
107 
77 
0 
0 
0 
0 
0 
0 
0 
0 
0 
0 
0 
0 
0 
0 
0 
0 
0 
0 
0 
0 
0 
71 
89 
102 
111 
119 
126 
132 
137 
142 
146 
150 
153 
157 
159 
162 
164 
166 
168 
169 
170 
172 
172 
173 
174 
174 
175 
175 
175 
174 
174 
173 
173 
172 
171 
169 
168 
166 
165 
211 
214 
216 
219 
221 
223 
224 
226 
227 
228 
228 
229 
229 
229 
229 
229 
228 
228 
227 
225 
224 
222 
221 
218 
216 
213 
210 
207 
203 
199 
194 
189 
183 
177 
170 
161 
152 
141 
127 
110 
82 
0 
0 
0 
0 
0 
0 
0 
0 
0 
0 
0 
0 
0 
0 
0 
0 
0 
0 
0 
0 
0 
67 
86 
99 
109 
117 
124 
130 
136 
141 
145 
149 
152 
155 
158 
160 
163 
165 
166 
168 
169 
170 
171 
172 
173 
173 
173 
173 
173 
173 
173 
172 
171 
171 
169 
168 
167 
165 
163 
211 
214 
217 
219 
221 
223 
224 
226 
227 
228 
229 
229 
229 
229 
229 
229 
229 
228 
227 
226 
224 
223 
221 
219 
216 
213 
210 
207 
203 
199 
194 
189 
184 
177 
170 
162 
153 
142 
129 
111 
85 
0 
0 
0 
0 
0 
0 
0 
0 
0 
0 
0 
0 
0 
0 
0 
0 
0 
0 
0 
0 
0 
60 
82 
96 
106 
115 
122 
128 
134 
139 
143 
147 
150 
153 
156 
159 
161 
163 
165 
166 
168 
169 
170 
171 
171 
172 
172 
172 
172 
172 
171 
171 
170 
169 
168 
167 
165 
164 
162 
211 
214 
217 
219 
221 
223 
224 
226 
227 
228 
229 
229 
229 
229 
229 
229 
229 
228 
227 
226 
224 
223 
221 
219 
216 
213 
210 
207 
203 
199 
195 
189 
184 
177 
170 
162 
153 
142 
129 
112 
87 
0 
0 
0 
0 
0 
0 
0 
0 
0 
0 
0 
0 
0 
0 
0 
0 
0 
0 
0 
0 
0 
51 
78 
92 
103 
112 
120 
126 
132 
137 
141 
145 
148 
152 
154 
157 
159 
161 
163 
165 
166 
167 
168 
169 
170 
170 
170 
170 
170 
170 
170 
169 
168 
168 
166 
165 
164 
162 
208 
211 
214 
216 
219 
221 
223 
224 
225 
227 
228 
228 
229 
229 
229 
229 
229 
228 
228 
227 
225 
224 
222 
220 
218 
216 
213 
210 
207 
203 
199 
194 
189 
184 
177 
170 
162 
153 
142 
129 
112 
87 
0 
0 
0 
0 
0 
0 
0 
0 
0 
0 
0 
0 
0 
0 
0 
0 
0 
0 
0 
0 
0 
0 
71 
88 
100 
109 
117 
123 
129 
134 
139 
143 
146 
150 
152 
155 
157 
159 
161 
163 
164 
165 
166 
167 
168 
168 
169 
169 
169 
168 
168 
167 
167 
166 
165 
163 
162 
160 
207 
211 
213 
216 
218 
220 
222 
224 
225 
226 
227 
228 
228 
229 
229 
229 
228 
228 
227 
226 
225 
224 
222 
220 
218 
215 
213 
210 
206 
203 
198 
194 
189 
183 
177 
170 
162 
152 
142 
129 
112 
87 
0 
0 
0 
0 
0 
0 
0 
0 
0 
0 
0 
0 
0 
0 
0 
0 
0 
0 
0 
0 
0 
0 
63 
83 
95 
105 
113 
120 
126 
131 
136 
140 
144 
147 
150 
153 
155 
157 
159 
161 
162 
163 
164 
165 
166 
166 
167 
167 
167 
167 
166 
166 
165 
164 
163 
162 
160 
158 
207 
210 
213 
215 
218 
220 
221 
223 
224 
226 
226 
227 
228 
228 
228 
228 
228 
227 
226 
225 
224 
223 
221 
219 
217 
215 
212 
209 
206 
202 
198 
193 
188 
182 
176 
169 
161 
151 
141 
127 
110 
85 
0 
0 
0 
0 
0 
0 
0 
0 
0 
0 
0 
0 
0 
0 
0 
0 
0 
0 
0 
0 
0 
0 
51 
76 
90 
101 
109 
117 
123 
128 
133 
137 
141 
145 
148 
150 
153 
155 
157 
159 
160 
161 
162 
163 
164 
164 
165 
165 
165 
164 
164 
163 
163 
162 
161 
159 
158 
202 
206 
209 
212 
214 
217 
219 
221 
222 
224 
225 
226 
226 
227 
227 
227 
227 
227 
226 
226 
225 
223 
222 
220 
218 
216 
214 
211 
208 
205 
201 
197 
192 
187 
181 
175 
168 
159 
150 
139 
126 
108 
82 
0 
0 
0 
0 
0 
0 
0 
0 
0 
0 
0 
0 
0 
0 
0 
0 
0 
0 
0 
0 
0 
0 
0 
68 
84 
96 
105 
113 
119 
125 
130 
134 
138 
142 
145 
148 
150 
152 
154 
156 
158 
159 
160 
161 
161 
162 
162 
162 
162 
162 
162 
161 
160 
159 
158 
157 
155 
201 
205 
208 
211 
213 
216 
218 
219 
221 
222 
224 
225 
225 
226 
226 
226 
226 
226 
225 
224 
224 
222 
221 
219 
217 
215 
213 
210 
207 
203 
200 
195 
191 
185 
180 
173 
166 
158 
148 
137 
123 
105 
76 
0 
0 
0 
0 
0 
0 
0 
0 
0 
0 
0 
0 
0 
0 
0 
0 
0 
0 
0 
0 
0 
0 
0 
56 
77 
90 
100 
108 
115 
121 
126 
131 
135 
139 
142 
145 
147 
150 
152 
153 
155 
156 
157 
158 
159 
159 
160 
160 
160 
160 
159 
159 
158 
157 
156 
154 
153 
200 
203 
206 
209 
212 
214 
216 
218 
220 
221 
222 
223 
224 
225 
225 
225 
225 
224 
224 
223 
222 
221 
220 
218 
216 
214 
211 
208 
205 
202 
198 
194 
189 
184 
178 
171 
164 
156 
146 
134 
120 
101 
69 
0 
0 
0 
0 
0 
0 
0 
0 
0 
0 
0 
0 
0 
0 
0 
0 
0 
0 
0 
0 
0 
0 
0 
0 
67 
83 
94 
103 
110 
117 
122 
127 
131 
135 
138 
141 
144 
146 
149 
150 
152 
153 
154 
155 
156 
157 
157 
157 
157 
157 
156 
156 
155 
154 
153 
152 
194 
198 
202 
205 
208 
210 
213 
215 
217 
218 
220 
221 
222 
222 
223 
223 
223 
223 
223 
222 
222 
221 
219 
218 
216 
214 
212 
210 
207 
204 
200 
196 
192 
187 
182 
176 
169 
162 
153 
143 
131 
116 
96 
56 
0 
0 
0 
0 
0 
0 
0 
0 
0 
0 
0 
0 
0 
0 
0 
0 
0 
0 
0 
0 
0 
0 
0 
0 
54 
74 
87 
97 
105 
112 
118 
123 
127 
131 
135 
138 
141 
143 
145 
147 
149 
150 
151 
152 
153 
154 
154 
154 
154 
154 
153 
153 
152 
151 
150 
148 
192 
196 
200 
203 
206 
208 
211 
213 
215 
216 
218 
219 
220 
221 
221 
222 
222 
222 
221 
221 
220 
219 
218 
216 
214 
212 
210 
208 
205 
202 
198 
194 
190 
185 
179 
173 
167 
159 
150 
140 
127 
112 
90 
0 
0 
0 
0 
0 
0 
0 
0 
0 
0 
0 
0 
0 
0 
0 
0 
0 
0 
0 
0 
0 
0 
0 
0 
0 
0 
63 
79 
90 
99 
106 
113 
118 
123 
127 
131 
134 
137 
139 
142 
144 
145 
147 
148 
149 
150 
150 
151 
151 
151 
151 
150 
150 
149 
148 
147 
145 
190 
194 
197 
201 
204 
206 
209 
211 
213 
214 
216 
217 
218 
219 
219 
220 
220 
220 
219 
219 
218 
217 
216 
214 
212 
210 
208 
205 
203 
199 
196 
192 
187 
182 
177 
171 
164 
156 
147 
136 
123 
106 
81 
0 
0 
0 
0 
0 
0 
0 
0 
0 
0 
0 
0 
0 
0 
0 
0 
0 
0 
0 
0 
0 
0 
0 
0 
0 
0 
44 
68 
82 
92 
100 
107 
113 
118 
122 
126 
130 
133 
135 
138 
140 
141 
143 
144 
145 
146 
147 
147 
147 
147 
147 
147 
146 
145 
144 
143 
183 
187 
191 
195 
198 
201 
204 
206 
209 
211 
212 
214 
215 
216 
217 
217 
217 
218 
217 
217 
216 
216 
215 
213 
212 
210 
208 
206 
203 
200 
197 
193 
189 
184 
179 
174 
167 
160 
152 
142 
131 
117 
99 
69 
0 
0 
0 
0 
0 
0 
0 
0 
0 
0 
0 
0 
0 
0 
0 
0 
0 
0 
0 
0 
0 
0 
0 
0 
0 
0 
0 
53 
72 
84 
93 
100 
107 
112 
117 
121 
125 
128 
131 
133 
135 
137 
139 
140 
141 
142 
143 
143 
143 
143 
143 
143 
142 
141 
140 
139 
180 
184 
188 
192 
196 
199 
201 
204 
206 
208 
210 
211 
212 
213 
214 
215 
215 
215 
215 
215 
214 
213 
212 
211 
209 
207 
205 
203 
200 
197 
194 
190 
186 
181 
176 
170 
164 
156 
148 
138 
126 
111 
90 
0 
0 
0 
0 
0 
0 
0 
0 
0 
0 
0 
0 
0 
0 
0 
0 
0 
0 
0 
0 
0 
0 
0 
0 
0 
0 
0 
0 
0 
57 
73 
84 
93 
100 
106 
111 
116 
119 
123 
126 
128 
131 
133 
134 
136 
137 
138 
139 
139 
139 
139 
139 
139 
138 
137 
136 
135 
176 
181 
185 
189 
193 
196 
199 
201 
203 
205 
207 
208 
210 
211 
211 
212 
212 
212 
212 
212 
211 
210 
209 
208 
206 
205 
202 
200 
197 
194 
191 
187 
183 
178 
172 
166 
159 
152 
143 
132 
120 
103 
78 
0 
0 
0 
0 
0 
0 
0 
0 
0 
0 
0 
0 
0 
0 
0 
0 
0 
0 
0 
0 
0 
0 
0 
0 
0 
0 
0 
0 
0 
0 
59 
74 
84 
92 
99 
104 
109 
113 
117 
120 
123 
126 
128 
129 
131 
132 
133 
134 
134 
135 
135 
134 
134 
133 
132 
131 
167 
173 
177 
182 
186 
189 
192 
195 
198 
200 
202 
204 
205 
207 
208 
209 
209 
209 
209 
209 
209 
208 
207 
206 
205 
203 
201 
199 
197 
194 
191 
187 
183 
179 
174 
168 
162 
155 
147 
137 
126 
112 
93 
59 
0 
0 
0 
0 
0 
0 
0 
0 
0 
0 
0 
0 
0 
0 
0 
0 
0 
0 
0 
0 
0 
0 
0 
0 
0 
0 
0 
0 
0 
0 
31 
59 
73 
83 
90 
97 
102 
107 
111 
114 
117 
120 
122 
124 
126 
127 
128 
129 
129 
130 
130 
129 
129 
128 
127 
126 
163 
168 
173 
178 
182 
186 
189 
192 
194 
197 
199 
201 
202 
203 
204 
205 
206 
206 
206 
206 
206 
205 
204 
203 
202 
200 
198 
196 
193 
190 
187 
183 
179 
175 
169 
164 
157 
150 
141 
131 
119 
103 
80 
0 
0 
0 
0 
0 
0 
0 
0 
0 
0 
0 
0 
0 
0 
0 
0 
0 
0 
0 
0 
0 
0 
0 
0 
0 
0 
0 
0 
0 
0 
0 
0 
31 
58 
71 
80 
88 
94 
99 
104 
107 
111 
114 
116 
118 
120 
121 
122 
123 
124 
124 
124 
124 
124 
123 
122 
121 
158 
164 
169 
174 
178 
182 
185 
188 
191 
193 
195 
197 
199 
200 
201 
202 
202 
203 
203 
202 
202 
201 
200 
199 
198 
196 
194 
192 
189 
186 
183 
179 
175 
170 
164 
158 
151 
144 
134 
123 
110 
92 
59 
0 
0 
0 
0 
0 
0 
0 
0 
0 
0 
0 
0 
0 
0 
0 
0 
0 
0 
0 
0 
0 
0 
0 
0 
0 
0 
0 
0 
0 
0 
0 
0 
0 
0 
54 
67 
77 
84 
90 
95 
100 
103 
106 
109 
111 
113 
115 
116 
117 
118 
118 
118 
118 
117 
117 
116 
114 
153 
159 
164 
169 
173 
177 
181 
184 
186 
189 
191 
193 
195 
196 
197 
198 
198 
199 
199 
199 
198 
197 
196 
195 
194 
192 
190 
187 
185 
182 
178 
174 
170 
165 
159 
153 
145 
137 
127 
115 
99 
76 
0 
0 
0 
0 
0 
0 
0 
0 
0 
0 
0 
0 
0 
0 
0 
0 
0 
0 
0 
0 
0 
0 
0 
0 
0 
0 
0 
0 
0 
0 
0 
0 
0 
0 
0 
0 
48 
62 
72 
79 
85 
90 
95 
98 
101 
104 
106 
108 
109 
110 
111 
111 
111 
111 
111 
110 
109 
140 
147 
153 
159 
164 
168 
172 
176 
179 
182 
184 
187 
189 
190 
192 
193 
194 
194 
194 
194 
194 
194 
193 
192 
191 
189 
187 
185 
183 
180 
177 
173 
169 
164 
159 
153 
146 
138 
129 
118 
104 
85 
44 
0 
0 
0 
0 
0 
0 
0 
0 
0 
0 
0 
0 
0 
0 
0 
0 
0 
0 
0 
0 
0 
0 
0 
0 
0 
0 
0 
0 
0 
0 
0 
0 
0 
0 
0 
0 
0 
38 
55 
66 
73 
80 
85 
89 
92 
95 
98 
99 
101 
102 
103 
103 
104 
103 
103 
102 
101 
133 
140 
147 
153 
158 
163 
167 
171 
174 
177 
179 
182 
184 
185 
187 
188 
189 
189 
190 
190 
190 
189 
188 
187 
186 
184 
183 
180 
178 
175 
171 
167 
163 
158 
152 
146 
139 
130 
120 
107 
91 
63 
0 
0 
0 
0 
0 
0 
0 
0 
0 
0 
0 
0 
0 
0 
0 
0 
0 
0 
0 
0 
0 
0 
0 
0 
0 
0 
0 
0 
0 
0 
0 
0 
0 
0 
0 
0 
0 
0 
0 
0 
45 
57 
65 
72 
77 
81 
85 
88 
90 
92 
93 
94 
95 
95 
95 
94 
93 
92 
125 
133 
140 
146 
151 
156 
161 
165 
168 
171 
174 
176 
179 
180 
182 
183 
184 
184 
185 
185 
185 
184 
183 
182 
181 
179 
177 
175 
172 
169 
165 
161 
156 
151 
145 
138 
130 
120 
109 
94 
71 
0 
0 
0 
0 
0 
0 
0 
0 
0 
0 
0 
0 
0 
0 
0 
0 
0 
0 
0 
0 
0 
0 
0 
0 
0 
0 
0 
0 
0 
0 
0 
0 
0 
0 
0 
0 
0 
0 
0 
0 
0 
0 
22 
44 
55 
62 
68 
72 
76 
79 
81 
82 
84 
84 
85 
84 
84 
83 
82 
115 
124 
132 
138 
144 
150 
154 
158 
162 
165 
168 
171 
173 
175 
176 
177 
178 
179 
179 
179 
179 
178 
178 
176 
175 
173 
171 
169 
166 
162 
158 
154 
149 
143 
137 
129 
120 
109 
95 
75 
0 
0 
0 
0 
0 
0 
0 
0 
0 
0 
0 
0 
0 
0 
0 
0 
0 
0 
0 
0 
0 
0 
0 
0 
0 
0 
0 
0 
0 
0 
0 
0 
0 
0 
0 
0 
0 
0 
0 
0 
0 
0 
0 
0 
0 
0 
38 
48 
55 
60 
64 
67 
69 
71 
72 
72 
72 
71 
70 
92 
104 
114 
123 
130 
136 
142 
147 
151 
155 
159 
162 
164 
166 
168 
170 
171 
172 
173 
173 
173 
173 
172 
171 
170 
169 
167 
164 
162 
159 
155 
151 
146 
141 
134 
127 
119 
108 
95 
76 
0 
0 
0 
0 
0 
0 
0 
0 
0 
0 
0 
0 
0 
0 
0 
0 
0 
0 
0 
0 
0 
0 
0 
0 
0 
0 
0 
0 
0 
0 
0 
0 
0 
0 
0 
0 
0 
0 
0 
0 
0 
0 
0 
0 
0 
0 
0 
0 
0 
15 
34 
42 
47 
50 
53 
54 
55 
55 
55 
53 
76 
91 
102 
112 
120 
127 
133 
139 
143 
147 
151 
154 
157 
159 
161 
163 
164 
165 
166 
166 
166 
166 
166 
165 
163 
162 
160 
157 
154 
151 
147 
142 
137 
131 
124 
116 
106 
93 
75 
0 
0 
0 
0 
0 
0 
0 
0 
0 
0 
0 
0 
0 
0 
0 
0 
0 
0 
0 
0 
0 
0 
0 
0 
0 
0 
0 
0 
0 
0 
0 
0 
0 
0 
0 
0 
0 
0 
0 
0 
0 
0 
0 
0 
0 
0 
0 
0 
0 
0 
0 
0 
0 
0 
0 
0 
21 
24 
25 
24 
20 
50 
73 
88 
99 
109 
116 
123 
129 
134 
139 
143 
146 
149 
152 
154 
156 
157 
158 
159 
159 
159 
159 
158 
157 
156 
154 
152 
149 
146 
142 
138 
133 
127 
120 
112 
102 
90 
72 
0 
0 
0 
0 
0 
0 
0 
0 
0 
0 
0 
0 
0 
0 
0 
0 
0 
0 
0 
0 
0 
0 
0 
0 
0 
0 
0 
0 
0 
0 
0 
0 
0 
0 
0 
0 
0 
0 
0 
0 
0 
0 
0 
0 
0 
0 
0 
0 
0 
0 
0 
0 
0 
0 
0 
0 
0 
0 
0 
0 
0 
0 
0 
43 
68 
83 
94 
104 
112 
118 
124 
129 
133 
137 
140 
143 
145 
147 
149 
150 
150 
151 
151 
150 
150 
148 
147 
145 
142 
140 
136 
132 
127 
121 
115 
107 
97 
84 
65 
0 
0 
0 
0 
0 
0 
0 
0 
0 
0 
0 
0 
0 
0 
0 
0 
0 
0 
0 
0 
0 
0 
0 
0 
0 
0 
0 
0 
0 
0 
0 
0 
0 
0 
0 
0 
0 
0 
0 
0 
0 
0 
0 
0 
0 
0 
0 
0 
0 
0 
0 
0 
0 
0 
0 
0 
0 
0 
0 
0 
0 
0 
0 
0 
0 
26 
60 
76 
88 
97 
105 
112 
118 
122 
127 
130 
133 
136 
138 
139 
140 
141 
141 
141 
141 
140 
139 
137 
135 
132 
129 
125 
120 
115 
108 
100 
90 
76 
54 
0 
0 
0 
0 
0 
0 
0 
0 
0 
0 
0 
0 
0 
0 
0 
0 
0 
0 
0 
0 
0 
0 
0 
0 
0 
0 
0 
0 
0 
0 
0 
0 
0 
0 
0 
0 
0 
0 
0 
0 
0 
0 
0 
0 
0 
0 
0 
0 
0 
0 
0 
0 
0 
0 
0 
0 
0 
0 
0 
0 
0 
0 
0 
0 
0 
0 
0 
0 
46 
66 
79 
89 
97 
104 
109 
114 
118 
122 
124 
127 
128 
130 
130 
131 
131 
130 
129 
128 
126 
123 
120 
116 
112 
106 
99 
91 
80 
64 
0 
0 
0 
0 
0 
0 
0 
0 
0 
0 
0 
0 
0 
0 
0 
0 
0 
0 
0 
0 
0 
0 
0 
0 
0 
0 
0 
0 
0 
0 
0 
0 
0 
0 
0 
0 
0 
0 
0 
0 
0 
0 
0 
0 
0 
0 
0 
0 
0 
0 
0 
0 
0 
0 
0 
0 
0 
0 
0 
0 
0 
0 
0 
0 
0 
0 
0 
0 
0 
0 
0 
0 
50 
67 
78 
87 
93 
99 
104 
108 
111 
114 
116 
117 
118 
118 
118 
118 
116 
115 
112 
109 
105 
101 
95 
87 
78 
65 
40 
0 
0 
0 
0 
0 
0 
0 
0 
0 
0 
0 
0 
0 
0 
0 
0 
0 
0 
0 
0 
0 
0 
0 
0 
0 
0 
0 
0 
0 
0 
0 
0 
0 
0 
0 
0 
0 
0 
0 
0 
0 
0 
0 
0 
0 
0 
0 
0 
0 
0 
0 
0 
0 
0 
0 
0 
0 
0 
0 
0 
0 
0 
0 
0 
0 
0 
0 
0 
0 
0 
0 
0 
0 
0 
0 
46 
61 
72 
80 
86 
91 
95 
98 
100 
102 
103 
103 
103 
102 
101 
98 
95 
92 
86 
80 
71 
59 
33 
0 
0 
0 
0 
0 
0 
0 
0 
0 
0 
0 
0 
0 
0 
0 
0 
0 
0 
0 
0 
0 
0 
0 
0 
0 
0 
0 
0 
0 
0 
0 
0 
0 
0 
0 
0 
0 
0 
0 
0 
0 
0 
0 
0 
0 
0 
0 
0 
0 
0 
0 
0 
0 
0 
0 
0 
0 
0 
0 
0 
0 
0 
0 
0 
0 
0 
0 
0 
0 
0 
0 
0 
0 
0 
0 
0 
0 
0 
0 
24 
47 
59 
66 
72 
76 
80 
82 
83 
84 
83 
82 
80 
76 
72 
66 
56 
41 
0 
0 
0 
0 
0 
0 
0 
0 
0 
0 
0 
0 
0 
0 
0 
0 
0 
0 
0 
0 
0 
0 
0 
0 
0 
0 
0 
0 
0 
0 
0 
0 
0 
0 
0 
0 
0 
0 
0 
0 
0 
0 
0 
0 
0 
0 
0 
0 
0 
0 
0 
0 
0 
0 
0 
0 
0 
0 
0 
0 
0 
0 
0 
0 
0 
0 
0 
0 
0 
0 
0 
0 
0 
0 
0 
0 
0 
0 
0 
0 
0 
0 
0 
0 
0 
0 
0 
36 
44 
49 
51 
52 
51 
48 
42 
29 
0 
0 
0 
0 
0 
0 
0 
0 
0 
0 
0 
0 
0 
0 
0 
0 
0 
0 
0 
0 
0 
0 
0 
0 
0 
0 
0 
0 
0 
0 
0 
0 
0 
0 
0 
0 
0 
0 
0 
0 
0 
0 
0 
0 
0 
0 
0 
0 
0 
0 
0 
0 
0 
0 
0 
0 
0 
0 
0 
0 
0 
0 
0 
0 
0 
0 
0 
0 
0 
0 
0 
0 
0 
0 
0 
0 
0 
0 
0 
0 
0 
0 
0 
0 
0 
0 
0 
0 
0 
0 
0 
0 
0 
0 
0 
0 
0 
0 
0 
0 
0 
0 
0 
0 
0 
0 
0 
0 
0 
0 
0 
0 
0 
0 
0 
0 
0 
0 
0 
0 
0 
0 
0 
0 
0 
0 
0 
0 
0 
0 
0 
0 
0 
0 
0 
0 
0 
0 
0 
0 
0 
0 
0 
0 
0 
0 
0 
0 
0 
0 
0 
0 
0 
0 
0 
0 
0 
0 
0 
0 
0 
0 
0 
0 
0 
0 
0 
0 
0 
0 
0 
0 
0 
0 
0 
0 
0 
0 
0 
0 
0 
0 
0 
0 
0 
0 
0 
0 
0 
0 
0 
0 
0 
0 
0 
0 
0 
0 
0 
0 
0 
0 
0 
0 
0 
0 
0 
0 
0 
0 
0 
0 
0 
0 
0 
0 
0 
0 
0 
0 
0 
0 
0 
0 
0 
0 
0 
0 
0 
0 
0 
0 
0 
0 
0 
0 
0 
0 
0 
0 
0 
0 
0 
0 
0 
0 
0 
0 
0 
0 
0 
0 
0 
0 
0 
0 
0 
0 
0 
0 
0 
0 
0 
0 
0 
0 
0 
0 
0 
0 
0 
0 
0 
0 
0 
0 
0 
0 
0 
0 
0 
0 
0 
0 
0 
0 
0 
0 
0 
0 
0 
0 
0 
0 
0 
0 
0 
0 
0 
0 
0 
0 
0 
0 
0 
0 
0 
0 
0 
0 
0 
0 
0 
0 
0 
0 
0 
0 
0 
0 
0 
0 
0 
0 
0 
0 
0 
0 
0 
0 
0 
0 
0 
0 
0 
0 
0 
0 
0 
0 
0 
0 
0 
0 
0 
0 
0 
0 
0 
0 
0 
0 
0 
0 
0 
0 
0 
45 
110 
108 
61 
0 
0 
0 
0 
0 
0 
0 
0 
0 
0 
96 
114 
88 
0 
0 
0 
0 
0 
0 
0 
0 
0 
0 
72 
112 
105 
31 
0 
0 
0 
0 
0 
0 
0 
0 
0 
26 
102 
113 
76 
0 
0 
0 
0 
0 
0 
0 
0 
0 
0 
84 
113 
100 
0 
0 
0 
0 
0 
0 
0 
0 
0 
0 
0 
0 
0 
0 
0 
0 
0 
0 
0 
0 
0 
0 
0 
0 
0 
0 
0 
0 
0 
0 
0 
0 
0 
0 
0 
0 
0 
0 
0 
0 
0 
0 
0 
140 
168 
164 
130 
37 
0 
0 
0 
0 
0 
0 
0 
0 
108 
160 
169 
150 
89 
0 
0 
0 
0 
0 
0 
0 
0 
54 
143 
168 
163 
124 
0 
0 
0 
0 
0 
0 
0 
0 
0 
118 
160 
169 
148 
64 
0 
0 
0 
0 
0 
0 
0 
0 
82 
146 
169 
163 
116 
0 
0 
0 
0 
0 
0 
0 
0 
0 
0 
0 
0 
0 
0 
0 
0 
0 
0 
0 
0 
0 
0 
0 
0 
0 
0 
0 
0 
0 
0 
0 
0 
0 
0 
0 
0 
0 
0 
0 
0 
0 
55 
165 
189 
184 
152 
73 
0 
0 
0 
0 
0 
0 
0 
0 
0 
181 
190 
172 
117 
0 
0 
0 
0 
0 
0 
0 
0 
95 
166 
0 
184 
149 
7 
0 
0 
0 
0 
0 
0 
0 
0 
142 
181 
190 
171 
105 
0 
0 
0 
0 
0 
0 
0 
0 
109 
167 
189 
185 
146 
0 
0 
0 
0 
0 
0 
0 
0 
0 
0 
0 
0 
0 
0 
0 
0 
0 
0 
0 
0 
0 
0 
0 
0 
0 
0 
0 
0 
0 
0 
0 
0 
0 
0 
0 
0 
0 
0 
107 
127 
118 
79 
155 
183 
177 
143 
46 
0 
0 
0 
0 
0 
0 
78 
121 
126 
103 
27 
164 
102 
0 
0 
0 
0 
0 
0 
0 
0 
17 
106 
127 
119 
76 
0 
0 
0 
0 
0 
0 
0 
0 
0 
131 
174 
81 
120 
127 
104 
0 
0 
0 
0 
0 
0 
0 
94 
159 
182 
177 
42 
105 
126 
121 
72 
0 
0 
0 
0 
0 
0 
0 
0 
0 
0 
0 
0 
0 
0 
0 
0 
0 
0 
0 
0 
0 
0 
0 
0 
0 
0 
0 
0 
0 
0 
0 
0 
0 
111 
159 
171 
161 
129 
59 
139 
135 
85 
0 
0 
0 
0 
0 
0 
39 
139 
167 
169 
151 
103 
115 
0 
0 
0 
0 
0 
0 
0 
0 
0 
108 
155 
170 
165 
134 
44 
0 
0 
0 
0 
0 
0 
0 
0 
51 
60 
134 
164 
171 
155 
105 
0 
0 
0 
0 
0 
0 
0 
110 
141 
130 
105 
150 
169 
167 
139 
0 
0 
0 
0 
0 
0 
0 
0 
0 
0 
0 
0 
0 
0 
0 
0 
0 
0 
0 
0 
0 
0 
0 
0 
0 
0 
0 
0 
0 
0 
0 
0 
0 
139 
179 
189 
179 
149 
86 
0 
0 
0 
0 
0 
0 
0 
0 
0 
89 
161 
186 
188 
170 
126 
0 
0 
0 
0 
0 
0 
0 
0 
0 
0 
132 
174 
189 
183 
155 
84 
0 
0 
0 
0 
0 
0 
0 
0 
0 
90 
155 
183 
189 
175 
132 
0 
0 
0 
0 
0 
0 
0 
0 
0 
23 
127 
169 
187 
187 
162 
80 
0 
0 
0 
0 
0 
0 
0 
0 
0 
0 
0 
0 
0 
0 
0 
0 
0 
0 
0 
0 
0 
0 
0 
0 
0 
0 
0 
0 
61 
61 
27 
0 
134 
177 
188 
178 
146 
76 
0 
0 
0 
0 
0 
0 
0 
0 
54 
64 
40 
184 
186 
168 
120 
0 
0 
0 
0 
0 
0 
0 
0 
0 
0 
127 
43 
65 
51 
152 
69 
0 
0 
0 
0 
0 
0 
0 
0 
0 
79 
151 
181 
188 
30 
63 
58 
0 
0 
0 
0 
0 
0 
0 
0 
0 
121 
167 
186 
185 
159 
0 
13 
58 
63 
14 
0 
0 
0 
0 
0 
0 
0 
0 
0 
0 
0 
0 
0 
0 
0 
0 
0 
0 
0 
0 
0 
0 
55 
118 
134 
129 
107 
60 
61 
148 
164 
152 
113 
0 
0 
0 
0 
0 
0 
0 
0 
105 
130 
133 
118 
79 
162 
139 
71 
0 
0 
0 
0 
0 
0 
0 
0 
0 
0 
88 
123 
134 
126 
96 
0 
0 
0 
0 
0 
0 
0 
0 
0 
0 
0 
118 
155 
68 
114 
132 
132 
111 
41 
0 
0 
0 
0 
0 
0 
0 
79 
139 
162 
159 
121 
46 
101 
127 
134 
122 
75 
0 
0 
0 
0 
0 
0 
0 
0 
0 
0 
0 
0 
0 
0 
0 
0 
0 
0 
0 
0 
0 
125 
159 
169 
164 
144 
105 
24 
0 
85 
69 
0 
0 
0 
0 
0 
0 
0 
0 
100 
148 
167 
168 
155 
123 
56 
0 
0 
0 
0 
0 
0 
0 
0 
0 
0 
0 
70 
134 
160 
169 
163 
139 
86 
0 
0 
0 
0 
0 
0 
0 
0 
0 
0 
0 
33 
116 
151 
167 
168 
152 
112 
0 
0 
0 
0 
0 
0 
0 
0 
0 
86 
59 
0 
96 
139 
162 
169 
162 
133 
0 
0 
0 
0 
0 
0 
0 
0 
0 
0 
0 
0 
0 
0 
0 
0 
0 
0 
0 
0 
0 
150 
179 
187 
181 
161 
125 
56 
0 
0 
0 
0 
0 
0 
0 
0 
0 
0 
0 
128 
168 
185 
186 
173 
143 
85 
0 
0 
0 
0 
0 
0 
0 
0 
0 
0 
0 
100 
154 
179 
187 
181 
159 
112 
0 
0 
0 
0 
0 
0 
0 
0 
0 
0 
0 
69 
137 
169 
185 
186 
172 
137 
0 
0 
0 
0 
0 
0 
0 
0 
0 
0 
0 
34 
117 
157 
179 
187 
181 
156 
83 
0 
0 
0 
0 
0 
0 
0 
0 
0 
0 
0 
0 
0 
0 
0 
0 
0 
0 
0 
0 
154 
183 
191 
185 
164 
127 
53 
0 
0 
0 
0 
0 
0 
0 
0 
0 
0 
0 
130 
172 
189 
190 
176 
146 
85 
0 
0 
0 
0 
0 
0 
0 
0 
0 
0 
0 
101 
157 
183 
191 
185 
163 
114 
0 
0 
0 
0 
0 
0 
0 
0 
0 
0 
0 
67 
139 
173 
188 
190 
176 
139 
0 
0 
0 
0 
0 
0 
0 
0 
0 
0 
0 
28 
118 
160 
182 
191 
185 
160 
83 
0 
0 
0 
0 
0 
0 
0 
0 
0 
0 
0 
0 
0 
0 
21 
15 
0 
0 
0 
0 
134 
170 
180 
174 
152 
108 
0 
0 
0 
0 
0 
0 
0 
0 
0 
0 
15 
20 
104 
158 
177 
179 
164 
129 
43 
0 
0 
0 
0 
0 
0 
0 
0 
0 
0 
0 
62 
141 
6 
23 
0 
148 
85 
0 
0 
0 
0 
0 
0 
0 
0 
0 
0 
0 
0 
121 
160 
177 
179 
162 
0 
23 
7 
0 
0 
0 
0 
0 
0 
0 
0 
0 
0 
98 
146 
171 
180 
173 
142 
0 
0 
0 
0 
0 
0 
0 
0 
0 
0 
0 
0 
0 
71 
100 
106 
97 
75 
31 
0 
0 
0 
130 
148 
141 
114 
41 
0 
0 
0 
0 
0 
0 
0 
0 
46 
91 
105 
103 
87 
51 
144 
147 
128 
75 
0 
0 
0 
0 
0 
0 
0 
0 
0 
0 
0 
0 
11 
78 
100 
106 
97 
69 
0 
0 
0 
0 
0 
0 
0 
0 
0 
0 
0 
0 
0 
55 
123 
145 
145 
62 
93 
105 
103 
84 
18 
0 
0 
0 
0 
0 
0 
0 
0 
0 
107 
139 
148 
135 
57 
0 
0 
0 
0 
0 
0 
0 
0 
0 
0 
0 
0 
87 
129 
144 
146 
137 
118 
85 
25 
0 
0 
0 
0 
0 
0 
0 
0 
0 
0 
0 
0 
0 
0 
45 
113 
137 
146 
143 
130 
103 
52 
0 
0 
0 
0 
0 
0 
0 
0 
0 
0 
0 
0 
0 
0 
0 
92 
126 
142 
146 
139 
120 
79 
0 
0 
0 
0 
0 
0 
0 
0 
0 
0 
0 
0 
0 
0 
0 
68 
112 
135 
145 
145 
133 
102 
0 
0 
0 
0 
0 
0 
0 
0 
0 
0 
0 
0 
0 
0 
0 
0 
0 
0 
0 
0 
0 
0 
0 
0 
0 
0 
130 
159 
170 
170 
161 
143 
113 
65 
0 
0 
0 
0 
0 
0 
0 
0 
0 
0 
0 
0 
0 
0 
102 
145 
164 
171 
168 
156 
132 
90 
0 
0 
0 
0 
0 
0 
0 
0 
0 
0 
0 
0 
0 
0 
67 
125 
154 
168 
171 
165 
148 
115 
38 
0 
0 
0 
0 
0 
0 
0 
0 
0 
0 
0 
0 
0 
26 
103 
139 
160 
170 
170 
160 
137 
83 
0 
0 
0 
0 
0 
0 
0 
0 
0 
0 
0 
0 
0 
0 
0 
0 
0 
0 
0 
0 
0 
0 
0 
0 
81 
150 
175 
185 
184 
175 
157 
128 
82 
0 
0 
0 
0 
0 
0 
0 
0 
0 
0 
0 
0 
0 
0 
124 
162 
179 
186 
183 
170 
147 
108 
25 
0 
0 
0 
0 
0 
0 
0 
0 
0 
0 
0 
0 
0 
92 
143 
169 
182 
186 
180 
164 
133 
71 
0 
0 
0 
0 
0 
0 
0 
0 
0 
0 
0 
0 
0 
55 
120 
154 
175 
184 
185 
176 
154 
109 
0 
0 
0 
0 
0 
0 
0 
0 
0 
0 
0 
0 
0 
17 
0 
0 
0 
0 
0 
0 
0 
0 
0 
0 
88 
157 
181 
190 
190 
180 
161 
132 
85 
0 
0 
0 
0 
0 
0 
0 
0 
0 
0 
0 
0 
0 
0 
130 
167 
185 
191 
188 
175 
152 
112 
21 
0 
0 
0 
0 
0 
0 
0 
0 
0 
0 
0 
0 
0 
96 
148 
174 
188 
191 
185 
169 
138 
73 
0 
0 
0 
0 
0 
0 
0 
0 
0 
0 
0 
0 
0 
57 
124 
159 
180 
190 
190 
181 
160 
114 
0 
0 
0 
0 
0 
0 
0 
0 
0 
0 
0 
0 
0 
13 
0 
0 
0 
0 
0 
0 
0 
0 
0 
0 
0 
148 
176 
186 
186 
176 
156 
124 
70 
0 
0 
0 
0 
0 
0 
0 
0 
0 
0 
0 
0 
0 
0 
118 
161 
180 
187 
184 
170 
145 
100 
0 
0 
0 
0 
0 
0 
0 
0 
0 
0 
0 
0 
0 
0 
76 
140 
169 
184 
187 
181 
163 
129 
33 
0 
0 
0 
0 
0 
0 
0 
0 
0 
0 
0 
0 
0 
9 
115 
153 
175 
186 
186 
177 
153 
98 
0 
0 
0 
0 
0 
0 
0 
0 
0 
0 
0 
0 
0 
0 
0 
0 
0 
0 
0 
0 
0 
0 
0 
0 
0 
116 
157 
170 
171 
160 
138 
100 
0 
0 
0 
0 
0 
0 
0 
0 
0 
0 
0 
0 
0 
0 
0 
53 
138 
163 
172 
168 
153 
123 
59 
0 
0 
0 
0 
0 
0 
0 
0 
0 
0 
0 
0 
0 
0 
0 
113 
150 
168 
172 
164 
143 
97 
0 
0 
0 
0 
0 
0 
0 
0 
0 
0 
0 
0 
0 
0 
0 
81 
133 
158 
170 
171 
159 
128 
0 
0 
0 
0 
0 
0 
0 
0 
0 
0 
0 
0 
0 
0 
0 
0 
0 
0 
0 
0 
0 
0 
0 
0 
0 
0 
0 
105 
134 
138 
126 
96 
0 
0 
0 
0 
0 
0 
0 
0 
0 
0 
0 
0 
0 
0 
0 
0 
0 
60 
123 
138 
134 
114 
61 
0 
0 
0 
0 
0 
0 
0 
0 
0 
0 
0 
0 
0 
0 
0 
0 
0 
105 
132 
138 
128 
93 
0 
0 
0 
0 
0 
0 
0 
0 
0 
0 
0 
0 
0 
0 
0 
0 
0 
80 
121 
137 
136 
116 
0 
0 
0 
0 
0 
0 
0 
0 
0 
0 
0 
0 
0 
0 
0 
0 
70 
73 
66 
50 
21 
0 
0 
0 
0 
0 
0 
0 
0 
0 
0 
0 
0 
0 
0 
0 
0 
0 
0 
0 
0 
0 
0 
2 
57 
71 
73 
65 
45 
1 
0 
0 
0 
0 
0 
0 
0 
0 
0 
0 
0 
0 
0 
0 
0 
0 
0 
0 
0 
0 
0 
0 
31 
60 
72 
73 
62 
36 
0 
0 
0 
0 
0 
0 
0 
0 
0 
0 
0 
0 
0 
0 
0 
0 
0 
0 
0 
0 
0 
0 
0 
41 
63 
73 
72 
59 
19 
0 
0 
0 
0 
0 
0 
0 
0 
0 
116 
115 
107 
93 
71 
36 
0 
0 
0 
0 
0 
0 
0 
0 
0 
0 
0 
0 
0 
0 
0 
0 
0 
0 
0 
0 
41 
88 
108 
116 
115 
108 
92 
67 
19 
0 
0 
0 
0 
0 
0 
0 
0 
0 
0 
0 
0 
0 
0 
0 
0 
0 
0 
0 
0 
55 
89 
107 
115 
116 
108 
92 
61 
0 
0 
0 
0 
0 
0 
0 
0 
0 
0 
0 
0 
0 
0 
0 
0 
0 
0 
0 
0 
8 
63 
90 
107 
115 
116 
109 
91 
51 
0 
0 
0 
0 
0 
0 
0 
0 
145 
143 
135 
121 
101 
72 
27 
0 
0 
0 
0 
0 
0 
0 
0 
0 
0 
0 
0 
0 
0 
0 
0 
0 
0 
0 
98 
125 
139 
145 
144 
136 
123 
101 
66 
0 
0 
0 
0 
0 
0 
0 
0 
0 
0 
0 
0 
0 
0 
0 
0 
0 
0 
0 
50 
98 
123 
137 
144 
144 
138 
125 
101 
58 
0 
0 
0 
0 
0 
0 
0 
0 
0 
0 
0 
0 
0 
0 
0 
0 
0 
0 
0 
61 
98 
121 
136 
143 
145 
140 
127 
101 
38 
0 
0 
0 
0 
0 
0 
0 
165 
162 
154 
140 
121 
94 
55 
0 
0 
0 
0 
0 
0 
0 
0 
0 
0 
0 
0 
0 
0 
0 
0 
0 
0 
83 
127 
149 
161 
165 
164 
157 
144 
123 
93 
42 
0 
0 
0 
0 
0 
0 
0 
0 
0 
0 
0 
0 
0 
0 
0 
0 
0 
0 
87 
124 
146 
158 
165 
165 
159 
147 
126 
92 
0 
0 
0 
0 
0 
0 
0 
0 
0 
0 
0 
0 
0 
0 
0 
0 
0 
0 
32 
89 
121 
142 
156 
163 
165 
161 
150 
130 
90 
0 
0 
0 
0 
0 
0 
0 
179 
176 
167 
154 
134 
108 
71 
8 
0 
0 
0 
0 
0 
0 
0 
0 
0 
0 
0 
0 
0 
0 
0 
0 
0 
109 
145 
165 
175 
179 
178 
170 
158 
138 
109 
64 
0 
0 
0 
0 
0 
0 
0 
0 
0 
0 
0 
0 
0 
0 
0 
0 
0 
31 
107 
140 
161 
173 
179 
179 
173 
162 
142 
111 
49 
0 
0 
0 
0 
0 
0 
0 
0 
0 
0 
0 
0 
0 
0 
0 
0 
0 
56 
106 
136 
156 
170 
177 
179 
176 
166 
147 
114 
0 
0 
0 
0 
0 
0 
0 
188 
184 
175 
161 
142 
115 
78 
16 
0 
0 
0 
0 
0 
0 
0 
0 
0 
0 
0 
0 
0 
0 
0 
0 
0 
122 
156 
174 
184 
188 
186 
179 
166 
146 
118 
73 
0 
0 
0 
0 
0 
0 
0 
0 
0 
0 
0 
0 
0 
0 
0 
0 
0 
49 
118 
150 
170 
181 
187 
187 
182 
171 
152 
121 
63 
0 
0 
0 
0 
0 
0 
0 
0 
0 
0 
0 
0 
0 
0 
0 
0 
0 
66 
115 
144 
165 
178 
186 
188 
185 
175 
157 
126 
0 
0 
0 
0 
0 
0 
0 
191 
187 
178 
164 
144 
116 
77 
4 
0 
0 
0 
0 
0 
0 
0 
0 
0 
0 
0 
0 
0 
0 
0 
0 
0 
123 
159 
178 
188 
191 
189 
182 
168 
148 
119 
71 
0 
0 
0 
0 
0 
0 
0 
0 
0 
0 
0 
0 
0 
0 
0 
0 
0 
37 
119 
152 
172 
185 
190 
191 
185 
174 
154 
123 
58 
0 
0 
0 
0 
0 
0 
0 
0 
0 
0 
0 
0 
0 
0 
0 
0 
0 
63 
115 
147 
167 
181 
189 
191 
188 
178 
160 
128 
0 
0 
0 
0 
0 
0 
0 
189 
185 
175 
160 
139 
109 
65 
0 
0 
0 
0 
0 
0 
0 
0 
0 
0 
0 
0 
0 
0 
0 
0 
0 
0 
112 
154 
174 
185 
189 
187 
179 
165 
144 
111 
52 
0 
0 
0 
0 
0 
0 
0 
0 
0 
0 
0 
0 
0 
0 
0 
0 
0 
0 
109 
147 
169 
182 
188 
188 
183 
170 
149 
114 
0 
0 
0 
0 
0 
0 
0 
0 
0 
0 
0 
0 
0 
0 
0 
0 
0 
0 
39 
107 
142 
164 
178 
187 
189 
186 
175 
156 
118 
0 
0 
0 
0 
0 
0 
0 
180 
176 
166 
150 
127 
92 
31 
0 
0 
0 
0 
0 
0 
0 
0 
0 
0 
0 
0 
0 
0 
0 
0 
0 
0 
61 
138 
163 
176 
180 
178 
170 
155 
130 
91 
0 
0 
0 
0 
0 
0 
0 
0 
0 
0 
0 
0 
0 
0 
0 
0 
0 
0 
0 
80 
132 
158 
173 
179 
180 
173 
159 
135 
88 
0 
0 
0 
0 
0 
0 
0 
0 
0 
0 
0 
0 
0 
0 
0 
0 
0 
0 
0 
85 
128 
153 
169 
178 
180 
176 
164 
141 
83 
0 
0 
0 
0 
0 
0 
0 
163 
159 
148 
130 
101 
52 
0 
0 
0 
0 
0 
0 
0 
0 
0 
0 
0 
0 
0 
0 
0 
0 
0 
0 
0 
0 
97 
139 
156 
163 
161 
151 
133 
102 
0 
0 
0 
0 
0 
0 
0 
0 
0 
0 
0 
0 
0 
0 
0 
0 
0 
0 
0 
0 
0 
97 
135 
153 
162 
162 
154 
137 
103 
0 
0 
0 
0 
0 
0 
0 
0 
0 
0 
0 
0 
0 
0 
0 
0 
0 
0 
0 
0 
0 
98 
131 
150 
160 
163 
157 
141 
104 
0 
0 
0 
0 
0 
0 
0 
0 
129 
126 
113 
88 
0 
0 
0 
0 
0 
0 
0 
0 
0 
0 
0 
0 
0 
0 
0 
0 
0 
0 
0 
0 
0 
0 
0 
0 
116 
128 
127 
115 
86 
0 
0 
0 
0 
0 
0 
0 
0 
0 
0 
0 
0 
0 
0 
0 
0 
0 
0 
0 
0 
0 
0 
0 
76 
114 
127 
128 
116 
83 
0 
0 
0 
0 
0 
0 
0 
0 
0 
0 
0 
0 
0 
0 
0 
0 
0 
0 
0 
0 
0 
0 
0 
81 
113 
126 
128 
118 
77 
0 
0 
0 
0 
0 
0 
0 
0 
0 
0 
0 
0 
0 
0 
0 
0 
0 
0 
0 
0 
0 
0 
0 
0 
0 
0 
0 
0 
0 
0 
0 
0 
0 
0 
0 
0 
0 
0 
0 
0 
0 
0 
0 
0 
0 
0 
0 
0 
0 
0 
0 
0 
0 
0 
0 
0 
0 
0 
0 
0 
0 
0 
0 
0 
0 
0 
0 
0 
0 
0 
0 
0 
0 
0 
0 
0 
0 
0 
0 
0 
0 
0 
0 
0 
0 
0 
0 
0 
0 
0 
0 
0 
0 
0 
0 
0 
0 
0 
0 
0 
0 
0 
0 
0 
0 
0 
0 
0 
0 