P2 100 100 255
0 
0 
0 
0 
0 
0 
0 
0 
0 
0 
0 
0 
0 
0 
0 
0 
0 
0 
0 
0 
0 
0 
140 
162 
173 
181 
186 
191 
194 
197 
199 
201 
202 
203 
204 
204 
204 
204 
203 
202 
201 
200 
199 
198 
196 
194 
192 
190 
188 
185 
182 
180 
177 
174 
170 
167 
163 
159 
155 
151 
146 
142 
137 
131 
126 
120 
114 
108 
101 
94 
86 
77 
68 
58 
47 
34 
19 
0 
0 
0 
0 
0 
0 
0 
0 
0 
0 
0 
0 
0 
0 
0 
0 
0 
0 
0 
0 
0 
0 
0 
0 
0 
0 
0 
0 
0 
0 
0 
0 
0 
0 
0 
0 
0 
0 
0 
0 
0 
0 
0 
0 
0 
146 
164 
174 
182 
187 
191 
195 
197 
200 
201 
202 
203 
204 
204 
204 
204 
203 
202 
201 
200 
199 
198 
196 
194 
192 
190 
188 
185 
182 
180 
177 
173 
170 
167 
163 
159 
155 
151 
146 
142 
137 
132 
126 
120 
114 
108 
101 
94 
86 
78 
69 
59 
48 
36 
21 
3 
0 
0 
0 
0 
0 
0 
0 
0 
0 
0 
0 
0 
0 
0 
0 
0 
0 
0 
0 
0 
0 
0 
0 
0 
0 
0 
0 
0 
0 
0 
0 
0 
0 
0 
0 
0 
0 
0 
0 
0 
0 
0 
0 
0 
149 
166 
175 
182 
188 
192 
195 
198 
200 
201 
202 
203 
204 
204 
204 
204 
203 
202 
201 
200 
199 
197 
196 
194 
192 
190 
187 
185 
182 
179 
176 
173 
170 
166 
163 
159 
155 
151 
146 
141 
137 
131 
126 
120 
114 
108 
101 
94 
86 
78 
69 
59 
48 
36 
22 
5 
0 
0 
0 
0 
0 
0 
0 
0 
0 
0 
0 
0 
0 
0 
0 
0 
0 
0 
0 
0 
0 
0 
0 
0 
0 
0 
0 
0 
0 
0 
0 
0 
0 
0 
0 
0 
0 
0 
0 
0 
0 
0 
0 
0 
152 
166 
176 
182 
188 
192 
195 
197 
199 
201 
202 
203 
203 
204 
203 
203 
203 
202 
201 
200 
198 
197 
195 
193 
191 
189 
187 
184 
182 
179 
176 
173 
169 
166 
162 
158 
154 
150 
146 
141 
136 
131 
126 
120 
114 
108 
101 
94 
86 
78 
69 
59 
49 
36 
23 
6 
0 
0 
0 
0 
0 
0 
0 
0 
0 
0 
0 
0 
0 
0 
0 
0 
0 
0 
0 
0 
0 
0 
0 
0 
0 
0 
0 
0 
0 
0 
0 
0 
0 
0 
0 
0 
0 
0 
0 
0 
0 
0 
0 
0 
153 
167 
176 
182 
187 
191 
195 
197 
199 
201 
202 
202 
203 
203 
203 
203 
202 
201 
200 
199 
198 
196 
195 
193 
191 
189 
186 
184 
181 
178 
175 
172 
169 
165 
162 
158 
154 
150 
145 
141 
136 
130 
125 
119 
113 
107 
100 
93 
86 
77 
69 
59 
48 
36 
23 
6 
0 
0 
0 
0 
0 
0 
0 
0 
0 
0 
0 
0 
0 
0 
0 
0 
0 
0 
0 
0 
0 
0 
0 
0 
0 
0 
0 
0 
0 
0 
0 
0 
0 
0 
0 
0 
0 
0 
0 
0 
0 
0 
0 
102 
115 
122 
126 
128 
187 
191 
194 
196 
198 
200 
201 
202 
202 
202 
202 
202 
201 
201 
200 
199 
197 
196 
194 
192 
190 
188 
186 
183 
180 
178 
175 
172 
168 
165 
161 
157 
153 
149 
144 
140 
135 
130 
124 
119 
113 
106 
100 
92 
85 
77 
68 
58 
48 
36 
22 
6 
0 
0 
0 
0 
0 
0 
0 
0 
0 
0 
0 
0 
0 
0 
0 
0 
0 
0 
0 
0 
0 
0 
0 
0 
0 
0 
0 
0 
0 
0 
0 
0 
0 
0 
0 
0 
0 
0 
0 
0 
0 
0 
111 
121 
127 
131 
134 
136 
137 
138 
138 
196 
198 
199 
200 
201 
201 
202 
201 
201 
201 
200 
199 
198 
196 
195 
193 
191 
189 
187 
185 
182 
180 
177 
174 
171 
167 
164 
160 
156 
152 
148 
144 
139 
134 
129 
123 
118 
112 
105 
99 
92 
84 
76 
67 
57 
47 
35 
21 
5 
0 
0 
0 
0 
0 
0 
0 
0 
0 
0 
0 
0 
0 
0 
0 
0 
0 
0 
0 
0 
0 
0 
0 
0 
0 
0 
0 
0 
0 
0 
0 
0 
0 
0 
0 
0 
0 
0 
0 
0 
0 
116 
126 
132 
136 
139 
141 
142 
143 
143 
143 
143 
142 
198 
199 
200 
200 
201 
200 
200 
200 
199 
198 
197 
195 
194 
192 
190 
188 
186 
184 
181 
179 
176 
173 
170 
166 
163 
159 
155 
151 
147 
142 
138 
133 
128 
122 
117 
111 
104 
98 
90 
83 
75 
66 
56 
46 
34 
20 
3 
0 
0 
0 
0 
0 
0 
0 
0 
0 
0 
0 
0 
0 
0 
0 
0 
0 
0 
0 
0 
0 
0 
0 
0 
0 
0 
0 
0 
0 
0 
0 
0 
0 
0 
0 
0 
0 
0 
0 
0 
118 
129 
135 
139 
142 
145 
146 
147 
148 
148 
147 
147 
146 
145 
144 
142 
199 
199 
199 
199 
198 
198 
197 
196 
194 
193 
191 
189 
187 
185 
183 
180 
177 
175 
172 
168 
165 
162 
158 
154 
150 
146 
141 
137 
132 
126 
121 
115 
109 
103 
96 
89 
81 
73 
64 
55 
44 
32 
18 
1 
0 
0 
0 
0 
0 
0 
0 
0 
0 
0 
0 
0 
0 
0 
0 
0 
0 
0 
0 
0 
0 
0 
0 
0 
0 
0 
0 
0 
0 
0 
0 
0 
0 
0 
0 
0 
0 
0 
0 
120 
131 
138 
142 
146 
148 
150 
151 
151 
152 
152 
151 
151 
150 
149 
147 
146 
144 
142 
198 
198 
197 
196 
195 
194 
193 
191 
190 
188 
186 
184 
181 
179 
176 
173 
170 
167 
164 
160 
157 
153 
149 
144 
140 
135 
130 
125 
120 
114 
108 
101 
95 
87 
80 
71 
63 
53 
42 
30 
16 
0 
0 
0 
0 
0 
0 
0 
0 
0 
0 
0 
0 
0 
0 
0 
0 
0 
0 
0 
0 
0 
0 
0 
0 
0 
0 
0 
0 
0 
0 
0 
0 
0 
0 
0 
0 
0 
0 
0 
119 
132 
140 
145 
148 
151 
153 
154 
155 
155 
155 
155 
155 
154 
153 
152 
150 
149 
147 
145 
143 
140 
195 
195 
194 
193 
191 
190 
188 
186 
184 
182 
180 
177 
175 
172 
169 
166 
162 
159 
155 
151 
147 
143 
138 
134 
129 
123 
118 
112 
106 
100 
93 
86 
78 
69 
60 
51 
40 
27 
13 
0 
0 
0 
0 
0 
0 
0 
0 
0 
0 
0 
0 
0 
0 
0 
0 
0 
0 
0 
0 
0 
0 
0 
0 
0 
0 
0 
0 
0 
0 
0 
0 
0 
0 
0 
0 
0 
0 
113 
132 
141 
146 
150 
153 
155 
157 
158 
158 
159 
159 
158 
158 
157 
156 
155 
153 
152 
150 
148 
145 
143 
141 
138 
192 
191 
190 
188 
186 
185 
183 
180 
178 
176 
173 
170 
167 
164 
160 
157 
153 
149 
145 
141 
136 
132 
127 
122 
116 
110 
104 
98 
91 
83 
76 
67 
58 
48 
37 
25 
10 
0 
0 
0 
0 
0 
0 
0 
0 
0 
0 
0 
0 
0 
0 
0 
0 
0 
0 
0 
0 
0 
0 
0 
0 
0 
0 
0 
0 
0 
0 
0 
0 
0 
0 
0 
0 
0 
0 
130 
140 
147 
151 
155 
157 
159 
160 
161 
161 
162 
161 
161 
160 
160 
158 
157 
156 
154 
152 
150 
148 
146 
143 
140 
137 
134 
188 
186 
185 
183 
181 
179 
176 
174 
171 
168 
165 
162 
159 
155 
151 
147 
143 
139 
134 
130 
125 
119 
114 
108 
102 
95 
88 
81 
73 
65 
55 
45 
34 
21 
6 
0 
0 
0 
0 
0 
0 
0 
0 
0 
0 
0 
0 
0 
0 
0 
0 
0 
0 
0 
0 
0 
0 
0 
0 
0 
0 
0 
0 
0 
0 
0 
0 
0 
0 
0 
0 
0 
126 
139 
147 
152 
156 
158 
161 
162 
163 
164 
164 
164 
164 
164 
163 
162 
161 
159 
158 
156 
154 
152 
150 
148 
145 
142 
140 
137 
133 
130 
183 
181 
179 
177 
174 
172 
169 
166 
163 
160 
157 
153 
149 
145 
141 
137 
132 
128 
122 
117 
112 
106 
99 
93 
86 
78 
70 
106 
98 
89 
80 
69 
56 
40 
17 
0 
0 
0 
0 
0 
0 
0 
0 
0 
0 
0 
0 
0 
0 
0 
0 
0 
0 
0 
0 
0 
0 
0 
0 
0 
0 
0 
0 
0 
0 
0 
0 
0 
0 
111 
136 
145 
152 
156 
159 
162 
164 
165 
166 
166 
167 
167 
166 
166 
165 
164 
163 
161 
160 
158 
156 
154 
152 
150 
147 
144 
142 
138 
135 
132 
128 
125 
177 
174 
172 
170 
167 
164 
161 
158 
154 
151 
147 
143 
139 
135 
130 
125 
120 
115 
109 
103 
97 
138 
132 
127 
121 
114 
107 
99 
90 
80 
69 
56 
40 
19 
0 
0 
0 
0 
0 
0 
0 
0 
0 
0 
0 
0 
0 
0 
0 
0 
0 
0 
0 
0 
0 
0 
0 
0 
0 
0 
0 
0 
0 
0 
0 
0 
0 
130 
143 
150 
156 
160 
162 
165 
166 
167 
168 
169 
169 
169 
168 
168 
167 
166 
165 
163 
162 
160 
158 
156 
154 
151 
149 
146 
143 
140 
137 
134 
130 
126 
123 
172 
170 
167 
164 
162 
159 
155 
152 
148 
145 
141 
136 
132 
127 
123 
117 
112 
157 
153 
149 
144 
139 
133 
127 
121 
114 
107 
98 
89 
79 
68 
55 
39 
17 
0 
0 
0 
0 
0 
0 
0 
0 
0 
0 
0 
0 
0 
0 
0 
0 
0 
0 
0 
0 
0 
0 
0 
0 
0 
0 
0 
0 
0 
0 
0 
113 
139 
148 
155 
159 
163 
165 
167 
169 
170 
170 
171 
171 
170 
170 
169 
168 
167 
166 
165 
163 
161 
159 
157 
155 
153 
150 
148 
145 
142 
139 
135 
132 
128 
124 
120 
116 
165 
162 
159 
156 
153 
149 
146 
142 
138 
134 
129 
125 
173 
170 
166 
162 
158 
154 
149 
144 
139 
133 
127 
121 
113 
106 
97 
88 
78 
66 
53 
36 
13 
0 
0 
0 
0 
0 
0 
0 
0 
0 
0 
0 
0 
0 
0 
0 
0 
0 
0 
0 
0 
0 
0 
0 
0 
0 
0 
0 
0 
0 
0 
130 
144 
152 
158 
162 
165 
167 
169 
171 
171 
172 
172 
172 
172 
171 
171 
170 
169 
168 
166 
164 
163 
161 
159 
157 
154 
152 
149 
146 
143 
140 
137 
133 
130 
126 
122 
117 
113 
108 
156 
153 
150 
147 
143 
139 
135 
185 
183 
180 
177 
174 
171 
167 
163 
159 
154 
149 
144 
139 
133 
126 
119 
112 
104 
95 
86 
75 
63 
49 
31 
6 
0 
0 
0 
0 
0 
0 
0 
0 
0 
0 
0 
0 
0 
0 
0 
0 
0 
0 
0 
0 
0 
0 
0 
0 
0 
0 
0 
0 
0 
138 
149 
156 
161 
164 
167 
169 
171 
172 
173 
174 
174 
174 
173 
173 
172 
171 
170 
169 
167 
166 
164 
162 
160 
158 
155 
153 
150 
147 
144 
141 
138 
134 
131 
127 
123 
119 
114 
110 
105 
100 
147 
143 
195 
194 
192 
189 
187 
184 
181 
178 
175 
171 
167 
163 
159 
154 
149 
143 
138 
131 
125 
118 
110 
102 
93 
83 
71 
59 
44 
25 
0 
0 
0 
0 
0 
0 
0 
0 
0 
0 
0 
0 
0 
0 
0 
0 
0 
0 
0 
0 
0 
0 
0 
0 
0 
0 
0 
0 
124 
143 
152 
158 
163 
166 
169 
171 
173 
174 
174 
175 
175 
175 
174 
174 
173 
172 
171 
170 
168 
167 
165 
163 
161 
159 
156 
154 
151 
148 
145 
142 
139 
135 
132 
128 
124 
120 
116 
111 
106 
101 
202 
200 
199 
197 
195 
193 
191 
188 
185 
182 
179 
175 
171 
167 
163 
158 
153 
148 
142 
136 
129 
123 
115 
107 
99 
89 
79 
67 
53 
37 
16 
0 
0 
0 
0 
0 
0 
0 
0 
0 
0 
0 
0 
0 
0 
0 
0 
0 
0 
0 
0 
0 
0 
0 
0 
0 
0 
0 
133 
147 
155 
161 
165 
168 
171 
172 
174 
175 
176 
176 
176 
176 
175 
175 
174 
173 
172 
171 
169 
167 
166 
164 
162 
159 
157 
155 
152 
149 
146 
143 
140 
136 
133 
129 
125 
121 
117 
112 
107 
102 
205 
204 
202 
201 
199 
196 
194 
191 
188 
185 
182 
178 
175 
170 
166 
161 
157 
151 
146 
140 
134 
127 
120 
112 
104 
95 
85 
74 
61 
47 
29 
5 
0 
0 
0 
0 
0 
0 
0 
0 
0 
0 
0 
0 
0 
0 
0 
0 
0 
0 
0 
0 
0 
0 
0 
0 
0 
0 
138 
150 
157 
163 
166 
170 
172 
174 
175 
176 
176 
177 
177 
177 
176 
176 
175 
174 
173 
171 
170 
168 
166 
164 
162 
160 
158 
155 
153 
150 
147 
144 
140 
137 
133 
130 
126 
122 
117 
113 
108 
103 
208 
207 
205 
204 
202 
199 
197 
194 
191 
188 
185 
181 
178 
174 
169 
165 
160 
155 
149 
143 
137 
131 
124 
116 
108 
100 
90 
80 
68 
55 
39 
19 
0 
0 
0 
0 
0 
0 
0 
0 
0 
0 
0 
0 
0 
0 
0 
0 
0 
0 
0 
0 
0 
0 
0 
0 
0 
0 
142 
152 
159 
164 
168 
171 
173 
175 
176 
177 
177 
177 
177 
177 
177 
176 
175 
174 
173 
172 
170 
169 
167 
165 
163 
161 
158 
156 
153 
150 
147 
144 
141 
138 
134 
130 
126 
122 
118 
113 
109 
212 
211 
210 
208 
206 
204 
202 
200 
197 
194 
191 
188 
184 
180 
176 
172 
168 
163 
158 
152 
147 
141 
134 
127 
120 
112 
104 
95 
85 
74 
61 
47 
29 
6 
0 
0 
0 
0 
0 
0 
0 
0 
0 
0 
0 
0 
0 
0 
0 
0 
0 
0 
0 
0 
0 
0 
0 
0 
125 
145 
154 
160 
165 
169 
171 
174 
175 
176 
177 
178 
178 
178 
178 
177 
177 
176 
175 
174 
172 
171 
169 
167 
165 
163 
161 
159 
156 
153 
151 
148 
145 
141 
138 
134 
131 
127 
123 
118 
114 
109 
215 
213 
212 
211 
209 
207 
204 
202 
199 
196 
193 
190 
186 
183 
179 
175 
170 
165 
160 
155 
149 
144 
137 
130 
123 
116 
107 
99 
89 
78 
66 
53 
37 
17 
0 
0 
0 
0 
0 
0 
0 
0 
0 
0 
0 
0 
0 
0 
0 
0 
0 
0 
0 
0 
0 
0 
0 
0 
130 
146 
155 
161 
166 
169 
172 
174 
176 
177 
178 
178 
178 
178 
178 
178 
177 
176 
175 
174 
172 
171 
169 
167 
165 
163 
161 
159 
156 
154 
151 
148 
145 
142 
138 
135 
131 
127 
123 
119 
114 
110 
217 
216 
214 
213 
211 
209 
207 
204 
201 
199 
195 
192 
189 
185 
181 
177 
172 
168 
163 
157 
152 
146 
140 
133 
126 
119 
111 
102 
93 
82 
71 
58 
43 
26 
1 
0 
0 
0 
0 
0 
0 
0 
0 
0 
0 
0 
0 
0 
0 
0 
0 
0 
0 
0 
0 
0 
0 
0 
133 
148 
156 
162 
166 
170 
172 
174 
176 
177 
178 
178 
178 
178 
178 
178 
177 
176 
175 
174 
172 
171 
169 
167 
166 
163 
161 
159 
156 
154 
151 
148 
145 
142 
138 
135 
131 
127 
123 
119 
114 
220 
219 
218 
216 
215 
213 
211 
208 
206 
203 
200 
197 
194 
191 
187 
183 
179 
174 
170 
165 
160 
154 
148 
142 
136 
129 
121 
114 
105 
96 
86 
75 
63 
49 
32 
11 
0 
0 
0 
0 
0 
0 
0 
0 
0 
0 
0 
0 
0 
0 
0 
0 
0 
0 
0 
0 
0 
0 
0 
134 
148 
157 
162 
167 
170 
172 
174 
176 
177 
178 
178 
178 
178 
178 
178 
177 
176 
175 
174 
172 
171 
169 
167 
165 
163 
161 
159 
156 
154 
151 
148 
145 
142 
138 
135 
131 
127 
123 
119 
114 
222 
221 
219 
218 
216 
214 
212 
210 
208 
205 
202 
199 
196 
192 
188 
185 
180 
176 
171 
167 
161 
156 
150 
144 
138 
131 
124 
116 
108 
99 
89 
78 
67 
53 
38 
18 
0 
0 
0 
0 
0 
0 
0 
0 
0 
0 
0 
0 
0 
0 
0 
0 
0 
0 
0 
0 
0 
0 
0 
135 
149 
157 
162 
167 
170 
172 
174 
176 
177 
178 
178 
178 
178 
178 
177 
177 
176 
175 
174 
172 
171 
169 
167 
165 
163 
161 
159 
156 
153 
151 
148 
145 
141 
138 
134 
131 
127 
123 
119 
224 
223 
222 
221 
219 
218 
216 
214 
211 
209 
206 
203 
200 
197 
194 
190 
186 
182 
178 
173 
168 
163 
158 
152 
146 
140 
133 
126 
118 
110 
101 
92 
81 
70 
57 
42 
24 
0 
0 
0 
0 
0 
0 
0 
0 
0 
0 
0 
0 
0 
0 
0 
0 
0 
0 
0 
0 
0 
0 
0 
135 
148 
156 
162 
166 
169 
172 
174 
175 
177 
177 
178 
178 
178 
178 
177 
176 
176 
174 
173 
172 
170 
169 
167 
165 
163 
161 
158 
156 
153 
150 
147 
144 
141 
138 
134 
130 
127 
123 
118 
225 
224 
223 
222 
220 
219 
217 
215 
213 
210 
207 
205 
201 
198 
195 
191 
187 
183 
179 
174 
169 
164 
159 
153 
147 
141 
135 
127 
120 
112 
103 
94 
84 
72 
60 
46 
28 
7 
0 
0 
0 
0 
0 
0 
0 
0 
0 
0 
0 
0 
0 
0 
0 
0 
0 
0 
0 
0 
0 
0 
134 
148 
156 
161 
166 
169 
171 
173 
175 
176 
177 
177 
177 
177 
177 
177 
176 
175 
174 
173 
171 
170 
168 
166 
164 
162 
160 
158 
155 
153 
150 
147 
144 
141 
137 
134 
130 
126 
122 
118 
226 
225 
224 
223 
221 
220 
218 
216 
213 
211 
208 
205 
202 
199 
196 
192 
188 
184 
180 
175 
171 
165 
160 
155 
149 
142 
136 
129 
121 
113 
105 
96 
86 
75 
62 
48 
32 
12 
0 
0 
0 
0 
0 
0 
0 
0 
0 
0 
0 
0 
0 
0 
0 
0 
0 
0 
0 
0 
0 
0 
132 
146 
155 
160 
165 
168 
171 
173 
174 
175 
176 
177 
177 
177 
176 
176 
175 
174 
173 
172 
171 
169 
168 
166 
164 
162 
160 
157 
155 
152 
149 
146 
143 
140 
137 
133 
129 
125 
121 
228 
227 
226 
225 
224 
222 
221 
219 
217 
214 
212 
209 
206 
203 
200 
196 
193 
189 
185 
181 
176 
171 
166 
161 
155 
150 
143 
137 
130 
122 
115 
106 
97 
87 
76 
64 
51 
35 
15 
0 
0 
0 
0 
0 
0 
0 
0 
0 
0 
0 
0 
0 
0 
0 
0 
0 
0 
0 
0 
0 
0 
130 
145 
153 
159 
164 
167 
170 
172 
173 
174 
175 
176 
176 
176 
176 
175 
174 
174 
173 
171 
170 
168 
167 
165 
163 
161 
159 
156 
154 
151 
148 
145 
142 
139 
136 
132 
128 
125 
121 
228 
228 
227 
226 
224 
223 
221 
219 
217 
215 
212 
210 
207 
204 
200 
197 
193 
190 
185 
181 
177 
172 
167 
162 
156 
150 
144 
138 
131 
123 
116 
107 
98 
88 
78 
66 
52 
37 
18 
0 
0 
0 
0 
0 
0 
0 
0 
0 
0 
0 
0 
0 
0 
0 
0 
0 
0 
0 
0 
0 
0 
125 
142 
151 
158 
162 
166 
168 
171 
172 
173 
174 
175 
175 
175 
175 
174 
174 
173 
172 
170 
169 
168 
166 
164 
162 
160 
158 
155 
153 
150 
148 
145 
141 
138 
135 
131 
128 
124 
120 
229 
228 
227 
226 
225 
223 
221 
220 
217 
215 
213 
210 
207 
204 
201 
197 
194 
190 
186 
182 
177 
172 
167 
162 
157 
151 
145 
138 
131 
124 
116 
108 
99 
89 
79 
67 
54 
39 
20 
0 
0 
0 
0 
0 
0 
0 
0 
0 
0 
0 
0 
0 
0 
0 
0 
0 
0 
0 
0 
0 
0 
119 
140 
149 
156 
160 
164 
167 
169 
171 
172 
173 
173 
174 
174 
174 
173 
172 
172 
171 
169 
168 
167 
165 
163 
161 
159 
157 
154 
152 
149 
146 
144 
140 
137 
134 
130 
126 
123 
118 
229 
228 
227 
226 
225 
223 
222 
220 
218 
215 
213 
210 
207 
204 
201 
198 
194 
190 
186 
182 
177 
173 
168 
162 
157 
151 
145 
138 
132 
124 
116 
108 
99 
90 
79 
68 
55 
40 
22 
0 
0 
0 
0 
0 
0 
0 
0 
0 
0 
0 
0 
0 
0 
0 
0 
0 
0 
0 
0 
0 
0 
0 
136 
146 
153 
158 
162 
165 
168 
169 
171 
171 
172 
172 
172 
172 
172 
171 
170 
169 
168 
167 
165 
164 
162 
160 
158 
156 
153 
151 
148 
145 
142 
139 
136 
133 
129 
125 
121 
229 
229 
228 
227 
226 
225 
223 
222 
220 
218 
215 
213 
210 
207 
204 
201 
198 
194 
190 
186 
182 
177 
173 
168 
162 
157 
151 
145 
138 
132 
124 
117 
108 
99 
90 
79 
68 
55 
40 
22 
0 
0 
0 
0 
0 
0 
0 
0 
0 
0 
0 
0 
0 
0 
0 
0 
0 
0 
0 
0 
0 
0 
0 
131 
143 
151 
156 
160 
163 
166 
167 
169 
170 
170 
171 
171 
171 
170 
170 
169 
168 
167 
165 
164 
162 
161 
159 
157 
154 
152 
149 
147 
144 
141 
138 
135 
131 
128 
124 
120 
229 
229 
228 
227 
226 
225 
223 
221 
219 
217 
215 
213 
210 
207 
204 
201 
197 
194 
190 
186 
182 
177 
172 
167 
162 
157 
151 
145 
138 
131 
124 
116 
108 
99 
90 
79 
68 
55 
40 
22 
0 
0 
0 
0 
0 
0 
0 
0 
0 
0 
0 
0 
0 
0 
0 
0 
0 
0 
0 
0 
0 
0 
0 
124 
139 
147 
153 
158 
161 
163 
165 
167 
168 
169 
169 
169 
169 
169 
168 
167 
166 
165 
164 
162 
161 
159 
157 
155 
153 
150 
148 
145 
142 
139 
136 
133 
130 
126 
122 
118 
229 
228 
228 
227 
226 
224 
223 
221 
219 
217 
215 
212 
209 
207 
204 
200 
197 
193 
189 
185 
181 
177 
172 
167 
162 
156 
150 
144 
138 
131 
124 
116 
108 
99 
89 
79 
67 
54 
39 
22 
0 
0 
0 
0 
0 
0 
0 
0 
0 
0 
0 
0 
0 
0 
0 
0 
0 
0 
0 
0 
0 
0 
0 
114 
134 
144 
150 
155 
158 
161 
163 
165 
166 
167 
167 
167 
167 
167 
166 
166 
165 
163 
162 
161 
159 
157 
155 
153 
151 
149 
146 
144 
141 
138 
135 
131 
128 
124 
120 
228 
228 
228 
227 
226 
225 
224 
222 
220 
218 
216 
214 
212 
209 
206 
203 
200 
196 
193 
189 
185 
180 
176 
171 
166 
161 
156 
150 
144 
137 
130 
123 
115 
107 
98 
88 
78 
66 
53 
38 
21 
0 
0 
0 
0 
0 
0 
0 
0 
0 
0 
0 
0 
0 
0 
0 
0 
0 
0 
0 
0 
0 
0 
0 
0 
128 
139 
146 
151 
155 
158 
161 
162 
163 
164 
165 
165 
165 
165 
164 
164 
163 
162 
160 
159 
157 
156 
154 
152 
149 
147 
144 
142 
139 
136 
133 
129 
126 
122 
119 
227 
227 
227 
226 
225 
224 
223 
221 
220 
218 
216 
213 
211 
208 
205 
202 
199 
195 
192 
188 
184 
180 
175 
170 
165 
160 
155 
149 
143 
136 
129 
122 
114 
106 
97 
87 
77 
65 
52 
37 
19 
0 
0 
0 
0 
0 
0 
0 
0 
0 
0 
0 
0 
0 
0 
0 
0 
0 
0 
0 
0 
0 
0 
0 
0 
119 
134 
142 
148 
152 
155 
158 
159 
161 
162 
162 
163 
163 
163 
162 
161 
161 
160 
158 
157 
155 
153 
152 
150 
147 
145 
142 
140 
137 
134 
131 
127 
124 
120 
116 
226 
226 
226 
225 
224 
223 
222 
220 
219 
217 
215 
212 
210 
207 
204 
201 
198 
194 
191 
187 
183 
179 
174 
169 
164 
159 
154 
148 
141 
135 
128 
121 
113 
104 
95 
86 
75 
63 
50 
35 
16 
0 
0 
0 
0 
0 
0 
0 
0 
0 
0 
0 
0 
0 
0 
0 
0 
0 
0 
0 
0 
0 
0 
0 
0 
0 
126 
137 
143 
148 
152 
154 
156 
158 
159 
160 
160 
160 
160 
160 
159 
158 
157 
156 
155 
153 
151 
149 
147 
145 
143 
140 
138 
135 
132 
128 
125 
122 
118 
225 
225 
225 
225 
224 
223 
222 
221 
219 
217 
216 
213 
211 
209 
206 
203 
200 
197 
193 
190 
186 
182 
177 
173 
168 
163 
158 
152 
146 
140 
134 
127 
119 
111 
103 
94 
84 
73 
61 
48 
32 
13 
0 
0 
0 
0 
0 
0 
0 
0 
0 
0 
0 
0 
0 
0 
0 
0 
0 
0 
0 
0 
0 
0 
0 
0 
0 
117 
130 
138 
144 
148 
151 
153 
155 
156 
157 
157 
158 
157 
157 
156 
156 
155 
154 
152 
151 
149 
147 
145 
143 
140 
138 
135 
132 
129 
126 
123 
119 
115 
223 
224 
224 
223 
223 
222 
221 
219 
218 
216 
214 
212 
210 
207 
205 
202 
199 
195 
192 
188 
184 
180 
176 
171 
167 
162 
156 
151 
145 
138 
132 
125 
117 
109 
101 
92 
82 
71 
58 
45 
29 
9 
0 
0 
0 
0 
0 
0 
0 
0 
0 
0 
0 
0 
0 
0 
0 
0 
0 
0 
0 
0 
0 
0 
0 
0 
0 
0 
122 
132 
138 
143 
147 
149 
151 
153 
154 
154 
154 
154 
154 
154 
153 
152 
151 
149 
148 
146 
144 
142 
140 
138 
135 
133 
130 
127 
123 
120 
116 
113 
222 
222 
222 
221 
221 
220 
219 
218 
216 
214 
213 
210 
208 
206 
203 
200 
197 
194 
190 
187 
183 
179 
174 
170 
165 
160 
154 
149 
143 
137 
130 
123 
115 
107 
98 
89 
79 
68 
55 
41 
24 
3 
0 
0 
0 
0 
0 
0 
0 
0 
0 
0 
0 
0 
0 
0 
0 
0 
0 
0 
0 
0 
0 
0 
0 
0 
0 
0 
110 
124 
132 
138 
142 
145 
147 
149 
150 
151 
151 
151 
151 
151 
150 
149 
148 
147 
145 
143 
142 
140 
137 
135 
132 
130 
127 
124 
121 
117 
113 
219 
220 
220 
220 
220 
219 
218 
217 
216 
214 
213 
211 
209 
206 
204 
201 
198 
195 
192 
188 
185 
181 
177 
172 
168 
163 
158 
152 
147 
141 
134 
128 
120 
113 
105 
96 
86 
76 
65 
52 
37 
20 
0 
0 
0 
0 
0 
0 
0 
0 
0 
0 
0 
0 
0 
0 
0 
0 
0 
0 
0 
0 
0 
0 
0 
0 
0 
0 
0 
0 
114 
125 
132 
136 
140 
143 
145 
146 
147 
147 
148 
148 
147 
147 
146 
145 
143 
142 
140 
138 
136 
134 
132 
129 
127 
124 
121 
117 
114 
110 
217 
217 
218 
218 
217 
217 
216 
215 
214 
212 
211 
209 
207 
204 
202 
199 
196 
193 
190 
186 
183 
179 
175 
170 
166 
161 
156 
150 
144 
138 
132 
125 
118 
110 
102 
93 
83 
72 
61 
48 
32 
14 
0 
0 
0 
0 
0 
0 
0 
0 
0 
0 
0 
0 
0 
0 
0 
0 
0 
0 
0 
0 
0 
0 
0 
0 
0 
0 
0 
0 
95 
115 
124 
130 
134 
137 
140 
141 
143 
143 
144 
144 
143 
143 
142 
141 
140 
139 
137 
135 
133 
131 
129 
126 
123 
120 
117 
114 
110 
107 
214 
215 
215 
215 
215 
215 
214 
213 
212 
210 
208 
207 
204 
202 
200 
197 
194 
191 
188 
184 
180 
176 
172 
168 
163 
158 
153 
148 
142 
136 
129 
122 
115 
107 
98 
89 
79 
69 
56 
43 
26 
6 
0 
0 
0 
0 
0 
0 
0 
0 
0 
0 
0 
0 
0 
0 
0 
0 
0 
0 
0 
0 
0 
0 
0 
0 
0 
0 
0 
0 
0 
100 
115 
122 
128 
132 
134 
136 
138 
139 
139 
139 
139 
139 
138 
137 
136 
135 
133 
131 
129 
127 
125 
122 
120 
117 
114 
110 
107 
210 
211 
212 
213 
213 
212 
212 
211 
210 
209 
208 
206 
204 
202 
200 
197 
195 
192 
188 
185 
182 
178 
174 
170 
165 
161 
156 
150 
145 
139 
133 
126 
119 
111 
103 
95 
85 
75 
64 
51 
37 
20 
0 
0 
0 
0 
0 
0 
0 
0 
0 
0 
0 
0 
0 
0 
0 
0 
0 
0 
0 
0 
0 
0 
0 
0 
0 
0 
0 
0 
0 
0 
0 
100 
113 
120 
125 
128 
131 
132 
134 
134 
135 
135 
135 
134 
133 
132 
131 
129 
127 
125 
123 
121 
118 
116 
113 
110 
106 
103 
207 
208 
209 
209 
210 
209 
209 
208 
207 
206 
205 
203 
201 
199 
197 
194 
192 
189 
186 
182 
179 
175 
171 
167 
162 
158 
153 
147 
142 
136 
129 
123 
115 
108 
100 
91 
81 
71 
59 
46 
30 
11 
0 
0 
0 
0 
0 
0 
0 
0 
0 
0 
0 
0 
0 
0 
0 
0 
0 
0 
0 
0 
0 
0 
0 
0 
0 
0 
0 
0 
0 
0 
0 
0 
98 
110 
116 
121 
124 
126 
128 
129 
130 
130 
130 
129 
128 
127 
126 
125 
123 
121 
119 
117 
114 
111 
108 
105 
102 
98 
203 
205 
205 
206 
206 
206 
206 
205 
204 
203 
202 
200 
198 
196 
194 
192 
189 
186 
183 
179 
176 
172 
168 
164 
159 
154 
149 
144 
138 
132 
126 
119 
111 
104 
95 
86 
76 
65 
53 
39 
22 
1 
0 
0 
0 
0 
0 
0 
0 
0 
0 
0 
0 
0 
0 
0 
0 
0 
0 
0 
0 
0 
0 
0 
0 
0 
0 
0 
0 
0 
0 
0 
0 
0 
0 
95 
105 
112 
116 
119 
121 
123 
124 
124 
124 
124 
123 
122 
121 
120 
118 
116 
114 
112 
109 
106 
103 
100 
97 
197 
199 
201 
202 
202 
203 
203 
202 
202 
201 
200 
198 
197 
195 
193 
191 
188 
186 
183 
179 
176 
172 
169 
165 
160 
156 
151 
146 
140 
134 
128 
122 
115 
107 
99 
90 
81 
71 
59 
46 
31 
13 
0 
0 
0 
0 
0 
0 
0 
0 
0 
0 
0 
0 
0 
0 
0 
0 
0 
0 
0 
0 
0 
0 
0 
0 
0 
0 
0 
0 
0 
0 
0 
0 
0 
0 
0 
89 
100 
106 
111 
114 
116 
117 
118 
118 
118 
118 
117 
116 
114 
113 
111 
109 
107 
104 
101 
98 
95 
91 
192 
194 
196 
197 
198 
199 
199 
199 
198 
197 
196 
195 
193 
191 
189 
187 
185 
182 
179 
176 
172 
169 
165 
161 
156 
152 
147 
142 
136 
130 
124 
117 
110 
102 
94 
85 
75 
64 
52 
38 
22 
0 
0 
0 
0 
0 
0 
0 
0 
0 
0 
0 
0 
0 
0 
0 
0 
0 
0 
0 
0 
0 
0 
0 
0 
0 
0 
0 
0 
0 
0 
0 
0 
0 
0 
0 
0 
0 
80 
93 
100 
104 
107 
109 
110 
111 
111 
111 
110 
110 
108 
107 
105 
103 
101 
98 
95 
92 
89 
85 
187 
189 
191 
193 
194 
194 
194 
194 
194 
193 
192 
191 
189 
188 
186 
183 
181 
178 
175 
172 
169 
165 
161 
157 
152 
148 
143 
137 
132 
125 
119 
112 
105 
97 
88 
79 
69 
57 
44 
29 
10 
0 
0 
0 
0 
0 
0 
0 
0 
0 
0 
0 
0 
0 
0 
0 
0 
0 
0 
0 
0 
0 
0 
0 
0 
0 
0 
0 
0 
0 
0 
0 
0 
0 
0 
0 
0 
0 
0 
0 
84 
92 
96 
99 
101 
103 
103 
103 
103 
102 
101 
100 
98 
96 
94 
91 
89 
86 
82 
78 
181 
184 
186 
187 
189 
189 
190 
190 
189 
189 
188 
187 
185 
183 
181 
179 
177 
174 
171 
168 
164 
161 
157 
152 
148 
143 
138 
132 
127 
120 
114 
107 
99 
91 
82 
72 
61 
49 
35 
17 
0 
0 
0 
0 
0 
0 
0 
0 
0 
0 
0 
0 
0 
0 
0 
0 
0 
0 
0 
0 
0 
0 
0 
0 
0 
0 
0 
0 
0 
0 
0 
0 
0 
0 
0 
0 
0 
0 
0 
0 
0 
70 
81 
87 
90 
93 
94 
95 
95 
94 
93 
92 
91 
89 
86 
84 
81 
78 
74 
170 
174 
177 
180 
182 
183 
184 
184 
185 
184 
184 
183 
182 
180 
179 
177 
174 
172 
169 
166 
163 
160 
156 
152 
147 
143 
138 
133 
127 
121 
115 
108 
101 
93 
84 
75 
64 
53 
39 
23 
2 
0 
0 
0 
0 
0 
0 
0 
0 
0 
0 
0 
0 
0 
0 
0 
0 
0 
0 
0 
0 
0 
0 
0 
0 
0 
0 
0 
0 
0 
0 
0 
0 
0 
0 
0 
0 
0 
0 
0 
0 
0 
0 
0 
66 
75 
79 
82 
83 
84 
84 
84 
83 
81 
80 
78 
75 
72 
69 
65 
161 
166 
170 
173 
175 
177 
178 
179 
179 
179 
178 
178 
177 
175 
173 
172 
169 
167 
164 
161 
158 
154 
151 
146 
142 
137 
132 
127 
121 
115 
109 
101 
94 
86 
76 
66 
55 
42 
27 
8 
0 
0 
0 
0 
0 
0 
0 
0 
0 
0 
0 
0 
0 
0 
0 
0 
0 
0 
0 
0 
0 
0 
0 
0 
0 
0 
0 
0 
0 
0 
0 
0 
0 
0 
0 
0 
0 
0 
0 
0 
0 
0 
0 
0 
0 
0 
55 
64 
68 
70 
71 
72 
71 
70 
69 
67 
64 
61 
58 
54 
151 
157 
162 
165 
168 
170 
171 
172 
173 
173 
172 
172 
171 
169 
168 
166 
164 
161 
159 
156 
152 
149 
145 
141 
136 
131 
126 
121 
115 
108 
102 
94 
86 
77 
68 
57 
44 
30 
12 
0 
0 
0 
0 
0 
0 
0 
0 
0 
0 
0 
0 
0 
0 
0 
0 
0 
0 
0 
0 
0 
0 
0 
0 
0 
0 
0 
0 
0 
0 
0 
0 
0 
0 
0 
0 
0 
0 
0 
0 
0 
0 
0 
0 
0 
0 
0 
0 
0 
0 
45 
51 
54 
55 
55 
54 
52 
50 
47 
43 
39 
138 
146 
152 
156 
160 
162 
164 
165 
166 
166 
166 
165 
164 
163 
162 
160 
158 
155 
152 
149 
146 
142 
139 
134 
130 
125 
119 
114 
108 
101 
94 
86 
77 
68 
57 
45 
31 
14 
0 
0 
0 
0 
0 
0 
0 
0 
0 
0 
0 
0 
0 
0 
0 
0 
0 
0 
0 
0 
0 
0 
0 
0 
0 
0 
0 
0 
0 
0 
0 
0 
0 
0 
0 
0 
0 
0 
0 
0 
0 
0 
0 
0 
0 
0 
0 
0 
0 
0 
0 
0 
0 
0 
0 
0 
23 
24 
23 
20 
15 
95 
120 
132 
140 
146 
150 
153 
155 
157 
158 
158 
158 
158 
157 
156 
155 
153 
151 
148 
146 
143 
139 
136 
132 
127 
122 
117 
112 
106 
100 
93 
85 
77 
67 
57 
45 
31 
14 
0 
0 
0 
0 
0 
0 
0 
0 
0 
0 
0 
0 
0 
0 
0 
0 
0 
0 
0 
0 
0 
0 
0 
0 
0 
0 
0 
0 
0 
0 
0 
0 
0 
0 
0 
0 
0 
0 
0 
0 
0 
0 
0 
0 
0 
0 
0 
0 
0 
0 
0 
0 
0 
0 
0 
0 
0 
0 
0 
0 
0 
0 
0 
0 
112 
124 
132 
138 
142 
145 
147 
149 
150 
150 
150 
149 
148 
147 
145 
143 
141 
138 
135 
132 
128 
124 
119 
114 
109 
103 
97 
90 
83 
75 
65 
55 
43 
29 
11 
0 
0 
0 
0 
0 
0 
0 
0 
0 
0 
0 
0 
0 
0 
0 
0 
0 
0 
0 
0 
0 
0 
0 
0 
0 
0 
0 
0 
0 
0 
0 
0 
0 
0 
0 
0 
0 
0 
0 
0 
0 
0 
0 
0 
0 
0 
0 
0 
0 
0 
0 
0 
0 
0 
0 
0 
0 
0 
0 
0 
0 
0 
0 
0 
0 
0 
100 
115 
123 
129 
133 
136 
138 
140 
140 
141 
140 
140 
138 
137 
135 
132 
130 
126 
123 
119 
115 
110 
105 
100 
93 
87 
79 
71 
62 
52 
40 
25 
6 
0 
0 
0 
0 
0 
0 
0 
0 
0 
0 
0 
0 
0 
0 
0 
0 
0 
0 
0 
0 
0 
0 
0 
0 
0 
0 
0 
0 
0 
0 
0 
0 
0 
0 
0 
0 
0 
0 
0 
0 
0 
0 
0 
0 
0 
0 
0 
0 
0 
0 
0 
0 
0 
0 
0 
0 
0 
0 
0 
0 
0 
0 
0 
0 
0 
0 
0 
0 
79 
102 
112 
118 
123 
126 
128 
129 
130 
130 
129 
128 
127 
125 
123 
120 
117 
113 
109 
105 
100 
94 
88 
82 
75 
67 
57 
47 
34 
18 
0 
0 
0 
0 
0 
0 
0 
0 
0 
0 
0 
0 
0 
0 
0 
0 
0 
0 
0 
0 
0 
0 
0 
0 
0 
0 
0 
0 
0 
0 
0 
0 
0 
0 
0 
0 
0 
0 
0 
0 
0 
0 
0 
0 
0 
0 
0 
0 
0 
0 
0 
0 
0 
0 
0 
0 
0 
0 
0 
0 
0 
0 
0 
0 
0 
0 
0 
0 
0 
0 
0 
0 
81 
96 
104 
110 
113 
115 
117 
117 
117 
116 
115 
113 
111 
108 
105 
102 
97 
93 
88 
82 
75 
68 
60 
50 
39 
25 
5 
0 
0 
0 
0 
0 
0 
0 
0 
0 
0 
0 
0 
0 
0 
0 
0 
0 
0 
0 
0 
0 
0 
0 
0 
0 
0 
0 
0 
0 
0 
0 
0 
0 
0 
0 
0 
0 
0 
0 
0 
0 
0 
0 
0 
0 
0 
0 
0 
0 
0 
0 
0 
0 
0 
0 
0 
0 
0 
0 
0 
0 
0 
0 
0 
0 
0 
0 
0 
0 
0 
0 
0 
0 
0 
0 
70 
85 
92 
97 
100 
101 
102 
102 
101 
99 
97 
95 
91 
87 
83 
78 
72 
66 
58 
49 
39 
26 
7 
0 
0 
0 
0 
0 
0 
0 
0 
0 
0 
0 
0 
0 
0 
0 
0 
0 
0 
0 
0 
0 
0 
0 
0 
0 
0 
0 
0 
0 
0 
0 
0 
0 
0 
0 
0 
0 
0 
0 
0 
0 
0 
0 
0 
0 
0 
0 
0 
0 
0 
0 
0 
0 
0 
0 
0 
0 
0 
0 
0 
0 
0 
0 
0 
0 
0 
0 
0 
0 
0 
0 
0 
0 
0 
0 
0 
0 
0 
0 
0 
64 
74 
78 
81 
82 
82 
81 
79 
77 
73 
69 
64 
58 
51 
43 
32 
18 
0 
0 
0 
0 
0 
0 
0 
0 
0 
0 
0 
0 
0 
0 
0 
0 
0 
0 
0 
0 
0 
0 
0 
0 
0 
0 
0 
0 
0 
0 
0 
0 
0 
0 
0 
0 
0 
0 
0 
0 
0 
0 
0 
0 
0 
0 
0 
0 
0 
0 
0 
0 
0 
0 
0 
0 
0 
0 
0 
0 
0 
0 
0 
0 
0 
0 
0 
0 
0 
0 
0 
0 
0 
0 
0 
0 
0 
0 
0 
0 
0 
0 
0 
0 
0 
0 
0 
42 
48 
50 
50 
47 
44 
38 
31 
19 
0 
0 
0 
0 
0 
0 
0 
0 
0 
0 
0 
0 
0 
0 
0 
0 
0 
0 
0 
0 
0 
0 
0 
0 
0 
0 
0 
0 
0 
0 
0 
0 
0 
0 
0 
0 
0 
0 
0 
0 
0 
0 
0 
0 
0 
0 
0 
0 
0 
0 
0 
0 
0 
0 
0 
0 
0 
0 
0 
0 
0 
0 
0 
0 
0 
0 
0 
0 
0 
0 
0 
0 
0 
0 
0 
0 
0 
0 
0 
0 
0 
0 
0 
0 
0 
0 
0 
0 
0 
0 
0 
0 
0 
0 
0 
0 
0 
0 
0 
0 
0 
0 
0 
0 
0 
0 
0 
0 
0 
0 
0 
0 
0 
0 
0 
0 
0 
0 
0 
0 
0 
0 
0 
0 
0 
0 
0 
0 
0 
0 
0 
0 
0 
0 
0 
0 
0 
0 
0 
0 
0 
0 
0 
0 
0 
0 
0 
0 
0 
0 
0 
0 
0 
0 
0 
0 
0 
0 
0 
0 
0 
0 
0 
0 
0 
0 
0 
0 
0 
0 
0 
0 
0 
0 
0 
0 
0 
0 
0 
0 
0 
0 
0 
0 
0 
0 
0 
0 
0 
0 
0 
0 
0 
0 
0 
0 
0 
0 
0 
0 
0 
0 
0 
0 
0 
0 
0 
0 
0 
0 
0 
0 
0 
0 
0 
0 
0 
0 
0 
0 
0 
0 
0 
0 
0 
0 
0 
0 
0 
0 
0 
0 
0 
0 
0 
0 
0 
0 
0 
0 
0 
0 
0 
0 
0 
0 
0 
0 
0 
0 
0 
0 
0 
0 
0 
0 
0 
0 
0 
0 
0 
0 
0 
0 
0 
0 
0 
0 
0 
0 
0 
0 
0 
0 
0 
0 
0 
0 
0 
0 
0 
0 
0 
0 
0 
0 
0 
0 
0 
0 
0 
0 
0 
0 
0 
0 
0 
0 
0 
0 
0 
0 
0 
0 
0 
0 
0 
0 
0 
0 
0 
0 
0 
0 
0 
0 
0 
0 
0 
0 
0 
0 
0 
0 
0 
0 
0 
0 
0 
0 
0 
0 
0 
0 
0 
0 
0 
0 
0 
0 
0 
0 
0 
0 
0 
0 
0 
0 
0 
0 
0 
0 
0 
0 
0 
0 
0 
111 
105 
61 
0 
0 
0 
0 
0 
0 
0 
0 
0 
0 
86 
114 
85 
15 
0 
0 
0 
0 
0 
0 
0 
0 
0 
0 
114 
102 
50 
0 
0 
0 
0 
0 
0 
0 
0 
0 
0 
104 
112 
78 
0 
0 
0 
0 
0 
0 
0 
0 
0 
0 
74 
115 
98 
36 
0 
0 
0 
0 
0 
0 
0 
0 
0 
0 
0 
0 
0 
0 
0 
0 
0 
0 
0 
0 
0 
0 
0 
0 
0 
0 
0 
0 
0 
0 
0 
0 
0 
0 
0 
0 
0 
0 
0 
0 
0 
0 
139 
171 
152 
109 
39 
0 
0 
0 
0 
0 
0 
0 
0 
0 
167 
165 
133 
76 
0 
0 
0 
0 
0 
0 
0 
0 
0 
152 
170 
152 
107 
24 
0 
0 
0 
0 
0 
0 
0 
0 
116 
169 
164 
132 
69 
0 
0 
0 
0 
0 
0 
0 
0 
0 
158 
170 
152 
104 
0 
0 
0 
0 
0 
0 
0 
0 
0 
0 
0 
0 
0 
0 
0 
0 
0 
0 
0 
0 
0 
0 
0 
0 
0 
0 
0 
0 
0 
0 
0 
0 
0 
0 
0 
0 
0 
0 
0 
0 
0 
0 
172 
190 
169 
126 
59 
0 
0 
0 
0 
0 
0 
0 
0 
111 
189 
183 
151 
95 
0 
0 
0 
0 
0 
0 
0 
0 
0 
177 
190 
0 
126 
50 
0 
0 
0 
0 
0 
0 
0 
0 
151 
189 
183 
152 
92 
0 
0 
0 
0 
0 
0 
0 
0 
85 
180 
190 
171 
126 
38 
0 
0 
0 
0 
0 
0 
0 
0 
0 
0 
0 
0 
0 
0 
0 
0 
0 
0 
0 
0 
0 
0 
0 
0 
0 
0 
0 
0 
0 
0 
0 
0 
0 
0 
0 
0 
0 
92 
129 
112 
71 
3 
183 
164 
121 
49 
0 
0 
0 
0 
0 
0 
0 
125 
124 
96 
42 
145 
87 
0 
0 
0 
0 
0 
0 
0 
0 
0 
105 
129 
114 
74 
0 
0 
0 
0 
0 
0 
0 
0 
0 
127 
181 
177 
125 
125 
99 
42 
0 
0 
0 
0 
0 
0 
0 
170 
183 
165 
119 
110 
129 
116 
77 
0 
0 
0 
0 
0 
0 
0 
0 
0 
0 
0 
0 
0 
0 
0 
0 
0 
0 
0 
0 
0 
0 
0 
0 
0 
0 
0 
0 
0 
0 
0 
0 
0 
0 
166 
169 
147 
108 
49 
0 
129 
83 
0 
0 
0 
0 
0 
0 
0 
143 
172 
162 
133 
85 
7 
38 
0 
0 
0 
0 
0 
0 
0 
0 
0 
164 
171 
153 
116 
54 
0 
0 
0 
0 
0 
0 
0 
0 
0 
128 
144 
171 
166 
140 
93 
4 
0 
0 
0 
0 
0 
0 
93 
141 
125 
103 
163 
172 
158 
124 
61 
0 
0 
0 
0 
0 
0 
0 
0 
0 
0 
0 
0 
0 
0 
0 
0 
0 
0 
0 
0 
0 
0 
0 
0 
0 
0 
0 
0 
0 
0 
0 
0 
0 
187 
185 
162 
123 
66 
0 
0 
0 
0 
0 
0 
0 
0 
0 
0 
170 
190 
179 
149 
102 
29 
0 
0 
0 
0 
0 
0 
0 
0 
0 
123 
185 
188 
169 
133 
75 
0 
0 
0 
0 
0 
0 
0 
0 
0 
0 
168 
189 
183 
158 
113 
34 
0 
0 
0 
0 
0 
0 
0 
0 
0 
136 
182 
189 
176 
143 
85 
0 
0 
0 
0 
0 
0 
0 
0 
0 
0 
0 
0 
0 
0 
0 
0 
0 
0 
0 
0 
0 
0 
0 
0 
0 
0 
0 
0 
0 
65 
40 
0 
0 
184 
184 
161 
121 
62 
0 
0 
0 
0 
0 
0 
0 
0 
0 
67 
50 
2 
177 
148 
100 
23 
0 
0 
0 
0 
0 
0 
0 
0 
0 
0 
181 
66 
58 
19 
71 
0 
0 
0 
0 
0 
0 
0 
0 
0 
0 
161 
187 
182 
156 
61 
64 
34 
0 
0 
0 
0 
0 
0 
0 
0 
120 
178 
187 
174 
141 
82 
0 
52 
67 
46 
0 
0 
0 
0 
0 
0 
0 
0 
0 
0 
0 
0 
0 
0 
0 
0 
0 
0 
0 
0 
0 
0 
0 
116 
136 
124 
96 
53 
0 
145 
161 
141 
100 
32 
0 
0 
0 
0 
0 
0 
0 
82 
135 
131 
109 
71 
12 
126 
74 
0 
0 
0 
0 
0 
0 
0 
0 
0 
0 
0 
129 
135 
120 
88 
36 
0 
0 
0 
0 
0 
0 
0 
0 
0 
0 
88 
159 
158 
120 
136 
128 
104 
59 
0 
0 
0 
0 
0 
0 
0 
0 
143 
162 
151 
115 
36 
107 
134 
134 
116 
79 
3 
0 
0 
0 
0 
0 
0 
0 
0 
0 
0 
0 
0 
0 
0 
0 
0 
0 
0 
0 
0 
0 
166 
168 
152 
124 
83 
27 
0 
0 
78 
23 
0 
0 
0 
0 
0 
0 
0 
0 
156 
171 
162 
139 
103 
51 
0 
0 
0 
0 
0 
0 
0 
0 
0 
0 
0 
0 
140 
168 
168 
151 
121 
76 
0 
0 
0 
0 
0 
0 
0 
0 
0 
0 
0 
0 
117 
163 
170 
161 
137 
98 
34 
0 
0 
0 
0 
0 
0 
0 
0 
73 
77 
0 
88 
153 
170 
167 
150 
119 
65 
0 
0 
0 
0 
0 
0 
0 
0 
0 
0 
0 
0 
0 
0 
0 
0 
0 
0 
0 
0 
139 
186 
184 
167 
138 
98 
43 
0 
0 
0 
0 
0 
0 
0 
0 
0 
0 
0 
0 
178 
187 
177 
154 
119 
69 
0 
0 
0 
0 
0 
0 
0 
0 
0 
0 
0 
0 
165 
187 
184 
167 
138 
94 
26 
0 
0 
0 
0 
0 
0 
0 
0 
0 
0 
0 
147 
182 
187 
177 
154 
117 
58 
0 
0 
0 
0 
0 
0 
0 
0 
0 
0 
0 
124 
173 
187 
184 
168 
138 
89 
0 
0 
0 
0 
0 
0 
0 
0 
0 
0 
0 
0 
0 
0 
0 
0 
0 
0 
0 
0 
133 
189 
187 
170 
141 
100 
45 
0 
0 
0 
0 
0 
0 
0 
0 
0 
0 
0 
0 
181 
191 
180 
157 
122 
71 
0 
0 
0 
0 
0 
0 
0 
0 
0 
0 
0 
0 
166 
189 
187 
171 
141 
97 
27 
0 
0 
0 
0 
0 
0 
0 
0 
0 
0 
0 
146 
184 
191 
181 
158 
121 
61 
0 
0 
0 
0 
0 
0 
0 
0 
0 
0 
0 
120 
175 
190 
188 
172 
142 
92 
0 
0 
0 
0 
0 
0 
0 
0 
0 
0 
0 
0 
0 
0 
0 
26 
6 
0 
0 
0 
0 
174 
177 
161 
132 
90 
29 
0 
0 
0 
0 
0 
0 
0 
0 
0 
0 
25 
14 
0 
179 
171 
148 
111 
56 
0 
0 
0 
0 
0 
0 
0 
0 
0 
0 
0 
0 
137 
176 
19 
21 
0 
83 
0 
0 
0 
0 
0 
0 
0 
0 
0 
0 
0 
0 
92 
168 
179 
171 
147 
108 
1 
25 
0 
0 
0 
0 
0 
0 
0 
0 
0 
0 
0 
156 
177 
177 
161 
129 
74 
0 
0 
0 
0 
26 
9 
0 
0 
0 
0 
0 
0 
0 
100 
107 
95 
70 
35 
0 
0 
0 
0 
146 
135 
105 
58 
0 
0 
0 
0 
0 
0 
0 
0 
0 
83 
108 
103 
84 
53 
6 
142 
120 
80 
5 
0 
0 
0 
0 
0 
0 
0 
0 
0 
0 
0 
0 
0 
104 
107 
95 
69 
28 
0 
0 
0 
0 
0 
0 
0 
0 
0 
0 
0 
0 
0 
112 
145 
141 
116 
96 
108 
102 
83 
49 
0 
0 
0 
0 
0 
0 
0 
0 
0 
78 
139 
145 
129 
92 
0 
0 
0 
85 
106 
107 
95 
68 
15 
0 
0 
0 
0 
129 
148 
143 
127 
102 
69 
25 
0 
0 
0 
0 
0 
0 
0 
0 
0 
0 
0 
0 
0 
0 
0 
85 
144 
148 
138 
118 
89 
49 
0 
0 
0 
0 
0 
0 
0 
0 
0 
0 
0 
0 
0 
0 
0 
0 
134 
148 
145 
131 
107 
72 
19 
0 
0 
0 
0 
0 
0 
0 
0 
0 
0 
0 
0 
0 
0 
0 
119 
144 
148 
141 
123 
94 
49 
0 
0 
0 
0 
0 
0 
0 
0 
0 
0 
0 
0 
0 
0 
0 
101 
136 
148 
146 
135 
112 
76 
8 
0 
0 
0 
166 
173 
164 
146 
121 
89 
47 
0 
0 
0 
0 
0 
0 
0 
0 
0 
0 
0 
0 
0 
0 
0 
151 
171 
171 
159 
139 
110 
72 
21 
0 
0 
0 
0 
0 
0 
0 
0 
0 
0 
0 
0 
0 
0 
125 
165 
173 
168 
153 
130 
97 
51 
0 
0 
0 
0 
0 
0 
0 
0 
0 
0 
0 
0 
0 
0 
86 
153 
170 
172 
164 
147 
120 
80 
16 
0 
0 
0 
0 
0 
0 
0 
0 
0 
0 
0 
0 
0 
0 
138 
163 
172 
170 
159 
139 
107 
56 
0 
0 
0 
183 
186 
176 
158 
132 
100 
59 
5 
0 
0 
0 
0 
0 
0 
0 
0 
0 
0 
0 
0 
0 
0 
171 
186 
184 
171 
151 
123 
85 
36 
0 
0 
0 
0 
0 
0 
0 
0 
0 
0 
0 
0 
0 
0 
150 
180 
187 
181 
166 
143 
111 
67 
0 
0 
0 
0 
0 
0 
0 
0 
0 
0 
0 
0 
0 
0 
120 
169 
185 
186 
177 
160 
134 
97 
39 
0 
0 
0 
0 
0 
0 
0 
0 
0 
0 
0 
0 
0 
83 
154 
178 
186 
184 
173 
154 
124 
77 
0 
0 
0 
188 
190 
180 
162 
136 
104 
62 
8 
0 
0 
0 
0 
0 
0 
0 
0 
0 
0 
0 
0 
0 
0 
175 
191 
188 
176 
155 
127 
89 
39 
0 
0 
0 
0 
0 
0 
0 
0 
0 
0 
0 
0 
0 
0 
153 
185 
191 
186 
171 
148 
116 
71 
0 
0 
0 
0 
0 
0 
0 
0 
0 
0 
0 
0 
0 
0 
120 
173 
189 
191 
182 
166 
140 
102 
44 
0 
0 
0 
0 
0 
0 
0 
0 
0 
0 
0 
0 
0 
69 
157 
182 
191 
189 
179 
159 
129 
83 
0 
0 
0 
180 
186 
177 
159 
133 
99 
56 
0 
0 
0 
0 
0 
0 
0 
0 
0 
0 
0 
0 
0 
0 
0 
163 
185 
184 
172 
152 
123 
84 
30 
0 
0 
0 
0 
0 
0 
0 
0 
0 
0 
0 
0 
0 
0 
130 
177 
186 
182 
167 
144 
111 
64 
0 
0 
0 
0 
0 
0 
0 
0 
0 
0 
0 
0 
0 
0 
0 
163 
183 
186 
179 
162 
135 
96 
31 
0 
0 
0 
0 
0 
0 
0 
0 
0 
0 
0 
0 
0 
0 
144 
175 
186 
185 
175 
155 
124 
74 
0 
0 
0 
151 
170 
164 
147 
120 
85 
38 
0 
0 
0 
0 
0 
0 
0 
0 
0 
0 
0 
0 
0 
0 
0 
0 
165 
170 
159 
139 
109 
66 
0 
0 
0 
0 
0 
0 
0 
0 
0 
0 
0 
0 
0 
0 
0 
0 
151 
169 
167 
154 
130 
94 
37 
0 
0 
0 
0 
0 
0 
0 
0 
0 
0 
0 
0 
0 
0 
0 
128 
163 
170 
164 
147 
119 
73 
0 
0 
0 
0 
0 
0 
0 
0 
0 
0 
0 
0 
0 
0 
0 
95 
152 
168 
169 
160 
139 
104 
37 
0 
0 
0 
0 
126 
135 
120 
93 
53 
0 
0 
0 
0 
0 
0 
0 
0 
0 
0 
0 
0 
0 
0 
0 
0 
0 
0 
135 
130 
110 
76 
18 
0 
0 
0 
0 
0 
0 
0 
0 
0 
0 
0 
0 
0 
0 
0 
0 
0 
127 
135 
124 
97 
51 
0 
0 
0 
0 
0 
0 
0 
0 
0 
0 
0 
0 
0 
0 
0 
0 
0 
110 
134 
132 
114 
79 
0 
0 
0 
0 
0 
0 
0 
0 
0 
0 
0 
0 
0 
0 
0 
0 
0 
78 
128 
136 
127 
102 
48 
0 
0 
0 
0 
0 
0 
0 
0 
0 
0 
0 
0 
0 
0 
0 
0 
0 
0 
0 
0 
0 
72 
77 
67 
49 
22 
0 
0 
0 
0 
0 
0 
0 
0 
0 
0 
0 
0 
0 
0 
0 
0 
0 
0 
0 
0 
0 
0 
0 
46 
75 
76 
66 
46 
15 
0 
0 
0 
0 
0 
0 
0 
0 
0 
0 
0 
0 
0 
0 
0 
0 
0 
0 
0 
0 
0 
0 
0 
62 
76 
75 
64 
43 
5 
0 
0 
0 
0 
0 
0 
0 
0 
0 
0 
0 
0 
0 
0 
0 
0 
0 
0 
0 
0 
0 
0 
0 
0 
0 
0 
0 
0 
0 
0 
0 
0 
0 
0 
0 
0 
112 
119 
115 
103 
85 
60 
28 
0 
0 
0 
0 
0 
0 
0 
0 
0 
0 
0 
0 
0 
0 
0 
0 
0 
0 
0 
0 
0 
84 
113 
119 
115 
104 
86 
60 
25 
0 
0 
0 
0 
0 
0 
0 
0 
0 
0 
0 
0 
0 
0 
0 
0 
0 
0 
0 
0 
0 
96 
114 
119 
116 
105 
87 
61 
20 
0 
0 
0 
0 
0 
0 
0 
0 
0 
0 
0 
0 
0 
0 
0 
0 
0 
0 
0 
0 
0 
0 
0 
0 
0 
0 
0 
0 
0 
0 
0 
0 
0 
0 
129 
146 
147 
140 
127 
108 
85 
55 
17 
0 
0 
0 
0 
0 
0 
0 
0 
0 
0 
0 
0 
0 
0 
0 
0 
0 
0 
0 
0 
132 
146 
147 
142 
130 
112 
89 
57 
13 
0 
0 
0 
0 
0 
0 
0 
0 
0 
0 
0 
0 
0 
0 
0 
0 
0 
0 
0 
102 
133 
145 
148 
143 
133 
116 
93 
60 
8 
0 
0 
0 
0 
0 
0 
0 
0 
0 
0 
0 
0 
0 
0 
0 
0 
0 
0 
0 
0 
0 
0 
0 
0 
0 
0 
0 
0 
0 
0 
0 
0 
97 
158 
167 
165 
157 
143 
125 
102 
73 
37 
0 
0 
0 
0 
0 
0 
0 
0 
0 
0 
0 
0 
0 
0 
0 
0 
0 
0 
0 
127 
157 
166 
166 
160 
148 
131 
108 
79 
39 
0 
0 
0 
0 
0 
0 
0 
0 
0 
0 
0 
0 
0 
0 
0 
0 
0 
0 
0 
134 
156 
166 
167 
162 
152 
136 
114 
85 
42 
0 
0 
0 
0 
0 
0 
0 
0 
0 
0 
0 
0 
0 
0 
0 
0 
0 
0 
0 
0 
0 
0 
0 
0 
0 
0 
0 
0 
0 
0 
0 
0 
146 
175 
181 
178 
169 
155 
137 
114 
85 
50 
5 
0 
0 
0 
0 
0 
0 
0 
0 
0 
0 
0 
0 
0 
0 
0 
0 
0 
0 
149 
173 
180 
179 
173 
160 
143 
121 
93 
55 
2 
0 
0 
0 
0 
0 
0 
0 
0 
0 
0 
0 
0 
0 
0 
0 
0 
0 
97 
151 
171 
180 
180 
175 
165 
150 
129 
101 
61 
0 
0 
0 
0 
0 
0 
0 
0 
0 
0 
0 
0 
0 
0 
0 
0 
0 
0 
0 
0 
0 
0 
0 
0 
0 
0 
0 
0 
0 
0 
0 
0 
158 
183 
189 
185 
176 
162 
143 
120 
92 
57 
12 
0 
0 
0 
0 
0 
0 
0 
0 
0 
0 
0 
0 
0 
0 
0 
0 
0 
0 
159 
181 
188 
187 
180 
168 
151 
129 
101 
64 
12 
0 
0 
0 
0 
0 
0 
0 
0 
0 
0 
0 
0 
0 
0 
0 
0 
0 
108 
160 
179 
187 
188 
183 
173 
158 
138 
110 
72 
10 
0 
0 
0 
0 
0 
0 
0 
0 
0 
0 
0 
0 
0 
0 
0 
0 
0 
0 
0 
0 
0 
0 
0 
0 
0 
0 
0 
0 
0 
0 
0 
158 
185 
191 
188 
179 
165 
146 
123 
94 
59 
12 
0 
0 
0 
0 
0 
0 
0 
0 
0 
0 
0 
0 
0 
0 
0 
0 
0 
0 
159 
183 
191 
190 
183 
171 
154 
132 
103 
66 
11 
0 
0 
0 
0 
0 
0 
0 
0 
0 
0 
0 
0 
0 
0 
0 
0 
0 
92 
159 
181 
190 
191 
186 
177 
162 
141 
113 
74 
10 
0 
0 
0 
0 
0 
0 
0 
0 
0 
0 
0 
0 
0 
0 
0 
0 
0 
0 
0 
0 
0 
0 
0 
0 
0 
0 
0 
0 
0 
0 
0 
134 
180 
188 
186 
177 
163 
144 
120 
91 
54 
3 
0 
0 
0 
0 
0 
0 
0 
0 
0 
0 
0 
0 
0 
0 
0 
0 
0 
0 
145 
177 
187 
187 
181 
169 
152 
129 
100 
60 
0 
0 
0 
0 
0 
0 
0 
0 
0 
0 
0 
0 
0 
0 
0 
0 
0 
0 
0 
149 
175 
186 
188 
184 
174 
159 
138 
109 
68 
0 
0 
0 
0 
0 
0 
0 
0 
0 
0 
0 
0 
0 
0 
0 
0 
0 
0 
0 
0 
0 
0 
0 
0 
0 
0 
0 
0 
0 
0 
0 
0 
0 
163 
178 
177 
169 
156 
137 
112 
81 
40 
0 
0 
0 
0 
0 
0 
0 
0 
0 
0 
0 
0 
0 
0 
0 
0 
0 
0 
0 
0 
161 
176 
178 
173 
161 
144 
120 
88 
43 
0 
0 
0 
0 
0 
0 
0 
0 
0 
0 
0 
0 
0 
0 
0 
0 
0 
0 
0 
116 
159 
175 
179 
176 
166 
151 
128 
97 
48 
0 
0 
0 
0 
0 
0 
0 
0 
0 
0 
0 
0 
0 
0 
0 
0 
0 
0 
0 
0 
0 
0 
0 
0 
0 
0 
0 
0 
0 
0 
0 
0 
0 
0 
154 
160 
154 
141 
122 
95 
60 
7 
0 
0 
0 
0 
0 
0 
0 
0 
0 
0 
0 
0 
0 
0 
0 
0 
0 
0 
0 
0 
111 
153 
160 
157 
146 
127 
102 
64 
0 
0 
0 
0 
0 
0 
0 
0 
0 
0 
0 
0 
0 
0 
0 
0 
0 
0 
0 
0 
0 
122 
151 
160 
158 
149 
133 
108 
70 
0 
0 
0 
0 
0 
0 
0 
0 
0 
0 
0 
0 
0 
0 
0 
0 
0 
0 
0 
0 
0 
0 
0 
0 
0 
0 
0 
0 
0 
0 
0 
0 
0 
0 
0 
0 
121 
124 
113 
93 
61 
1 
0 
0 
0 
0 
0 
0 
0 
0 
0 
0 
0 
0 
0 
0 
0 
0 
0 
0 
0 
0 
0 
0 
0 
121 
125 
115 
96 
62 
0 
0 
0 
0 
0 
0 
0 
0 
0 
0 
0 
0 
0 
0 
0 
0 
0 
0 
0 
0 
0 
0 
0 
83 
121 
125 
117 
98 
63 
0 
0 
0 
0 
0 
0 
0 
0 
0 
0 
0 
0 
0 
0 
0 
0 
0 
0 
0 
0 
0 
0 
0 
0 
0 
0 
0 
0 
0 
0 
0 
0 
0 
0 
0 
0 
0 
0 
0 
0 
0 
0 
0 
0 
0 
0 
0 
0 
0 
0 
0 
0 
0 
0 
0 
0 
0 
0 
0 
0 
0 
0 
0 
0 
0 
0 
0 
0 
0 
0 
0 
0 
0 
0 
0 
0 
0 
0 
0 
0 
0 
0 
0 
0 
0 
0 
0 
0 
0 
0 
0 
0 
0 
0 
0 
0 
0 
0 
0 
0 
0 
0 
0 
0 
0 
0 
0 
0 
0 
0 
0 
0 
0 
0 
0 
0 
0 
0 