P2 100 100 255
0 
0 
0 
0 
0 
0 
0 
0 
0 
0 
0 
0 
0 
0 
0 
0 
0 
0 
0 
0 
0 
0 
0 
0 
0 
0 
0 
0 
0 
0 
0 
0 
0 
0 
0 
0 
0 
0 
0 
0 
0 
0 
0 
0 
0 
0 
0 
0 
80 
102 
116 
128 
137 
145 
152 
158 
164 
169 
173 
177 
181 
184 
187 
190 
192 
194 
196 
198 
199 
201 
202 
203 
203 
204 
204 
204 
204 
204 
203 
203 
202 
201 
199 
198 
196 
195 
192 
190 
188 
185 
182 
178 
174 
170 
165 
160 
155 
148 
141 
133 
0 
0 
0 
0 
0 
0 
0 
0 
0 
0 
0 
0 
0 
0 
0 
0 
0 
0 
0 
0 
0 
0 
0 
0 
0 
0 
0 
0 
0 
0 
0 
0 
0 
0 
0 
0 
0 
0 
0 
0 
0 
0 
0 
0 
0 
0 
0 
0 
84 
104 
118 
129 
138 
146 
153 
159 
164 
169 
173 
177 
181 
184 
187 
190 
192 
194 
196 
198 
199 
201 
202 
202 
203 
204 
204 
204 
204 
204 
203 
202 
202 
201 
199 
198 
196 
194 
192 
190 
188 
185 
182 
178 
174 
170 
166 
161 
155 
149 
142 
134 
0 
0 
0 
0 
0 
0 
0 
0 
0 
0 
0 
0 
0 
0 
0 
0 
0 
0 
0 
0 
0 
0 
0 
0 
0 
0 
0 
0 
0 
0 
0 
0 
0 
0 
0 
0 
0 
0 
0 
0 
0 
0 
0 
0 
0 
0 
0 
0 
87 
105 
119 
129 
138 
146 
153 
159 
164 
169 
173 
177 
181 
184 
187 
190 
192 
194 
196 
198 
199 
200 
201 
202 
203 
203 
204 
204 
204 
203 
203 
202 
201 
200 
199 
198 
196 
194 
192 
190 
187 
185 
181 
178 
174 
170 
166 
161 
155 
149 
142 
134 
0 
0 
0 
0 
0 
0 
0 
0 
0 
0 
0 
0 
0 
0 
0 
0 
0 
0 
0 
0 
0 
0 
0 
0 
0 
0 
0 
0 
0 
0 
0 
0 
0 
0 
0 
0 
0 
0 
0 
0 
0 
0 
0 
0 
0 
0 
0 
53 
88 
106 
119 
129 
138 
146 
153 
159 
164 
169 
173 
177 
181 
184 
187 
189 
192 
194 
196 
197 
199 
200 
201 
202 
202 
203 
203 
203 
203 
203 
202 
202 
201 
200 
199 
197 
196 
194 
192 
190 
187 
184 
181 
178 
174 
170 
165 
160 
155 
149 
142 
134 
0 
0 
0 
0 
0 
0 
0 
0 
0 
0 
0 
0 
0 
0 
0 
0 
0 
0 
0 
0 
0 
0 
0 
0 
0 
0 
0 
0 
0 
0 
0 
0 
0 
0 
0 
0 
0 
0 
0 
0 
0 
0 
0 
0 
0 
0 
0 
57 
89 
106 
119 
129 
138 
146 
152 
158 
163 
168 
173 
176 
180 
183 
186 
189 
191 
193 
195 
197 
198 
199 
200 
201 
202 
202 
202 
203 
202 
202 
202 
201 
200 
199 
198 
197 
195 
193 
191 
189 
186 
184 
181 
177 
174 
169 
165 
160 
155 
149 
142 
134 
0 
0 
0 
0 
0 
0 
0 
0 
0 
0 
0 
0 
0 
0 
0 
0 
0 
0 
0 
0 
0 
0 
0 
0 
0 
0 
0 
0 
0 
0 
0 
0 
0 
0 
0 
0 
0 
0 
0 
0 
0 
0 
0 
0 
0 
0 
0 
77 
90 
99 
106 
129 
137 
145 
151 
157 
163 
167 
172 
176 
179 
182 
185 
188 
190 
192 
194 
196 
197 
198 
199 
200 
201 
201 
202 
202 
202 
201 
201 
200 
200 
199 
197 
196 
194 
192 
190 
188 
186 
183 
180 
176 
173 
169 
164 
159 
154 
148 
141 
133 
0 
0 
0 
0 
0 
0 
0 
0 
0 
0 
0 
0 
0 
0 
0 
0 
0 
0 
0 
0 
0 
0 
0 
0 
0 
0 
0 
0 
0 
0 
0 
0 
0 
0 
0 
0 
0 
0 
0 
0 
0 
0 
0 
0 
0 
0 
81 
94 
103 
110 
115 
120 
124 
128 
150 
156 
162 
166 
171 
175 
178 
181 
184 
187 
189 
191 
193 
195 
196 
197 
198 
199 
200 
200 
201 
201 
201 
200 
200 
199 
199 
198 
196 
195 
193 
192 
189 
187 
185 
182 
179 
175 
172 
168 
163 
158 
153 
147 
140 
133 
0 
0 
0 
0 
0 
0 
0 
0 
0 
0 
0 
0 
0 
0 
0 
0 
0 
0 
0 
0 
0 
0 
0 
0 
0 
0 
0 
0 
0 
0 
0 
0 
0 
0 
0 
0 
0 
0 
0 
0 
0 
0 
0 
0 
59 
84 
96 
105 
112 
118 
123 
127 
131 
134 
136 
139 
140 
165 
170 
173 
177 
180 
183 
186 
188 
190 
192 
194 
195 
196 
197 
198 
199 
199 
200 
200 
200 
199 
199 
198 
197 
196 
195 
194 
192 
190 
188 
186 
184 
181 
178 
174 
171 
167 
162 
157 
152 
146 
139 
131 
0 
0 
0 
0 
0 
0 
0 
0 
0 
0 
0 
0 
0 
0 
0 
0 
0 
0 
0 
0 
0 
0 
0 
0 
0 
0 
0 
0 
0 
0 
0 
0 
0 
0 
0 
0 
0 
0 
0 
0 
0 
0 
0 
59 
85 
97 
107 
114 
120 
125 
129 
133 
136 
139 
141 
143 
145 
147 
148 
172 
176 
179 
182 
184 
187 
189 
191 
192 
194 
195 
196 
197 
197 
198 
198 
198 
198 
198 
198 
197 
196 
195 
194 
192 
191 
189 
187 
185 
182 
179 
176 
173 
169 
165 
161 
156 
150 
144 
137 
130 
0 
0 
0 
0 
0 
0 
0 
0 
0 
0 
0 
0 
0 
0 
0 
0 
0 
0 
0 
0 
0 
0 
0 
0 
0 
0 
0 
0 
0 
0 
0 
0 
0 
0 
0 
0 
0 
0 
0 
0 
0 
0 
0 
84 
97 
107 
115 
121 
126 
131 
135 
138 
141 
144 
146 
148 
149 
151 
152 
153 
153 
177 
180 
183 
185 
187 
189 
191 
192 
193 
194 
195 
196 
196 
197 
197 
197 
196 
196 
195 
195 
194 
192 
191 
189 
187 
185 
183 
181 
178 
175 
171 
168 
163 
159 
154 
148 
142 
135 
128 
0 
0 
0 
0 
0 
0 
0 
0 
0 
0 
0 
0 
0 
0 
0 
0 
0 
0 
0 
0 
0 
0 
0 
0 
0 
0 
0 
0 
0 
0 
0 
0 
0 
0 
0 
0 
0 
0 
0 
0 
0 
0 
81 
96 
106 
114 
121 
127 
132 
136 
139 
143 
145 
148 
150 
152 
153 
154 
155 
156 
157 
157 
157 
181 
183 
185 
187 
189 
190 
192 
193 
194 
194 
195 
195 
195 
195 
195 
194 
194 
193 
192 
191 
189 
188 
186 
184 
181 
179 
176 
173 
169 
166 
162 
157 
152 
146 
140 
133 
125 
0 
0 
0 
0 
0 
0 
0 
0 
0 
0 
0 
0 
0 
0 
0 
0 
0 
0 
0 
0 
0 
0 
0 
0 
0 
0 
0 
0 
0 
0 
0 
0 
0 
0 
0 
0 
0 
0 
0 
0 
0 
76 
93 
105 
113 
121 
127 
132 
136 
140 
143 
146 
149 
151 
153 
155 
156 
158 
159 
159 
160 
160 
160 
160 
160 
183 
185 
187 
189 
190 
191 
192 
192 
193 
193 
193 
193 
193 
192 
192 
191 
190 
189 
187 
186 
184 
182 
179 
177 
174 
171 
167 
164 
159 
155 
150 
144 
138 
131 
123 
0 
0 
0 
0 
0 
0 
0 
0 
0 
0 
0 
0 
0 
0 
0 
0 
0 
0 
0 
0 
0 
0 
0 
0 
0 
0 
0 
0 
0 
0 
0 
0 
0 
0 
0 
0 
0 
0 
0 
0 
67 
89 
102 
112 
119 
126 
131 
136 
140 
144 
147 
150 
152 
155 
156 
158 
159 
161 
162 
162 
163 
163 
163 
163 
163 
162 
161 
185 
186 
188 
189 
190 
190 
191 
191 
191 
191 
191 
190 
190 
189 
188 
187 
185 
184 
182 
180 
177 
175 
172 
169 
165 
161 
157 
152 
147 
141 
135 
128 
120 
0 
0 
0 
0 
0 
0 
0 
0 
0 
0 
0 
0 
0 
0 
0 
0 
0 
0 
0 
0 
0 
0 
0 
0 
0 
0 
0 
0 
0 
0 
0 
0 
0 
0 
0 
0 
0 
0 
0 
0 
83 
98 
109 
117 
124 
130 
135 
140 
144 
147 
150 
153 
155 
157 
159 
161 
162 
163 
164 
165 
165 
166 
166 
165 
165 
165 
164 
163 
162 
185 
187 
187 
188 
189 
189 
189 
189 
189 
188 
188 
187 
186 
184 
183 
181 
179 
177 
175 
172 
169 
166 
163 
159 
154 
150 
144 
138 
151 
145 
139 
0 
0 
0 
0 
0 
0 
0 
0 
0 
0 
0 
0 
0 
0 
0 
0 
0 
0 
0 
0 
0 
0 
0 
0 
0 
0 
0 
0 
0 
0 
0 
0 
0 
0 
0 
0 
0 
0 
0 
73 
93 
105 
114 
122 
129 
134 
139 
143 
147 
150 
153 
156 
158 
160 
162 
163 
165 
166 
166 
167 
167 
168 
168 
168 
167 
167 
166 
165 
164 
163 
162 
185 
186 
186 
186 
187 
186 
186 
186 
185 
184 
183 
182 
180 
179 
177 
175 
172 
170 
167 
163 
160 
156 
173 
170 
167 
164 
160 
155 
150 
0 
0 
0 
0 
0 
0 
0 
0 
0 
0 
0 
0 
0 
0 
0 
0 
0 
0 
0 
0 
0 
0 
0 
0 
0 
0 
0 
0 
0 
0 
0 
0 
0 
0 
0 
0 
0 
0 
0 
85 
100 
111 
119 
126 
132 
137 
142 
146 
150 
153 
156 
158 
160 
162 
164 
165 
167 
168 
168 
169 
169 
170 
170 
170 
169 
169 
168 
167 
166 
165 
164 
162 
160 
183 
184 
184 
184 
184 
183 
182 
182 
180 
179 
178 
176 
174 
172 
169 
167 
185 
185 
183 
182 
180 
177 
174 
171 
167 
163 
158 
0 
0 
0 
0 
0 
0 
0 
0 
0 
0 
0 
0 
0 
0 
0 
0 
0 
0 
0 
0 
0 
0 
0 
0 
0 
0 
0 
0 
0 
0 
0 
0 
0 
0 
0 
0 
0 
0 
73 
93 
105 
115 
123 
130 
135 
140 
145 
148 
152 
155 
158 
160 
162 
164 
166 
167 
168 
169 
170 
171 
171 
171 
172 
171 
171 
171 
170 
169 
168 
167 
165 
164 
162 
160 
181 
181 
181 
181 
180 
180 
179 
178 
176 
175 
173 
171 
192 
192 
192 
191 
190 
189 
187 
186 
183 
181 
178 
174 
170 
166 
0 
0 
0 
0 
0 
0 
0 
0 
0 
0 
0 
0 
0 
0 
0 
0 
0 
0 
0 
0 
0 
0 
0 
0 
0 
0 
0 
0 
0 
0 
0 
0 
0 
0 
0 
0 
0 
0 
83 
99 
110 
119 
126 
132 
138 
143 
147 
151 
154 
157 
160 
162 
164 
166 
168 
169 
170 
171 
172 
172 
173 
173 
173 
173 
173 
172 
171 
171 
170 
168 
167 
166 
164 
162 
160 
157 
178 
178 
177 
176 
176 
174 
173 
195 
196 
197 
197 
197 
197 
196 
195 
194 
193 
191 
189 
186 
183 
180 
176 
172 
0 
0 
0 
0 
0 
0 
0 
0 
0 
0 
0 
0 
0 
0 
0 
0 
0 
0 
0 
0 
0 
0 
0 
0 
0 
0 
0 
0 
0 
0 
0 
0 
0 
0 
0 
0 
0 
66 
90 
103 
114 
122 
129 
135 
140 
145 
149 
153 
156 
159 
161 
164 
166 
167 
169 
170 
171 
172 
173 
174 
174 
174 
174 
174 
174 
173 
173 
172 
171 
170 
168 
167 
165 
163 
161 
159 
156 
153 
174 
173 
196 
197 
199 
200 
201 
201 
201 
201 
201 
201 
200 
199 
197 
196 
194 
191 
189 
185 
182 
178 
0 
0 
0 
0 
0 
0 
0 
0 
0 
0 
0 
0 
0 
0 
0 
0 
0 
0 
0 
0 
0 
0 
0 
0 
0 
0 
0 
0 
0 
0 
0 
0 
0 
0 
0 
0 
0 
76 
95 
107 
117 
125 
131 
137 
142 
147 
151 
154 
157 
160 
163 
165 
167 
169 
170 
172 
173 
174 
174 
175 
175 
175 
175 
175 
175 
175 
174 
173 
172 
171 
170 
168 
166 
165 
162 
160 
157 
155 
196 
198 
200 
201 
203 
204 
205 
205 
205 
205 
205 
205 
204 
203 
201 
200 
198 
196 
193 
190 
187 
183 
0 
0 
0 
0 
0 
0 
0 
0 
0 
0 
0 
0 
0 
0 
0 
0 
0 
0 
0 
0 
0 
0 
0 
0 
0 
0 
0 
0 
0 
0 
0 
0 
0 
0 
0 
0 
0 
83 
99 
110 
119 
127 
133 
139 
144 
148 
152 
155 
159 
161 
164 
166 
168 
170 
171 
173 
174 
175 
175 
176 
176 
176 
176 
176 
176 
176 
175 
174 
173 
172 
171 
169 
167 
166 
163 
161 
159 
156 
199 
202 
203 
205 
206 
207 
208 
209 
209 
209 
209 
208 
207 
206 
205 
204 
202 
200 
197 
194 
191 
187 
0 
0 
0 
0 
0 
0 
0 
0 
0 
0 
0 
0 
0 
0 
0 
0 
0 
0 
0 
0 
0 
0 
0 
0 
0 
0 
0 
0 
0 
0 
0 
0 
0 
0 
0 
0 
61 
88 
102 
113 
121 
129 
135 
140 
145 
149 
153 
157 
160 
162 
165 
167 
169 
171 
172 
173 
174 
175 
176 
177 
177 
177 
177 
177 
177 
176 
176 
175 
174 
173 
171 
170 
168 
166 
164 
162 
160 
157 
203 
205 
207 
208 
210 
211 
211 
212 
212 
212 
212 
211 
211 
210 
209 
207 
205 
203 
201 
198 
195 
191 
0 
0 
0 
0 
0 
0 
0 
0 
0 
0 
0 
0 
0 
0 
0 
0 
0 
0 
0 
0 
0 
0 
0 
0 
0 
0 
0 
0 
0 
0 
0 
0 
0 
0 
0 
0 
69 
91 
105 
115 
123 
130 
136 
141 
146 
150 
154 
157 
160 
163 
166 
168 
170 
171 
173 
174 
175 
176 
177 
177 
178 
178 
178 
178 
177 
177 
176 
175 
175 
173 
172 
171 
169 
167 
165 
163 
160 
204 
206 
208 
210 
211 
213 
214 
214 
215 
215 
215 
215 
214 
214 
213 
212 
210 
208 
206 
204 
201 
198 
195 
0 
0 
0 
0 
0 
0 
0 
0 
0 
0 
0 
0 
0 
0 
0 
0 
0 
0 
0 
0 
0 
0 
0 
0 
0 
0 
0 
0 
0 
0 
0 
0 
0 
0 
0 
0 
74 
94 
106 
116 
124 
131 
137 
142 
147 
151 
155 
158 
161 
164 
166 
168 
170 
172 
173 
174 
175 
176 
177 
178 
178 
178 
178 
178 
178 
177 
177 
176 
175 
174 
173 
171 
169 
168 
166 
163 
161 
207 
209 
211 
213 
214 
215 
216 
217 
217 
218 
218 
217 
217 
216 
215 
214 
213 
211 
209 
207 
204 
201 
198 
0 
0 
0 
0 
0 
0 
0 
0 
0 
0 
0 
0 
0 
0 
0 
0 
0 
0 
0 
0 
0 
0 
0 
0 
0 
0 
0 
0 
0 
0 
0 
0 
0 
0 
0 
0 
78 
96 
108 
117 
125 
132 
138 
143 
147 
152 
155 
158 
161 
164 
166 
168 
170 
172 
173 
175 
176 
177 
177 
178 
178 
178 
178 
178 
178 
178 
177 
176 
175 
174 
173 
171 
170 
168 
166 
164 
161 
209 
211 
213 
215 
216 
218 
218 
219 
220 
220 
220 
220 
219 
219 
218 
217 
215 
214 
212 
209 
207 
204 
201 
0 
0 
0 
0 
0 
0 
0 
0 
0 
0 
0 
0 
0 
0 
0 
0 
0 
0 
0 
0 
0 
0 
0 
0 
0 
0 
0 
0 
0 
0 
0 
0 
0 
0 
0 
0 
80 
97 
109 
118 
126 
132 
138 
143 
148 
152 
155 
159 
162 
164 
167 
169 
170 
172 
174 
175 
176 
177 
177 
178 
178 
178 
178 
178 
178 
178 
177 
176 
175 
174 
173 
171 
170 
168 
166 
164 
209 
211 
213 
215 
217 
218 
220 
220 
221 
222 
222 
222 
222 
221 
221 
220 
219 
217 
216 
214 
212 
209 
206 
203 
0 
0 
0 
0 
0 
0 
0 
0 
0 
0 
0 
0 
0 
0 
0 
0 
0 
0 
0 
0 
0 
0 
0 
0 
0 
0 
0 
0 
0 
0 
0 
0 
0 
0 
0 
0 
81 
97 
109 
118 
126 
132 
138 
143 
148 
152 
155 
159 
162 
164 
166 
169 
170 
172 
173 
175 
176 
177 
177 
178 
178 
178 
178 
178 
178 
178 
177 
176 
175 
174 
173 
171 
170 
168 
166 
164 
211 
213 
215 
217 
219 
220 
221 
222 
223 
223 
224 
224 
224 
223 
222 
222 
221 
219 
218 
216 
214 
211 
209 
205 
0 
0 
0 
0 
0 
0 
0 
0 
0 
0 
0 
0 
0 
0 
0 
0 
0 
0 
0 
0 
0 
0 
0 
0 
0 
0 
0 
0 
0 
0 
0 
0 
0 
0 
0 
0 
82 
98 
109 
118 
126 
132 
138 
143 
148 
152 
155 
158 
161 
164 
166 
168 
170 
172 
173 
174 
176 
176 
177 
178 
178 
178 
178 
178 
178 
177 
177 
176 
175 
174 
173 
171 
170 
168 
166 
164 
212 
215 
217 
219 
220 
222 
223 
224 
224 
225 
225 
225 
225 
225 
224 
223 
222 
221 
219 
217 
215 
213 
210 
207 
0 
0 
0 
0 
0 
0 
0 
0 
0 
0 
0 
0 
0 
0 
0 
0 
0 
0 
0 
0 
0 
0 
0 
0 
0 
0 
0 
0 
0 
0 
0 
0 
0 
0 
0 
0 
81 
97 
109 
118 
125 
132 
138 
143 
147 
151 
155 
158 
161 
164 
166 
168 
170 
171 
173 
174 
175 
176 
177 
177 
178 
178 
178 
178 
177 
177 
176 
176 
175 
173 
172 
171 
169 
167 
165 
211 
214 
216 
218 
220 
222 
223 
224 
225 
226 
226 
226 
226 
226 
226 
225 
224 
223 
222 
221 
219 
217 
214 
212 
209 
0 
0 
0 
0 
0 
0 
0 
0 
0 
0 
0 
0 
0 
0 
0 
0 
0 
0 
0 
0 
0 
0 
0 
0 
0 
0 
0 
0 
0 
0 
0 
0 
0 
0 
0 
0 
80 
96 
108 
117 
125 
131 
137 
142 
147 
151 
154 
157 
160 
163 
165 
167 
169 
171 
172 
174 
175 
175 
176 
177 
177 
177 
177 
177 
177 
176 
176 
175 
174 
173 
172 
170 
169 
167 
165 
212 
215 
217 
219 
221 
223 
224 
225 
226 
227 
227 
227 
228 
227 
227 
226 
226 
224 
223 
222 
220 
218 
216 
213 
210 
0 
0 
0 
0 
0 
0 
0 
0 
0 
0 
0 
0 
0 
0 
0 
0 
0 
0 
0 
0 
0 
0 
0 
0 
0 
0 
0 
0 
0 
0 
0 
0 
0 
0 
0 
0 
78 
95 
107 
116 
124 
130 
136 
141 
146 
150 
153 
157 
159 
162 
164 
167 
168 
170 
172 
173 
174 
175 
175 
176 
176 
176 
177 
176 
176 
176 
175 
174 
173 
172 
171 
170 
168 
166 
164 
213 
216 
218 
220 
222 
224 
225 
226 
227 
228 
228 
228 
228 
228 
228 
227 
226 
225 
224 
223 
221 
219 
216 
214 
211 
0 
0 
0 
0 
0 
0 
0 
0 
0 
0 
0 
0 
0 
0 
0 
0 
0 
0 
0 
0 
0 
0 
0 
0 
0 
0 
0 
0 
0 
0 
0 
0 
0 
0 
0 
0 
76 
93 
105 
114 
122 
129 
135 
140 
145 
149 
152 
156 
158 
161 
163 
166 
167 
169 
171 
172 
173 
174 
175 
175 
175 
176 
176 
176 
175 
175 
174 
173 
172 
171 
170 
169 
167 
165 
211 
214 
217 
219 
221 
223 
224 
226 
227 
228 
228 
229 
229 
229 
229 
228 
228 
227 
226 
225 
223 
221 
219 
217 
215 
212 
0 
0 
0 
0 
0 
0 
0 
0 
0 
0 
0 
0 
0 
0 
0 
0 
0 
0 
0 
0 
0 
0 
0 
0 
0 
0 
0 
0 
0 
0 
0 
0 
0 
0 
0 
0 
72 
90 
103 
113 
121 
127 
133 
139 
143 
147 
151 
154 
157 
160 
162 
164 
166 
168 
170 
171 
172 
173 
173 
174 
174 
175 
175 
174 
174 
174 
173 
172 
171 
170 
169 
168 
166 
164 
212 
215 
217 
219 
221 
223 
225 
226 
227 
228 
229 
229 
229 
229 
229 
229 
228 
227 
226 
225 
224 
222 
220 
218 
215 
212 
0 
0 
0 
0 
0 
0 
0 
0 
0 
0 
0 
0 
0 
0 
0 
0 
0 
0 
0 
0 
0 
0 
0 
0 
0 
0 
0 
0 
0 
0 
0 
0 
0 
0 
0 
0 
67 
87 
100 
110 
119 
126 
132 
137 
142 
146 
149 
153 
156 
159 
161 
163 
165 
167 
168 
170 
171 
171 
172 
173 
173 
173 
173 
173 
173 
173 
172 
171 
170 
169 
168 
166 
165 
163 
212 
215 
217 
220 
222 
223 
225 
226 
227 
228 
229 
229 
229 
229 
229 
229 
228 
228 
226 
225 
224 
222 
220 
218 
215 
213 
0 
0 
0 
0 
0 
0 
0 
0 
0 
0 
0 
0 
0 
0 
0 
0 
0 
0 
0 
0 
0 
0 
0 
0 
0 
0 
0 
0 
0 
0 
0 
0 
0 
0 
0 
0 
60 
83 
97 
108 
116 
123 
129 
135 
140 
144 
148 
151 
154 
157 
159 
162 
164 
165 
167 
168 
169 
170 
171 
171 
172 
172 
172 
172 
172 
171 
171 
170 
169 
168 
166 
165 
163 
209 
212 
215 
217 
220 
222 
223 
225 
226 
227 
228 
229 
229 
229 
229 
229 
229 
228 
227 
226 
225 
224 
222 
220 
218 
215 
213 
0 
0 
0 
0 
0 
0 
0 
0 
0 
0 
0 
0 
0 
0 
0 
0 
0 
0 
0 
0 
0 
0 
0 
0 
0 
0 
0 
0 
0 
0 
0 
0 
0 
0 
0 
0 
49 
78 
93 
104 
113 
121 
127 
133 
138 
142 
146 
149 
152 
155 
158 
160 
162 
164 
165 
166 
168 
168 
169 
170 
170 
170 
170 
170 
170 
170 
169 
168 
167 
166 
165 
163 
162 
209 
212 
215 
217 
219 
221 
223 
225 
226 
227 
228 
228 
229 
229 
229 
229 
229 
228 
227 
226 
225 
224 
222 
220 
218 
215 
212 
0 
0 
0 
0 
0 
0 
0 
0 
0 
0 
0 
0 
0 
0 
0 
0 
0 
0 
0 
0 
0 
0 
0 
0 
0 
0 
0 
0 
0 
0 
0 
0 
0 
0 
0 
0 
0 
72 
89 
101 
110 
118 
124 
130 
135 
140 
144 
147 
150 
153 
156 
158 
160 
162 
163 
165 
166 
167 
167 
168 
168 
169 
169 
169 
168 
168 
167 
166 
166 
164 
163 
162 
160 
208 
211 
214 
217 
219 
221 
223 
224 
225 
227 
227 
228 
228 
229 
229 
229 
228 
228 
227 
226 
225 
223 
221 
219 
217 
215 
212 
0 
0 
0 
0 
0 
0 
0 
0 
0 
0 
0 
0 
0 
0 
0 
0 
0 
0 
0 
0 
0 
0 
0 
0 
0 
0 
0 
0 
0 
0 
0 
0 
0 
0 
0 
0 
0 
64 
83 
96 
106 
114 
121 
127 
132 
137 
141 
145 
148 
151 
153 
156 
158 
160 
161 
163 
164 
165 
166 
166 
167 
167 
167 
167 
166 
166 
165 
165 
164 
162 
161 
160 
204 
208 
211 
213 
216 
218 
220 
222 
223 
225 
226 
227 
227 
228 
228 
228 
228 
228 
227 
226 
225 
224 
222 
221 
219 
216 
214 
211 
0 
0 
0 
0 
0 
0 
0 
0 
0 
0 
0 
0 
0 
0 
0 
0 
0 
0 
0 
0 
0 
0 
0 
0 
0 
0 
0 
0 
0 
0 
0 
0 
0 
0 
0 
0 
0 
51 
77 
91 
102 
110 
118 
124 
129 
134 
138 
142 
145 
148 
151 
153 
156 
157 
159 
160 
162 
163 
163 
164 
164 
165 
165 
165 
164 
164 
163 
162 
161 
160 
159 
157 
203 
207 
210 
213 
215 
217 
219 
221 
223 
224 
225 
226 
227 
227 
227 
227 
227 
227 
226 
225 
224 
223 
222 
220 
218 
216 
213 
210 
0 
0 
0 
0 
0 
0 
0 
0 
0 
0 
0 
0 
0 
0 
0 
0 
0 
0 
0 
0 
0 
0 
0 
0 
0 
0 
0 
0 
0 
0 
0 
0 
0 
0 
0 
0 
0 
0 
68 
85 
97 
106 
114 
120 
126 
131 
135 
139 
142 
146 
148 
151 
153 
155 
157 
158 
159 
160 
161 
162 
162 
162 
162 
162 
162 
162 
161 
160 
159 
158 
157 
155 
202 
206 
209 
211 
214 
216 
218 
220 
222 
223 
224 
225 
225 
226 
226 
226 
226 
226 
225 
224 
223 
222 
220 
219 
217 
214 
212 
209 
0 
0 
0 
0 
0 
0 
0 
0 
0 
0 
0 
0 
0 
0 
0 
0 
0 
0 
0 
0 
0 
0 
0 
0 
0 
0 
0 
0 
0 
0 
0 
0 
0 
0 
0 
0 
0 
0 
56 
78 
91 
101 
109 
116 
122 
127 
132 
136 
139 
143 
145 
148 
150 
152 
154 
155 
157 
158 
158 
159 
160 
160 
160 
160 
160 
159 
158 
158 
157 
155 
154 
197 
201 
204 
207 
210 
213 
215 
217 
219 
220 
222 
223 
224 
224 
225 
225 
225 
225 
224 
224 
223 
222 
221 
219 
217 
215 
213 
210 
208 
0 
0 
0 
0 
0 
0 
0 
0 
0 
0 
0 
0 
0 
0 
0 
0 
0 
0 
0 
0 
0 
0 
0 
0 
0 
0 
0 
0 
0 
0 
0 
0 
0 
0 
0 
0 
0 
0 
0 
68 
84 
95 
104 
111 
118 
123 
128 
132 
136 
139 
142 
145 
147 
149 
151 
152 
154 
155 
156 
156 
157 
157 
157 
157 
157 
156 
156 
155 
154 
153 
151 
195 
199 
202 
206 
208 
211 
213 
215 
217 
219 
220 
221 
222 
223 
223 
223 
223 
223 
223 
222 
221 
220 
219 
217 
216 
214 
211 
209 
206 
0 
0 
0 
0 
0 
0 
0 
0 
0 
0 
0 
0 
0 
0 
0 
0 
0 
0 
0 
0 
0 
0 
0 
0 
0 
0 
0 
0 
0 
0 
0 
0 
0 
0 
0 
0 
0 
0 
0 
53 
75 
88 
98 
106 
113 
119 
124 
128 
132 
135 
138 
141 
144 
146 
148 
149 
150 
152 
153 
153 
154 
154 
154 
154 
154 
153 
153 
152 
151 
150 
148 
193 
197 
201 
204 
207 
209 
211 
214 
215 
217 
218 
219 
220 
221 
221 
222 
222 
221 
221 
220 
220 
219 
217 
216 
214 
212 
210 
207 
204 
0 
0 
0 
0 
0 
0 
0 
0 
0 
0 
0 
0 
0 
0 
0 
0 
0 
0 
0 
0 
0 
0 
0 
0 
0 
0 
0 
0 
0 
0 
0 
0 
0 
0 
0 
0 
0 
0 
0 
0 
63 
80 
91 
100 
107 
113 
119 
124 
128 
131 
135 
137 
140 
142 
144 
146 
147 
148 
149 
150 
150 
151 
151 
151 
151 
150 
149 
149 
147 
146 
186 
191 
195 
198 
202 
204 
207 
209 
212 
213 
215 
216 
217 
218 
219 
219 
220 
220 
220 
219 
218 
218 
217 
215 
214 
212 
210 
207 
205 
202 
0 
0 
0 
0 
0 
0 
0 
0 
0 
0 
0 
0 
0 
0 
0 
0 
0 
0 
0 
0 
0 
0 
0 
0 
0 
0 
0 
0 
0 
0 
0 
0 
0 
0 
0 
0 
0 
0 
0 
0 
43 
69 
83 
93 
101 
108 
114 
119 
123 
127 
130 
133 
136 
138 
140 
142 
143 
145 
145 
146 
147 
147 
147 
147 
147 
147 
146 
145 
144 
143 
184 
188 
192 
196 
199 
202 
205 
207 
209 
211 
213 
214 
215 
216 
217 
217 
218 
218 
217 
217 
216 
215 
214 
213 
211 
210 
207 
205 
202 
199 
0 
0 
0 
0 
0 
0 
0 
0 
0 
0 
0 
0 
0 
0 
0 
0 
0 
0 
0 
0 
0 
0 
0 
0 
0 
0 
0 
0 
0 
0 
0 
0 
0 
0 
0 
0 
0 
0 
0 
0 
0 
53 
72 
84 
94 
101 
108 
113 
118 
122 
125 
129 
131 
134 
136 
138 
139 
140 
142 
142 
143 
143 
143 
143 
143 
143 
142 
141 
140 
139 
181 
185 
189 
193 
196 
199 
202 
205 
207 
209 
210 
212 
213 
214 
214 
215 
215 
215 
215 
214 
214 
213 
212 
210 
209 
207 
205 
202 
200 
196 
0 
0 
0 
0 
0 
0 
0 
0 
0 
0 
0 
0 
0 
0 
0 
0 
0 
0 
0 
0 
0 
0 
0 
0 
0 
0 
0 
0 
0 
0 
0 
0 
0 
0 
0 
0 
0 
0 
0 
0 
0 
0 
57 
74 
85 
94 
101 
107 
112 
116 
120 
123 
126 
129 
131 
133 
135 
136 
137 
138 
139 
139 
139 
139 
139 
138 
138 
137 
136 
134 
177 
182 
186 
190 
193 
196 
199 
202 
204 
206 
207 
209 
210 
211 
212 
212 
212 
212 
212 
212 
211 
210 
209 
208 
206 
204 
202 
199 
197 
193 
0 
0 
0 
0 
0 
0 
0 
0 
0 
0 
0 
0 
0 
0 
0 
0 
0 
0 
0 
0 
0 
0 
0 
0 
0 
0 
0 
0 
0 
0 
0 
0 
0 
0 
0 
0 
0 
0 
0 
0 
0 
0 
0 
59 
74 
85 
93 
99 
105 
110 
114 
118 
121 
124 
126 
128 
130 
131 
132 
133 
134 
134 
135 
135 
134 
134 
133 
132 
131 
168 
174 
178 
183 
187 
190 
193 
196 
199 
201 
203 
204 
206 
207 
208 
209 
209 
209 
209 
209 
209 
208 
207 
206 
205 
203 
201 
199 
196 
193 
190 
0 
0 
0 
0 
0 
0 
0 
0 
0 
0 
0 
0 
0 
0 
0 
0 
0 
0 
0 
0 
0 
0 
0 
0 
0 
0 
0 
0 
0 
0 
0 
0 
0 
0 
0 
0 
0 
0 
0 
0 
0 
0 
0 
0 
59 
73 
83 
91 
97 
103 
107 
111 
115 
118 
120 
123 
124 
126 
127 
128 
129 
129 
130 
130 
129 
129 
128 
127 
126 
164 
169 
174 
179 
183 
186 
190 
192 
195 
197 
199 
201 
203 
204 
205 
205 
206 
206 
206 
206 
205 
205 
204 
203 
201 
199 
197 
195 
192 
189 
186 
0 
0 
0 
0 
0 
0 
0 
0 
0 
0 
0 
0 
0 
0 
0 
0 
0 
0 
0 
0 
0 
0 
0 
0 
0 
0 
0 
0 
0 
0 
0 
0 
0 
0 
0 
0 
0 
0 
0 
0 
0 
0 
0 
0 
0 
57 
71 
81 
88 
94 
100 
104 
108 
111 
114 
116 
118 
120 
121 
123 
123 
124 
124 
124 
124 
123 
123 
122 
120 
159 
165 
170 
174 
179 
182 
186 
189 
191 
194 
196 
197 
199 
200 
201 
202 
202 
203 
203 
202 
202 
201 
200 
199 
197 
196 
194 
191 
188 
185 
182 
0 
0 
0 
0 
0 
0 
0 
0 
0 
0 
0 
0 
0 
0 
0 
0 
0 
0 
0 
0 
0 
0 
0 
0 
0 
0 
0 
0 
0 
0 
0 
0 
0 
0 
0 
0 
0 
0 
0 
0 
0 
0 
0 
0 
0 
0 
54 
68 
77 
85 
91 
96 
100 
104 
107 
109 
112 
114 
115 
116 
117 
118 
118 
118 
118 
117 
117 
116 
147 
154 
160 
165 
170 
174 
178 
181 
184 
187 
189 
192 
193 
195 
196 
197 
198 
198 
199 
199 
198 
198 
197 
196 
195 
193 
192 
189 
187 
184 
181 
177 
0 
0 
0 
0 
0 
0 
0 
0 
0 
0 
0 
0 
0 
0 
0 
0 
0 
0 
0 
0 
0 
0 
0 
0 
0 
0 
0 
0 
0 
0 
0 
0 
0 
0 
0 
0 
0 
0 
0 
0 
0 
0 
0 
0 
0 
0 
0 
48 
62 
72 
80 
86 
91 
95 
99 
102 
104 
106 
108 
109 
110 
111 
111 
111 
111 
111 
110 
109 
141 
148 
154 
160 
165 
169 
173 
176 
180 
182 
185 
187 
189 
191 
192 
193 
194 
194 
194 
194 
194 
194 
193 
192 
191 
189 
187 
185 
182 
179 
176 
172 
0 
0 
0 
0 
0 
0 
0 
0 
0 
0 
0 
0 
0 
0 
0 
0 
0 
0 
0 
0 
0 
0 
0 
0 
0 
0 
0 
0 
0 
0 
0 
0 
0 
0 
0 
0 
0 
0 
0 
0 
0 
0 
0 
0 
0 
0 
0 
0 
37 
55 
66 
74 
80 
85 
89 
92 
95 
98 
100 
101 
102 
103 
104 
104 
103 
103 
102 
101 
134 
141 
148 
154 
159 
163 
168 
171 
175 
177 
180 
182 
184 
186 
187 
188 
189 
190 
190 
190 
190 
189 
188 
187 
186 
184 
182 
180 
177 
174 
170 
167 
0 
0 
0 
0 
0 
0 
0 
0 
0 
0 
0 
0 
0 
0 
0 
0 
0 
0 
0 
0 
0 
0 
0 
0 
0 
0 
0 
0 
0 
0 
0 
0 
0 
0 
0 
0 
0 
0 
0 
0 
0 
0 
0 
0 
0 
0 
0 
0 
0 
0 
44 
57 
66 
72 
77 
82 
85 
88 
90 
92 
93 
94 
95 
95 
95 
94 
93 
92 
126 
134 
141 
147 
152 
157 
162 
165 
169 
172 
175 
177 
179 
181 
182 
183 
184 
185 
185 
185 
184 
184 
183 
182 
180 
179 
177 
174 
171 
168 
164 
160 
0 
0 
0 
0 
0 
0 
0 
0 
0 
0 
0 
0 
0 
0 
0 
0 
0 
0 
0 
0 
0 
0 
0 
0 
0 
0 
0 
0 
0 
0 
0 
0 
0 
0 
0 
0 
0 
0 
0 
0 
0 
0 
0 
0 
0 
0 
0 
0 
0 
0 
0 
0 
44 
55 
62 
68 
72 
76 
79 
81 
82 
84 
84 
85 
84 
84 
83 
105 
116 
125 
133 
139 
145 
150 
155 
159 
163 
166 
169 
171 
173 
175 
176 
178 
178 
179 
179 
179 
179 
178 
177 
176 
175 
173 
171 
168 
165 
162 
158 
153 
0 
0 
0 
0 
0 
0 
0 
0 
0 
0 
0 
0 
0 
0 
0 
0 
0 
0 
0 
0 
0 
0 
0 
0 
0 
0 
0 
0 
0 
0 
0 
0 
0 
0 
0 
0 
0 
0 
0 
0 
0 
0 
0 
0 
0 
0 
0 
0 
0 
0 
0 
0 
0 
0 
37 
48 
55 
60 
64 
67 
69 
71 
72 
72 
72 
71 
70 
93 
105 
115 
123 
131 
137 
143 
148 
152 
156 
159 
162 
165 
167 
169 
170 
171 
172 
173 
173 
173 
173 
172 
171 
170 
168 
166 
164 
161 
158 
154 
150 
145 
0 
0 
0 
0 
0 
0 
0 
0 
0 
0 
0 
0 
0 
0 
0 
0 
0 
0 
0 
0 
0 
0 
0 
0 
0 
0 
0 
0 
0 
0 
0 
0 
0 
0 
0 
0 
0 
0 
0 
0 
0 
0 
0 
0 
0 
0 
0 
0 
0 
0 
0 
0 
0 
0 
0 
0 
0 
33 
41 
47 
50 
53 
54 
55 
55 
55 
53 
76 
91 
103 
113 
121 
128 
134 
139 
144 
148 
152 
155 
158 
160 
162 
163 
165 
166 
166 
166 
166 
166 
165 
164 
163 
161 
159 
157 
154 
150 
146 
142 
137 
0 
0 
0 
0 
0 
0 
0 
0 
0 
0 
0 
0 
0 
0 
0 
0 
0 
0 
0 
0 
0 
0 
0 
0 
0 
0 
0 
0 
0 
0 
0 
0 
0 
0 
0 
0 
0 
0 
0 
0 
0 
0 
0 
0 
0 
0 
0 
0 
0 
0 
0 
0 
0 
0 
0 
0 
0 
0 
0 
0 
0 
0 
20 
24 
25 
24 
21 
49 
73 
88 
100 
109 
117 
124 
130 
135 
139 
143 
147 
150 
152 
154 
156 
157 
158 
159 
159 
159 
159 
158 
157 
155 
153 
151 
148 
145 
141 
137 
132 
126 
0 
0 
0 
0 
0 
0 
0 
0 
0 
0 
0 
0 
0 
0 
0 
0 
0 
0 
0 
0 
0 
0 
0 
0 
0 
0 
0 
0 
0 
0 
0 
0 
0 
0 
0 
0 
0 
0 
0 
0 
0 
0 
0 
0 
0 
0 
0 
0 
0 
0 
0 
0 
0 
0 
0 
0 
0 
0 
0 
0 
0 
0 
0 
0 
0 
0 
0 
0 
41 
67 
83 
95 
104 
112 
119 
125 
129 
134 
137 
141 
143 
146 
147 
149 
150 
151 
151 
151 
150 
149 
148 
147 
145 
142 
139 
136 
131 
127 
121 
114 
0 
0 
0 
0 
0 
0 
0 
0 
0 
0 
0 
0 
0 
0 
0 
0 
0 
0 
0 
0 
0 
0 
0 
0 
0 
0 
0 
0 
0 
0 
0 
0 
0 
0 
0 
0 
0 
0 
0 
0 
0 
0 
0 
0 
0 
0 
0 
0 
0 
0 
0 
0 
0 
0 
0 
0 
0 
0 
0 
0 
0 
0 
0 
0 
0 
0 
0 
0 
0 
0 
59 
76 
88 
98 
106 
112 
118 
123 
127 
130 
133 
136 
138 
139 
140 
141 
142 
141 
141 
140 
139 
137 
135 
132 
128 
124 
120 
114 
107 
99 
0 
0 
0 
0 
0 
0 
0 
0 
0 
0 
0 
0 
0 
0 
0 
0 
0 
0 
0 
0 
0 
0 
0 
0 
0 
0 
0 
0 
0 
0 
0 
0 
0 
0 
0 
0 
0 
0 
0 
0 
0 
0 
0 
0 
0 
0 
0 
0 
0 
0 
0 
0 
0 
0 
0 
0 
0 
0 
0 
0 
0 
0 
0 
0 
0 
0 
0 
0 
0 
0 
0 
44 
66 
79 
89 
97 
104 
110 
115 
119 
122 
125 
127 
129 
130 
131 
131 
131 
130 
129 
128 
126 
123 
120 
116 
111 
106 
99 
90 
79 
0 
0 
0 
0 
0 
0 
0 
0 
0 
0 
0 
0 
0 
0 
0 
0 
0 
0 
0 
0 
0 
0 
0 
0 
0 
0 
0 
0 
0 
0 
0 
0 
0 
0 
0 
0 
0 
0 
0 
0 
0 
0 
0 
0 
0 
0 
0 
0 
0 
0 
0 
0 
0 
0 
0 
0 
0 
0 
0 
0 
0 
0 
0 
0 
0 
0 
0 
0 
0 
0 
0 
0 
0 
49 
66 
78 
87 
94 
99 
104 
108 
111 
114 
116 
117 
118 
118 
118 
118 
116 
115 
112 
109 
105 
100 
95 
87 
78 
65 
43 
0 
0 
0 
0 
0 
0 
0 
0 
0 
0 
0 
0 
0 
0 
0 
0 
0 
0 
0 
0 
0 
0 
0 
0 
0 
0 
0 
0 
0 
0 
0 
0 
0 
0 
0 
0 
0 
0 
0 
0 
0 
0 
0 
0 
0 
0 
0 
0 
0 
0 
0 
0 
0 
0 
0 
0 
0 
0 
0 
0 
0 
0 
0 
0 
0 
0 
0 
0 
0 
0 
0 
0 
0 
0 
0 
45 
61 
72 
80 
86 
91 
95 
98 
100 
102 
103 
103 
103 
102 
101 
98 
95 
91 
86 
80 
71 
59 
37 
0 
0 
0 
0 
0 
0 
0 
0 
0 
0 
0 
0 
0 
0 
0 
0 
0 
0 
0 
0 
0 
0 
0 
0 
0 
0 
0 
0 
0 
0 
0 
0 
0 
0 
0 
0 
0 
0 
0 
0 
0 
0 
0 
0 
0 
0 
0 
0 
0 
0 
0 
0 
0 
0 
0 
0 
0 
0 
0 
0 
0 
0 
0 
0 
0 
0 
0 
0 
0 
0 
0 
0 
0 
0 
0 
0 
0 
0 
0 
0 
47 
58 
66 
72 
77 
80 
82 
83 
84 
83 
82 
80 
76 
72 
66 
57 
42 
0 
0 
0 
0 
0 
0 
0 
0 
0 
0 
0 
0 
0 
0 
0 
0 
0 
0 
0 
0 
0 
0 
0 
0 
0 
0 
0 
0 
0 
0 
0 
0 
0 
0 
0 
0 
0 
0 
0 
0 
0 
0 
0 
0 
0 
0 
0 
0 
0 
0 
0 
0 
0 
0 
0 
0 
0 
0 
0 
0 
0 
0 
0 
0 
0 
0 
0 
0 
0 
0 
0 
0 
0 
0 
0 
0 
0 
0 
0 
0 
0 
0 
0 
0 
0 
0 
0 
35 
44 
49 
51 
52 
51 
48 
42 
31 
0 
0 
0 
0 
0 
0 
0 
0 
0 
0 
0 
0 
0 
0 
0 
0 
0 
0 
0 
0 
0 
0 
0 
0 
0 
0 
0 
0 
0 
0 
0 
0 
0 
0 
0 
0 
0 
0 
0 
0 
0 
0 
0 
0 
0 
0 
0 
0 
0 
0 
0 
0 
0 
0 
0 
0 
0 
0 
0 
0 
0 
0 
0 
0 
0 
0 
0 
0 
0 
0 
0 
0 
0 
0 
0 
0 
0 
0 
0 
0 
0 
0 
0 
0 
0 
0 
0 
0 
0 
0 
0 
0 
0 
0 
0 
0 
0 
0 
0 
0 
0 
0 
0 
0 
0 
0 
0 
0 
0 
0 
0 
0 
0 
0 
0 
0 
0 
0 
0 
0 
0 
0 
0 
0 
0 
0 
0 
0 
0 
0 
0 
0 
0 
0 
0 
0 
0 
0 
0 
0 
0 
0 
0 
0 
0 
0 
0 
0 
0 
0 
0 
0 
0 
0 
0 
0 
0 
0 
0 
0 
0 
0 
0 
0 
0 
0 
0 
0 
0 
0 
0 
0 
0 
0 
0 
0 
0 
0 
0 
0 
0 
0 
0 
0 
0 
0 
0 
0 
0 
0 
0 
0 
0 
0 
0 
0 
0 
0 
0 
0 
0 
0 
0 
0 
0 
0 
0 
0 
0 
0 
0 
0 
0 
0 
0 
0 
0 
0 
0 
0 
0 
0 
0 
0 
0 
0 
0 
0 
0 
0 
0 
0 
0 
0 
0 
0 
0 
0 
0 
0 
0 
0 
0 
0 
0 
0 
0 
0 
0 
0 
0 
0 
0 
0 
0 
0 
0 
0 
0 
0 
0 
0 
0 
0 
0 
0 
0 
0 
0 
0 
0 
0 
0 
0 
0 
0 
0 
0 
0 
0 
0 
0 
0 
0 
0 
0 
0 
0 
0 
0 
0 
0 
0 
0 
0 
0 
0 
0 
0 
0 
0 
0 
0 
0 
0 
0 
0 
0 
0 
0 
0 
0 
0 
0 
0 
0 
0 
0 
0 
0 
0 
0 
0 
0 
0 
0 
0 
0 
0 
0 
0 
0 
0 
0 
0 
0 
0 
0 
0 
0 
0 
0 
0 
0 
0 
0 
0 
0 
0 
0 
0 
0 
0 
0 
0 
0 
0 
0 
0 
83 
114 
98 
22 
0 
0 
0 
0 
0 
0 
0 
0 
0 
38 
108 
110 
65 
0 
0 
0 
0 
0 
0 
0 
0 
0 
0 
93 
114 
91 
0 
0 
0 
0 
0 
0 
0 
0 
0 
0 
67 
110 
107 
36 
0 
0 
0 
0 
0 
0 
0 
0 
0 
0 
0 
0 
0 
0 
0 
0 
0 
0 
0 
0 
0 
0 
0 
0 
0 
0 
0 
0 
0 
0 
0 
0 
0 
0 
0 
0 
0 
0 
0 
0 
0 
0 
0 
0 
0 
0 
0 
0 
0 
0 
0 
0 
0 
0 
0 
79 
154 
170 
156 
109 
0 
0 
0 
0 
0 
0 
0 
0 
0 
133 
167 
166 
136 
43 
0 
0 
0 
0 
0 
0 
0 
0 
100 
156 
170 
154 
97 
0 
0 
0 
0 
0 
0 
0 
0 
46 
137 
167 
166 
131 
0 
0 
0 
0 
0 
0 
0 
0 
0 
0 
0 
0 
0 
0 
0 
0 
0 
0 
0 
0 
0 
0 
0 
0 
0 
0 
0 
0 
0 
0 
0 
0 
0 
0 
0 
0 
0 
0 
0 
0 
0 
0 
0 
0 
0 
0 
0 
0 
0 
0 
0 
0 
0 
0 
0 
120 
177 
190 
176 
132 
0 
0 
0 
0 
0 
0 
0 
0 
34 
158 
187 
187 
158 
82 
0 
0 
0 
0 
0 
0 
0 
0 
129 
177 
0 
176 
126 
0 
0 
0 
0 
0 
0 
0 
0 
85 
160 
187 
187 
0 
27 
0 
0 
0 
0 
0 
0 
0 
0 
0 
0 
0 
0 
0 
0 
0 
0 
0 
0 
0 
0 
0 
0 
0 
0 
0 
0 
0 
0 
0 
0 
0 
0 
0 
0 
0 
0 
0 
0 
0 
0 
0 
0 
0 
0 
0 
0 
0 
0 
0 
0 
81 
123 
125 
101 
32 
170 
184 
169 
121 
0 
0 
0 
0 
0 
0 
0 
109 
127 
117 
74 
180 
149 
55 
0 
0 
0 
0 
0 
0 
0 
0 
83 
121 
126 
102 
111 
0 
0 
0 
0 
0 
0 
0 
0 
58 
151 
40 
107 
127 
119 
70 
0 
0 
0 
0 
0 
0 
0 
0 
0 
0 
0 
0 
0 
0 
0 
0 
0 
0 
0 
0 
0 
0 
0 
0 
0 
0 
0 
0 
0 
0 
0 
0 
0 
0 
0 
0 
0 
0 
0 
0 
0 
0 
0 
0 
0 
0 
0 
0 
0 
144 
169 
168 
147 
99 
115 
142 
124 
41 
0 
0 
0 
0 
0 
0 
113 
158 
171 
162 
129 
47 
92 
0 
0 
0 
0 
0 
0 
0 
0 
61 
139 
166 
170 
151 
100 
0 
0 
0 
0 
0 
0 
0 
0 
0 
94 
110 
154 
170 
165 
134 
0 
0 
0 
0 
0 
0 
0 
0 
0 
0 
0 
0 
0 
0 
0 
0 
0 
0 
0 
0 
0 
0 
0 
0 
0 
0 
0 
0 
0 
0 
0 
0 
0 
0 
0 
0 
0 
0 
0 
0 
0 
0 
0 
0 
0 
0 
0 
0 
97 
167 
188 
186 
165 
120 
0 
0 
0 
0 
0 
0 
0 
0 
0 
0 
139 
178 
189 
180 
150 
80 
0 
0 
0 
0 
0 
0 
0 
0 
0 
95 
160 
185 
188 
171 
125 
0 
0 
0 
0 
0 
0 
0 
0 
0 
0 
133 
173 
189 
184 
156 
74 
0 
0 
0 
0 
0 
0 
0 
0 
0 
0 
0 
0 
0 
0 
0 
0 
0 
0 
0 
0 
0 
0 
0 
0 
0 
0 
0 
0 
0 
0 
0 
0 
0 
0 
0 
0 
0 
0 
0 
0 
0 
0 
0 
57 
63 
36 
0 
79 
164 
186 
185 
163 
114 
0 
0 
0 
0 
0 
0 
0 
0 
47 
65 
47 
176 
188 
179 
146 
66 
0 
0 
0 
0 
0 
0 
0 
0 
0 
84 
34 
64 
56 
169 
119 
0 
0 
0 
0 
0 
0 
0 
0 
0 
0 
128 
171 
187 
16 
60 
62 
9 
0 
0 
0 
0 
0 
0 
0 
0 
0 
0 
0 
0 
0 
0 
0 
0 
0 
0 
0 
0 
0 
0 
0 
0 
0 
0 
0 
0 
0 
0 
0 
0 
0 
0 
0 
0 
0 
0 
0 
0 
0 
113 
133 
131 
112 
71 
0 
128 
161 
160 
135 
69 
0 
0 
0 
0 
0 
0 
0 
97 
128 
134 
122 
88 
164 
153 
111 
0 
0 
0 
0 
0 
0 
0 
0 
0 
0 
78 
120 
134 
129 
103 
29 
0 
0 
0 
0 
0 
0 
0 
0 
0 
0 
82 
143 
55 
109 
130 
133 
116 
63 
0 
0 
0 
0 
0 
0 
0 
0 
0 
0 
0 
0 
0 
0 
0 
0 
0 
0 
0 
0 
0 
0 
0 
0 
0 
0 
0 
0 
0 
0 
0 
0 
0 
0 
0 
0 
0 
0 
0 
115 
156 
169 
165 
148 
113 
46 
0 
68 
84 
0 
0 
0 
0 
0 
0 
0 
0 
85 
143 
165 
169 
158 
130 
73 
65 
0 
0 
0 
0 
0 
0 
0 
0 
0 
0 
46 
127 
158 
169 
165 
144 
98 
0 
0 
0 
0 
0 
0 
0 
0 
0 
0 
0 
0 
107 
147 
166 
169 
156 
121 
0 
0 
0 
0 
0 
0 
0 
0 
0 
0 
0 
0 
0 
0 
0 
0 
0 
0 
0 
0 
0 
0 
0 
0 
0 
0 
0 
0 
0 
0 
0 
0 
0 
0 
0 
0 
0 
0 
0 
142 
176 
187 
183 
165 
132 
72 
0 
0 
0 
0 
0 
0 
0 
0 
0 
0 
0 
117 
164 
183 
187 
176 
149 
98 
0 
0 
0 
0 
0 
0 
0 
0 
0 
0 
0 
85 
148 
176 
187 
183 
164 
123 
0 
0 
0 
0 
0 
0 
0 
0 
0 
0 
0 
46 
129 
166 
183 
187 
175 
144 
58 
0 
0 
0 
0 
0 
0 
0 
0 
0 
0 
0 
0 
0 
0 
0 
0 
0 
0 
0 
0 
0 
0 
0 
0 
0 
0 
0 
0 
0 
0 
0 
0 
0 
0 
0 
0 
0 
0 
146 
180 
191 
186 
168 
134 
71 
0 
0 
0 
0 
0 
0 
0 
0 
0 
0 
0 
119 
168 
187 
190 
179 
152 
99 
0 
0 
0 
0 
0 
0 
0 
0 
0 
0 
0 
84 
151 
180 
191 
187 
167 
125 
0 
0 
0 
0 
0 
0 
0 
0 
0 
0 
0 
40 
131 
169 
187 
190 
179 
147 
51 
0 
0 
0 
0 
0 
0 
0 
0 
0 
0 
0 
0 
0 
0 
0 
0 
0 
0 
0 
0 
0 
0 
0 
0 
0 
0 
0 
0 
0 
0 
0 
0 
23 
9 
0 
0 
0 
0 
123 
167 
180 
175 
156 
117 
30 
0 
0 
0 
0 
0 
0 
0 
0 
0 
20 
16 
85 
153 
176 
179 
167 
137 
68 
0 
0 
0 
0 
0 
0 
0 
0 
0 
0 
0 
0 
134 
15 
21 
175 
153 
101 
0 
0 
0 
0 
0 
0 
0 
0 
0 
0 
0 
0 
111 
156 
176 
179 
166 
5 
23 
0 
0 
0 
0 
0 
0 
0 
0 
0 
0 
0 
0 
0 
0 
0 
0 
0 
0 
0 
0 
0 
0 
0 
0 
0 
0 
0 
0 
0 
0 
82 
103 
105 
93 
67 
15 
0 
0 
0 
124 
147 
144 
120 
62 
0 
0 
0 
0 
0 
0 
0 
0 
63 
96 
106 
101 
81 
37 
141 
147 
133 
88 
0 
0 
0 
0 
0 
0 
0 
0 
0 
0 
0 
0 
38 
86 
103 
105 
92 
58 
0 
0 
0 
0 
0 
0 
0 
0 
0 
0 
0 
0 
0 
0 
116 
143 
8 
72 
97 
106 
0 
0 
0 
0 
0 
0 
0 
0 
0 
0 
0 
0 
0 
0 
0 
0 
0 
0 
0 
0 
0 
0 
0 
0 
0 
0 
0 
0 
0 
102 
134 
145 
144 
133 
111 
74 
1 
0 
0 
0 
0 
0 
0 
0 
0 
0 
0 
0 
0 
0 
0 
72 
121 
141 
146 
141 
125 
94 
32 
0 
0 
0 
0 
0 
0 
0 
0 
0 
0 
0 
0 
0 
0 
31 
103 
132 
144 
146 
136 
112 
62 
0 
0 
0 
0 
0 
0 
0 
0 
0 
0 
0 
0 
0 
0 
0 
82 
119 
138 
146 
0 
0 
0 
0 
0 
0 
0 
0 
0 
0 
0 
0 
0 
0 
0 
0 
0 
0 
0 
0 
0 
0 
0 
0 
0 
0 
0 
0 
73 
140 
163 
171 
169 
157 
137 
103 
48 
0 
0 
0 
0 
0 
0 
0 
0 
0 
0 
0 
0 
0 
0 
116 
151 
167 
171 
166 
151 
123 
76 
0 
0 
0 
0 
0 
0 
0 
0 
0 
0 
0 
0 
0 
0 
87 
135 
159 
170 
171 
162 
141 
103 
0 
0 
0 
0 
0 
0 
0 
0 
0 
0 
0 
0 
0 
0 
54 
114 
146 
164 
171 
0 
0 
0 
0 
0 
0 
0 
0 
0 
0 
0 
0 
0 
0 
0 
0 
0 
0 
0 
0 
0 
0 
0 
0 
0 
0 
0 
0 
110 
159 
179 
186 
183 
171 
151 
119 
67 
0 
0 
0 
0 
0 
0 
0 
0 
0 
0 
0 
0 
0 
46 
137 
168 
182 
186 
180 
165 
139 
95 
0 
0 
0 
0 
0 
0 
0 
0 
0 
0 
0 
0 
0 
0 
109 
151 
174 
184 
185 
177 
157 
122 
38 
0 
0 
0 
0 
0 
0 
0 
0 
0 
0 
0 
0 
0 
77 
131 
161 
178 
185 
0 
0 
0 
0 
0 
0 
0 
0 
0 
0 
0 
0 
0 
0 
0 
0 
0 
0 
0 
0 
0 
0 
0 
0 
0 
0 
0 
0 
117 
165 
185 
191 
188 
176 
155 
122 
69 
0 
0 
0 
0 
0 
0 
0 
0 
0 
0 
0 
0 
0 
47 
142 
173 
188 
191 
185 
170 
143 
98 
0 
0 
0 
0 
0 
0 
0 
0 
0 
0 
0 
0 
0 
0 
113 
156 
179 
190 
190 
182 
162 
126 
37 
0 
0 
0 
0 
0 
0 
0 
0 
0 
0 
0 
0 
0 
79 
135 
166 
183 
191 
0 
0 
0 
0 
0 
0 
0 
0 
0 
0 
0 
0 
0 
0 
0 
0 
0 
0 
0 
0 
0 
0 
0 
0 
0 
0 
0 
0 
93 
158 
180 
187 
184 
171 
149 
113 
50 
0 
0 
0 
0 
0 
0 
0 
0 
0 
0 
0 
0 
0 
0 
133 
168 
183 
187 
181 
165 
136 
84 
0 
0 
0 
0 
0 
0 
0 
0 
0 
0 
0 
0 
0 
0 
99 
149 
174 
186 
186 
177 
156 
116 
0 
0 
0 
0 
0 
0 
0 
0 
0 
0 
0 
0 
0 
0 
58 
127 
160 
179 
187 
0 
0 
0 
0 
0 
0 
0 
0 
0 
0 
0 
0 
0 
0 
0 
0 
0 
0 
0 
0 
0 
0 
0 
0 
0 
0 
0 
0 
0 
131 
162 
172 
169 
155 
130 
86 
0 
0 
0 
0 
0 
0 
0 
0 
0 
0 
0 
0 
0 
0 
0 
95 
147 
167 
172 
165 
147 
112 
8 
0 
0 
0 
0 
0 
0 
0 
0 
0 
0 
0 
0 
0 
0 
0 
126 
156 
170 
171 
160 
135 
76 
0 
0 
0 
0 
0 
0 
0 
0 
0 
0 
0 
0 
0 
0 
0 
98 
141 
163 
171 
0 
0 
0 
0 
0 
0 
0 
0 
0 
0 
0 
0 
0 
0 
0 
0 
0 
0 
0 
0 
0 
0 
0 
0 
0 
0 
0 
0 
0 
0 
117 
137 
136 
120 
85 
0 
0 
0 
0 
0 
0 
0 
0 
0 
0 
0 
0 
0 
0 
0 
0 
0 
90 
129 
138 
131 
105 
0 
0 
0 
0 
0 
0 
0 
0 
0 
0 
0 
0 
0 
0 
0 
0 
0 
0 
115 
135 
137 
122 
76 
0 
0 
0 
0 
0 
0 
0 
0 
0 
0 
0 
0 
0 
0 
0 
0 
0 
94 
127 
138 
0 
0 
0 
0 
0 
0 
0 
0 
0 
0 
0 
0 
0 
0 
0 
0 
46 
69 
73 
68 
53 
26 
0 
0 
0 
0 
0 
0 
0 
0 
0 
0 
0 
0 
0 
0 
0 
0 
0 
0 
0 
0 
0 
0 
0 
53 
70 
73 
66 
48 
10 
0 
0 
0 
0 
0 
0 
0 
0 
0 
0 
0 
0 
0 
0 
0 
0 
0 
0 
0 
0 
0 
0 
24 
58 
71 
73 
64 
41 
0 
0 
0 
0 
0 
0 
0 
0 
0 
0 
0 
0 
0 
0 
0 
0 
0 
0 
0 
0 
0 
0 
0 
0 
0 
0 
0 
0 
0 
0 
0 
0 
0 
0 
0 
0 
83 
107 
115 
115 
108 
95 
74 
41 
0 
0 
0 
0 
0 
0 
0 
0 
0 
0 
0 
0 
0 
0 
0 
0 
0 
0 
0 
0 
26 
85 
106 
115 
116 
109 
94 
70 
28 
0 
0 
0 
0 
0 
0 
0 
0 
0 
0 
0 
0 
0 
0 
0 
0 
0 
0 
0 
0 
49 
87 
106 
115 
116 
109 
94 
65 
0 
0 
0 
0 
0 
0 
0 
0 
0 
0 
0 
0 
0 
0 
0 
0 
0 
0 
0 
0 
0 
0 
0 
0 
0 
0 
0 
0 
0 
0 
0 
0 
0 
0 
92 
126 
140 
145 
143 
136 
122 
103 
75 
34 
0 
0 
0 
0 
0 
0 
0 
0 
0 
0 
0 
0 
0 
0 
0 
0 
0 
0 
0 
94 
123 
138 
145 
144 
137 
124 
103 
71 
11 
0 
0 
0 
0 
0 
0 
0 
0 
0 
0 
0 
0 
0 
0 
0 
0 
0 
0 
39 
95 
121 
136 
144 
145 
139 
126 
104 
65 
0 
0 
0 
0 
0 
0 
0 
0 
0 
0 
0 
0 
0 
0 
0 
0 
0 
0 
0 
0 
0 
0 
0 
0 
0 
0 
0 
0 
0 
0 
0 
0 
52 
128 
151 
162 
165 
163 
155 
142 
123 
97 
60 
0 
0 
0 
0 
0 
0 
0 
0 
0 
0 
0 
0 
0 
0 
0 
0 
0 
0 
75 
125 
148 
160 
165 
164 
157 
145 
126 
97 
50 
0 
0 
0 
0 
0 
0 
0 
0 
0 
0 
0 
0 
0 
0 
0 
0 
0 
0 
81 
121 
144 
158 
164 
165 
160 
148 
128 
96 
27 
0 
0 
0 
0 
0 
0 
0 
0 
0 
0 
0 
0 
0 
0 
0 
0 
0 
18 
0 
0 
0 
0 
0 
0 
0 
0 
0 
0 
0 
0 
0 
106 
149 
168 
177 
179 
176 
168 
155 
136 
111 
76 
20 
0 
0 
0 
0 
0 
0 
0 
0 
0 
0 
0 
0 
0 
0 
0 
0 
0 
104 
143 
164 
175 
179 
178 
171 
159 
140 
113 
70 
0 
0 
0 
0 
0 
0 
0 
0 
0 
0 
0 
0 
0 
0 
0 
0 
0 
0 
103 
138 
160 
172 
178 
179 
174 
163 
144 
115 
61 
0 
0 
0 
0 
0 
0 
0 
0 
0 
0 
0 
0 
0 
0 
0 
0 
0 
47 
0 
0 
0 
0 
0 
0 
0 
0 
0 
0 
0 
0 
0 
122 
160 
178 
186 
188 
184 
176 
162 
144 
118 
83 
27 
0 
0 
0 
0 
0 
0 
0 
0 
0 
0 
0 
0 
0 
0 
0 
0 
0 
117 
154 
173 
184 
188 
186 
179 
167 
148 
121 
79 
0 
0 
0 
0 
0 
0 
0 
0 
0 
0 
0 
0 
0 
0 
0 
0 
0 
19 
113 
148 
168 
181 
187 
187 
182 
172 
153 
125 
73 
0 
0 
0 
0 
0 
0 
0 
0 
0 
0 
0 
0 
0 
0 
0 
0 
0 
57 
0 
0 
0 
0 
0 
0 
0 
0 
0 
0 
0 
0 
0 
125 
164 
181 
190 
191 
187 
178 
165 
145 
119 
82 
20 
0 
0 
0 
0 
0 
0 
0 
0 
0 
0 
0 
0 
0 
0 
0 
0 
0 
118 
157 
177 
187 
191 
189 
182 
170 
150 
122 
78 
0 
0 
0 
0 
0 
0 
0 
0 
0 
0 
0 
0 
0 
0 
0 
0 
0 
0 
114 
150 
171 
184 
190 
191 
186 
175 
156 
126 
70 
0 
0 
0 
0 
0 
0 
0 
0 
0 
0 
0 
0 
0 
0 
0 
0 
0 
53 
0 
0 
0 
0 
0 
0 
0 
0 
0 
0 
0 
0 
0 
109 
159 
178 
187 
189 
185 
176 
161 
141 
113 
71 
0 
0 
0 
0 
0 
0 
0 
0 
0 
0 
0 
0 
0 
0 
0 
0 
0 
0 
106 
151 
173 
185 
189 
187 
180 
166 
146 
115 
62 
0 
0 
0 
0 
0 
0 
0 
0 
0 
0 
0 
0 
0 
0 
0 
0 
0 
0 
104 
145 
168 
181 
188 
189 
183 
171 
151 
118 
36 
0 
0 
0 
0 
0 
0 
0 
0 
0 
0 
0 
0 
0 
0 
0 
0 
0 
11 
0 
0 
0 
0 
0 
0 
0 
0 
0 
0 
0 
0 
0 
0 
141 
167 
178 
180 
176 
167 
151 
129 
97 
42 
0 
0 
0 
0 
0 
0 
0 
0 
0 
0 
0 
0 
0 
0 
0 
0 
0 
0 
0 
135 
162 
175 
180 
178 
171 
156 
133 
96 
0 
0 
0 
0 
0 
0 
0 
0 
0 
0 
0 
0 
0 
0 
0 
0 
0 
0 
0 
68 
129 
157 
172 
179 
180 
174 
161 
138 
95 
0 
0 
0 
0 
0 
0 
0 
0 
0 
0 
0 
0 
0 
0 
0 
0 
0 
0 
0 
0 
0 
0 
0 
0 
0 
0 
0 
0 
0 
0 
0 
0 
0 
0 
142 
158 
163 
159 
149 
132 
105 
60 
0 
0 
0 
0 
0 
0 
0 
0 
0 
0 
0 
0 
0 
0 
0 
0 
0 
0 
0 
0 
87 
137 
155 
162 
161 
152 
135 
106 
41 
0 
0 
0 
0 
0 
0 
0 
0 
0 
0 
0 
0 
0 
0 
0 
0 
0 
0 
0 
0 
91 
133 
152 
161 
162 
155 
139 
107 
0 
0 
0 
0 
0 
0 
0 
0 
0 
0 
0 
0 
0 
0 
0 
0 
0 
0 
0 
0 
0 
0 
0 
0 
0 
0 
0 
0 
0 
0 
0 
0 
0 
0 
0 
0 
115 
128 
127 
115 
91 
38 
0 
0 
0 
0 
0 
0 
0 
0 
0 
0 
0 
0 
0 
0 
0 
0 
0 
0 
0 
0 
0 
0 
0 
114 
128 
128 
116 
90 
0 
0 
0 
0 
0 
0 
0 
0 
0 
0 
0 
0 
0 
0 
0 
0 
0 
0 
0 
0 
0 
0 
0 
65 
112 
127 
128 
118 
88 
0 
0 
0 
0 
0 
0 
0 
0 
0 
0 
0 
0 
0 
0 
0 
0 
0 
0 
0 
0 
0 
0 
0 
0 
0 
0 
0 
0 
0 
0 
0 
0 
0 
0 
0 
0 
0 
0 
0 
0 
0 
0 
0 
0 
0 
0 
0 
0 
0 
0 
0 
0 
0 
0 
0 
0 
0 
0 
0 
0 
0 
0 
0 
0 
0 
0 
0 
0 
0 
0 
0 
0 
0 
0 
0 
0 
0 
0 
0 
0 
0 
0 
0 
0 
0 
0 
0 
0 
0 
0 
0 
0 
0 
0 
0 
0 
0 
0 
0 
0 
0 
0 
0 
0 
0 
0 
0 
0 
0 
0 
0 
0 
0 
0 
0 
0 
0 
0 
0 
0 
0 