P2 100 100 255
0 
0 
0 
0 
0 
0 
0 
0 
0 
0 
0 
0 
0 
0 
0 
0 
0 
0 
0 
0 
0 
0 
198 
202 
202 
200 
198 
195 
192 
188 
185 
181 
177 
173 
169 
165 
160 
156 
151 
147 
142 
137 
133 
128 
123 
118 
112 
107 
102 
97 
91 
86 
80 
74 
69 
63 
57 
51 
45 
38 
32 
25 
19 
12 
5 
0 
0 
0 
0 
0 
0 
0 
0 
0 
0 
0 
0 
0 
0 
0 
0 
0 
0 
0 
0 
0 
0 
0 
0 
0 
0 
0 
0 
0 
0 
0 
0 
0 
0 
0 
0 
0 
0 
0 
0 
0 
0 
0 
0 
0 
0 
0 
0 
0 
0 
0 
0 
0 
0 
0 
0 
0 
201 
203 
202 
200 
198 
195 
192 
188 
185 
181 
177 
173 
169 
165 
160 
156 
151 
147 
142 
137 
133 
128 
123 
118 
112 
107 
102 
97 
91 
86 
80 
74 
69 
63 
57 
51 
45 
38 
32 
25 
19 
12 
5 
0 
0 
0 
0 
0 
0 
0 
0 
0 
0 
0 
0 
0 
0 
0 
0 
0 
0 
0 
0 
0 
0 
0 
0 
0 
0 
0 
0 
0 
0 
0 
0 
0 
0 
0 
0 
0 
0 
0 
0 
0 
0 
0 
0 
0 
0 
0 
0 
0 
0 
0 
0 
0 
0 
0 
0 
0 
202 
203 
203 
201 
198 
195 
192 
189 
185 
181 
177 
173 
169 
165 
160 
156 
151 
147 
142 
137 
132 
128 
123 
117 
112 
107 
102 
97 
91 
86 
80 
74 
68 
63 
57 
51 
44 
38 
32 
25 
18 
12 
5 
0 
0 
0 
0 
0 
0 
0 
0 
0 
0 
0 
0 
0 
0 
0 
0 
0 
0 
0 
0 
0 
0 
0 
0 
0 
0 
0 
0 
0 
0 
0 
0 
0 
0 
0 
0 
0 
0 
0 
0 
0 
0 
0 
0 
0 
0 
0 
0 
0 
0 
0 
0 
0 
0 
0 
0 
0 
203 
204 
203 
201 
198 
195 
192 
188 
185 
181 
177 
173 
169 
165 
160 
156 
151 
147 
142 
137 
132 
127 
122 
117 
112 
107 
102 
96 
91 
85 
80 
74 
68 
62 
56 
50 
44 
38 
31 
25 
18 
11 
4 
0 
0 
0 
0 
0 
0 
0 
0 
0 
0 
0 
0 
0 
0 
0 
0 
0 
0 
0 
0 
0 
0 
0 
0 
0 
0 
0 
0 
0 
0 
0 
0 
0 
0 
0 
0 
0 
0 
0 
0 
0 
0 
0 
0 
0 
0 
0 
0 
0 
0 
0 
0 
0 
0 
0 
0 
0 
203 
204 
203 
201 
198 
195 
192 
188 
185 
181 
177 
173 
169 
164 
160 
155 
151 
146 
142 
137 
132 
127 
122 
117 
112 
107 
101 
96 
91 
85 
79 
74 
68 
62 
56 
50 
44 
38 
31 
25 
18 
11 
4 
0 
0 
0 
0 
0 
0 
0 
0 
0 
0 
0 
0 
0 
0 
0 
0 
0 
0 
0 
0 
0 
0 
0 
0 
0 
0 
0 
0 
0 
0 
0 
0 
0 
0 
0 
0 
0 
0 
0 
0 
0 
0 
0 
0 
0 
0 
0 
0 
0 
0 
0 
0 
0 
0 
0 
0 
119 
119 
118 
115 
112 
198 
195 
192 
188 
184 
181 
177 
173 
168 
164 
160 
155 
151 
146 
141 
137 
132 
127 
122 
117 
112 
106 
101 
96 
90 
85 
79 
73 
68 
62 
56 
50 
44 
37 
31 
24 
18 
11 
4 
0 
0 
0 
0 
0 
0 
0 
0 
0 
0 
0 
0 
0 
0 
0 
0 
0 
0 
0 
0 
0 
0 
0 
0 
0 
0 
0 
0 
0 
0 
0 
0 
0 
0 
0 
0 
0 
0 
0 
0 
0 
0 
0 
0 
0 
0 
0 
0 
0 
0 
0 
0 
0 
0 
0 
126 
126 
124 
121 
118 
115 
111 
108 
104 
188 
184 
180 
176 
172 
168 
164 
159 
155 
150 
146 
141 
136 
131 
126 
121 
116 
111 
106 
101 
95 
90 
84 
79 
73 
67 
61 
55 
49 
43 
37 
30 
24 
17 
10 
3 
0 
0 
0 
0 
0 
0 
0 
0 
0 
0 
0 
0 
0 
0 
0 
0 
0 
0 
0 
0 
0 
0 
0 
0 
0 
0 
0 
0 
0 
0 
0 
0 
0 
0 
0 
0 
0 
0 
0 
0 
0 
0 
0 
0 
0 
0 
0 
0 
0 
0 
0 
0 
0 
0 
132 
132 
130 
127 
124 
121 
117 
114 
110 
106 
102 
98 
180 
176 
172 
167 
163 
159 
154 
150 
145 
140 
136 
131 
126 
121 
116 
111 
105 
100 
95 
89 
84 
78 
72 
67 
61 
55 
49 
42 
36 
30 
23 
16 
10 
3 
0 
0 
0 
0 
0 
0 
0 
0 
0 
0 
0 
0 
0 
0 
0 
0 
0 
0 
0 
0 
0 
0 
0 
0 
0 
0 
0 
0 
0 
0 
0 
0 
0 
0 
0 
0 
0 
0 
0 
0 
0 
0 
0 
0 
0 
0 
0 
0 
0 
0 
0 
0 
0 
137 
137 
135 
133 
130 
127 
123 
119 
116 
112 
108 
104 
99 
95 
91 
86 
167 
163 
158 
154 
149 
145 
140 
135 
130 
125 
120 
115 
110 
105 
100 
94 
89 
83 
78 
72 
66 
60 
54 
48 
42 
36 
29 
22 
16 
9 
2 
0 
0 
0 
0 
0 
0 
0 
0 
0 
0 
0 
0 
0 
0 
0 
0 
0 
0 
0 
0 
0 
0 
0 
0 
0 
0 
0 
0 
0 
0 
0 
0 
0 
0 
0 
0 
0 
0 
0 
0 
0 
0 
0 
0 
0 
0 
0 
0 
0 
0 
0 
0 
142 
142 
140 
138 
135 
132 
129 
125 
121 
117 
113 
109 
105 
101 
96 
92 
88 
83 
78 
158 
153 
149 
144 
139 
134 
130 
125 
120 
115 
109 
104 
99 
93 
88 
82 
77 
71 
65 
59 
53 
47 
41 
35 
28 
22 
15 
8 
1 
0 
0 
0 
0 
0 
0 
0 
0 
0 
0 
0 
0 
0 
0 
0 
0 
0 
0 
0 
0 
0 
0 
0 
0 
0 
0 
0 
0 
0 
0 
0 
0 
0 
0 
0 
0 
0 
0 
0 
0 
0 
0 
0 
0 
0 
0 
0 
0 
0 
0 
0 
146 
147 
145 
143 
140 
137 
134 
130 
127 
123 
119 
115 
111 
107 
102 
98 
93 
89 
84 
80 
75 
70 
148 
143 
139 
134 
129 
124 
119 
114 
109 
103 
98 
93 
87 
82 
76 
70 
65 
59 
53 
46 
40 
34 
27 
21 
14 
7 
0 
0 
0 
0 
0 
0 
0 
0 
0 
0 
0 
0 
0 
0 
0 
0 
0 
0 
0 
0 
0 
0 
0 
0 
0 
0 
0 
0 
0 
0 
0 
0 
0 
0 
0 
0 
0 
0 
0 
0 
0 
0 
0 
0 
0 
0 
0 
0 
0 
0 
0 
149 
151 
150 
148 
145 
142 
139 
135 
132 
128 
124 
120 
116 
112 
108 
103 
99 
95 
90 
85 
81 
76 
71 
66 
61 
138 
133 
128 
123 
118 
113 
108 
103 
97 
92 
86 
81 
75 
69 
64 
58 
52 
46 
39 
33 
26 
20 
13 
6 
0 
0 
0 
0 
0 
0 
0 
0 
0 
0 
0 
0 
0 
0 
0 
0 
0 
0 
0 
0 
0 
0 
0 
0 
0 
0 
0 
0 
0 
0 
0 
0 
0 
0 
0 
0 
0 
0 
0 
0 
0 
0 
0 
0 
0 
0 
0 
0 
0 
0 
0 
155 
154 
152 
150 
147 
144 
140 
137 
133 
129 
125 
121 
117 
113 
109 
105 
100 
96 
91 
87 
82 
77 
72 
67 
62 
57 
52 
127 
122 
117 
112 
107 
102 
96 
91 
86 
80 
74 
69 
63 
57 
51 
45 
38 
32 
25 
19 
12 
5 
0 
0 
0 
0 
0 
0 
0 
0 
0 
0 
0 
0 
0 
0 
0 
0 
0 
0 
0 
0 
0 
0 
0 
0 
0 
0 
0 
0 
0 
0 
0 
0 
0 
0 
0 
0 
0 
0 
0 
0 
0 
0 
0 
0 
0 
0 
0 
0 
0 
0 
157 
158 
156 
154 
151 
148 
145 
141 
138 
134 
130 
126 
122 
118 
114 
110 
105 
101 
97 
92 
87 
83 
78 
73 
68 
63 
58 
53 
48 
43 
116 
111 
106 
101 
95 
90 
85 
79 
73 
68 
62 
56 
50 
43 
37 
31 
24 
18 
11 
4 
0 
0 
0 
0 
0 
0 
0 
4 
0 
0 
0 
0 
0 
0 
0 
0 
0 
0 
0 
0 
0 
0 
0 
0 
0 
0 
0 
0 
0 
0 
0 
0 
0 
0 
0 
0 
0 
0 
0 
0 
0 
0 
0 
0 
0 
0 
0 
0 
0 
157 
161 
160 
158 
156 
153 
149 
146 
143 
139 
135 
131 
127 
123 
119 
115 
111 
106 
102 
97 
93 
88 
84 
79 
74 
69 
64 
59 
54 
49 
44 
38 
33 
105 
100 
94 
89 
83 
78 
72 
66 
61 
55 
48 
42 
36 
30 
23 
16 
9 
2 
0 
0 
0 
41 
34 
26 
18 
9 
0 
0 
0 
0 
0 
0 
0 
0 
0 
0 
0 
0 
0 
0 
0 
0 
0 
0 
0 
0 
0 
0 
0 
0 
0 
0 
0 
0 
0 
0 
0 
0 
0 
0 
0 
0 
0 
0 
0 
0 
0 
163 
163 
162 
160 
157 
154 
150 
147 
143 
140 
136 
132 
128 
124 
120 
116 
111 
107 
103 
98 
94 
89 
84 
80 
75 
70 
65 
60 
55 
50 
44 
39 
34 
28 
99 
93 
88 
82 
77 
71 
65 
59 
53 
47 
41 
35 
28 
22 
15 
8 
1 
66 
59 
52 
45 
37 
29 
21 
13 
5 
0 
0 
0 
0 
0 
0 
0 
0 
0 
0 
0 
0 
0 
0 
0 
0 
0 
0 
0 
0 
0 
0 
0 
0 
0 
0 
0 
0 
0 
0 
0 
0 
0 
0 
0 
0 
0 
0 
0 
162 
166 
165 
163 
161 
158 
155 
151 
148 
144 
141 
137 
133 
129 
125 
121 
116 
112 
108 
103 
99 
94 
90 
85 
80 
76 
71 
66 
61 
56 
50 
45 
40 
34 
29 
23 
17 
86 
81 
75 
70 
64 
58 
52 
46 
40 
33 
27 
20 
88 
82 
75 
69 
62 
55 
48 
40 
33 
25 
17 
8 
0 
0 
0 
0 
0 
0 
0 
0 
0 
0 
0 
0 
0 
0 
0 
0 
0 
0 
0 
0 
0 
0 
0 
0 
0 
0 
0 
0 
0 
0 
0 
0 
0 
0 
0 
0 
0 
0 
0 
168 
168 
167 
164 
162 
159 
156 
152 
149 
145 
141 
137 
133 
129 
125 
121 
117 
113 
108 
104 
99 
95 
90 
86 
81 
76 
71 
66 
61 
56 
51 
46 
40 
35 
30 
24 
18 
12 
6 
74 
68 
62 
56 
50 
44 
38 
109 
103 
97 
91 
84 
78 
71 
64 
57 
50 
43 
36 
28 
20 
12 
3 
0 
0 
0 
0 
0 
0 
0 
0 
0 
0 
0 
0 
0 
0 
0 
0 
0 
0 
0 
0 
0 
0 
0 
0 
0 
0 
0 
0 
0 
0 
0 
0 
0 
0 
0 
0 
0 
0 
170 
170 
168 
165 
163 
160 
156 
153 
149 
146 
142 
138 
134 
130 
126 
122 
117 
113 
109 
104 
100 
95 
91 
86 
81 
77 
72 
67 
62 
57 
52 
46 
41 
36 
30 
25 
19 
13 
7 
1 
0 
61 
55 
128 
122 
117 
111 
105 
99 
93 
86 
80 
73 
67 
60 
53 
46 
38 
31 
23 
15 
6 
0 
0 
0 
0 
0 
0 
0 
0 
0 
0 
0 
0 
0 
0 
0 
0 
0 
0 
0 
0 
0 
0 
0 
0 
0 
0 
0 
0 
0 
0 
0 
0 
0 
0 
0 
0 
0 
170 
172 
171 
169 
166 
163 
160 
157 
153 
150 
146 
142 
138 
134 
130 
126 
122 
118 
114 
109 
105 
100 
96 
91 
87 
82 
77 
72 
67 
62 
57 
52 
47 
42 
36 
31 
25 
19 
14 
8 
2 
0 
141 
135 
130 
124 
119 
113 
107 
101 
95 
88 
82 
76 
69 
62 
55 
48 
41 
33 
25 
17 
9 
1 
0 
0 
0 
0 
0 
0 
0 
0 
0 
0 
0 
0 
0 
0 
0 
0 
0 
0 
0 
0 
0 
0 
0 
0 
0 
0 
0 
0 
0 
0 
0 
0 
0 
0 
0 
0 
173 
173 
172 
170 
167 
164 
161 
157 
154 
150 
147 
143 
139 
135 
131 
127 
123 
118 
114 
110 
105 
101 
96 
92 
87 
82 
77 
73 
68 
63 
58 
52 
47 
42 
37 
31 
26 
20 
14 
8 
2 
0 
142 
137 
132 
126 
120 
115 
109 
103 
97 
90 
84 
77 
71 
64 
57 
50 
43 
35 
27 
20 
11 
3 
0 
0 
0 
0 
0 
0 
0 
0 
0 
0 
0 
0 
0 
0 
0 
0 
0 
0 
0 
0 
0 
0 
0 
0 
0 
0 
0 
0 
0 
0 
0 
0 
0 
0 
0 
0 
175 
174 
173 
170 
168 
165 
161 
158 
154 
151 
147 
143 
139 
135 
131 
127 
123 
119 
114 
110 
106 
101 
96 
92 
87 
83 
78 
73 
68 
63 
58 
53 
48 
42 
37 
31 
26 
20 
14 
9 
2 
0 
144 
139 
133 
128 
122 
116 
110 
104 
98 
92 
86 
79 
72 
66 
59 
52 
44 
37 
29 
22 
14 
5 
0 
0 
0 
0 
0 
0 
0 
0 
0 
0 
0 
0 
0 
0 
0 
0 
0 
0 
0 
0 
0 
0 
0 
0 
0 
0 
0 
0 
0 
0 
0 
0 
0 
0 
0 
0 
176 
175 
173 
171 
168 
165 
162 
158 
155 
151 
147 
143 
139 
135 
131 
127 
123 
119 
115 
110 
106 
101 
97 
92 
87 
83 
78 
73 
68 
63 
58 
53 
48 
43 
37 
32 
26 
20 
15 
9 
3 
151 
145 
140 
135 
129 
123 
118 
112 
106 
100 
93 
87 
81 
74 
67 
60 
53 
46 
39 
31 
23 
16 
7 
0 
0 
0 
0 
0 
0 
0 
0 
0 
0 
0 
0 
0 
0 
0 
0 
0 
0 
0 
0 
0 
0 
0 
0 
0 
0 
0 
0 
0 
0 
0 
0 
0 
0 
0 
175 
177 
176 
174 
171 
168 
165 
162 
158 
155 
151 
147 
144 
140 
136 
132 
127 
123 
119 
115 
110 
106 
101 
97 
92 
88 
83 
78 
73 
68 
63 
58 
53 
48 
43 
37 
32 
26 
21 
15 
9 
3 
152 
147 
141 
136 
130 
125 
119 
113 
107 
101 
95 
88 
82 
75 
69 
62 
55 
48 
40 
33 
25 
17 
9 
1 
0 
0 
0 
0 
0 
0 
0 
0 
0 
0 
0 
0 
0 
0 
0 
0 
0 
0 
0 
0 
0 
0 
0 
0 
0 
0 
0 
0 
0 
0 
0 
0 
0 
0 
176 
178 
176 
174 
171 
169 
165 
162 
159 
155 
151 
148 
144 
140 
136 
132 
128 
123 
119 
115 
110 
106 
101 
97 
92 
88 
83 
78 
73 
68 
63 
58 
53 
48 
43 
37 
32 
26 
21 
15 
9 
3 
153 
148 
142 
137 
131 
126 
120 
114 
108 
102 
96 
89 
83 
77 
70 
63 
56 
49 
42 
34 
27 
19 
11 
2 
0 
0 
0 
0 
0 
0 
0 
0 
0 
0 
0 
0 
0 
0 
0 
0 
0 
0 
0 
0 
0 
0 
0 
0 
0 
0 
0 
0 
0 
0 
0 
0 
0 
0 
177 
178 
177 
174 
172 
169 
166 
162 
159 
155 
151 
148 
144 
140 
136 
132 
128 
123 
119 
115 
110 
106 
102 
97 
92 
88 
83 
78 
73 
68 
64 
58 
53 
48 
43 
38 
32 
27 
21 
15 
9 
159 
154 
149 
143 
138 
132 
127 
121 
115 
109 
103 
97 
91 
84 
78 
71 
64 
57 
50 
43 
35 
28 
20 
12 
4 
0 
0 
0 
0 
0 
0 
0 
0 
0 
0 
0 
0 
0 
0 
0 
0 
0 
0 
0 
0 
0 
0 
0 
0 
0 
0 
0 
0 
0 
0 
0 
0 
0 
0 
178 
178 
177 
174 
172 
169 
166 
162 
159 
155 
151 
148 
144 
140 
136 
132 
128 
123 
119 
115 
110 
106 
101 
97 
92 
88 
83 
78 
73 
68 
63 
58 
53 
48 
43 
37 
32 
27 
21 
15 
9 
160 
155 
150 
144 
139 
133 
127 
122 
116 
110 
104 
98 
91 
85 
78 
72 
65 
58 
51 
44 
36 
29 
21 
13 
5 
0 
0 
0 
0 
0 
0 
0 
0 
0 
0 
0 
0 
0 
0 
0 
0 
0 
0 
0 
0 
0 
0 
0 
0 
0 
0 
0 
0 
0 
0 
0 
0 
0 
0 
178 
178 
177 
174 
172 
169 
166 
162 
159 
155 
151 
148 
144 
140 
136 
132 
127 
123 
119 
115 
110 
106 
101 
97 
92 
88 
83 
78 
73 
68 
63 
58 
53 
48 
43 
37 
32 
26 
21 
15 
166 
161 
156 
150 
145 
139 
134 
128 
122 
117 
111 
105 
98 
92 
86 
79 
73 
66 
59 
52 
45 
37 
30 
22 
14 
6 
0 
0 
0 
0 
0 
0 
0 
0 
0 
0 
0 
0 
0 
0 
0 
0 
0 
0 
0 
0 
0 
0 
0 
0 
0 
0 
0 
0 
0 
0 
0 
0 
0 
0 
178 
178 
177 
174 
172 
169 
165 
162 
159 
155 
151 
147 
144 
140 
136 
132 
127 
123 
119 
115 
110 
106 
101 
97 
92 
87 
83 
78 
73 
68 
63 
58 
53 
48 
43 
37 
32 
26 
21 
15 
166 
161 
156 
151 
146 
140 
134 
129 
123 
117 
111 
105 
99 
93 
86 
80 
73 
67 
60 
53 
46 
38 
31 
23 
15 
7 
0 
0 
0 
0 
0 
0 
0 
0 
0 
0 
0 
0 
0 
0 
0 
0 
0 
0 
0 
0 
0 
0 
0 
0 
0 
0 
0 
0 
0 
0 
0 
0 
0 
0 
178 
178 
176 
174 
171 
168 
165 
162 
158 
155 
151 
147 
143 
139 
135 
131 
127 
123 
119 
114 
110 
106 
101 
97 
92 
87 
83 
78 
73 
68 
63 
58 
53 
48 
42 
37 
32 
26 
20 
15 
167 
162 
157 
151 
146 
141 
135 
129 
124 
118 
112 
106 
100 
93 
87 
80 
74 
67 
60 
53 
46 
39 
31 
24 
16 
8 
0 
0 
0 
0 
0 
0 
0 
0 
0 
0 
0 
0 
0 
0 
0 
0 
0 
0 
0 
0 
0 
0 
0 
0 
0 
0 
0 
0 
0 
0 
0 
0 
0 
0 
177 
177 
176 
174 
171 
168 
165 
162 
158 
154 
151 
147 
143 
139 
135 
131 
127 
123 
118 
114 
110 
105 
101 
96 
92 
87 
82 
77 
73 
68 
63 
58 
53 
47 
42 
37 
31 
26 
20 
172 
167 
162 
157 
152 
146 
141 
135 
130 
124 
118 
112 
106 
100 
94 
87 
81 
74 
68 
61 
54 
47 
39 
32 
24 
16 
8 
0 
0 
0 
0 
0 
0 
0 
0 
0 
0 
0 
0 
0 
0 
0 
0 
0 
0 
0 
0 
0 
0 
0 
0 
0 
0 
0 
0 
0 
0 
0 
0 
0 
0 
176 
177 
176 
173 
171 
168 
165 
161 
158 
154 
150 
147 
143 
139 
135 
131 
127 
122 
118 
114 
109 
105 
100 
96 
91 
87 
82 
77 
72 
67 
62 
57 
52 
47 
42 
36 
31 
25 
20 
173 
168 
163 
157 
152 
147 
141 
136 
130 
124 
118 
112 
106 
100 
94 
88 
81 
75 
68 
61 
54 
47 
40 
32 
25 
17 
9 
0 
0 
0 
0 
0 
0 
0 
0 
0 
0 
0 
0 
0 
0 
0 
0 
0 
0 
0 
0 
0 
0 
0 
0 
0 
0 
0 
0 
0 
0 
0 
0 
0 
0 
175 
176 
175 
173 
170 
167 
164 
161 
157 
154 
150 
146 
142 
138 
134 
130 
126 
122 
118 
113 
109 
105 
100 
96 
91 
86 
82 
77 
72 
67 
62 
57 
52 
47 
41 
36 
30 
25 
19 
173 
168 
163 
158 
152 
147 
141 
136 
130 
124 
119 
113 
107 
100 
94 
88 
81 
75 
68 
61 
54 
47 
40 
32 
25 
17 
9 
1 
0 
0 
0 
0 
0 
0 
0 
0 
0 
0 
0 
0 
0 
0 
0 
0 
0 
0 
0 
0 
0 
0 
0 
0 
0 
0 
0 
0 
0 
0 
0 
0 
0 
173 
175 
174 
172 
170 
167 
164 
160 
157 
153 
150 
146 
142 
138 
134 
130 
126 
122 
117 
113 
109 
104 
100 
95 
90 
86 
81 
76 
71 
66 
61 
56 
51 
46 
41 
35 
30 
24 
19 
173 
168 
163 
158 
152 
147 
142 
136 
130 
125 
119 
113 
107 
101 
94 
88 
82 
75 
68 
61 
54 
47 
40 
33 
25 
17 
9 
1 
0 
0 
0 
0 
0 
0 
0 
0 
0 
0 
0 
0 
0 
0 
0 
0 
0 
0 
0 
0 
0 
0 
0 
0 
0 
0 
0 
0 
0 
0 
0 
0 
0 
0 
174 
173 
171 
169 
166 
163 
160 
156 
153 
149 
145 
141 
137 
133 
129 
125 
121 
117 
112 
108 
104 
99 
95 
90 
85 
81 
76 
71 
66 
61 
56 
51 
45 
40 
35 
29 
24 
178 
173 
168 
163 
158 
152 
147 
142 
136 
130 
125 
119 
113 
107 
101 
94 
88 
81 
75 
68 
61 
54 
47 
40 
33 
25 
17 
9 
1 
0 
0 
0 
0 
0 
0 
0 
0 
0 
0 
0 
0 
0 
0 
0 
0 
0 
0 
0 
0 
0 
0 
0 
0 
0 
0 
0 
0 
0 
0 
0 
0 
0 
0 
172 
172 
170 
168 
165 
162 
159 
156 
152 
148 
145 
141 
137 
133 
129 
125 
120 
116 
112 
107 
103 
99 
94 
89 
85 
80 
75 
70 
65 
60 
55 
50 
45 
39 
34 
29 
23 
178 
173 
168 
163 
158 
152 
147 
141 
136 
130 
124 
119 
113 
107 
100 
94 
88 
81 
75 
68 
61 
54 
47 
40 
32 
25 
17 
9 
1 
0 
0 
0 
0 
0 
0 
0 
0 
0 
0 
0 
0 
0 
0 
0 
0 
0 
0 
0 
0 
0 
0 
0 
0 
0 
0 
0 
0 
0 
0 
0 
0 
0 
0 
170 
171 
169 
167 
164 
161 
158 
155 
151 
148 
144 
140 
136 
132 
128 
124 
120 
116 
111 
107 
102 
98 
93 
89 
84 
79 
74 
70 
65 
60 
54 
49 
44 
39 
33 
28 
22 
178 
173 
168 
163 
157 
152 
147 
141 
136 
130 
124 
118 
112 
106 
100 
94 
88 
81 
75 
68 
61 
54 
47 
40 
32 
25 
17 
9 
1 
0 
0 
0 
0 
0 
0 
0 
0 
0 
0 
0 
0 
0 
0 
0 
0 
0 
0 
0 
0 
0 
0 
0 
0 
0 
0 
0 
0 
0 
0 
0 
0 
0 
0 
167 
169 
168 
166 
163 
160 
157 
154 
151 
147 
143 
139 
135 
131 
127 
123 
119 
115 
110 
106 
102 
97 
93 
88 
83 
79 
74 
69 
64 
59 
54 
49 
43 
38 
32 
27 
182 
177 
172 
167 
162 
157 
152 
146 
141 
135 
130 
124 
118 
112 
106 
100 
94 
87 
81 
74 
67 
61 
54 
47 
39 
32 
24 
16 
8 
0 
0 
0 
0 
0 
0 
0 
0 
0 
0 
0 
0 
0 
0 
0 
0 
0 
0 
0 
0 
0 
0 
0 
0 
0 
0 
0 
0 
0 
0 
0 
0 
0 
0 
0 
0 
167 
166 
165 
162 
159 
156 
153 
150 
146 
142 
139 
135 
131 
127 
122 
118 
114 
110 
105 
101 
96 
92 
87 
82 
78 
73 
68 
63 
58 
53 
48 
42 
37 
32 
26 
182 
177 
172 
167 
162 
157 
151 
146 
140 
135 
129 
123 
118 
112 
106 
99 
93 
87 
80 
74 
67 
60 
53 
46 
39 
31 
24 
16 
8 
0 
0 
0 
0 
0 
0 
0 
0 
0 
0 
0 
0 
0 
0 
0 
0 
0 
0 
0 
0 
0 
0 
0 
0 
0 
0 
0 
0 
0 
0 
0 
0 
0 
0 
0 
0 
164 
164 
163 
161 
158 
155 
152 
149 
145 
141 
138 
134 
130 
126 
122 
117 
113 
109 
104 
100 
95 
91 
86 
82 
77 
72 
67 
62 
57 
52 
47 
41 
36 
31 
25 
181 
176 
171 
166 
161 
156 
151 
145 
140 
134 
129 
123 
117 
111 
105 
99 
93 
86 
80 
73 
66 
60 
53 
45 
38 
31 
23 
15 
7 
0 
0 
0 
0 
0 
0 
0 
0 
0 
0 
0 
0 
0 
0 
0 
0 
0 
0 
0 
0 
0 
0 
0 
0 
0 
0 
0 
0 
0 
0 
0 
0 
0 
0 
0 
0 
0 
162 
161 
159 
157 
154 
151 
147 
144 
140 
137 
133 
129 
125 
121 
116 
112 
108 
103 
99 
95 
90 
85 
81 
76 
71 
66 
61 
56 
51 
46 
40 
35 
29 
185 
181 
176 
171 
166 
161 
156 
150 
145 
139 
134 
128 
122 
116 
111 
104 
98 
92 
86 
79 
73 
66 
59 
52 
45 
37 
30 
22 
14 
6 
0 
0 
0 
0 
0 
0 
0 
0 
0 
0 
0 
0 
0 
0 
0 
0 
0 
0 
0 
0 
0 
0 
0 
0 
0 
0 
0 
0 
0 
0 
0 
0 
0 
0 
0 
0 
0 
159 
159 
157 
155 
152 
149 
146 
143 
139 
135 
132 
128 
124 
120 
115 
111 
107 
102 
98 
93 
89 
84 
80 
75 
70 
65 
60 
55 
50 
45 
39 
34 
28 
185 
180 
175 
170 
165 
160 
155 
150 
144 
139 
133 
127 
122 
116 
110 
104 
98 
91 
85 
78 
72 
65 
58 
51 
44 
37 
29 
21 
13 
5 
0 
0 
0 
0 
0 
0 
0 
0 
0 
0 
0 
0 
0 
0 
0 
0 
0 
0 
0 
0 
0 
0 
0 
0 
0 
0 
0 
0 
0 
0 
0 
0 
0 
0 
0 
0 
0 
0 
156 
155 
153 
151 
148 
145 
141 
138 
134 
130 
126 
122 
118 
114 
110 
106 
101 
97 
92 
88 
83 
78 
74 
69 
64 
59 
54 
49 
43 
38 
32 
27 
184 
179 
174 
169 
164 
159 
154 
149 
143 
138 
132 
127 
121 
115 
109 
103 
97 
90 
84 
77 
71 
64 
57 
50 
43 
36 
28 
20 
12 
4 
0 
0 
0 
0 
0 
0 
0 
0 
0 
0 
0 
0 
0 
0 
0 
0 
0 
0 
0 
0 
0 
0 
0 
0 
0 
0 
0 
0 
0 
0 
0 
0 
0 
0 
0 
0 
0 
0 
152 
153 
151 
149 
146 
143 
140 
136 
133 
129 
125 
121 
117 
113 
109 
104 
100 
96 
91 
87 
82 
77 
72 
67 
63 
57 
52 
47 
42 
37 
31 
187 
183 
178 
173 
168 
163 
158 
153 
148 
142 
137 
131 
126 
120 
114 
108 
102 
96 
89 
83 
76 
70 
63 
56 
49 
42 
34 
27 
19 
11 
3 
0 
0 
0 
0 
0 
0 
0 
0 
0 
0 
0 
0 
0 
0 
0 
0 
0 
0 
0 
0 
0 
0 
0 
0 
0 
0 
0 
0 
0 
0 
0 
0 
0 
0 
0 
0 
0 
0 
0 
149 
148 
147 
144 
141 
138 
135 
131 
127 
124 
120 
116 
112 
107 
103 
99 
94 
90 
85 
81 
76 
71 
66 
61 
56 
51 
46 
40 
35 
30 
186 
182 
177 
172 
167 
162 
157 
152 
147 
141 
136 
130 
125 
119 
113 
107 
101 
95 
88 
82 
75 
69 
62 
55 
48 
41 
33 
26 
18 
10 
1 
0 
0 
0 
0 
0 
0 
0 
0 
0 
0 
0 
0 
0 
0 
0 
0 
0 
0 
0 
0 
0 
0 
0 
0 
0 
0 
0 
0 
0 
0 
0 
0 
0 
0 
0 
0 
0 
0 
0 
142 
145 
144 
142 
139 
136 
133 
129 
126 
122 
118 
114 
110 
106 
102 
97 
93 
88 
84 
79 
74 
69 
65 
60 
55 
49 
44 
39 
33 
28 
185 
180 
176 
171 
166 
161 
156 
151 
146 
140 
135 
129 
123 
118 
112 
106 
100 
93 
87 
81 
74 
67 
60 
54 
46 
39 
32 
24 
16 
8 
0 
0 
0 
0 
0 
0 
0 
0 
0 
0 
0 
0 
0 
0 
0 
0 
0 
0 
0 
0 
0 
0 
0 
0 
0 
0 
0 
0 
0 
0 
0 
0 
0 
0 
0 
0 
0 
0 
0 
0 
0 
139 
140 
139 
137 
134 
131 
127 
124 
120 
116 
112 
108 
104 
100 
96 
91 
87 
82 
77 
73 
68 
63 
58 
53 
48 
42 
37 
32 
188 
184 
179 
174 
170 
165 
160 
155 
150 
144 
139 
133 
128 
122 
116 
110 
104 
98 
92 
86 
79 
73 
66 
59 
52 
45 
38 
30 
22 
15 
6 
0 
0 
0 
0 
0 
0 
0 
0 
0 
0 
0 
0 
0 
0 
0 
0 
0 
0 
0 
0 
0 
0 
0 
0 
0 
0 
0 
0 
0 
0 
0 
0 
0 
0 
0 
0 
0 
0 
0 
0 
0 
0 
135 
135 
134 
131 
128 
125 
122 
118 
114 
111 
107 
102 
98 
94 
89 
85 
80 
76 
71 
66 
61 
56 
51 
46 
41 
35 
30 
186 
182 
178 
173 
168 
163 
158 
153 
148 
143 
137 
132 
126 
121 
115 
109 
103 
97 
91 
84 
78 
71 
64 
57 
50 
43 
36 
28 
21 
13 
4 
0 
0 
0 
0 
0 
0 
0 
0 
0 
0 
0 
0 
0 
0 
0 
0 
0 
0 
0 
0 
0 
0 
0 
0 
0 
0 
0 
0 
0 
0 
0 
0 
0 
0 
0 
0 
0 
0 
0 
0 
0 
0 
0 
130 
130 
128 
126 
123 
119 
116 
112 
108 
104 
100 
96 
92 
88 
83 
78 
74 
69 
64 
59 
54 
49 
44 
39 
33 
28 
184 
180 
176 
171 
167 
162 
157 
152 
147 
141 
136 
130 
125 
119 
113 
107 
101 
95 
89 
83 
76 
69 
63 
56 
49 
41 
34 
26 
19 
11 
2 
0 
0 
0 
0 
0 
0 
0 
0 
0 
0 
0 
0 
0 
0 
0 
0 
0 
0 
0 
0 
0 
0 
0 
0 
0 
0 
0 
0 
0 
0 
0 
0 
0 
0 
0 
0 
0 
0 
0 
0 
0 
0 
0 
0 
124 
124 
122 
120 
117 
113 
110 
106 
102 
98 
94 
90 
85 
81 
76 
72 
67 
62 
57 
52 
47 
42 
36 
31 
186 
182 
178 
174 
169 
165 
160 
155 
150 
145 
140 
134 
129 
123 
117 
112 
106 
100 
93 
87 
81 
74 
67 
61 
54 
47 
39 
32 
24 
16 
8 
0 
0 
0 
0 
0 
0 
0 
0 
0 
0 
0 
0 
0 
0 
0 
0 
0 
0 
0 
0 
0 
0 
0 
0 
0 
0 
0 
0 
0 
0 
0 
0 
0 
0 
0 
0 
0 
0 
0 
0 
0 
0 
0 
0 
0 
0 
118 
118 
116 
113 
110 
107 
103 
100 
96 
92 
87 
83 
79 
74 
69 
65 
60 
55 
50 
44 
39 
34 
28 
184 
180 
176 
172 
167 
163 
158 
153 
148 
143 
138 
132 
127 
121 
115 
110 
104 
98 
91 
85 
79 
72 
65 
59 
52 
44 
37 
30 
22 
14 
6 
0 
0 
0 
0 
0 
0 
0 
0 
0 
0 
0 
0 
0 
0 
0 
0 
0 
0 
0 
0 
0 
0 
0 
0 
0 
0 
0 
0 
0 
0 
0 
0 
0 
0 
0 
0 
0 
0 
0 
0 
0 
0 
0 
0 
0 
0 
0 
110 
111 
109 
107 
103 
100 
97 
93 
89 
85 
80 
76 
71 
67 
62 
57 
52 
47 
42 
36 
31 
25 
182 
178 
174 
170 
165 
161 
156 
151 
146 
141 
136 
130 
125 
119 
113 
108 
102 
96 
89 
83 
77 
70 
63 
56 
49 
42 
35 
27 
19 
11 
3 
0 
0 
0 
0 
0 
0 
0 
0 
0 
0 
0 
0 
0 
0 
0 
0 
0 
0 
0 
0 
0 
0 
0 
0 
0 
0 
0 
0 
0 
0 
0 
0 
0 
0 
0 
0 
0 
0 
0 
0 
0 
0 
0 
0 
0 
0 
0 
0 
0 
103 
102 
99 
96 
93 
89 
85 
81 
77 
73 
68 
64 
59 
54 
49 
44 
39 
33 
28 
22 
179 
175 
171 
167 
163 
158 
154 
149 
144 
139 
133 
128 
123 
117 
111 
105 
99 
93 
87 
81 
74 
68 
61 
54 
47 
39 
32 
24 
16 
8 
0 
0 
0 
0 
0 
0 
0 
0 
0 
0 
0 
0 
0 
0 
0 
0 
0 
0 
0 
0 
0 
0 
0 
0 
0 
0 
0 
0 
0 
0 
0 
0 
0 
0 
0 
0 
0 
0 
0 
0 
0 
0 
0 
0 
0 
0 
0 
0 
0 
0 
0 
93 
93 
91 
88 
85 
81 
78 
74 
69 
65 
60 
56 
51 
46 
41 
35 
30 
24 
179 
176 
172 
168 
164 
160 
156 
151 
146 
141 
136 
131 
126 
120 
114 
109 
103 
97 
91 
85 
78 
72 
65 
58 
51 
44 
37 
29 
21 
13 
5 
0 
0 
0 
0 
0 
0 
0 
0 
0 
0 
0 
0 
0 
0 
0 
0 
0 
0 
0 
0 
0 
0 
0 
0 
0 
0 
0 
0 
0 
0 
0 
0 
0 
0 
0 
0 
0 
0 
0 
0 
0 
0 
0 
0 
0 
0 
0 
0 
0 
0 
0 
0 
0 
83 
82 
80 
76 
73 
69 
65 
61 
56 
52 
47 
42 
36 
31 
26 
20 
175 
172 
169 
165 
161 
157 
153 
148 
143 
138 
133 
128 
123 
117 
112 
106 
100 
94 
88 
82 
75 
69 
62 
55 
48 
41 
34 
26 
18 
10 
1 
0 
0 
0 
0 
0 
0 
0 
0 
0 
0 
0 
0 
0 
0 
0 
0 
0 
0 
0 
0 
0 
0 
0 
0 
0 
0 
0 
0 
0 
0 
0 
0 
0 
0 
0 
0 
0 
0 
0 
0 
0 
0 
0 
0 
0 
0 
0 
0 
0 
0 
0 
0 
0 
0 
0 
70 
69 
66 
63 
59 
55 
51 
47 
42 
37 
32 
26 
21 
15 
170 
167 
165 
161 
158 
154 
149 
145 
140 
135 
130 
125 
120 
114 
109 
103 
97 
91 
85 
79 
72 
66 
59 
52 
45 
38 
30 
22 
14 
6 
0 
0 
0 
0 
0 
0 
0 
0 
0 
0 
0 
0 
0 
0 
0 
0 
0 
0 
0 
0 
0 
0 
0 
0 
0 
0 
0 
0 
0 
0 
0 
0 
0 
0 
0 
0 
0 
0 
0 
0 
0 
0 
0 
0 
0 
0 
0 
0 
0 
0 
0 
0 
0 
0 
0 
0 
0 
0 
0 
53 
51 
48 
44 
40 
35 
30 
25 
20 
14 
8 
164 
162 
160 
157 
154 
150 
146 
141 
137 
132 
127 
122 
117 
111 
106 
100 
94 
88 
82 
75 
69 
62 
55 
48 
41 
34 
26 
18 
10 
2 
0 
0 
0 
0 
0 
0 
0 
0 
0 
0 
0 
0 
0 
0 
0 
0 
0 
0 
0 
0 
0 
0 
0 
0 
0 
0 
0 
0 
0 
0 
0 
0 
0 
0 
0 
0 
0 
0 
0 
0 
0 
0 
0 
0 
0 
0 
0 
0 
0 
0 
0 
0 
0 
0 
0 
0 
0 
0 
0 
0 
0 
0 
0 
0 
21 
18 
13 
7 
1 
149 
155 
156 
154 
152 
149 
145 
141 
137 
133 
128 
123 
118 
113 
108 
102 
96 
90 
84 
78 
72 
65 
59 
52 
45 
37 
30 
22 
14 
6 
0 
0 
0 
0 
0 
0 
0 
0 
0 
0 
0 
0 
0 
0 
0 
0 
0 
0 
0 
0 
0 
0 
0 
0 
0 
0 
0 
0 
0 
0 
0 
0 
0 
0 
0 
0 
0 
0 
0 
0 
0 
0 
0 
0 
0 
0 
0 
0 
0 
0 
0 
0 
0 
0 
0 
0 
0 
0 
0 
0 
0 
0 
0 
0 
0 
0 
0 
0 
0 
0 
0 
0 
146 
147 
146 
143 
140 
137 
133 
128 
124 
119 
114 
109 
104 
98 
92 
86 
80 
74 
68 
61 
54 
47 
40 
33 
25 
17 
9 
0 
0 
0 
0 
0 
0 
0 
0 
0 
0 
0 
0 
0 
0 
0 
0 
0 
0 
0 
0 
0 
0 
0 
0 
0 
0 
0 
0 
0 
0 
0 
0 
0 
0 
0 
0 
0 
0 
0 
0 
0 
0 
0 
0 
0 
0 
0 
0 
0 
0 
0 
0 
0 
0 
0 
0 
0 
0 
0 
0 
0 
0 
0 
0 
0 
0 
0 
0 
0 
0 
0 
0 
0 
0 
135 
137 
136 
134 
131 
127 
123 
119 
114 
109 
104 
99 
93 
88 
82 
76 
70 
63 
56 
50 
42 
35 
28 
20 
12 
3 
0 
0 
0 
0 
0 
0 
0 
0 
0 
0 
0 
0 
0 
0 
0 
0 
0 
0 
0 
0 
0 
0 
0 
0 
0 
0 
0 
0 
0 
0 
0 
0 
0 
0 
0 
0 
0 
0 
0 
0 
0 
0 
0 
0 
0 
0 
0 
0 
0 
0 
0 
0 
0 
0 
0 
0 
0 
0 
0 
0 
0 
0 
0 
0 
0 
0 
0 
0 
0 
0 
0 
0 
0 
0 
0 
120 
125 
125 
123 
120 
117 
113 
108 
104 
99 
94 
88 
83 
77 
71 
64 
58 
51 
44 
37 
29 
22 
13 
5 
0 
0 
0 
0 
0 
0 
0 
0 
0 
0 
0 
0 
0 
0 
0 
0 
0 
0 
0 
0 
0 
0 
0 
0 
0 
0 
0 
0 
0 
0 
0 
0 
0 
0 
0 
0 
0 
0 
0 
0 
0 
0 
0 
0 
0 
0 
0 
0 
0 
0 
0 
0 
0 
0 
0 
0 
0 
0 
0 
0 
0 
0 
0 
0 
0 
0 
0 
0 
0 
0 
0 
0 
0 
0 
0 
0 
0 
0 
110 
112 
111 
109 
105 
101 
97 
92 
87 
82 
76 
71 
65 
58 
52 
45 
38 
30 
23 
14 
6 
0 
0 
0 
0 
0 
0 
0 
0 
0 
0 
0 
0 
0 
0 
0 
0 
0 
0 
0 
0 
0 
0 
0 
0 
0 
0 
0 
0 
0 
0 
0 
0 
0 
0 
0 
0 
0 
0 
0 
0 
0 
0 
0 
0 
0 
0 
0 
0 
0 
0 
0 
0 
0 
0 
0 
0 
0 
0 
0 
0 
0 
0 
0 
0 
0 
0 
0 
0 
0 
0 
0 
0 
0 
0 
0 
0 
0 
0 
0 
0 
0 
94 
96 
95 
92 
88 
84 
79 
74 
69 
63 
57 
51 
44 
37 
30 
22 
14 
5 
0 
0 
0 
0 
0 
0 
0 
0 
0 
0 
0 
0 
0 
0 
0 
0 
0 
0 
0 
0 
0 
0 
0 
0 
0 
0 
0 
0 
0 
0 
0 
0 
0 
0 
0 
0 
0 
0 
0 
0 
0 
0 
0 
0 
0 
0 
0 
0 
0 
0 
0 
0 
0 
0 
0 
0 
0 
0 
0 
0 
0 
0 
0 
0 
0 
0 
0 
0 
0 
0 
0 
0 
0 
0 
0 
0 
0 
0 
0 
0 
0 
0 
0 
0 
0 
76 
75 
72 
69 
64 
59 
53 
47 
41 
34 
27 
19 
11 
2 
0 
0 
0 
0 
0 
0 
0 
0 
0 
0 
0 
0 
0 
0 
0 
0 
0 
0 
0 
0 
0 
0 
0 
0 
0 
0 
0 
0 
0 
0 
0 
0 
0 
0 
0 
0 
0 
0 
0 
0 
0 
0 
0 
0 
0 
0 
0 
0 
0 
0 
0 
0 
0 
0 
0 
0 
0 
0 
0 
0 
0 
0 
0 
0 
0 
0 
0 
0 
0 
0 
0 
0 
0 
0 
0 
0 
0 
0 
0 
0 
0 
0 
0 
0 
0 
0 
0 
0 
0 
0 
43 
41 
37 
32 
25 
18 
10 
1 
0 
0 
0 
0 
0 
0 
0 
0 
0 
0 
0 
0 
0 
0 
0 
0 
0 
0 
0 
0 
0 
0 
0 
0 
0 
0 
0 
0 
0 
0 
0 
0 
0 
0 
0 
0 
0 
0 
0 
0 
0 
0 
0 
0 
0 
0 
0 
0 
0 
0 
0 
0 
0 
0 
0 
0 
0 
0 
0 
0 
0 
0 
0 
0 
0 
0 
0 
0 
0 
0 
0 
0 
0 
0 
0 
0 
0 
0 
0 
0 
0 
0 
0 
0 
0 
0 
0 
0 
0 
0 
0 
0 
0 
0 
0 
0 
0 
0 
0 
0 
0 
0 
0 
0 
0 
0 
0 
0 
0 
0 
0 
0 
0 
0 
0 
0 
0 
0 
0 
0 
0 
0 
0 
0 
0 
0 
0 
0 
0 
0 
0 
0 
0 
0 
0 
0 
0 
0 
0 
0 
0 
0 
0 
0 
0 
0 
0 
0 
0 
0 
0 
0 
0 
0 
0 
0 
0 
0 
0 
0 
0 
0 
0 
0 
0 
0 
0 
0 
0 
0 
0 
0 
0 
0 
0 
0 
0 
0 
0 
0 
0 
0 
0 
0 
0 
0 
0 
0 
0 
0 
0 
0 
0 
0 
0 
0 
0 
0 
0 
0 
0 
0 
0 
0 
0 
0 
0 
0 
0 
0 
0 
0 
0 
0 
0 
0 
0 
0 
0 
0 
0 
0 
0 
0 
0 
0 
0 
0 
0 
0 
0 
0 
0 
0 
0 
0 
0 
0 
0 
0 
0 
0 
0 
0 
0 
0 
0 
0 
0 
0 
0 
0 
0 
0 
0 
0 
0 
0 
0 
0 
0 
0 
0 
0 
0 
0 
0 
0 
0 
0 
0 
0 
0 
0 
0 
0 
0 
0 
0 
0 
0 
0 
0 
0 
0 
0 
0 
0 
0 
0 
0 
0 
0 
0 
0 
0 
0 
0 
0 
0 
0 
0 
0 
0 
0 
0 
0 
0 
0 
0 
0 
0 
0 
0 
0 
0 
0 
0 
0 
0 
0 
0 
0 
0 
0 
0 
0 
0 
0 
0 
0 
0 
0 
0 
0 
0 
0 
0 
0 
0 
0 
0 
0 
0 
0 
0 
0 
0 
0 
0 
0 
0 
0 
0 
0 
0 
0 
0 
112 
58 
0 
0 
0 
0 
0 
0 
0 
0 
0 
0 
0 
121 
84 
21 
0 
0 
0 
0 
0 
0 
0 
0 
0 
0 
0 
105 
51 
0 
0 
0 
0 
0 
0 
0 
0 
0 
0 
0 
119 
77 
12 
0 
0 
0 
0 
0 
0 
0 
0 
0 
0 
119 
98 
43 
0 
0 
0 
0 
0 
0 
0 
0 
0 
0 
0 
0 
0 
0 
0 
0 
0 
0 
0 
0 
0 
0 
0 
0 
0 
0 
0 
0 
0 
0 
0 
0 
0 
0 
0 
0 
0 
0 
0 
0 
0 
0 
0 
174 
135 
77 
9 
0 
0 
0 
0 
0 
0 
0 
0 
0 
0 
157 
107 
43 
0 
0 
0 
0 
0 
0 
0 
0 
0 
0 
171 
133 
76 
6 
0 
0 
0 
0 
0 
0 
0 
0 
0 
172 
154 
106 
42 
0 
0 
0 
0 
0 
0 
0 
0 
0 
0 
168 
131 
75 
2 
0 
0 
0 
0 
0 
0 
0 
0 
0 
0 
0 
0 
0 
0 
0 
0 
0 
0 
0 
0 
0 
0 
0 
0 
0 
0 
0 
0 
0 
0 
0 
0 
0 
0 
0 
0 
0 
0 
0 
0 
10 
0 
187 
142 
84 
16 
0 
0 
0 
0 
0 
0 
0 
0 
0 
182 
167 
115 
51 
0 
0 
0 
0 
0 
0 
0 
0 
0 
0 
184 
142 
0 
16 
0 
0 
0 
0 
0 
0 
0 
0 
0 
191 
165 
116 
53 
0 
0 
0 
0 
0 
0 
0 
0 
0 
171 
182 
142 
87 
16 
0 
0 
0 
0 
0 
0 
0 
0 
0 
0 
0 
0 
0 
0 
0 
0 
0 
0 
0 
0 
0 
0 
0 
0 
0 
0 
0 
0 
0 
0 
0 
0 
0 
0 
0 
0 
0 
0 
135 
103 
52 
0 
0 
140 
81 
13 
0 
0 
0 
0 
0 
0 
0 
0 
124 
81 
26 
0 
49 
0 
0 
0 
0 
0 
0 
0 
0 
0 
0 
135 
106 
57 
0 
0 
0 
0 
0 
0 
0 
0 
0 
0 
178 
161 
113 
125 
85 
30 
0 
0 
0 
0 
0 
0 
0 
0 
175 
138 
83 
11 
135 
108 
62 
0 
0 
0 
0 
0 
0 
0 
0 
0 
0 
0 
0 
0 
0 
0 
0 
0 
0 
0 
0 
0 
0 
0 
0 
0 
0 
0 
0 
0 
0 
0 
0 
0 
0 
0 
162 
118 
65 
6 
0 
0 
68 
0 
0 
0 
0 
0 
0 
0 
0 
175 
145 
98 
42 
0 
0 
0 
0 
0 
0 
0 
0 
0 
0 
0 
0 
165 
127 
76 
17 
0 
0 
0 
0 
0 
0 
0 
0 
0 
0 
132 
175 
150 
107 
54 
0 
0 
0 
0 
0 
0 
0 
0 
130 
113 
59 
170 
167 
134 
87 
28 
0 
0 
0 
0 
0 
0 
0 
0 
0 
0 
0 
0 
0 
0 
0 
0 
0 
0 
0 
0 
0 
0 
0 
0 
0 
0 
0 
0 
0 
0 
0 
0 
0 
0 
170 
124 
71 
12 
0 
0 
0 
0 
0 
0 
0 
0 
0 
0 
0 
187 
153 
105 
49 
0 
0 
0 
0 
0 
0 
0 
0 
0 
0 
0 
186 
175 
135 
85 
25 
0 
0 
0 
0 
0 
0 
0 
0 
0 
0 
0 
188 
160 
117 
63 
0 
0 
0 
0 
0 
0 
0 
0 
0 
0 
0 
189 
178 
144 
98 
40 
0 
0 
0 
0 
0 
0 
0 
0 
0 
0 
0 
0 
0 
0 
0 
0 
0 
0 
0 
0 
0 
0 
0 
0 
0 
0 
0 
0 
0 
0 
47 
0 
0 
0 
168 
124 
71 
11 
0 
0 
0 
0 
0 
0 
0 
0 
0 
0 
59 
15 
0 
104 
49 
0 
0 
0 
0 
0 
0 
0 
0 
0 
0 
0 
0 
173 
68 
29 
0 
0 
0 
0 
0 
0 
0 
0 
0 
0 
0 
0 
184 
159 
116 
63 
74 
42 
0 
0 
0 
0 
0 
0 
0 
0 
0 
180 
176 
143 
97 
39 
0 
0 
77 
53 
8 
0 
0 
0 
0 
0 
0 
0 
0 
0 
0 
0 
0 
0 
0 
0 
0 
0 
0 
0 
0 
0 
0 
0 
142 
110 
68 
20 
0 
0 
154 
115 
63 
3 
0 
0 
0 
0 
0 
0 
0 
0 
139 
124 
86 
40 
0 
0 
39 
0 
0 
0 
0 
0 
0 
0 
0 
0 
0 
0 
0 
135 
102 
60 
9 
0 
0 
0 
0 
0 
0 
0 
0 
0 
0 
0 
144 
143 
103 
141 
116 
79 
31 
0 
0 
0 
0 
0 
0 
0 
0 
0 
155 
128 
83 
23 
0 
143 
127 
95 
52 
0 
0 
0 
0 
0 
0 
0 
0 
0 
0 
0 
0 
0 
0 
0 
0 
0 
0 
0 
0 
0 
0 
0 
159 
121 
78 
29 
0 
0 
0 
0 
40 
0 
0 
0 
0 
0 
0 
0 
0 
0 
170 
139 
99 
53 
1 
0 
0 
0 
0 
0 
0 
0 
0 
0 
0 
0 
0 
0 
175 
154 
119 
76 
26 
0 
0 
0 
0 
0 
0 
0 
0 
0 
0 
0 
0 
0 
173 
165 
136 
97 
51 
0 
0 
0 
0 
0 
0 
0 
0 
0 
0 
74 
38 
0 
164 
172 
150 
116 
74 
22 
0 
0 
0 
0 
0 
0 
0 
0 
0 
0 
0 
0 
0 
0 
0 
0 
0 
0 
0 
0 
0 
189 
166 
127 
83 
34 
0 
0 
0 
0 
0 
0 
0 
0 
0 
0 
0 
0 
0 
0 
179 
146 
106 
59 
8 
0 
0 
0 
0 
0 
0 
0 
0 
0 
0 
0 
0 
0 
187 
163 
127 
84 
34 
0 
0 
0 
0 
0 
0 
0 
0 
0 
0 
0 
0 
0 
189 
175 
145 
106 
60 
6 
0 
0 
0 
0 
0 
0 
0 
0 
0 
0 
0 
0 
186 
184 
160 
127 
85 
34 
0 
0 
0 
0 
0 
0 
0 
0 
0 
0 
0 
0 
0 
0 
0 
0 
0 
0 
0 
0 
0 
187 
167 
128 
84 
35 
0 
0 
0 
0 
0 
0 
0 
0 
0 
0 
0 
0 
0 
0 
180 
148 
107 
61 
9 
0 
0 
0 
0 
0 
0 
0 
0 
0 
0 
0 
0 
0 
188 
164 
128 
85 
36 
0 
0 
0 
0 
0 
0 
0 
0 
0 
0 
0 
0 
0 
189 
177 
147 
108 
62 
8 
0 
0 
0 
0 
0 
0 
0 
0 
0 
0 
0 
0 
183 
185 
162 
129 
87 
37 
0 
0 
0 
0 
0 
0 
0 
0 
0 
0 
0 
0 
0 
0 
0 
0 
26 
0 
0 
0 
0 
0 
162 
124 
81 
32 
0 
0 
0 
0 
0 
0 
0 
0 
0 
0 
0 
0 
34 
0 
0 
143 
103 
57 
5 
0 
0 
0 
0 
0 
0 
0 
0 
0 
0 
0 
0 
0 
174 
158 
38 
10 
0 
0 
0 
0 
0 
0 
0 
0 
0 
0 
0 
0 
0 
0 
159 
168 
140 
102 
56 
0 
34 
20 
0 
0 
0 
0 
0 
0 
0 
0 
0 
0 
0 
173 
154 
122 
80 
29 
0 
0 
0 
0 
0 
29 
0 
0 
0 
0 
0 
0 
0 
0 
114 
84 
47 
8 
0 
0 
0 
0 
0 
114 
72 
23 
0 
0 
0 
0 
0 
0 
0 
0 
0 
0 
119 
98 
66 
28 
0 
0 
91 
45 
0 
0 
0 
0 
0 
0 
0 
0 
0 
0 
0 
0 
0 
0 
0 
109 
82 
47 
6 
0 
0 
0 
0 
0 
0 
0 
0 
0 
0 
0 
0 
0 
0 
137 
121 
86 
38 
116 
96 
65 
27 
0 
0 
0 
0 
0 
0 
0 
0 
0 
0 
125 
131 
102 
61 
5 
0 
0 
0 
119 
106 
81 
47 
4 
0 
0 
0 
0 
0 
155 
128 
94 
57 
18 
0 
0 
0 
0 
0 
0 
0 
0 
0 
0 
0 
0 
0 
0 
0 
0 
0 
150 
143 
114 
80 
42 
0 
0 
0 
0 
0 
0 
0 
0 
0 
0 
0 
0 
0 
0 
0 
0 
0 
0 
153 
131 
101 
65 
25 
0 
0 
0 
0 
0 
0 
0 
0 
0 
0 
0 
0 
0 
0 
0 
0 
0 
156 
143 
119 
87 
50 
6 
0 
0 
0 
0 
0 
0 
0 
0 
0 
0 
0 
0 
0 
0 
0 
0 
155 
151 
133 
106 
73 
33 
0 
0 
0 
0 
0 
166 
135 
101 
63 
24 
0 
0 
0 
0 
0 
0 
0 
0 
0 
0 
0 
0 
0 
0 
0 
0 
0 
176 
154 
124 
89 
50 
9 
0 
0 
0 
0 
0 
0 
0 
0 
0 
0 
0 
0 
0 
0 
0 
0 
177 
168 
143 
112 
77 
37 
0 
0 
0 
0 
0 
0 
0 
0 
0 
0 
0 
0 
0 
0 
0 
0 
165 
176 
158 
133 
101 
64 
22 
0 
0 
0 
0 
0 
0 
0 
0 
0 
0 
0 
0 
0 
0 
0 
0 
178 
169 
149 
122 
89 
51 
4 
0 
0 
0 
0 
171 
139 
104 
67 
27 
0 
0 
0 
0 
0 
0 
0 
0 
0 
0 
0 
0 
0 
0 
0 
0 
0 
184 
160 
129 
94 
55 
14 
0 
0 
0 
0 
0 
0 
0 
0 
0 
0 
0 
0 
0 
0 
0 
0 
189 
175 
150 
119 
83 
43 
0 
0 
0 
0 
0 
0 
0 
0 
0 
0 
0 
0 
0 
0 
0 
0 
185 
185 
167 
140 
109 
72 
30 
0 
0 
0 
0 
0 
0 
0 
0 
0 
0 
0 
0 
0 
0 
0 
169 
189 
178 
158 
131 
99 
60 
15 
0 
0 
0 
0 
172 
141 
106 
68 
28 
0 
0 
0 
0 
0 
0 
0 
0 
0 
0 
0 
0 
0 
0 
0 
0 
0 
186 
162 
131 
96 
57 
16 
0 
0 
0 
0 
0 
0 
0 
0 
0 
0 
0 
0 
0 
0 
0 
0 
191 
177 
152 
121 
86 
46 
1 
0 
0 
0 
0 
0 
0 
0 
0 
0 
0 
0 
0 
0 
0 
0 
184 
187 
169 
143 
112 
75 
33 
0 
0 
0 
0 
0 
0 
0 
0 
0 
0 
0 
0 
0 
0 
0 
160 
191 
181 
161 
134 
102 
64 
19 
0 
0 
0 
0 
170 
139 
105 
67 
27 
0 
0 
0 
0 
0 
0 
0 
0 
0 
0 
0 
0 
0 
0 
0 
0 
0 
181 
160 
129 
94 
56 
14 
0 
0 
0 
0 
0 
0 
0 
0 
0 
0 
0 
0 
0 
0 
0 
0 
180 
174 
150 
119 
84 
44 
0 
0 
0 
0 
0 
0 
0 
0 
0 
0 
0 
0 
0 
0 
0 
0 
0 
181 
166 
141 
109 
73 
31 
0 
0 
0 
0 
0 
0 
0 
0 
0 
0 
0 
0 
0 
0 
0 
0 
182 
176 
157 
131 
99 
61 
16 
0 
0 
0 
0 
161 
135 
101 
63 
23 
0 
0 
0 
0 
0 
0 
0 
0 
0 
0 
0 
0 
0 
0 
0 
0 
0 
0 
152 
123 
89 
51 
8 
0 
0 
0 
0 
0 
0 
0 
0 
0 
0 
0 
0 
0 
0 
0 
0 
0 
161 
141 
112 
77 
37 
0 
0 
0 
0 
0 
0 
0 
0 
0 
0 
0 
0 
0 
0 
0 
0 
0 
162 
154 
131 
101 
64 
21 
0 
0 
0 
0 
0 
0 
0 
0 
0 
0 
0 
0 
0 
0 
0 
0 
151 
161 
146 
121 
90 
51 
2 
0 
0 
0 
0 
0 
121 
92 
55 
15 
0 
0 
0 
0 
0 
0 
0 
0 
0 
0 
0 
0 
0 
0 
0 
0 
0 
0 
0 
109 
77 
39 
0 
0 
0 
0 
0 
0 
0 
0 
0 
0 
0 
0 
0 
0 
0 
0 
0 
0 
0 
121 
96 
62 
20 
0 
0 
0 
0 
0 
0 
0 
0 
0 
0 
0 
0 
0 
0 
0 
0 
0 
0 
124 
111 
82 
45 
0 
0 
0 
0 
0 
0 
0 
0 
0 
0 
0 
0 
0 
0 
0 
0 
0 
0 
114 
120 
99 
68 
26 
0 
0 
0 
0 
0 
0 
0 
0 
0 
0 
0 
0 
0 
0 
0 
0 
0 
0 
0 
0 
0 
0 
86 
64 
36 
5 
0 
0 
0 
0 
0 
0 
0 
0 
0 
0 
0 
0 
0 
0 
0 
0 
0 
0 
0 
0 
0 
0 
0 
0 
90 
82 
60 
33 
1 
0 
0 
0 
0 
0 
0 
0 
0 
0 
0 
0 
0 
0 
0 
0 
0 
0 
0 
0 
0 
0 
0 
0 
0 
91 
78 
57 
30 
0 
0 
0 
0 
0 
0 
0 
0 
0 
0 
0 
0 
0 
0 
0 
0 
0 
0 
0 
0 
0 
0 
0 
0 
0 
0 
0 
0 
0 
0 
0 
0 
0 
0 
0 
0 
0 
0 
125 
104 
78 
50 
19 
0 
0 
0 
0 
0 
0 
0 
0 
0 
0 
0 
0 
0 
0 
0 
0 
0 
0 
0 
0 
0 
0 
0 
131 
123 
104 
80 
52 
21 
0 
0 
0 
0 
0 
0 
0 
0 
0 
0 
0 
0 
0 
0 
0 
0 
0 
0 
0 
0 
0 
0 
0 
132 
122 
104 
81 
54 
23 
0 
0 
0 
0 
0 
0 
0 
0 
0 
0 
0 
0 
0 
0 
0 
0 
0 
0 
0 
0 
0 
0 
0 
0 
0 
0 
0 
0 
0 
0 
0 
0 
0 
0 
0 
0 
156 
138 
114 
88 
59 
28 
0 
0 
0 
0 
0 
0 
0 
0 
0 
0 
0 
0 
0 
0 
0 
0 
0 
0 
0 
0 
0 
0 
0 
155 
139 
118 
93 
65 
34 
0 
0 
0 
0 
0 
0 
0 
0 
0 
0 
0 
0 
0 
0 
0 
0 
0 
0 
0 
0 
0 
0 
157 
154 
140 
121 
98 
71 
40 
6 
0 
0 
0 
0 
0 
0 
0 
0 
0 
0 
0 
0 
0 
0 
0 
0 
0 
0 
0 
0 
0 
0 
0 
0 
0 
0 
0 
0 
0 
0 
0 
0 
0 
0 
168 
166 
145 
121 
94 
65 
35 
2 
0 
0 
0 
0 
0 
0 
0 
0 
0 
0 
0 
0 
0 
0 
0 
0 
0 
0 
0 
0 
0 
175 
167 
149 
127 
102 
74 
43 
10 
0 
0 
0 
0 
0 
0 
0 
0 
0 
0 
0 
0 
0 
0 
0 
0 
0 
0 
0 
0 
0 
175 
168 
152 
132 
109 
82 
53 
19 
0 
0 
0 
0 
0 
0 
0 
0 
0 
0 
0 
0 
0 
0 
0 
0 
0 
0 
0 
0 
0 
0 
0 
0 
0 
0 
0 
0 
0 
0 
0 
0 
0 
0 
186 
172 
150 
126 
99 
70 
39 
7 
0 
0 
0 
0 
0 
0 
0 
0 
0 
0 
0 
0 
0 
0 
0 
0 
0 
0 
0 
0 
0 
186 
174 
156 
134 
108 
80 
50 
17 
0 
0 
0 
0 
0 
0 
0 
0 
0 
0 
0 
0 
0 
0 
0 
0 
0 
0 
0 
0 
175 
185 
176 
160 
140 
117 
90 
61 
28 
0 
0 
0 
0 
0 
0 
0 
0 
0 
0 
0 
0 
0 
0 
0 
0 
0 
0 
0 
0 
0 
0 
0 
0 
0 
0 
0 
0 
0 
0 
0 
0 
0 
0 
190 
175 
153 
128 
101 
72 
42 
9 
0 
0 
0 
0 
0 
0 
0 
0 
0 
0 
0 
0 
0 
0 
0 
0 
0 
0 
0 
0 
0 
190 
179 
160 
137 
112 
84 
54 
21 
0 
0 
0 
0 
0 
0 
0 
0 
0 
0 
0 
0 
0 
0 
0 
0 
0 
0 
0 
0 
181 
190 
181 
165 
145 
122 
95 
66 
33 
0 
0 
0 
0 
0 
0 
0 
0 
0 
0 
0 
0 
0 
0 
0 
0 
0 
0 
0 
0 
0 
0 
0 
0 
0 
0 
0 
0 
0 
0 
0 
0 
0 
0 
190 
176 
154 
129 
102 
73 
43 
10 
0 
0 
0 
0 
0 
0 
0 
0 
0 
0 
0 
0 
0 
0 
0 
0 
0 
0 
0 
0 
0 
190 
179 
161 
139 
113 
86 
55 
22 
0 
0 
0 
0 
0 
0 
0 
0 
0 
0 
0 
0 
0 
0 
0 
0 
0 
0 
0 
0 
172 
190 
182 
166 
147 
123 
97 
68 
35 
0 
0 
0 
0 
0 
0 
0 
0 
0 
0 
0 
0 
0 
0 
0 
0 
0 
0 
0 
0 
0 
0 
0 
0 
0 
0 
0 
0 
0 
0 
0 
0 
0 
0 
182 
174 
153 
129 
102 
73 
42 
9 
0 
0 
0 
0 
0 
0 
0 
0 
0 
0 
0 
0 
0 
0 
0 
0 
0 
0 
0 
0 
0 
184 
177 
159 
137 
112 
85 
54 
21 
0 
0 
0 
0 
0 
0 
0 
0 
0 
0 
0 
0 
0 
0 
0 
0 
0 
0 
0 
0 
0 
184 
178 
164 
145 
122 
96 
67 
33 
0 
0 
0 
0 
0 
0 
0 
0 
0 
0 
0 
0 
0 
0 
0 
0 
0 
0 
0 
0 
0 
0 
0 
0 
0 
0 
0 
0 
0 
0 
0 
0 
0 
0 
0 
168 
149 
125 
99 
70 
39 
6 
0 
0 
0 
0 
0 
0 
0 
0 
0 
0 
0 
0 
0 
0 
0 
0 
0 
0 
0 
0 
0 
0 
169 
154 
133 
108 
81 
50 
16 
0 
0 
0 
0 
0 
0 
0 
0 
0 
0 
0 
0 
0 
0 
0 
0 
0 
0 
0 
0 
0 
165 
169 
157 
139 
117 
91 
61 
27 
0 
0 
0 
0 
0 
0 
0 
0 
0 
0 
0 
0 
0 
0 
0 
0 
0 
0 
0 
0 
0 
0 
0 
0 
0 
0 
0 
0 
0 
0 
0 
0 
0 
0 
0 
0 
141 
119 
93 
64 
33 
0 
0 
0 
0 
0 
0 
0 
0 
0 
0 
0 
0 
0 
0 
0 
0 
0 
0 
0 
0 
0 
0 
0 
144 
142 
124 
100 
73 
42 
7 
0 
0 
0 
0 
0 
0 
0 
0 
0 
0 
0 
0 
0 
0 
0 
0 
0 
0 
0 
0 
0 
0 
147 
144 
128 
107 
81 
51 
15 
0 
0 
0 
0 
0 
0 
0 
0 
0 
0 
0 
0 
0 
0 
0 
0 
0 
0 
0 
0 
0 
0 
0 
0 
0 
0 
0 
0 
0 
0 
0 
0 
0 
0 
0 
0 
0 
104 
82 
54 
22 
0 
0 
0 
0 
0 
0 
0 
0 
0 
0 
0 
0 
0 
0 
0 
0 
0 
0 
0 
0 
0 
0 
0 
0 
0 
105 
84 
58 
26 
0 
0 
0 
0 
0 
0 
0 
0 
0 
0 
0 
0 
0 
0 
0 
0 
0 
0 
0 
0 
0 
0 
0 
0 
104 
105 
87 
62 
30 
0 
0 
0 
0 
0 
0 
0 
0 
0 
0 
0 
0 
0 
0 
0 
0 
0 
0 
0 
0 
0 
0 
0 
0 
0 
0 
0 
0 
0 
0 
0 
0 
0 
0 
0 
0 
0 
0 
0 
0 
0 
0 
0 
0 
0 
0 
0 
0 
0 
0 
0 
0 
0 
0 
0 
0 
0 
0 
0 
0 
0 
0 
0 
0 
0 
0 
0 
0 
0 
0 
0 
0 
0 
0 
0 
0 
0 
0 
0 
0 
0 
0 
0 
0 
0 
0 
0 
0 
0 
0 
0 
0 
0 
0 
0 
0 
0 
0 
0 
0 
0 
0 
0 
0 
0 
0 
0 
0 
0 
0 
0 
0 
0 
0 
0 
0 
0 
0 
0 