P2 100 100 255
0 
0 
0 
0 
0 
0 
0 
0 
0 
0 
0 
0 
0 
0 
0 
0 
0 
0 
0 
0 
0 
0 
0 
0 
0 
0 
0 
0 
0 
0 
0 
0 
0 
0 
0 
0 
0 
0 
0 
60 
92 
109 
122 
132 
141 
148 
155 
161 
166 
171 
175 
179 
182 
185 
188 
191 
193 
195 
197 
198 
200 
201 
202 
203 
203 
204 
204 
204 
204 
203 
203 
202 
201 
200 
199 
197 
196 
194 
192 
189 
187 
184 
180 
177 
173 
168 
164 
158 
152 
146 
138 
129 
119 
106 
90 
62 
0 
0 
0 
0 
0 
0 
0 
0 
0 
0 
0 
0 
0 
0 
0 
0 
0 
0 
0 
0 
0 
0 
0 
0 
0 
0 
0 
0 
0 
0 
0 
0 
0 
0 
0 
0 
0 
0 
0 
0 
0 
0 
0 
68 
94 
111 
123 
133 
141 
149 
155 
161 
166 
171 
175 
179 
182 
185 
188 
191 
193 
195 
197 
198 
200 
201 
202 
203 
203 
204 
204 
204 
204 
203 
203 
202 
201 
200 
199 
197 
196 
194 
192 
189 
187 
184 
180 
177 
173 
169 
164 
159 
153 
146 
139 
130 
120 
108 
92 
68 
0 
0 
0 
0 
0 
0 
0 
0 
0 
0 
0 
0 
0 
0 
0 
0 
0 
0 
0 
0 
0 
0 
0 
0 
0 
0 
0 
0 
0 
0 
0 
0 
0 
0 
0 
0 
0 
0 
0 
0 
0 
0 
0 
72 
96 
112 
123 
133 
142 
149 
155 
161 
166 
171 
175 
179 
182 
185 
188 
191 
193 
195 
197 
198 
200 
201 
202 
202 
203 
203 
204 
204 
203 
203 
203 
202 
201 
200 
199 
197 
195 
194 
191 
189 
186 
183 
180 
177 
173 
169 
164 
159 
153 
146 
139 
131 
121 
109 
94 
72 
0 
0 
0 
0 
0 
0 
0 
0 
0 
0 
0 
0 
0 
0 
0 
0 
0 
0 
0 
0 
0 
0 
0 
0 
0 
0 
0 
0 
0 
0 
0 
0 
0 
0 
0 
0 
0 
0 
0 
0 
0 
0 
0 
75 
97 
112 
124 
133 
142 
149 
155 
161 
166 
170 
175 
178 
182 
185 
188 
190 
192 
194 
196 
198 
199 
200 
201 
202 
203 
203 
203 
203 
203 
203 
202 
201 
201 
200 
198 
197 
195 
193 
191 
189 
186 
183 
180 
176 
173 
168 
164 
158 
153 
146 
139 
131 
121 
110 
95 
74 
0 
0 
0 
0 
0 
0 
0 
0 
0 
0 
0 
0 
0 
0 
0 
0 
0 
0 
0 
0 
0 
0 
0 
0 
0 
0 
0 
0 
0 
0 
0 
0 
0 
0 
0 
0 
0 
0 
0 
0 
0 
0 
0 
76 
98 
112 
124 
133 
141 
148 
155 
160 
165 
170 
174 
178 
181 
184 
187 
190 
192 
194 
196 
197 
198 
200 
201 
201 
202 
202 
203 
203 
202 
202 
202 
201 
200 
199 
198 
196 
194 
193 
190 
188 
185 
183 
179 
176 
172 
168 
163 
158 
152 
146 
139 
130 
121 
110 
95 
75 
0 
0 
0 
0 
0 
0 
0 
0 
0 
0 
0 
0 
0 
0 
0 
0 
0 
0 
0 
0 
0 
0 
0 
0 
0 
0 
0 
0 
0 
0 
0 
0 
0 
0 
0 
0 
0 
0 
0 
0 
0 
0 
65 
84 
94 
102 
109 
132 
141 
148 
154 
160 
165 
169 
173 
177 
180 
183 
186 
189 
191 
193 
195 
196 
198 
199 
200 
201 
201 
202 
202 
202 
202 
201 
201 
200 
199 
198 
197 
195 
194 
192 
190 
187 
185 
182 
179 
175 
171 
167 
162 
157 
152 
145 
138 
130 
120 
109 
95 
76 
0 
0 
0 
0 
0 
0 
0 
0 
0 
0 
0 
0 
0 
0 
0 
0 
0 
0 
0 
0 
0 
0 
0 
0 
0 
0 
0 
0 
0 
0 
0 
0 
0 
0 
0 
0 
0 
0 
0 
0 
0 
72 
88 
98 
106 
112 
118 
122 
126 
129 
153 
159 
164 
168 
172 
176 
179 
182 
185 
188 
190 
192 
194 
195 
197 
198 
199 
200 
200 
201 
201 
201 
201 
200 
200 
199 
198 
197 
196 
194 
193 
191 
189 
186 
184 
181 
178 
174 
170 
166 
161 
156 
151 
144 
137 
129 
120 
108 
94 
75 
0 
0 
0 
0 
0 
0 
0 
0 
0 
0 
0 
0 
0 
0 
0 
0 
0 
0 
0 
0 
0 
0 
0 
0 
0 
0 
0 
0 
0 
0 
0 
0 
0 
0 
0 
0 
0 
0 
0 
0 
75 
90 
101 
108 
115 
120 
125 
129 
132 
135 
137 
139 
162 
167 
171 
175 
178 
181 
184 
187 
189 
191 
193 
194 
196 
197 
198 
198 
199 
199 
200 
200 
199 
199 
199 
198 
197 
196 
195 
193 
192 
190 
188 
185 
183 
180 
176 
173 
169 
165 
160 
155 
149 
143 
136 
128 
118 
107 
93 
74 
0 
0 
0 
0 
0 
0 
0 
0 
0 
0 
0 
0 
0 
0 
0 
0 
0 
0 
0 
0 
0 
0 
0 
0 
0 
0 
0 
0 
0 
0 
0 
0 
0 
0 
0 
0 
0 
0 
0 
75 
91 
102 
110 
117 
122 
127 
131 
134 
137 
140 
142 
144 
146 
147 
170 
173 
177 
180 
183 
185 
187 
189 
191 
193 
194 
195 
196 
197 
198 
198 
198 
198 
198 
198 
197 
197 
196 
195 
193 
192 
190 
188 
186 
184 
181 
178 
175 
172 
168 
163 
159 
154 
148 
141 
134 
126 
116 
105 
91 
71 
0 
0 
0 
0 
0 
0 
0 
0 
0 
0 
0 
0 
0 
0 
0 
0 
0 
0 
0 
0 
0 
0 
0 
0 
0 
0 
0 
0 
0 
0 
0 
0 
0 
0 
0 
0 
0 
0 
73 
91 
102 
110 
117 
123 
128 
132 
136 
139 
142 
145 
147 
148 
150 
151 
152 
153 
153 
178 
181 
184 
186 
188 
190 
191 
193 
194 
195 
196 
196 
197 
197 
197 
197 
196 
196 
195 
194 
193 
192 
190 
189 
187 
185 
182 
180 
177 
173 
170 
166 
162 
157 
152 
146 
140 
132 
124 
114 
103 
88 
68 
0 
0 
0 
0 
0 
0 
0 
0 
0 
0 
0 
0 
0 
0 
0 
0 
0 
0 
0 
0 
0 
0 
0 
0 
0 
0 
0 
0 
0 
0 
0 
0 
0 
0 
0 
0 
0 
68 
89 
101 
110 
117 
124 
129 
133 
137 
141 
144 
146 
149 
151 
152 
154 
155 
156 
156 
157 
157 
157 
182 
184 
186 
188 
190 
191 
192 
193 
194 
194 
195 
195 
195 
195 
195 
194 
193 
193 
191 
190 
189 
187 
185 
183 
180 
178 
175 
172 
168 
164 
160 
155 
150 
144 
137 
130 
122 
112 
100 
85 
64 
0 
0 
0 
0 
0 
0 
0 
0 
0 
0 
0 
0 
0 
0 
0 
0 
0 
0 
0 
0 
0 
0 
0 
0 
0 
0 
0 
0 
0 
0 
0 
0 
0 
0 
0 
0 
58 
85 
99 
109 
117 
123 
129 
134 
138 
141 
145 
147 
150 
152 
154 
156 
157 
158 
159 
160 
160 
160 
160 
160 
160 
184 
186 
188 
189 
190 
191 
192 
193 
193 
193 
193 
193 
193 
192 
192 
191 
190 
188 
187 
185 
183 
181 
178 
176 
173 
170 
166 
162 
158 
153 
147 
142 
135 
127 
119 
109 
97 
81 
58 
0 
0 
0 
0 
0 
0 
0 
0 
0 
0 
0 
0 
0 
0 
0 
0 
0 
0 
0 
0 
0 
0 
0 
0 
0 
0 
0 
0 
0 
0 
0 
0 
0 
0 
0 
0 
80 
96 
107 
115 
122 
128 
133 
138 
142 
145 
148 
151 
153 
155 
157 
159 
160 
161 
162 
162 
163 
163 
163 
163 
163 
162 
161 
186 
187 
188 
189 
190 
191 
191 
191 
191 
191 
191 
190 
190 
189 
187 
186 
185 
183 
181 
179 
176 
174 
171 
167 
164 
160 
155 
150 
145 
139 
132 
124 
116 
105 
93 
77 
51 
0 
0 
0 
0 
0 
0 
0 
0 
0 
0 
0 
0 
0 
0 
0 
0 
0 
0 
0 
0 
0 
0 
0 
0 
0 
0 
0 
0 
0 
0 
0 
0 
0 
0 
0 
71 
91 
103 
113 
120 
127 
132 
137 
141 
145 
148 
151 
154 
156 
158 
160 
161 
163 
164 
164 
165 
165 
166 
166 
165 
165 
164 
164 
163 
185 
186 
187 
188 
188 
189 
189 
189 
189 
189 
188 
187 
186 
185 
184 
182 
181 
179 
176 
174 
171 
168 
165 
161 
157 
152 
147 
142 
153 
149 
143 
136 
128 
118 
105 
85 
0 
0 
0 
0 
0 
0 
0 
0 
0 
0 
0 
0 
0 
0 
0 
0 
0 
0 
0 
0 
0 
0 
0 
0 
0 
0 
0 
0 
0 
0 
0 
0 
0 
0 
0 
84 
99 
109 
118 
125 
131 
136 
141 
145 
148 
151 
154 
157 
159 
161 
162 
164 
165 
166 
167 
167 
168 
168 
168 
168 
167 
167 
166 
165 
164 
163 
184 
185 
186 
186 
187 
187 
186 
186 
186 
185 
184 
183 
181 
180 
178 
176 
174 
171 
168 
165 
162 
158 
174 
172 
169 
166 
162 
158 
153 
147 
140 
132 
122 
109 
90 
0 
0 
0 
0 
0 
0 
0 
0 
0 
0 
0 
0 
0 
0 
0 
0 
0 
0 
0 
0 
0 
0 
0 
0 
0 
0 
0 
0 
0 
0 
0 
0 
0 
73 
93 
105 
114 
122 
129 
134 
139 
144 
147 
151 
154 
157 
159 
161 
163 
164 
166 
167 
168 
169 
169 
170 
170 
170 
170 
169 
169 
168 
167 
166 
165 
163 
161 
183 
184 
184 
184 
184 
183 
183 
182 
181 
180 
179 
177 
175 
173 
171 
168 
166 
185 
184 
183 
181 
179 
176 
173 
170 
166 
161 
156 
150 
143 
134 
124 
111 
92 
0 
0 
0 
0 
0 
0 
0 
0 
0 
0 
0 
0 
0 
0 
0 
0 
0 
0 
0 
0 
0 
0 
0 
0 
0 
0 
0 
0 
0 
0 
0 
0 
84 
99 
110 
119 
126 
132 
137 
142 
146 
150 
153 
156 
159 
161 
163 
165 
166 
168 
169 
170 
170 
171 
171 
172 
172 
171 
171 
170 
170 
169 
168 
166 
165 
163 
161 
159 
181 
181 
181 
181 
180 
179 
178 
177 
176 
174 
172 
192 
192 
192 
191 
191 
190 
188 
187 
185 
182 
180 
176 
173 
168 
164 
158 
152 
144 
135 
125 
111 
91 
0 
0 
0 
0 
0 
0 
0 
0 
0 
0 
0 
0 
0 
0 
0 
0 
0 
0 
0 
0 
0 
0 
0 
0 
0 
0 
0 
0 
0 
0 
70 
91 
104 
114 
122 
129 
135 
140 
144 
148 
152 
155 
158 
161 
163 
165 
167 
168 
169 
170 
171 
172 
173 
173 
173 
173 
173 
172 
172 
171 
170 
169 
168 
167 
165 
163 
161 
159 
156 
178 
177 
177 
176 
175 
174 
195 
196 
196 
197 
197 
197 
196 
196 
195 
194 
192 
190 
188 
185 
182 
179 
175 
170 
165 
159 
153 
145 
136 
124 
110 
88 
0 
0 
0 
0 
0 
0 
0 
0 
0 
0 
0 
0 
0 
0 
0 
0 
0 
0 
0 
0 
0 
0 
0 
0 
0 
0 
0 
0 
0 
80 
97 
108 
117 
125 
132 
137 
142 
146 
150 
154 
157 
160 
162 
164 
166 
168 
169 
171 
172 
173 
173 
174 
174 
174 
174 
174 
174 
173 
173 
172 
171 
169 
168 
166 
165 
162 
160 
158 
155 
174 
174 
194 
196 
198 
199 
200 
201 
201 
201 
201 
201 
200 
199 
198 
197 
195 
193 
190 
187 
184 
180 
176 
171 
166 
160 
153 
144 
135 
122 
107 
0 
0 
0 
0 
0 
0 
0 
0 
0 
0 
0 
0 
0 
0 
0 
0 
0 
0 
0 
0 
0 
0 
0 
0 
0 
0 
0 
0 
58 
86 
101 
112 
120 
128 
134 
139 
144 
148 
152 
155 
158 
161 
164 
166 
168 
169 
171 
172 
173 
174 
175 
175 
175 
175 
175 
175 
175 
174 
174 
173 
172 
171 
169 
168 
166 
164 
162 
159 
156 
153 
196 
199 
200 
202 
203 
204 
205 
205 
205 
205 
205 
204 
203 
202 
201 
199 
197 
195 
192 
189 
185 
181 
177 
172 
166 
159 
152 
143 
132 
119 
0 
0 
0 
0 
0 
0 
0 
0 
0 
0 
0 
0 
0 
0 
0 
0 
0 
0 
0 
0 
0 
0 
0 
0 
0 
0 
0 
0 
70 
91 
104 
114 
123 
130 
136 
141 
145 
150 
153 
157 
160 
162 
165 
167 
169 
170 
172 
173 
174 
175 
175 
176 
176 
176 
176 
176 
176 
175 
175 
174 
173 
172 
170 
169 
167 
165 
163 
160 
158 
155 
200 
202 
204 
206 
207 
208 
208 
209 
209 
209 
209 
208 
207 
206 
205 
203 
201 
199 
196 
193 
190 
186 
182 
177 
171 
165 
158 
150 
141 
129 
0 
0 
0 
0 
0 
0 
0 
0 
0 
0 
0 
0 
0 
0 
0 
0 
0 
0 
0 
0 
0 
0 
0 
0 
0 
0 
0 
0 
77 
95 
107 
117 
125 
131 
137 
142 
147 
151 
154 
158 
161 
163 
166 
168 
169 
171 
173 
174 
175 
176 
176 
177 
177 
177 
177 
177 
177 
176 
175 
175 
174 
172 
171 
169 
168 
166 
164 
161 
159 
202 
204 
206 
207 
209 
210 
211 
212 
212 
212 
212 
212 
211 
210 
209 
208 
206 
205 
202 
200 
197 
194 
190 
186 
181 
176 
170 
164 
156 
147 
137 
0 
0 
0 
0 
0 
0 
0 
0 
0 
0 
0 
0 
0 
0 
0 
0 
0 
0 
0 
0 
0 
0 
0 
0 
0 
0 
0 
0 
81 
98 
109 
118 
126 
133 
138 
143 
148 
152 
155 
159 
161 
164 
166 
168 
170 
172 
173 
174 
175 
176 
177 
177 
178 
178 
178 
178 
177 
177 
176 
175 
174 
173 
172 
170 
168 
166 
164 
162 
159 
205 
207 
209 
210 
212 
213 
214 
214 
215 
215 
215 
215 
214 
213 
212 
211 
209 
208 
206 
203 
200 
197 
194 
190 
185 
180 
175 
168 
161 
153 
144 
0 
0 
0 
0 
0 
0 
0 
0 
0 
0 
0 
0 
0 
0 
0 
0 
0 
0 
0 
0 
0 
0 
0 
0 
0 
0 
0 
55 
85 
100 
111 
120 
127 
134 
139 
144 
149 
152 
156 
159 
162 
165 
167 
169 
171 
172 
174 
175 
176 
177 
177 
178 
178 
178 
178 
178 
178 
177 
176 
176 
175 
173 
172 
171 
169 
167 
165 
162 
160 
207 
210 
211 
213 
214 
216 
216 
217 
217 
218 
218 
217 
217 
216 
215 
214 
212 
210 
208 
206 
203 
200 
197 
193 
189 
184 
179 
173 
166 
158 
149 
0 
0 
0 
0 
0 
0 
0 
0 
0 
0 
0 
0 
0 
0 
0 
0 
0 
0 
0 
0 
0 
0 
0 
0 
0 
0 
0 
62 
87 
101 
112 
121 
128 
134 
140 
145 
149 
153 
156 
160 
162 
165 
167 
169 
171 
173 
174 
175 
176 
177 
178 
178 
178 
178 
178 
178 
178 
177 
177 
176 
175 
174 
172 
171 
169 
167 
165 
163 
208 
210 
212 
214 
215 
217 
218 
219 
219 
220 
220 
220 
220 
219 
218 
217 
216 
215 
213 
211 
209 
206 
203 
200 
196 
192 
187 
182 
176 
170 
162 
154 
0 
0 
0 
0 
0 
0 
0 
0 
0 
0 
0 
0 
0 
0 
0 
0 
0 
0 
0 
0 
0 
0 
0 
0 
0 
0 
0 
66 
89 
102 
113 
121 
128 
135 
140 
145 
149 
153 
157 
160 
163 
165 
167 
169 
171 
173 
174 
175 
176 
177 
178 
178 
178 
178 
178 
178 
178 
177 
177 
176 
175 
174 
172 
171 
169 
167 
165 
163 
210 
212 
214 
216 
218 
219 
220 
221 
221 
222 
222 
222 
222 
221 
220 
219 
218 
217 
215 
213 
211 
208 
205 
202 
199 
195 
190 
185 
179 
173 
166 
158 
0 
0 
0 
0 
0 
0 
0 
0 
0 
0 
0 
0 
0 
0 
0 
0 
0 
0 
0 
0 
0 
0 
0 
0 
0 
0 
0 
68 
89 
103 
113 
122 
129 
135 
140 
145 
149 
153 
157 
160 
162 
165 
167 
169 
171 
173 
174 
175 
176 
177 
178 
178 
178 
178 
178 
178 
178 
177 
177 
176 
175 
174 
172 
171 
169 
167 
165 
163 
212 
214 
216 
218 
219 
221 
222 
223 
223 
224 
224 
224 
223 
223 
222 
221 
220 
219 
217 
215 
213 
210 
207 
204 
201 
197 
192 
188 
182 
176 
169 
161 
0 
0 
0 
0 
0 
0 
0 
0 
0 
0 
0 
0 
0 
0 
0 
0 
0 
0 
0 
0 
0 
0 
0 
0 
0 
0 
0 
69 
90 
103 
113 
121 
129 
135 
140 
145 
149 
153 
156 
159 
162 
165 
167 
169 
171 
172 
174 
175 
176 
177 
177 
178 
178 
178 
178 
178 
178 
177 
176 
176 
175 
173 
172 
171 
169 
167 
165 
211 
213 
216 
218 
219 
221 
222 
223 
224 
225 
225 
225 
225 
225 
224 
224 
223 
222 
220 
219 
217 
214 
212 
209 
206 
203 
199 
195 
190 
184 
179 
172 
164 
0 
0 
0 
0 
0 
0 
0 
0 
0 
0 
0 
0 
0 
0 
0 
0 
0 
0 
0 
0 
0 
0 
0 
0 
0 
0 
0 
69 
89 
103 
113 
121 
128 
134 
140 
144 
149 
153 
156 
159 
162 
164 
167 
169 
170 
172 
173 
174 
175 
176 
177 
177 
178 
178 
178 
178 
177 
177 
176 
175 
174 
173 
172 
170 
169 
167 
165 
212 
215 
217 
219 
221 
222 
223 
224 
225 
226 
226 
226 
226 
226 
226 
225 
224 
223 
222 
220 
218 
216 
213 
211 
208 
204 
200 
196 
192 
186 
181 
174 
167 
0 
0 
0 
0 
0 
0 
0 
0 
0 
0 
0 
0 
0 
0 
0 
0 
0 
0 
0 
0 
0 
0 
0 
0 
0 
0 
0 
68 
88 
102 
112 
120 
127 
134 
139 
144 
148 
152 
155 
158 
161 
164 
166 
168 
170 
171 
173 
174 
175 
176 
176 
177 
177 
177 
177 
177 
177 
176 
176 
175 
174 
173 
171 
170 
168 
166 
164 
213 
216 
218 
220 
222 
223 
225 
226 
226 
227 
227 
228 
227 
227 
227 
226 
225 
224 
223 
221 
219 
217 
215 
212 
209 
206 
202 
198 
193 
188 
182 
176 
169 
0 
0 
0 
0 
0 
0 
0 
0 
0 
0 
0 
0 
0 
0 
0 
0 
0 
0 
0 
0 
0 
0 
0 
0 
0 
0 
0 
66 
87 
100 
111 
119 
126 
133 
138 
143 
147 
151 
155 
158 
160 
163 
165 
167 
169 
171 
172 
173 
174 
175 
176 
176 
176 
176 
176 
176 
176 
175 
175 
174 
173 
172 
170 
169 
167 
165 
212 
214 
217 
219 
221 
223 
224 
225 
226 
227 
228 
228 
228 
228 
228 
228 
227 
226 
225 
224 
222 
220 
218 
216 
213 
210 
207 
203 
199 
194 
189 
184 
178 
171 
0 
0 
0 
0 
0 
0 
0 
0 
0 
0 
0 
0 
0 
0 
0 
0 
0 
0 
0 
0 
0 
0 
0 
0 
0 
0 
0 
62 
85 
99 
109 
118 
125 
131 
137 
142 
146 
150 
153 
157 
159 
162 
164 
166 
168 
170 
171 
172 
173 
174 
175 
175 
175 
176 
176 
175 
175 
175 
174 
173 
172 
171 
170 
168 
166 
164 
212 
215 
217 
220 
222 
223 
225 
226 
227 
228 
228 
229 
229 
229 
229 
228 
228 
227 
226 
224 
223 
221 
219 
216 
214 
211 
207 
204 
200 
195 
190 
185 
179 
172 
0 
0 
0 
0 
0 
0 
0 
0 
0 
0 
0 
0 
0 
0 
0 
0 
0 
0 
0 
0 
0 
0 
0 
0 
0 
0 
0 
56 
82 
97 
107 
116 
124 
130 
135 
140 
145 
149 
152 
155 
158 
161 
163 
165 
167 
169 
170 
171 
172 
173 
174 
174 
174 
175 
175 
174 
174 
174 
173 
172 
171 
170 
169 
167 
165 
163 
213 
215 
218 
220 
222 
224 
225 
226 
227 
228 
229 
229 
229 
229 
229 
229 
228 
227 
226 
225 
223 
221 
219 
217 
214 
211 
208 
204 
200 
196 
191 
186 
179 
173 
0 
0 
0 
0 
0 
0 
0 
0 
0 
0 
0 
0 
0 
0 
0 
0 
0 
0 
0 
0 
0 
0 
0 
0 
0 
0 
0 
47 
78 
94 
105 
114 
122 
128 
134 
139 
143 
147 
151 
154 
157 
159 
162 
164 
166 
167 
169 
170 
171 
172 
172 
173 
173 
173 
173 
173 
173 
172 
172 
171 
170 
169 
167 
166 
164 
210 
213 
216 
218 
220 
222 
224 
225 
227 
228 
228 
229 
229 
229 
229 
229 
229 
228 
227 
226 
225 
223 
221 
219 
217 
214 
211 
208 
205 
201 
196 
191 
186 
180 
173 
0 
0 
0 
0 
0 
0 
0 
0 
0 
0 
0 
0 
0 
0 
0 
0 
0 
0 
0 
0 
0 
0 
0 
0 
0 
0 
0 
0 
74 
90 
102 
111 
119 
126 
132 
137 
141 
145 
149 
152 
155 
158 
160 
162 
164 
166 
167 
168 
170 
170 
171 
172 
172 
172 
172 
172 
171 
171 
170 
169 
168 
167 
166 
164 
163 
210 
213 
216 
218 
220 
222 
224 
225 
227 
228 
228 
229 
229 
229 
229 
229 
229 
228 
227 
226 
225 
223 
221 
219 
217 
214 
211 
208 
205 
201 
196 
191 
186 
180 
173 
0 
0 
0 
0 
0 
0 
0 
0 
0 
0 
0 
0 
0 
0 
0 
0 
0 
0 
0 
0 
0 
0 
0 
0 
0 
0 
0 
0 
67 
86 
99 
109 
117 
123 
129 
135 
139 
143 
147 
150 
153 
156 
158 
161 
163 
164 
166 
167 
168 
169 
169 
170 
170 
170 
170 
170 
170 
169 
169 
168 
167 
166 
164 
163 
161 
210 
213 
215 
218 
220 
222 
224 
225 
226 
227 
228 
229 
229 
229 
229 
229 
228 
228 
227 
226 
225 
223 
221 
219 
217 
214 
211 
208 
204 
200 
196 
191 
186 
180 
173 
0 
0 
0 
0 
0 
0 
0 
0 
0 
0 
0 
0 
0 
0 
0 
0 
0 
0 
0 
0 
0 
0 
0 
0 
0 
0 
0 
0 
59 
81 
95 
105 
114 
121 
127 
132 
137 
141 
145 
148 
151 
154 
157 
159 
161 
162 
164 
165 
166 
167 
168 
168 
169 
169 
169 
169 
168 
168 
167 
166 
165 
164 
163 
161 
206 
209 
212 
215 
217 
220 
221 
223 
225 
226 
227 
228 
228 
229 
229 
229 
228 
228 
227 
226 
225 
224 
222 
221 
219 
216 
214 
211 
208 
204 
200 
196 
191 
185 
179 
173 
0 
0 
0 
0 
0 
0 
0 
0 
0 
0 
0 
0 
0 
0 
0 
0 
0 
0 
0 
0 
0 
0 
0 
0 
0 
0 
0 
0 
43 
75 
90 
101 
110 
117 
124 
129 
134 
139 
143 
146 
149 
152 
154 
157 
159 
160 
162 
163 
164 
165 
166 
166 
167 
167 
167 
167 
166 
166 
165 
164 
163 
162 
161 
159 
205 
209 
212 
214 
217 
219 
221 
223 
224 
225 
226 
227 
228 
228 
228 
228 
228 
227 
227 
226 
225 
223 
222 
220 
218 
216 
213 
210 
207 
203 
199 
195 
190 
185 
179 
172 
0 
0 
0 
0 
0 
0 
0 
0 
0 
0 
0 
0 
0 
0 
0 
0 
0 
0 
0 
0 
0 
0 
0 
0 
0 
0 
0 
0 
0 
66 
84 
96 
106 
114 
120 
126 
131 
136 
140 
143 
147 
149 
152 
154 
156 
158 
160 
161 
162 
163 
164 
164 
165 
165 
165 
165 
164 
164 
163 
162 
161 
160 
158 
157 
205 
208 
211 
213 
216 
218 
220 
222 
223 
224 
225 
226 
227 
227 
227 
227 
227 
227 
226 
225 
224 
223 
221 
219 
217 
215 
212 
209 
206 
202 
198 
194 
189 
183 
177 
171 
0 
0 
0 
0 
0 
0 
0 
0 
0 
0 
0 
0 
0 
0 
0 
0 
0 
0 
0 
0 
0 
0 
0 
0 
0 
0 
0 
0 
0 
54 
77 
91 
101 
110 
117 
123 
128 
133 
137 
140 
144 
147 
149 
152 
154 
155 
157 
158 
160 
160 
161 
162 
162 
162 
162 
162 
162 
161 
161 
160 
159 
157 
156 
200 
203 
207 
210 
212 
215 
217 
219 
221 
222 
223 
224 
225 
226 
226 
226 
226 
226 
225 
225 
224 
223 
221 
220 
218 
216 
214 
211 
208 
205 
201 
197 
192 
188 
182 
176 
169 
0 
0 
0 
0 
0 
0 
0 
0 
0 
0 
0 
0 
0 
0 
0 
0 
0 
0 
0 
0 
0 
0 
0 
0 
0 
0 
0 
0 
0 
0 
68 
84 
96 
105 
112 
119 
124 
129 
133 
137 
141 
144 
146 
149 
151 
153 
154 
156 
157 
158 
159 
159 
160 
160 
160 
160 
159 
159 
158 
157 
156 
155 
153 
198 
202 
205 
208 
211 
213 
216 
218 
219 
221 
222 
223 
224 
224 
225 
225 
225 
225 
224 
223 
223 
221 
220 
218 
217 
215 
212 
209 
206 
203 
199 
195 
191 
186 
180 
174 
167 
0 
0 
0 
0 
0 
0 
0 
0 
0 
0 
0 
0 
0 
0 
0 
0 
0 
0 
0 
0 
0 
0 
0 
0 
0 
0 
0 
0 
0 
0 
55 
76 
89 
99 
107 
114 
120 
125 
130 
134 
137 
140 
143 
146 
148 
150 
151 
153 
154 
155 
156 
156 
157 
157 
157 
157 
157 
156 
155 
154 
153 
152 
151 
197 
200 
204 
207 
209 
212 
214 
216 
218 
219 
220 
221 
222 
223 
223 
223 
223 
223 
223 
222 
221 
220 
219 
217 
215 
213 
211 
208 
205 
201 
198 
194 
189 
184 
178 
172 
165 
0 
0 
0 
0 
0 
0 
0 
0 
0 
0 
0 
0 
0 
0 
0 
0 
0 
0 
0 
0 
0 
0 
0 
0 
0 
0 
0 
0 
0 
0 
0 
66 
82 
93 
102 
109 
115 
121 
125 
130 
133 
137 
140 
142 
144 
146 
148 
150 
151 
152 
153 
153 
154 
154 
154 
154 
154 
153 
152 
151 
150 
149 
191 
195 
198 
202 
205 
208 
210 
212 
214 
216 
217 
219 
220 
221 
221 
222 
222 
222 
221 
221 
220 
219 
218 
217 
215 
213 
211 
209 
206 
203 
199 
196 
191 
187 
182 
176 
169 
162 
0 
0 
0 
0 
0 
0 
0 
0 
0 
0 
0 
0 
0 
0 
0 
0 
0 
0 
0 
0 
0 
0 
0 
0 
0 
0 
0 
0 
0 
0 
0 
50 
72 
85 
95 
103 
110 
116 
121 
125 
129 
133 
136 
138 
141 
143 
145 
146 
148 
149 
149 
150 
151 
151 
151 
151 
150 
150 
149 
148 
147 
146 
188 
192 
196 
200 
203 
205 
208 
210 
212 
214 
215 
217 
218 
219 
219 
220 
220 
220 
219 
219 
218 
217 
216 
215 
213 
211 
209 
206 
204 
201 
197 
193 
189 
184 
179 
173 
167 
159 
0 
0 
0 
0 
0 
0 
0 
0 
0 
0 
0 
0 
0 
0 
0 
0 
0 
0 
0 
0 
0 
0 
0 
0 
0 
0 
0 
0 
0 
0 
0 
0 
59 
76 
88 
97 
104 
110 
116 
120 
125 
128 
131 
134 
137 
139 
141 
142 
144 
145 
146 
147 
147 
147 
147 
147 
147 
146 
146 
145 
143 
142 
186 
190 
194 
197 
200 
203 
206 
208 
210 
212 
213 
215 
216 
216 
217 
217 
218 
217 
217 
217 
216 
215 
214 
212 
211 
209 
207 
204 
201 
198 
195 
191 
186 
181 
176 
170 
163 
156 
0 
0 
0 
0 
0 
0 
0 
0 
0 
0 
0 
0 
0 
0 
0 
0 
0 
0 
0 
0 
0 
0 
0 
0 
0 
0 
0 
0 
0 
0 
0 
0 
28 
64 
78 
89 
97 
104 
110 
115 
119 
123 
127 
130 
132 
135 
137 
138 
140 
141 
142 
143 
143 
143 
143 
143 
143 
142 
142 
141 
140 
178 
183 
187 
191 
194 
198 
200 
203 
205 
207 
209 
211 
212 
213 
214 
215 
215 
215 
215 
215 
214 
214 
213 
211 
210 
208 
206 
204 
201 
198 
195 
192 
188 
183 
178 
173 
166 
159 
151 
0 
0 
0 
0 
0 
0 
0 
0 
0 
0 
0 
0 
0 
0 
0 
0 
0 
0 
0 
0 
0 
0 
0 
0 
0 
0 
0 
0 
0 
0 
0 
0 
0 
44 
66 
79 
89 
97 
103 
109 
114 
118 
121 
125 
127 
130 
132 
134 
135 
137 
138 
138 
139 
139 
139 
139 
139 
138 
137 
136 
135 
174 
179 
184 
188 
191 
195 
198 
200 
203 
205 
206 
208 
209 
210 
211 
212 
212 
212 
212 
212 
212 
211 
210 
209 
207 
205 
203 
201 
198 
195 
192 
188 
184 
180 
175 
169 
162 
155 
147 
0 
0 
0 
0 
0 
0 
0 
0 
0 
0 
0 
0 
0 
0 
0 
0 
0 
0 
0 
0 
0 
0 
0 
0 
0 
0 
0 
0 
0 
0 
0 
0 
0 
0 
48 
67 
79 
88 
96 
102 
107 
112 
116 
119 
122 
125 
127 
129 
130 
132 
133 
134 
134 
135 
135 
135 
134 
134 
133 
132 
131 
171 
176 
180 
184 
188 
191 
194 
197 
199 
202 
203 
205 
206 
207 
208 
209 
209 
209 
209 
209 
209 
208 
207 
205 
204 
202 
200 
198 
195 
192 
189 
185 
181 
176 
170 
165 
158 
150 
142 
0 
0 
0 
0 
0 
0 
0 
0 
0 
0 
0 
0 
0 
0 
0 
0 
0 
0 
0 
0 
0 
0 
0 
0 
0 
0 
0 
0 
0 
0 
0 
0 
0 
0 
0 
49 
67 
78 
87 
94 
100 
105 
109 
113 
116 
119 
121 
123 
125 
126 
128 
129 
129 
130 
130 
130 
129 
129 
128 
127 
125 
166 
172 
176 
180 
184 
188 
191 
193 
196 
198 
200 
202 
203 
204 
205 
206 
206 
206 
206 
206 
205 
204 
203 
202 
201 
199 
197 
194 
191 
188 
185 
181 
176 
171 
166 
160 
153 
145 
135 
0 
0 
0 
0 
0 
0 
0 
0 
0 
0 
0 
0 
0 
0 
0 
0 
0 
0 
0 
0 
0 
0 
0 
0 
0 
0 
0 
0 
0 
0 
0 
0 
0 
0 
0 
0 
48 
65 
76 
84 
91 
97 
102 
106 
109 
112 
115 
117 
119 
121 
122 
123 
124 
124 
124 
124 
124 
123 
122 
121 
156 
162 
167 
172 
176 
180 
184 
187 
190 
192 
194 
196 
198 
199 
201 
201 
202 
202 
203 
203 
202 
202 
201 
200 
198 
197 
195 
193 
190 
187 
184 
180 
176 
172 
167 
161 
154 
147 
139 
129 
0 
0 
0 
0 
0 
0 
0 
0 
0 
0 
0 
0 
0 
0 
0 
0 
0 
0 
0 
0 
0 
0 
0 
0 
0 
0 
0 
0 
0 
0 
0 
0 
0 
0 
0 
0 
0 
44 
61 
73 
81 
88 
93 
98 
102 
105 
108 
110 
113 
114 
116 
117 
117 
118 
118 
118 
118 
117 
116 
115 
150 
156 
162 
167 
172 
176 
179 
182 
185 
188 
190 
192 
194 
195 
197 
198 
198 
199 
199 
199 
198 
198 
197 
196 
194 
193 
191 
188 
186 
183 
180 
176 
171 
167 
161 
155 
148 
141 
131 
120 
0 
0 
0 
0 
0 
0 
0 
0 
0 
0 
0 
0 
0 
0 
0 
0 
0 
0 
0 
0 
0 
0 
0 
0 
0 
0 
0 
0 
0 
0 
0 
0 
0 
0 
0 
0 
0 
0 
35 
56 
68 
76 
83 
88 
93 
97 
100 
103 
105 
107 
108 
110 
110 
111 
111 
111 
111 
110 
109 
108 
144 
151 
156 
162 
166 
171 
174 
178 
181 
183 
186 
188 
190 
191 
192 
193 
194 
194 
195 
194 
194 
193 
193 
191 
190 
188 
186 
184 
181 
178 
174 
171 
166 
161 
155 
149 
142 
133 
123 
111 
0 
0 
0 
0 
0 
0 
0 
0 
0 
0 
0 
0 
0 
0 
0 
0 
0 
0 
0 
0 
0 
0 
0 
0 
0 
0 
0 
0 
0 
0 
0 
0 
0 
0 
0 
0 
0 
0 
0 
0 
48 
61 
70 
77 
82 
87 
91 
94 
96 
99 
100 
102 
103 
103 
104 
104 
103 
103 
102 
129 
137 
144 
150 
156 
161 
165 
169 
173 
176 
178 
181 
183 
185 
186 
188 
189 
189 
190 
190 
190 
189 
189 
188 
187 
185 
183 
181 
179 
176 
173 
169 
165 
160 
155 
149 
142 
134 
125 
113 
99 
0 
0 
0 
0 
0 
0 
0 
0 
0 
0 
0 
0 
0 
0 
0 
0 
0 
0 
0 
0 
0 
0 
0 
0 
0 
0 
0 
0 
0 
0 
0 
0 
0 
0 
0 
0 
0 
0 
0 
0 
0 
34 
51 
62 
69 
75 
79 
83 
86 
89 
91 
93 
94 
94 
95 
95 
95 
94 
93 
121 
129 
137 
143 
149 
154 
159 
163 
167 
170 
173 
176 
178 
180 
181 
183 
184 
184 
185 
185 
185 
184 
184 
183 
181 
180 
178 
176 
173 
170 
167 
163 
158 
153 
148 
141 
134 
125 
115 
102 
84 
0 
0 
0 
0 
0 
0 
0 
0 
0 
0 
0 
0 
0 
0 
0 
0 
0 
0 
0 
0 
0 
0 
0 
0 
0 
0 
0 
0 
0 
0 
0 
0 
0 
0 
0 
0 
0 
0 
0 
0 
0 
0 
0 
36 
50 
59 
65 
70 
74 
77 
80 
82 
83 
84 
85 
85 
84 
83 
82 
111 
120 
128 
136 
142 
147 
152 
157 
161 
164 
167 
170 
172 
174 
176 
177 
178 
179 
179 
179 
179 
179 
178 
177 
176 
174 
172 
170 
167 
164 
160 
156 
151 
146 
140 
133 
124 
114 
102 
86 
60 
0 
0 
0 
0 
0 
0 
0 
0 
0 
0 
0 
0 
0 
0 
0 
0 
0 
0 
0 
0 
0 
0 
0 
0 
0 
0 
0 
0 
0 
0 
0 
0 
0 
0 
0 
0 
0 
0 
0 
0 
0 
0 
0 
0 
0 
29 
43 
52 
58 
62 
65 
68 
70 
71 
72 
72 
72 
71 
70 
99 
110 
119 
127 
134 
140 
145 
149 
154 
157 
160 
163 
166 
168 
169 
171 
172 
173 
173 
173 
173 
173 
172 
171 
169 
168 
165 
163 
160 
157 
153 
148 
143 
137 
131 
123 
113 
102 
87 
63 
0 
0 
0 
0 
0 
0 
0 
0 
0 
0 
0 
0 
0 
0 
0 
0 
0 
0 
0 
0 
0 
0 
0 
0 
0 
0 
0 
0 
0 
0 
0 
0 
0 
0 
0 
0 
0 
0 
0 
0 
0 
0 
0 
0 
0 
0 
0 
0 
0 
27 
38 
44 
49 
52 
54 
55 
55 
55 
54 
52 
84 
97 
108 
116 
124 
131 
136 
141 
146 
150 
153 
156 
159 
161 
163 
164 
165 
166 
166 
166 
166 
166 
165 
164 
162 
160 
158 
155 
152 
149 
144 
140 
134 
128 
120 
111 
100 
85 
62 
0 
0 
0 
0 
0 
0 
0 
0 
0 
0 
0 
0 
0 
0 
0 
0 
0 
0 
0 
0 
0 
0 
0 
0 
0 
0 
0 
0 
0 
0 
0 
0 
0 
0 
0 
0 
0 
0 
0 
0 
0 
0 
0 
0 
0 
0 
0 
0 
0 
0 
0 
0 
0 
0 
0 
17 
23 
25 
25 
23 
17 
63 
81 
94 
104 
113 
120 
127 
132 
137 
141 
145 
148 
151 
153 
155 
156 
158 
158 
159 
159 
159 
158 
157 
156 
155 
153 
150 
147 
144 
140 
135 
130 
123 
116 
107 
96 
82 
59 
0 
0 
0 
0 
0 
0 
0 
0 
0 
0 
0 
0 
0 
0 
0 
0 
0 
0 
0 
0 
0 
0 
0 
0 
0 
0 
0 
0 
0 
0 
0 
0 
0 
0 
0 
0 
0 
0 
0 
0 
0 
0 
0 
0 
0 
0 
0 
0 
0 
0 
0 
0 
0 
0 
0 
0 
0 
0 
0 
0 
0 
0 
0 
57 
76 
89 
100 
108 
115 
121 
127 
131 
135 
139 
142 
144 
146 
148 
149 
150 
151 
151 
151 
150 
149 
148 
146 
144 
141 
138 
134 
129 
124 
118 
111 
102 
91 
76 
50 
0 
0 
0 
0 
0 
0 
0 
0 
0 
0 
0 
0 
0 
0 
0 
0 
0 
0 
0 
0 
0 
0 
0 
0 
0 
0 
0 
0 
0 
0 
0 
0 
0 
0 
0 
0 
0 
0 
0 
0 
0 
0 
0 
0 
0 
0 
0 
0 
0 
0 
0 
0 
0 
0 
0 
0 
0 
0 
0 
0 
0 
0 
0 
0 
0 
47 
69 
82 
93 
102 
109 
115 
120 
125 
129 
132 
135 
137 
139 
140 
141 
141 
142 
141 
141 
139 
138 
136 
133 
130 
127 
122 
117 
111 
104 
95 
83 
67 
0 
0 
0 
0 
0 
0 
0 
0 
0 
0 
0 
0 
0 
0 
0 
0 
0 
0 
0 
0 
0 
0 
0 
0 
0 
0 
0 
0 
0 
0 
0 
0 
0 
0 
0 
0 
0 
0 
0 
0 
0 
0 
0 
0 
0 
0 
0 
0 
0 
0 
0 
0 
0 
0 
0 
0 
0 
0 
0 
0 
0 
0 
0 
0 
0 
0 
0 
0 
20 
57 
73 
85 
93 
101 
107 
112 
116 
120 
123 
126 
128 
129 
130 
131 
131 
131 
130 
128 
127 
124 
122 
118 
114 
109 
103 
95 
85 
73 
52 
0 
0 
0 
0 
0 
0 
0 
0 
0 
0 
0 
0 
0 
0 
0 
0 
0 
0 
0 
0 
0 
0 
0 
0 
0 
0 
0 
0 
0 
0 
0 
0 
0 
0 
0 
0 
0 
0 
0 
0 
0 
0 
0 
0 
0 
0 
0 
0 
0 
0 
0 
0 
0 
0 
0 
0 
0 
0 
0 
0 
0 
0 
0 
0 
0 
0 
0 
0 
0 
0 
0 
36 
59 
73 
82 
90 
97 
102 
106 
110 
113 
115 
117 
118 
118 
118 
118 
117 
116 
113 
111 
107 
103 
98 
91 
83 
72 
56 
0 
0 
0 
0 
0 
0 
0 
0 
0 
0 
0 
0 
0 
0 
0 
0 
0 
0 
0 
0 
0 
0 
0 
0 
0 
0 
0 
0 
0 
0 
0 
0 
0 
0 
0 
0 
0 
0 
0 
0 
0 
0 
0 
0 
0 
0 
0 
0 
0 
0 
0 
0 
0 
0 
0 
0 
0 
0 
0 
0 
0 
0 
0 
0 
0 
0 
0 
0 
0 
0 
0 
0 
0 
0 
0 
31 
54 
67 
76 
83 
88 
93 
96 
99 
101 
102 
103 
103 
103 
102 
100 
97 
94 
89 
83 
76 
66 
50 
0 
0 
0 
0 
0 
0 
0 
0 
0 
0 
0 
0 
0 
0 
0 
0 
0 
0 
0 
0 
0 
0 
0 
0 
0 
0 
0 
0 
0 
0 
0 
0 
0 
0 
0 
0 
0 
0 
0 
0 
0 
0 
0 
0 
0 
0 
0 
0 
0 
0 
0 
0 
0 
0 
0 
0 
0 
0 
0 
0 
0 
0 
0 
0 
0 
0 
0 
0 
0 
0 
0 
0 
0 
0 
0 
0 
0 
0 
0 
0 
38 
53 
63 
69 
74 
78 
81 
83 
83 
83 
83 
81 
78 
74 
69 
62 
50 
0 
0 
0 
0 
0 
0 
0 
0 
0 
0 
0 
0 
0 
0 
0 
0 
0 
0 
0 
0 
0 
0 
0 
0 
0 
0 
0 
0 
0 
0 
0 
0 
0 
0 
0 
0 
0 
0 
0 
0 
0 
0 
0 
0 
0 
0 
0 
0 
0 
0 
0 
0 
0 
0 
0 
0 
0 
0 
0 
0 
0 
0 
0 
0 
0 
0 
0 
0 
0 
0 
0 
0 
0 
0 
0 
0 
0 
0 
0 
0 
0 
0 
0 
0 
0 
0 
0 
29 
41 
47 
50 
52 
51 
49 
45 
37 
0 
0 
0 
0 
0 
0 
0 
0 
0 
0 
0 
0 
0 
0 
0 
0 
0 
0 
0 
0 
0 
0 
0 
0 
0 
0 
0 
0 
0 
0 
0 
0 
0 
0 
0 
0 
0 
0 
0 
0 
0 
0 
0 
0 
0 
0 
0 
0 
0 
0 
0 
0 
0 
0 
0 
0 
0 
0 
0 
0 
0 
0 
0 
0 
0 
0 
0 
0 
0 
0 
0 
0 
0 
0 
0 
0 
0 
0 
0 
0 
0 
0 
0 
0 
0 
0 
0 
0 
0 
0 
0 
0 
0 
0 
0 
0 
0 
0 
0 
0 
0 
0 
0 
0 
0 
0 
0 
0 
0 
0 
0 
0 
0 
0 
0 
0 
0 
0 
0 
0 
0 
0 
0 
0 
0 
0 
0 
0 
0 
0 
0 
0 
0 
0 
0 
0 
0 
0 
0 
0 
0 
0 
0 
0 
0 
0 
0 
0 
0 
0 
0 
0 
0 
0 
0 
0 
0 
0 
0 
0 
0 
0 
0 
0 
0 
0 
0 
0 
0 
0 
0 
0 
0 
0 
0 
0 
0 
0 
0 
0 
0 
0 
0 
0 
0 
0 
0 
0 
0 
0 
0 
0 
0 
0 
0 
0 
0 
0 
0 
0 
0 
0 
0 
0 
0 
0 
0 
0 
0 
0 
0 
0 
0 
0 
0 
0 
0 
0 
0 
0 
0 
0 
0 
0 
0 
0 
0 
0 
0 
0 
0 
0 
0 
0 
0 
0 
0 
0 
0 
0 
0 
0 
0 
0 
0 
0 
0 
0 
0 
0 
0 
0 
0 
0 
0 
0 
0 
0 
0 
0 
0 
0 
0 
0 
0 
0 
0 
0 
0 
0 
0 
0 
0 
0 
0 
0 
0 
0 
0 
0 
0 
0 
0 
0 
0 
0 
0 
0 
0 
0 
0 
0 
0 
0 
0 
0 
0 
0 
0 
0 
0 
0 
0 
0 
0 
0 
0 
0 
0 
0 
0 
0 
0 
0 
0 
0 
0 
0 
0 
0 
0 
0 
0 
0 
0 
0 
0 
0 
0 
0 
0 
0 
0 
0 
0 
0 
0 
0 
0 
0 
0 
0 
0 
0 
0 
0 
0 
0 
0 
0 
0 
0 
0 
0 
0 
0 
0 
0 
0 
100 
113 
83 
0 
0 
0 
0 
0 
0 
0 
0 
0 
0 
77 
113 
101 
26 
0 
0 
0 
0 
0 
0 
0 
0 
0 
32 
105 
111 
71 
0 
0 
0 
0 
0 
0 
0 
0 
0 
0 
88 
114 
96 
0 
0 
0 
0 
0 
0 
0 
0 
0 
0 
62 
108 
109 
44 
0 
0 
0 
0 
0 
0 
0 
0 
0 
0 
0 
0 
0 
0 
0 
0 
0 
0 
0 
0 
0 
0 
0 
0 
0 
0 
0 
0 
0 
0 
0 
0 
0 
0 
0 
0 
0 
0 
0 
0 
0 
0 
118 
163 
168 
145 
81 
0 
0 
0 
0 
0 
0 
0 
0 
66 
149 
170 
160 
117 
0 
0 
0 
0 
0 
0 
0 
0 
0 
126 
164 
168 
142 
53 
0 
0 
0 
0 
0 
0 
0 
0 
91 
151 
170 
159 
107 
0 
0 
0 
0 
0 
0 
0 
0 
38 
131 
164 
168 
139 
0 
0 
0 
0 
0 
0 
0 
0 
0 
0 
0 
0 
0 
0 
0 
0 
0 
0 
0 
0 
0 
0 
0 
0 
0 
0 
0 
0 
0 
0 
0 
0 
0 
0 
0 
0 
0 
0 
0 
0 
0 
0 
147 
185 
188 
166 
108 
0 
0 
0 
0 
0 
0 
0 
0 
0 
172 
190 
181 
141 
1 
0 
0 
0 
0 
0 
0 
0 
4 
150 
185 
189 
165 
93 
0 
0 
0 
0 
0 
0 
0 
0 
119 
172 
190 
181 
0 
0 
0 
0 
0 
0 
0 
0 
0 
75 
153 
184 
189 
164 
52 
0 
0 
0 
0 
0 
0 
0 
0 
0 
0 
0 
0 
0 
0 
0 
0 
0 
0 
0 
0 
0 
0 
0 
0 
0 
0 
0 
0 
0 
0 
0 
0 
0 
0 
0 
0 
0 
97 
126 
122 
91 
0 
178 
182 
158 
93 
0 
0 
0 
0 
0 
0 
55 
116 
127 
111 
55 
174 
130 
0 
0 
0 
0 
0 
0 
0 
0 
0 
96 
125 
123 
91 
67 
0 
0 
0 
0 
0 
0 
0 
0 
104 
165 
64 
114 
128 
113 
41 
0 
0 
0 
0 
0 
0 
48 
144 
178 
182 
9 
96 
124 
0 
0 
0 
0 
0 
0 
0 
0 
0 
0 
0 
0 
0 
0 
0 
0 
0 
0 
0 
0 
0 
0 
0 
0 
0 
0 
0 
0 
0 
0 
0 
0 
0 
0 
0 
87 
153 
170 
165 
139 
81 
131 
141 
109 
0 
0 
0 
0 
0 
0 
0 
128 
163 
171 
157 
117 
129 
50 
0 
0 
0 
0 
0 
0 
0 
0 
88 
148 
169 
168 
144 
78 
0 
0 
0 
0 
0 
0 
0 
0 
0 
16 
123 
160 
171 
161 
121 
0 
0 
0 
0 
0 
0 
0 
86 
136 
139 
89 
143 
167 
0 
0 
0 
0 
0 
0 
0 
0 
0 
0 
0 
0 
0 
0 
0 
0 
0 
0 
0 
0 
0 
0 
0 
0 
0 
0 
0 
0 
0 
0 
0 
0 
0 
0 
0 
122 
174 
189 
183 
158 
105 
0 
0 
0 
0 
0 
0 
0 
0 
0 
35 
151 
183 
189 
176 
139 
47 
0 
0 
0 
0 
0 
0 
0 
0 
0 
116 
168 
188 
186 
164 
107 
0 
0 
0 
0 
0 
0 
0 
0 
0 
63 
145 
178 
189 
180 
145 
0 
0 
0 
0 
0 
0 
0 
0 
0 
0 
112 
162 
185 
0 
0 
0 
0 
0 
0 
0 
0 
0 
0 
0 
0 
0 
0 
0 
0 
0 
0 
0 
0 
0 
0 
0 
0 
0 
0 
0 
0 
0 
0 
0 
59 
62 
32 
0 
114 
172 
188 
182 
155 
97 
0 
0 
0 
0 
0 
0 
0 
0 
51 
65 
44 
181 
188 
174 
134 
12 
0 
0 
0 
0 
0 
0 
0 
0 
0 
109 
39 
64 
53 
161 
99 
0 
0 
0 
0 
0 
0 
0 
0 
0 
41 
141 
177 
188 
24 
61 
60 
0 
0 
0 
0 
0 
0 
0 
0 
0 
106 
159 
183 
0 
0 
0 
0 
0 
0 
0 
0 
0 
0 
0 
0 
0 
0 
0 
0 
0 
0 
0 
0 
0 
0 
0 
0 
0 
0 
0 
0 
0 
38 
116 
133 
130 
110 
65 
0 
140 
163 
157 
125 
35 
0 
0 
0 
0 
0 
0 
0 
101 
129 
134 
120 
84 
163 
147 
95 
0 
0 
0 
0 
0 
0 
0 
0 
0 
0 
83 
122 
134 
128 
100 
9 
0 
0 
0 
0 
0 
0 
0 
0 
0 
0 
103 
150 
62 
111 
131 
133 
114 
53 
0 
0 
0 
0 
0 
0 
0 
51 
130 
159 
0 
0 
0 
0 
0 
0 
0 
0 
0 
0 
0 
0 
0 
0 
0 
0 
0 
0 
0 
0 
0 
0 
0 
0 
0 
0 
0 
0 
0 
120 
158 
169 
165 
146 
109 
36 
0 
79 
78 
0 
0 
0 
0 
0 
0 
0 
0 
93 
146 
166 
169 
156 
127 
65 
43 
0 
0 
0 
0 
0 
0 
0 
0 
0 
0 
59 
130 
159 
169 
164 
142 
92 
0 
0 
0 
0 
0 
0 
0 
0 
0 
0 
0 
15 
112 
149 
166 
168 
154 
116 
0 
0 
0 
0 
0 
0 
0 
0 
0 
81 
0 
0 
0 
0 
0 
0 
0 
0 
0 
0 
0 
0 
0 
0 
0 
0 
0 
0 
0 
0 
0 
0 
0 
0 
0 
0 
0 
0 
0 
146 
177 
187 
182 
163 
129 
64 
0 
0 
0 
0 
0 
0 
0 
0 
0 
0 
0 
122 
166 
184 
186 
174 
146 
92 
0 
0 
0 
0 
0 
0 
0 
0 
0 
0 
0 
93 
151 
178 
187 
182 
162 
118 
0 
0 
0 
0 
0 
0 
0 
0 
0 
0 
0 
59 
133 
168 
184 
186 
174 
141 
25 
0 
0 
0 
0 
0 
0 
0 
0 
0 
0 
0 
0 
0 
0 
0 
0 
0 
0 
0 
0 
0 
0 
0 
0 
0 
0 
0 
0 
0 
0 
0 
0 
0 
0 
0 
0 
0 
0 
150 
181 
191 
186 
166 
131 
63 
0 
0 
0 
0 
0 
0 
0 
0 
0 
0 
0 
125 
170 
188 
190 
178 
149 
92 
0 
0 
0 
0 
0 
0 
0 
0 
0 
0 
0 
93 
154 
181 
191 
186 
165 
120 
0 
0 
0 
0 
0 
0 
0 
0 
0 
0 
0 
55 
135 
171 
188 
190 
177 
144 
0 
0 
0 
0 
0 
0 
0 
0 
0 
0 
0 
0 
0 
0 
0 
0 
0 
0 
0 
0 
0 
0 
0 
0 
0 
0 
0 
0 
0 
0 
0 
0 
0 
22 
12 
0 
0 
0 
0 
128 
168 
180 
175 
154 
113 
8 
0 
0 
0 
0 
0 
0 
0 
0 
0 
18 
18 
95 
155 
177 
179 
166 
133 
57 
0 
0 
0 
0 
0 
0 
0 
0 
0 
0 
0 
41 
138 
11 
22 
174 
151 
94 
0 
0 
0 
0 
0 
0 
0 
0 
0 
0 
0 
0 
116 
158 
177 
179 
164 
0 
23 
0 
0 
0 
0 
0 
0 
0 
0 
0 
0 
0 
0 
0 
0 
0 
0 
0 
0 
0 
0 
0 
0 
0 
0 
0 
0 
0 
0 
0 
0 
77 
102 
105 
95 
71 
24 
0 
0 
0 
127 
147 
143 
117 
53 
0 
0 
0 
0 
0 
0 
0 
0 
55 
94 
105 
102 
84 
44 
142 
147 
130 
82 
0 
0 
0 
0 
0 
0 
0 
0 
0 
0 
0 
0 
27 
82 
102 
105 
94 
64 
0 
0 
0 
0 
0 
0 
0 
0 
0 
0 
0 
0 
0 
39 
120 
144 
0 
67 
95 
105 
102 
80 
0 
0 
0 
0 
0 
0 
0 
0 
0 
0 
0 
0 
0 
0 
0 
0 
0 
0 
0 
0 
0 
0 
0 
0 
0 
0 
0 
95 
132 
145 
145 
135 
115 
80 
14 
0 
0 
0 
0 
0 
0 
0 
0 
0 
0 
0 
0 
0 
0 
60 
117 
139 
146 
142 
127 
99 
43 
0 
0 
0 
0 
0 
0 
0 
0 
0 
0 
0 
0 
0 
0 
3 
98 
129 
143 
146 
138 
116 
71 
0 
0 
0 
0 
0 
0 
0 
0 
0 
0 
0 
0 
0 
0 
0 
75 
115 
137 
146 
144 
130 
97 
0 
0 
0 
0 
0 
0 
0 
0 
0 
0 
0 
0 
0 
0 
0 
0 
0 
0 
0 
0 
0 
0 
0 
0 
0 
0 
135 
161 
171 
170 
159 
140 
109 
57 
0 
0 
0 
0 
0 
0 
0 
0 
0 
0 
0 
0 
0 
0 
110 
148 
166 
171 
167 
153 
128 
83 
0 
0 
0 
0 
0 
0 
0 
0 
0 
0 
0 
0 
0 
0 
78 
130 
156 
169 
171 
164 
145 
109 
11 
0 
0 
0 
0 
0 
0 
0 
0 
0 
0 
0 
0 
0 
41 
109 
143 
162 
171 
170 
158 
132 
71 
0 
0 
0 
0 
0 
0 
0 
0 
0 
0 
0 
0 
0 
0 
0 
0 
0 
0 
0 
0 
0 
0 
0 
0 
98 
155 
177 
185 
184 
173 
154 
123 
75 
0 
0 
0 
0 
0 
0 
0 
0 
0 
0 
0 
0 
0 
0 
131 
165 
181 
186 
181 
168 
143 
102 
0 
0 
0 
0 
0 
0 
0 
0 
0 
0 
0 
0 
0 
0 
101 
147 
172 
183 
186 
178 
161 
128 
57 
0 
0 
0 
0 
0 
0 
0 
0 
0 
0 
0 
0 
0 
67 
126 
158 
176 
185 
184 
174 
150 
100 
0 
0 
0 
0 
0 
0 
0 
0 
0 
0 
0 
0 
0 
0 
0 
0 
0 
0 
0 
0 
0 
0 
0 
0 
104 
161 
183 
191 
189 
178 
158 
127 
77 
0 
0 
0 
0 
0 
0 
0 
0 
0 
0 
0 
0 
0 
0 
136 
170 
186 
191 
187 
173 
148 
105 
0 
0 
0 
0 
0 
0 
0 
0 
0 
0 
0 
0 
0 
0 
105 
152 
177 
189 
191 
184 
166 
132 
59 
0 
0 
0 
0 
0 
0 
0 
0 
0 
0 
0 
0 
0 
69 
130 
163 
181 
190 
190 
179 
156 
105 
0 
0 
0 
0 
0 
0 
0 
0 
0 
0 
0 
0 
0 
0 
0 
0 
0 
0 
0 
0 
0 
0 
0 
0 
0 
153 
178 
187 
185 
174 
153 
119 
61 
0 
0 
0 
0 
0 
0 
0 
0 
0 
0 
0 
0 
0 
0 
126 
164 
182 
187 
183 
168 
141 
92 
0 
0 
0 
0 
0 
0 
0 
0 
0 
0 
0 
0 
0 
0 
89 
145 
172 
185 
187 
179 
160 
122 
0 
0 
0 
0 
0 
0 
0 
0 
0 
0 
0 
0 
0 
0 
41 
121 
157 
177 
186 
186 
174 
148 
84 
0 
0 
0 
0 
0 
0 
0 
0 
0 
0 
0 
0 
0 
0 
0 
0 
0 
0 
0 
0 
0 
0 
0 
0 
0 
124 
159 
171 
170 
158 
134 
93 
0 
0 
0 
0 
0 
0 
0 
0 
0 
0 
0 
0 
0 
0 
0 
80 
143 
165 
172 
167 
150 
118 
42 
0 
0 
0 
0 
0 
0 
0 
0 
0 
0 
0 
0 
0 
0 
0 
120 
154 
169 
172 
163 
139 
88 
0 
0 
0 
0 
0 
0 
0 
0 
0 
0 
0 
0 
0 
0 
0 
90 
137 
161 
171 
170 
156 
121 
0 
0 
0 
0 
0 
0 
0 
0 
0 
0 
0 
0 
0 
0 
0 
0 
0 
0 
0 
0 
0 
0 
0 
0 
0 
0 
0 
111 
135 
137 
123 
91 
0 
0 
0 
0 
0 
0 
0 
0 
0 
0 
0 
0 
0 
0 
0 
0 
0 
79 
126 
138 
133 
110 
46 
0 
0 
0 
0 
0 
0 
0 
0 
0 
0 
0 
0 
0 
0 
0 
0 
0 
110 
134 
138 
125 
85 
0 
0 
0 
0 
0 
0 
0 
0 
0 
0 
0 
0 
0 
0 
0 
0 
0 
88 
124 
137 
134 
111 
0 
0 
0 
0 
0 
0 
0 
0 
0 
0 
0 
0 
0 
0 
8 
62 
73 
71 
60 
39 
1 
0 
0 
0 
0 
0 
0 
0 
0 
0 
0 
0 
0 
0 
0 
0 
0 
0 
0 
0 
0 
0 
0 
38 
65 
73 
71 
57 
30 
0 
0 
0 
0 
0 
0 
0 
0 
0 
0 
0 
0 
0 
0 
0 
0 
0 
0 
0 
0 
0 
0 
0 
47 
67 
73 
69 
53 
13 
0 
0 
0 
0 
0 
0 
0 
0 
0 
0 
0 
0 
0 
0 
0 
0 
0 
0 
0 
0 
0 
0 
19 
53 
69 
74 
68 
47 
0 
0 
0 
0 
0 
0 
0 
60 
99 
113 
116 
112 
102 
84 
57 
14 
0 
0 
0 
0 
0 
0 
0 
0 
0 
0 
0 
0 
0 
0 
0 
0 
0 
0 
0 
0 
69 
99 
112 
116 
113 
102 
83 
50 
0 
0 
0 
0 
0 
0 
0 
0 
0 
0 
0 
0 
0 
0 
0 
0 
0 
0 
0 
0 
13 
73 
99 
112 
116 
113 
102 
80 
37 
0 
0 
0 
0 
0 
0 
0 
0 
0 
0 
0 
0 
0 
0 
0 
0 
0 
0 
0 
0 
38 
77 
99 
111 
116 
114 
102 
78 
0 
0 
0 
0 
0 
52 
114 
135 
144 
145 
140 
129 
113 
89 
55 
0 
0 
0 
0 
0 
0 
0 
0 
0 
0 
0 
0 
0 
0 
0 
0 
0 
0 
0 
70 
113 
133 
143 
145 
141 
131 
114 
87 
44 
0 
0 
0 
0 
0 
0 
0 
0 
0 
0 
0 
0 
0 
0 
0 
0 
0 
0 
0 
76 
111 
131 
141 
145 
142 
133 
115 
86 
18 
0 
0 
0 
0 
0 
0 
0 
0 
0 
0 
0 
0 
0 
0 
0 
0 
0 
0 
26 
80 
110 
129 
140 
145 
143 
135 
117 
0 
0 
0 
0 
0 
110 
143 
158 
165 
165 
159 
148 
132 
110 
78 
31 
0 
0 
0 
0 
0 
0 
0 
0 
0 
0 
0 
0 
0 
0 
0 
0 
0 
0 
108 
139 
155 
164 
165 
161 
151 
135 
111 
74 
0 
0 
0 
0 
0 
0 
0 
0 
0 
0 
0 
0 
0 
0 
0 
0 
0 
0 
49 
106 
135 
152 
162 
165 
163 
154 
139 
113 
68 
0 
0 
0 
0 
0 
0 
0 
0 
0 
0 
0 
0 
0 
0 
0 
0 
0 
0 
63 
105 
132 
149 
160 
165 
164 
157 
142 
0 
0 
0 
0 
0 
134 
161 
174 
179 
178 
172 
161 
145 
123 
93 
49 
0 
0 
0 
0 
0 
0 
0 
0 
0 
0 
0 
0 
0 
0 
0 
0 
0 
66 
129 
156 
171 
178 
179 
175 
165 
150 
126 
92 
30 
0 
0 
0 
0 
0 
0 
0 
0 
0 
0 
0 
0 
0 
0 
0 
0 
0 
77 
125 
151 
167 
176 
179 
177 
169 
154 
130 
90 
0 
0 
0 
0 
0 
0 
0 
0 
0 
0 
0 
0 
0 
0 
0 
0 
0 
0 
82 
121 
146 
163 
174 
179 
178 
172 
159 
0 
0 
0 
0 
70 
147 
171 
183 
188 
186 
180 
169 
153 
131 
100 
56 
0 
0 
0 
0 
0 
0 
0 
0 
0 
0 
0 
0 
0 
0 
0 
0 
0 
85 
140 
166 
180 
187 
188 
183 
173 
158 
135 
101 
40 
0 
0 
0 
0 
0 
0 
0 
0 
0 
0 
0 
0 
0 
0 
0 
0 
0 
89 
134 
160 
176 
185 
188 
186 
177 
163 
139 
101 
0 
0 
0 
0 
0 
0 
0 
0 
0 
0 
0 
0 
0 
0 
0 
0 
0 
0 
91 
130 
155 
172 
182 
187 
187 
181 
168 
0 
0 
0 
0 
0 
150 
175 
187 
191 
190 
183 
172 
155 
132 
100 
53 
0 
0 
0 
0 
0 
0 
0 
0 
0 
0 
0 
0 
0 
0 
0 
0 
0 
83 
143 
169 
183 
190 
191 
186 
176 
160 
136 
101 
32 
0 
0 
0 
0 
0 
0 
0 
0 
0 
0 
0 
0 
0 
0 
0 
0 
0 
88 
136 
163 
179 
188 
191 
189 
181 
166 
142 
101 
0 
0 
0 
0 
0 
0 
0 
0 
0 
0 
0 
0 
0 
0 
0 
0 
0 
0 
91 
131 
157 
174 
185 
191 
190 
184 
171 
0 
0 
0 
0 
0 
143 
171 
184 
189 
187 
181 
169 
151 
127 
92 
35 
0 
0 
0 
0 
0 
0 
0 
0 
0 
0 
0 
0 
0 
0 
0 
0 
0 
0 
135 
165 
180 
188 
189 
184 
173 
156 
131 
91 
0 
0 
0 
0 
0 
0 
0 
0 
0 
0 
0 
0 
0 
0 
0 
0 
0 
0 
69 
130 
159 
176 
186 
189 
186 
178 
162 
136 
88 
0 
0 
0 
0 
0 
0 
0 
0 
0 
0 
0 
0 
0 
0 
0 
0 
0 
0 
78 
125 
153 
171 
183 
188 
188 
182 
168 
0 
0 
0 
0 
0 
117 
158 
174 
180 
179 
172 
159 
140 
113 
71 
0 
0 
0 
0 
0 
0 
0 
0 
0 
0 
0 
0 
0 
0 
0 
0 
0 
0 
0 
113 
152 
170 
179 
180 
175 
164 
145 
115 
62 
0 
0 
0 
0 
0 
0 
0 
0 
0 
0 
0 
0 
0 
0 
0 
0 
0 
0 
0 
110 
146 
166 
177 
180 
177 
168 
150 
118 
0 
0 
0 
0 
0 
0 
0 
0 
0 
0 
0 
0 
0 
0 
0 
0 
0 
0 
0 
32 
108 
141 
161 
174 
180 
179 
172 
155 
0 
0 
0 
0 
0 
0 
126 
153 
162 
162 
155 
141 
118 
84 
0 
0 
0 
0 
0 
0 
0 
0 
0 
0 
0 
0 
0 
0 
0 
0 
0 
0 
0 
0 
0 
122 
149 
160 
163 
157 
144 
121 
80 
0 
0 
0 
0 
0 
0 
0 
0 
0 
0 
0 
0 
0 
0 
0 
0 
0 
0 
0 
0 
0 
118 
145 
158 
163 
159 
148 
124 
72 
0 
0 
0 
0 
0 
0 
0 
0 
0 
0 
0 
0 
0 
0 
0 
0 
0 
0 
0 
0 
63 
115 
141 
156 
162 
161 
151 
128 
0 
0 
0 
0 
0 
0 
0 
99 
125 
129 
122 
104 
70 
0 
0 
0 
0 
0 
0 
0 
0 
0 
0 
0 
0 
0 
0 
0 
0 
0 
0 
0 
0 
0 
0 
0 
99 
123 
129 
123 
105 
60 
0 
0 
0 
0 
0 
0 
0 
0 
0 
0 
0 
0 
0 
0 
0 
0 
0 
0 
0 
0 
0 
0 
0 
99 
122 
129 
124 
105 
0 
0 
0 
0 
0 
0 
0 
0 
0 
0 
0 
0 
0 
0 
0 
0 
0 
0 
0 
0 
0 
0 
0 
0 
99 
121 
129 
125 
106 
0 
0 
0 
0 
0 
0 
0 
0 
0 
0 
0 
0 
0 
0 
0 
0 
0 
0 
0 
0 
0 
0 
0 
0 
0 
0 
0 
0 
0 
0 
0 
0 
0 
0 
0 
0 
0 
0 
0 
0 
0 
0 
0 
0 
0 
0 
0 
0 
0 
0 
0 
0 
0 
0 
0 
0 
0 
0 
0 
0 
0 
0 
0 
0 
0 
0 
0 
0 
0 
0 
0 
0 
0 
0 
0 
0 
0 
0 
0 
0 
0 
0 
0 
0 
0 
0 
0 
0 
0 
0 
0 
0 
0 
0 
0 
0 
0 
0 
0 
0 
0 