P2 100 100 255
0 
0 
0 
0 
0 
0 
0 
0 
0 
0 
0 
0 
0 
0 
0 
0 
0 
0 
0 
0 
0 
0 
178 
192 
197 
201 
202 
203 
203 
203 
202 
201 
200 
198 
196 
194 
192 
189 
187 
184 
181 
178 
175 
171 
168 
164 
161 
157 
153 
149 
144 
140 
135 
131 
126 
121 
116 
111 
105 
100 
94 
88 
82 
75 
69 
62 
55 
47 
40 
32 
23 
14 
4 
0 
0 
0 
0 
0 
0 
0 
0 
0 
0 
0 
0 
0 
0 
0 
0 
0 
0 
0 
0 
0 
0 
0 
0 
0 
0 
0 
0 
0 
0 
0 
0 
0 
0 
0 
0 
0 
0 
0 
0 
0 
0 
0 
0 
0 
0 
0 
0 
0 
183 
193 
198 
201 
203 
204 
204 
203 
203 
201 
200 
198 
196 
194 
192 
190 
187 
184 
181 
178 
175 
171 
168 
164 
160 
157 
153 
148 
144 
140 
135 
131 
126 
121 
116 
111 
105 
100 
94 
88 
82 
75 
69 
62 
55 
48 
40 
32 
23 
14 
5 
0 
0 
0 
0 
0 
0 
0 
0 
0 
0 
0 
0 
0 
0 
0 
0 
0 
0 
0 
0 
0 
0 
0 
0 
0 
0 
0 
0 
0 
0 
0 
0 
0 
0 
0 
0 
0 
0 
0 
0 
0 
0 
0 
0 
0 
0 
0 
0 
0 
185 
194 
199 
202 
203 
204 
204 
203 
203 
201 
200 
198 
196 
194 
192 
189 
187 
184 
181 
178 
175 
171 
168 
164 
160 
156 
152 
148 
144 
140 
135 
130 
126 
121 
116 
110 
105 
99 
94 
88 
82 
75 
69 
62 
55 
48 
40 
32 
23 
14 
5 
0 
0 
0 
0 
0 
0 
0 
0 
0 
0 
0 
0 
0 
0 
0 
0 
0 
0 
0 
0 
0 
0 
0 
0 
0 
0 
0 
0 
0 
0 
0 
0 
0 
0 
0 
0 
0 
0 
0 
0 
0 
0 
0 
0 
0 
0 
0 
0 
0 
187 
195 
199 
202 
203 
204 
204 
203 
203 
201 
200 
198 
196 
194 
192 
189 
186 
184 
181 
178 
174 
171 
167 
164 
160 
156 
152 
148 
144 
139 
135 
130 
125 
120 
115 
110 
105 
99 
93 
87 
81 
75 
69 
62 
55 
47 
40 
32 
23 
14 
5 
0 
0 
0 
0 
0 
0 
0 
0 
0 
0 
0 
0 
0 
0 
0 
0 
0 
0 
0 
0 
0 
0 
0 
0 
0 
0 
0 
0 
0 
0 
0 
0 
0 
0 
0 
0 
0 
0 
0 
0 
0 
0 
0 
0 
0 
0 
0 
0 
0 
188 
195 
199 
202 
203 
204 
204 
203 
202 
201 
200 
198 
196 
194 
191 
189 
186 
183 
180 
177 
174 
170 
167 
163 
160 
156 
152 
148 
143 
139 
134 
130 
125 
120 
115 
110 
104 
99 
93 
87 
81 
75 
68 
61 
54 
47 
39 
31 
23 
14 
4 
0 
0 
0 
0 
0 
0 
0 
0 
0 
0 
0 
0 
0 
0 
0 
0 
0 
0 
0 
0 
0 
0 
0 
0 
0 
0 
0 
0 
0 
0 
0 
0 
0 
0 
0 
0 
0 
0 
0 
0 
0 
0 
0 
0 
0 
0 
0 
0 
117 
124 
126 
127 
127 
203 
203 
203 
203 
202 
201 
199 
197 
195 
193 
191 
188 
186 
183 
180 
177 
173 
170 
166 
163 
159 
155 
151 
147 
143 
138 
134 
129 
124 
119 
114 
109 
104 
98 
92 
86 
80 
74 
67 
61 
54 
46 
39 
31 
22 
13 
4 
0 
0 
0 
0 
0 
0 
0 
0 
0 
0 
0 
0 
0 
0 
0 
0 
0 
0 
0 
0 
0 
0 
0 
0 
0 
0 
0 
0 
0 
0 
0 
0 
0 
0 
0 
0 
0 
0 
0 
0 
0 
0 
0 
0 
0 
0 
0 
125 
130 
132 
133 
133 
132 
131 
129 
127 
202 
201 
200 
198 
197 
195 
192 
190 
188 
185 
182 
179 
176 
173 
169 
166 
162 
158 
154 
150 
146 
142 
138 
133 
128 
124 
119 
114 
108 
103 
97 
92 
86 
80 
73 
67 
60 
53 
46 
38 
30 
21 
13 
3 
0 
0 
0 
0 
0 
0 
0 
0 
0 
0 
0 
0 
0 
0 
0 
0 
0 
0 
0 
0 
0 
0 
0 
0 
0 
0 
0 
0 
0 
0 
0 
0 
0 
0 
0 
0 
0 
0 
0 
0 
0 
0 
0 
0 
0 
0 
131 
136 
138 
139 
139 
138 
137 
135 
133 
131 
129 
126 
199 
198 
196 
194 
192 
189 
187 
184 
181 
178 
175 
172 
168 
165 
161 
158 
154 
150 
145 
141 
137 
132 
128 
123 
118 
113 
107 
102 
97 
91 
85 
79 
72 
66 
59 
52 
45 
37 
29 
20 
12 
2 
0 
0 
0 
0 
0 
0 
0 
0 
0 
0 
0 
0 
0 
0 
0 
0 
0 
0 
0 
0 
0 
0 
0 
0 
0 
0 
0 
0 
0 
0 
0 
0 
0 
0 
0 
0 
0 
0 
0 
0 
0 
0 
0 
0 
0 
135 
140 
143 
143 
144 
143 
142 
140 
139 
137 
134 
132 
129 
126 
123 
120 
193 
191 
188 
186 
183 
180 
177 
174 
171 
168 
164 
160 
157 
153 
149 
145 
140 
136 
131 
127 
122 
117 
112 
106 
101 
96 
90 
84 
78 
71 
65 
58 
51 
44 
36 
28 
19 
10 
1 
0 
0 
0 
0 
0 
0 
0 
0 
0 
0 
0 
0 
0 
0 
0 
0 
0 
0 
0 
0 
0 
0 
0 
0 
0 
0 
0 
0 
0 
0 
0 
0 
0 
0 
0 
0 
0 
0 
0 
0 
0 
0 
0 
0 
138 
144 
147 
148 
148 
148 
147 
145 
144 
142 
140 
137 
135 
132 
129 
126 
123 
120 
116 
187 
185 
182 
179 
176 
173 
170 
167 
163 
159 
156 
152 
148 
143 
139 
135 
130 
126 
121 
116 
111 
105 
100 
94 
89 
83 
77 
70 
64 
57 
50 
42 
35 
26 
18 
9 
0 
0 
0 
0 
0 
0 
0 
0 
0 
0 
0 
0 
0 
0 
0 
0 
0 
0 
0 
0 
0 
0 
0 
0 
0 
0 
0 
0 
0 
0 
0 
0 
0 
0 
0 
0 
0 
0 
0 
0 
0 
0 
0 
0 
139 
147 
150 
152 
152 
152 
151 
150 
148 
147 
145 
142 
140 
137 
134 
132 
128 
125 
122 
118 
115 
111 
181 
178 
175 
172 
169 
165 
162 
158 
154 
150 
146 
142 
138 
134 
129 
124 
119 
115 
109 
104 
99 
93 
87 
81 
75 
69 
62 
55 
48 
41 
33 
25 
16 
7 
0 
0 
0 
0 
0 
0 
0 
0 
0 
0 
0 
0 
0 
0 
0 
0 
0 
0 
0 
0 
0 
0 
0 
0 
0 
0 
0 
0 
0 
0 
0 
0 
0 
0 
0 
0 
0 
0 
0 
0 
0 
0 
0 
138 
149 
153 
155 
156 
155 
155 
154 
153 
151 
149 
147 
145 
142 
139 
137 
134 
131 
127 
124 
120 
117 
113 
109 
105 
174 
171 
167 
164 
161 
157 
153 
149 
145 
141 
137 
132 
128 
123 
118 
113 
108 
103 
97 
92 
86 
80 
74 
67 
61 
54 
47 
39 
31 
23 
15 
5 
0 
0 
0 
0 
0 
0 
0 
0 
0 
0 
0 
0 
0 
0 
0 
0 
0 
0 
0 
0 
0 
0 
0 
0 
0 
0 
0 
0 
0 
0 
0 
0 
0 
0 
0 
0 
0 
0 
0 
0 
0 
0 
0 
150 
155 
158 
159 
159 
158 
158 
156 
155 
153 
151 
149 
147 
144 
141 
139 
136 
132 
129 
126 
122 
119 
115 
111 
107 
103 
98 
166 
163 
159 
155 
152 
148 
144 
140 
135 
131 
126 
122 
117 
112 
107 
101 
96 
90 
84 
78 
72 
66 
59 
52 
45 
37 
29 
21 
13 
3 
0 
0 
0 
0 
0 
0 
0 
0 
0 
0 
0 
0 
0 
0 
0 
0 
0 
0 
0 
0 
0 
0 
0 
0 
0 
0 
0 
0 
0 
0 
0 
0 
0 
0 
0 
0 
0 
0 
0 
0 
0 
0 
149 
156 
160 
161 
162 
162 
161 
160 
159 
157 
155 
153 
151 
148 
146 
143 
140 
137 
134 
131 
127 
124 
120 
116 
113 
108 
104 
100 
96 
91 
158 
154 
150 
146 
142 
138 
134 
129 
125 
120 
115 
110 
105 
100 
94 
88 
83 
76 
70 
64 
57 
50 
43 
35 
27 
19 
10 
58 
49 
39 
29 
17 
4 
0 
0 
0 
0 
0 
0 
0 
0 
0 
0 
0 
0 
0 
0 
0 
0 
0 
0 
0 
0 
0 
0 
0 
0 
0 
0 
0 
0 
0 
0 
0 
0 
0 
0 
0 
0 
141 
157 
161 
163 
164 
164 
164 
163 
162 
161 
159 
157 
155 
153 
150 
147 
145 
142 
139 
136 
132 
129 
125 
122 
118 
114 
110 
106 
101 
97 
92 
88 
83 
148 
144 
140 
136 
132 
127 
123 
118 
113 
108 
103 
98 
92 
86 
81 
75 
68 
62 
55 
48 
41 
94 
87 
80 
73 
65 
56 
47 
38 
27 
15 
2 
0 
0 
0 
0 
0 
0 
0 
0 
0 
0 
0 
0 
0 
0 
0 
0 
0 
0 
0 
0 
0 
0 
0 
0 
0 
0 
0 
0 
0 
0 
0 
0 
0 
0 
0 
155 
161 
165 
166 
167 
167 
166 
165 
164 
162 
161 
159 
156 
154 
152 
149 
146 
143 
140 
137 
134 
130 
127 
123 
119 
115 
111 
107 
103 
98 
94 
89 
84 
79 
143 
139 
134 
130 
126 
121 
116 
111 
106 
101 
96 
90 
84 
79 
72 
66 
60 
118 
112 
106 
99 
93 
86 
78 
71 
63 
54 
45 
35 
24 
12 
0 
0 
0 
0 
0 
0 
0 
0 
0 
0 
0 
0 
0 
0 
0 
0 
0 
0 
0 
0 
0 
0 
0 
0 
0 
0 
0 
0 
0 
0 
0 
0 
0 
0 
144 
161 
165 
168 
169 
169 
169 
168 
167 
165 
164 
162 
160 
158 
155 
153 
150 
147 
144 
141 
138 
135 
131 
128 
124 
120 
116 
112 
108 
104 
100 
95 
90 
86 
81 
76 
70 
132 
128 
124 
119 
114 
109 
104 
99 
94 
88 
82 
76 
138 
133 
127 
122 
116 
110 
104 
97 
91 
83 
76 
68 
60 
51 
41 
31 
20 
8 
0 
0 
0 
0 
0 
0 
0 
0 
0 
0 
0 
0 
0 
0 
0 
0 
0 
0 
0 
0 
0 
0 
0 
0 
0 
0 
0 
0 
0 
0 
0 
0 
0 
157 
165 
168 
170 
171 
171 
170 
169 
168 
167 
165 
163 
161 
159 
156 
154 
151 
148 
145 
142 
139 
136 
132 
129 
125 
121 
117 
113 
109 
105 
101 
96 
92 
87 
82 
77 
71 
66 
60 
121 
117 
112 
107 
102 
97 
91 
155 
151 
146 
141 
136 
131 
126 
120 
114 
108 
101 
95 
88 
80 
73 
65 
56 
47 
37 
27 
15 
3 
0 
0 
0 
0 
0 
0 
0 
0 
0 
0 
0 
0 
0 
0 
0 
0 
0 
0 
0 
0 
0 
0 
0 
0 
0 
0 
0 
0 
0 
0 
0 
0 
162 
168 
171 
172 
172 
172 
172 
171 
169 
168 
166 
164 
162 
160 
157 
155 
152 
149 
146 
143 
140 
137 
133 
130 
126 
122 
118 
114 
110 
106 
102 
97 
92 
88 
83 
78 
73 
67 
62 
56 
50 
110 
105 
170 
166 
162 
158 
154 
149 
145 
140 
134 
129 
123 
118 
111 
105 
99 
92 
84 
77 
69 
61 
52 
43 
33 
22 
10 
0 
0 
0 
0 
0 
0 
0 
0 
0 
0 
0 
0 
0 
0 
0 
0 
0 
0 
0 
0 
0 
0 
0 
0 
0 
0 
0 
0 
0 
0 
0 
155 
166 
170 
173 
174 
174 
174 
173 
172 
171 
169 
167 
165 
163 
161 
158 
156 
153 
150 
147 
144 
141 
137 
134 
130 
127 
123 
119 
115 
111 
107 
102 
98 
93 
89 
84 
79 
73 
68 
63 
57 
51 
180 
177 
173 
169 
165 
161 
157 
152 
148 
143 
137 
132 
126 
121 
115 
108 
102 
95 
88 
81 
73 
65 
56 
47 
38 
27 
16 
4 
0 
0 
0 
0 
0 
0 
0 
0 
0 
0 
0 
0 
0 
0 
0 
0 
0 
0 
0 
0 
0 
0 
0 
0 
0 
0 
0 
0 
0 
0 
161 
169 
172 
174 
175 
175 
175 
174 
173 
171 
170 
168 
166 
164 
161 
159 
156 
154 
151 
148 
145 
141 
138 
135 
131 
127 
124 
120 
116 
112 
107 
103 
99 
94 
89 
84 
79 
74 
69 
63 
58 
52 
183 
180 
176 
172 
168 
164 
160 
155 
150 
145 
140 
135 
129 
124 
118 
111 
105 
98 
91 
84 
76 
68 
60 
51 
42 
32 
21 
10 
0 
0 
0 
0 
0 
0 
0 
0 
0 
0 
0 
0 
0 
0 
0 
0 
0 
0 
0 
0 
0 
0 
0 
0 
0 
0 
0 
0 
0 
0 
165 
171 
174 
175 
176 
176 
176 
175 
174 
172 
170 
169 
167 
164 
162 
159 
157 
154 
151 
148 
145 
142 
139 
135 
132 
128 
124 
120 
116 
112 
108 
104 
99 
94 
90 
85 
80 
75 
69 
64 
58 
52 
186 
182 
178 
175 
171 
166 
162 
157 
153 
148 
143 
137 
132 
126 
120 
114 
108 
101 
94 
87 
80 
72 
63 
55 
46 
36 
26 
14 
2 
0 
0 
0 
0 
0 
0 
0 
0 
0 
0 
0 
0 
0 
0 
0 
0 
0 
0 
0 
0 
0 
0 
0 
0 
0 
0 
0 
0 
0 
168 
173 
175 
176 
177 
177 
176 
175 
174 
173 
171 
169 
167 
165 
162 
160 
157 
155 
152 
149 
145 
142 
139 
135 
132 
128 
124 
121 
117 
112 
108 
104 
99 
95 
90 
85 
80 
75 
70 
64 
59 
191 
188 
184 
181 
177 
173 
168 
164 
159 
155 
150 
145 
139 
134 
128 
122 
116 
110 
104 
97 
90 
82 
75 
66 
58 
49 
40 
30 
19 
7 
0 
0 
0 
0 
0 
0 
0 
0 
0 
0 
0 
0 
0 
0 
0 
0 
0 
0 
0 
0 
0 
0 
0 
0 
0 
0 
0 
0 
158 
169 
174 
176 
177 
178 
177 
177 
176 
175 
173 
171 
169 
167 
165 
163 
160 
158 
155 
152 
149 
146 
143 
139 
136 
132 
129 
125 
121 
117 
113 
109 
104 
100 
95 
91 
86 
81 
76 
70 
65 
59 
193 
190 
186 
183 
179 
175 
170 
166 
161 
157 
152 
147 
141 
136 
130 
125 
119 
112 
106 
99 
92 
85 
77 
69 
61 
52 
43 
33 
22 
11 
0 
0 
0 
0 
0 
0 
0 
0 
0 
0 
0 
0 
0 
0 
0 
0 
0 
0 
0 
0 
0 
0 
0 
0 
0 
0 
0 
0 
161 
171 
175 
177 
178 
178 
178 
177 
176 
175 
173 
172 
170 
168 
165 
163 
160 
158 
155 
152 
149 
146 
143 
139 
136 
132 
129 
125 
121 
117 
113 
109 
104 
100 
95 
91 
86 
81 
76 
71 
65 
59 
195 
192 
188 
184 
180 
176 
172 
168 
163 
158 
153 
148 
143 
138 
132 
126 
120 
114 
108 
101 
94 
87 
79 
71 
63 
55 
45 
36 
26 
15 
3 
0 
0 
0 
0 
0 
0 
0 
0 
0 
0 
0 
0 
0 
0 
0 
0 
0 
0 
0 
0 
0 
0 
0 
0 
0 
0 
0 
163 
172 
175 
177 
178 
178 
178 
177 
176 
175 
174 
172 
170 
168 
165 
163 
161 
158 
155 
152 
149 
146 
143 
139 
136 
132 
129 
125 
121 
117 
113 
109 
104 
100 
95 
91 
86 
81 
76 
71 
65 
200 
196 
193 
189 
186 
182 
178 
174 
169 
165 
160 
155 
150 
145 
139 
134 
128 
122 
116 
109 
103 
96 
89 
81 
74 
65 
57 
48 
38 
28 
18 
6 
0 
0 
0 
0 
0 
0 
0 
0 
0 
0 
0 
0 
0 
0 
0 
0 
0 
0 
0 
0 
0 
0 
0 
0 
0 
0 
0 
165 
172 
176 
177 
178 
178 
178 
177 
176 
175 
174 
172 
170 
168 
165 
163 
160 
158 
155 
152 
149 
146 
143 
139 
136 
132 
129 
125 
121 
117 
113 
109 
104 
100 
95 
91 
86 
81 
76 
71 
65 
201 
198 
194 
191 
187 
183 
179 
175 
170 
166 
161 
156 
151 
146 
141 
135 
129 
123 
117 
111 
104 
97 
90 
83 
75 
67 
59 
50 
41 
31 
20 
9 
0 
0 
0 
0 
0 
0 
0 
0 
0 
0 
0 
0 
0 
0 
0 
0 
0 
0 
0 
0 
0 
0 
0 
0 
0 
0 
0 
165 
172 
176 
177 
178 
178 
178 
177 
176 
175 
173 
172 
170 
168 
165 
163 
160 
158 
155 
152 
149 
146 
143 
139 
136 
132 
129 
125 
121 
117 
113 
109 
104 
100 
95 
91 
86 
81 
76 
70 
205 
202 
199 
196 
192 
188 
184 
180 
176 
172 
167 
162 
157 
152 
147 
142 
136 
131 
125 
119 
112 
106 
99 
92 
84 
77 
69 
60 
52 
42 
33 
22 
11 
0 
0 
0 
0 
0 
0 
0 
0 
0 
0 
0 
0 
0 
0 
0 
0 
0 
0 
0 
0 
0 
0 
0 
0 
0 
0 
0 
165 
172 
175 
177 
178 
178 
178 
177 
176 
175 
173 
171 
169 
167 
165 
163 
160 
157 
155 
152 
149 
146 
142 
139 
135 
132 
128 
124 
121 
117 
113 
108 
104 
100 
95 
90 
85 
81 
75 
70 
206 
203 
200 
196 
193 
189 
185 
181 
177 
172 
168 
163 
158 
153 
148 
143 
137 
132 
126 
120 
113 
107 
100 
93 
86 
78 
70 
62 
53 
44 
34 
24 
13 
1 
0 
0 
0 
0 
0 
0 
0 
0 
0 
0 
0 
0 
0 
0 
0 
0 
0 
0 
0 
0 
0 
0 
0 
0 
0 
0 
164 
172 
175 
177 
178 
178 
177 
177 
176 
174 
173 
171 
169 
167 
165 
162 
160 
157 
154 
151 
148 
145 
142 
139 
135 
132 
128 
124 
120 
116 
112 
108 
104 
99 
95 
90 
85 
80 
75 
70 
207 
204 
201 
197 
194 
190 
186 
182 
178 
173 
169 
164 
159 
154 
149 
144 
138 
132 
127 
120 
114 
108 
101 
94 
87 
79 
71 
63 
54 
45 
36 
26 
15 
3 
0 
0 
0 
0 
0 
0 
0 
0 
0 
0 
0 
0 
0 
0 
0 
0 
0 
0 
0 
0 
0 
0 
0 
0 
0 
0 
163 
171 
174 
176 
177 
177 
177 
176 
175 
174 
172 
171 
169 
166 
164 
162 
159 
157 
154 
151 
148 
145 
141 
138 
135 
131 
127 
124 
120 
116 
112 
107 
103 
99 
94 
89 
85 
80 
75 
211 
208 
205 
201 
198 
194 
191 
187 
182 
178 
174 
169 
165 
160 
155 
150 
144 
139 
133 
127 
121 
115 
108 
102 
95 
87 
80 
72 
64 
55 
46 
37 
27 
16 
5 
0 
0 
0 
0 
0 
0 
0 
0 
0 
0 
0 
0 
0 
0 
0 
0 
0 
0 
0 
0 
0 
0 
0 
0 
0 
0 
161 
169 
173 
175 
176 
176 
176 
175 
174 
173 
172 
170 
168 
166 
164 
161 
159 
156 
153 
150 
147 
144 
141 
138 
134 
131 
127 
123 
119 
115 
111 
107 
103 
98 
94 
89 
84 
79 
74 
211 
208 
205 
202 
198 
195 
191 
187 
183 
179 
174 
170 
165 
160 
155 
150 
145 
139 
134 
128 
122 
115 
109 
102 
95 
88 
81 
73 
65 
56 
47 
38 
28 
17 
6 
0 
0 
0 
0 
0 
0 
0 
0 
0 
0 
0 
0 
0 
0 
0 
0 
0 
0 
0 
0 
0 
0 
0 
0 
0 
0 
158 
168 
172 
174 
175 
176 
175 
175 
174 
172 
171 
169 
167 
165 
163 
160 
158 
155 
153 
150 
147 
143 
140 
137 
133 
130 
126 
122 
118 
114 
110 
106 
102 
97 
93 
88 
83 
78 
73 
212 
209 
205 
202 
199 
195 
191 
187 
183 
179 
175 
170 
165 
161 
156 
150 
145 
140 
134 
128 
122 
116 
109 
103 
96 
88 
81 
73 
65 
57 
48 
38 
28 
18 
6 
0 
0 
0 
0 
0 
0 
0 
0 
0 
0 
0 
0 
0 
0 
0 
0 
0 
0 
0 
0 
0 
0 
0 
0 
0 
0 
154 
166 
170 
173 
174 
174 
174 
174 
173 
171 
170 
168 
166 
164 
162 
160 
157 
154 
152 
149 
146 
143 
139 
136 
133 
129 
125 
122 
118 
114 
110 
105 
101 
97 
92 
87 
82 
77 
72 
212 
209 
206 
202 
199 
195 
191 
187 
183 
179 
175 
170 
165 
161 
156 
150 
145 
140 
134 
128 
122 
116 
109 
103 
96 
89 
81 
73 
65 
57 
48 
39 
29 
18 
7 
0 
0 
0 
0 
0 
0 
0 
0 
0 
0 
0 
0 
0 
0 
0 
0 
0 
0 
0 
0 
0 
0 
0 
0 
0 
0 
0 
163 
168 
171 
173 
173 
173 
172 
172 
170 
169 
167 
165 
163 
161 
159 
156 
154 
151 
148 
145 
142 
138 
135 
132 
128 
124 
121 
117 
113 
109 
104 
100 
96 
91 
86 
81 
76 
215 
212 
209 
206 
202 
199 
195 
191 
187 
183 
179 
175 
170 
165 
161 
156 
150 
145 
140 
134 
128 
122 
116 
109 
103 
96 
89 
81 
73 
65 
57 
48 
39 
29 
18 
7 
0 
0 
0 
0 
0 
0 
0 
0 
0 
0 
0 
0 
0 
0 
0 
0 
0 
0 
0 
0 
0 
0 
0 
0 
0 
0 
0 
160 
166 
169 
171 
171 
172 
171 
170 
169 
168 
166 
164 
162 
160 
158 
155 
153 
150 
147 
144 
141 
137 
134 
131 
127 
123 
120 
116 
112 
108 
103 
99 
95 
90 
85 
80 
75 
214 
212 
209 
205 
202 
199 
195 
191 
187 
183 
179 
175 
170 
165 
160 
155 
150 
145 
139 
134 
128 
122 
116 
109 
103 
96 
88 
81 
73 
65 
57 
48 
39 
29 
18 
7 
0 
0 
0 
0 
0 
0 
0 
0 
0 
0 
0 
0 
0 
0 
0 
0 
0 
0 
0 
0 
0 
0 
0 
0 
0 
0 
0 
155 
163 
167 
169 
170 
170 
170 
169 
168 
166 
165 
163 
161 
159 
156 
154 
151 
149 
146 
143 
140 
136 
133 
130 
126 
122 
118 
115 
111 
106 
102 
98 
93 
89 
84 
79 
74 
214 
211 
208 
205 
202 
198 
195 
191 
187 
183 
179 
174 
170 
165 
160 
155 
150 
145 
139 
133 
128 
122 
115 
109 
102 
95 
88 
81 
73 
65 
56 
48 
38 
28 
18 
7 
0 
0 
0 
0 
0 
0 
0 
0 
0 
0 
0 
0 
0 
0 
0 
0 
0 
0 
0 
0 
0 
0 
0 
0 
0 
0 
0 
148 
160 
164 
167 
168 
168 
168 
167 
166 
165 
163 
162 
160 
157 
155 
153 
150 
147 
144 
141 
138 
135 
132 
128 
125 
121 
117 
113 
109 
105 
101 
97 
92 
87 
83 
78 
216 
214 
211 
208 
205 
201 
198 
194 
190 
186 
182 
178 
174 
169 
164 
160 
155 
149 
144 
139 
133 
127 
121 
115 
108 
102 
95 
88 
80 
72 
64 
56 
47 
38 
28 
17 
6 
0 
0 
0 
0 
0 
0 
0 
0 
0 
0 
0 
0 
0 
0 
0 
0 
0 
0 
0 
0 
0 
0 
0 
0 
0 
0 
0 
0 
155 
161 
164 
165 
166 
166 
165 
164 
163 
162 
160 
158 
156 
154 
151 
149 
146 
143 
140 
137 
134 
130 
127 
123 
120 
116 
112 
108 
104 
99 
95 
91 
86 
81 
76 
216 
213 
210 
207 
204 
201 
197 
194 
190 
186 
182 
177 
173 
169 
164 
159 
154 
149 
143 
138 
132 
126 
120 
114 
108 
101 
94 
87 
79 
72 
63 
55 
46 
37 
27 
16 
5 
0 
0 
0 
0 
0 
0 
0 
0 
0 
0 
0 
0 
0 
0 
0 
0 
0 
0 
0 
0 
0 
0 
0 
0 
0 
0 
0 
0 
149 
157 
161 
163 
163 
164 
163 
162 
161 
160 
158 
156 
154 
152 
150 
147 
144 
141 
138 
135 
132 
129 
125 
122 
118 
114 
110 
106 
102 
98 
94 
89 
84 
79 
75 
215 
212 
209 
206 
203 
200 
196 
193 
189 
185 
181 
177 
172 
168 
163 
158 
153 
148 
143 
137 
131 
126 
119 
113 
107 
100 
93 
86 
78 
71 
62 
54 
45 
35 
26 
15 
3 
0 
0 
0 
0 
0 
0 
0 
0 
0 
0 
0 
0 
0 
0 
0 
0 
0 
0 
0 
0 
0 
0 
0 
0 
0 
0 
0 
0 
0 
152 
157 
159 
161 
161 
161 
160 
159 
158 
156 
154 
152 
150 
148 
145 
143 
140 
137 
134 
130 
127 
124 
120 
116 
113 
109 
105 
100 
96 
92 
87 
83 
78 
216 
214 
211 
208 
205 
202 
199 
195 
192 
188 
184 
180 
176 
171 
167 
162 
157 
152 
147 
142 
136 
130 
125 
118 
112 
106 
99 
92 
85 
77 
69 
61 
53 
44 
34 
24 
13 
2 
0 
0 
0 
0 
0 
0 
0 
0 
0 
0 
0 
0 
0 
0 
0 
0 
0 
0 
0 
0 
0 
0 
0 
0 
0 
0 
0 
0 
0 
145 
152 
156 
157 
158 
158 
158 
157 
156 
154 
152 
150 
148 
146 
143 
141 
138 
135 
132 
129 
125 
122 
118 
115 
111 
107 
103 
99 
94 
90 
85 
81 
76 
215 
213 
210 
207 
204 
201 
198 
194 
191 
187 
183 
179 
175 
170 
166 
161 
156 
151 
146 
140 
135 
129 
123 
117 
111 
104 
98 
91 
83 
76 
68 
60 
51 
42 
32 
22 
11 
0 
0 
0 
0 
0 
0 
0 
0 
0 
0 
0 
0 
0 
0 
0 
0 
0 
0 
0 
0 
0 
0 
0 
0 
0 
0 
0 
0 
0 
0 
0 
147 
151 
154 
155 
155 
155 
154 
153 
152 
150 
148 
146 
144 
141 
139 
136 
133 
130 
127 
123 
120 
116 
113 
109 
105 
101 
97 
92 
88 
83 
78 
74 
214 
211 
209 
206 
203 
200 
197 
193 
189 
186 
182 
178 
173 
169 
164 
160 
155 
150 
145 
139 
134 
128 
122 
116 
109 
103 
96 
89 
82 
74 
66 
58 
49 
40 
30 
20 
9 
0 
0 
0 
0 
0 
0 
0 
0 
0 
0 
0 
0 
0 
0 
0 
0 
0 
0 
0 
0 
0 
0 
0 
0 
0 
0 
0 
0 
0 
0 
0 
138 
146 
149 
151 
152 
152 
151 
150 
149 
147 
146 
144 
141 
139 
136 
134 
131 
128 
124 
121 
118 
114 
110 
107 
103 
99 
94 
90 
86 
81 
76 
214 
212 
210 
207 
204 
202 
198 
195 
192 
188 
184 
180 
176 
172 
168 
163 
158 
153 
148 
143 
138 
132 
126 
120 
114 
108 
101 
94 
87 
80 
72 
64 
56 
47 
38 
28 
18 
7 
0 
0 
0 
0 
0 
0 
0 
0 
0 
0 
0 
0 
0 
0 
0 
0 
0 
0 
0 
0 
0 
0 
0 
0 
0 
0 
0 
0 
0 
0 
0 
0 
139 
144 
147 
148 
148 
148 
147 
146 
145 
143 
141 
139 
136 
134 
131 
128 
125 
122 
119 
115 
112 
108 
104 
100 
96 
92 
88 
83 
78 
74 
212 
210 
208 
206 
203 
200 
197 
193 
190 
186 
183 
179 
175 
170 
166 
161 
157 
152 
147 
141 
136 
130 
125 
119 
112 
106 
99 
93 
85 
78 
70 
62 
54 
45 
36 
26 
15 
4 
0 
0 
0 
0 
0 
0 
0 
0 
0 
0 
0 
0 
0 
0 
0 
0 
0 
0 
0 
0 
0 
0 
0 
0 
0 
0 
0 
0 
0 
0 
0 
0 
125 
137 
141 
143 
144 
144 
144 
143 
141 
140 
138 
136 
134 
131 
128 
126 
123 
120 
116 
113 
109 
106 
102 
98 
94 
89 
85 
81 
76 
71 
210 
208 
206 
204 
201 
198 
195 
192 
188 
185 
181 
177 
173 
169 
164 
160 
155 
150 
145 
140 
134 
128 
123 
117 
110 
104 
97 
90 
83 
76 
68 
60 
51 
42 
33 
23 
12 
0 
0 
0 
0 
0 
0 
0 
0 
0 
0 
0 
0 
0 
0 
0 
0 
0 
0 
0 
0 
0 
0 
0 
0 
0 
0 
0 
0 
0 
0 
0 
0 
0 
0 
126 
134 
138 
139 
140 
140 
139 
138 
136 
135 
133 
131 
128 
126 
123 
120 
117 
113 
110 
107 
103 
99 
95 
91 
87 
82 
78 
73 
210 
208 
206 
204 
201 
199 
196 
193 
190 
186 
183 
179 
175 
171 
167 
162 
158 
153 
148 
143 
137 
132 
126 
121 
115 
108 
102 
95 
88 
81 
73 
65 
57 
48 
39 
30 
19 
8 
0 
0 
0 
0 
0 
0 
0 
0 
0 
0 
0 
0 
0 
0 
0 
0 
0 
0 
0 
0 
0 
0 
0 
0 
0 
0 
0 
0 
0 
0 
0 
0 
0 
0 
0 
124 
131 
134 
135 
135 
135 
134 
133 
131 
129 
127 
125 
122 
120 
117 
114 
110 
107 
104 
100 
96 
92 
88 
84 
79 
74 
70 
207 
206 
204 
202 
199 
197 
194 
191 
187 
184 
180 
177 
173 
169 
164 
160 
155 
151 
146 
141 
135 
130 
124 
118 
112 
106 
99 
93 
85 
78 
70 
63 
54 
45 
36 
26 
16 
4 
0 
0 
0 
0 
0 
0 
0 
0 
0 
0 
0 
0 
0 
0 
0 
0 
0 
0 
0 
0 
0 
0 
0 
0 
0 
0 
0 
0 
0 
0 
0 
0 
0 
0 
0 
0 
120 
126 
129 
130 
130 
129 
129 
127 
125 
123 
121 
119 
116 
113 
110 
107 
104 
100 
97 
93 
89 
85 
80 
76 
71 
66 
204 
203 
201 
199 
197 
194 
191 
188 
185 
182 
178 
174 
170 
166 
162 
158 
153 
148 
143 
138 
133 
127 
122 
116 
109 
103 
97 
90 
83 
75 
67 
59 
51 
42 
32 
22 
12 
0 
0 
0 
0 
0 
0 
0 
0 
0 
0 
0 
0 
0 
0 
0 
0 
0 
0 
0 
0 
0 
0 
0 
0 
0 
0 
0 
0 
0 
0 
0 
0 
0 
0 
0 
0 
0 
0 
115 
121 
123 
124 
124 
124 
123 
121 
119 
117 
115 
112 
110 
107 
103 
100 
97 
93 
89 
85 
81 
76 
72 
67 
202 
201 
200 
198 
196 
194 
191 
188 
185 
182 
179 
175 
172 
168 
164 
159 
155 
150 
145 
141 
135 
130 
124 
119 
113 
107 
100 
94 
87 
79 
72 
64 
56 
47 
38 
28 
18 
7 
0 
0 
0 
0 
0 
0 
0 
0 
0 
0 
0 
0 
0 
0 
0 
0 
0 
0 
0 
0 
0 
0 
0 
0 
0 
0 
0 
0 
0 
0 
0 
0 
0 
0 
0 
0 
0 
0 
0 
109 
115 
117 
118 
118 
117 
116 
115 
113 
110 
108 
105 
102 
99 
96 
92 
89 
85 
81 
77 
72 
68 
63 
198 
197 
196 
195 
193 
191 
188 
185 
182 
179 
176 
172 
169 
165 
161 
156 
152 
147 
143 
138 
132 
127 
121 
116 
110 
103 
97 
90 
83 
76 
68 
60 
52 
43 
34 
24 
13 
2 
0 
0 
0 
0 
0 
0 
0 
0 
0 
0 
0 
0 
0 
0 
0 
0 
0 
0 
0 
0 
0 
0 
0 
0 
0 
0 
0 
0 
0 
0 
0 
0 
0 
0 
0 
0 
0 
0 
0 
0 
100 
107 
110 
111 
111 
110 
109 
107 
105 
103 
101 
98 
95 
91 
88 
84 
80 
76 
72 
68 
63 
58 
194 
194 
192 
191 
189 
187 
185 
182 
179 
176 
173 
169 
166 
162 
158 
153 
149 
144 
139 
134 
129 
124 
118 
112 
106 
100 
93 
87 
79 
72 
64 
56 
48 
39 
29 
19 
8 
0 
0 
0 
0 
0 
0 
0 
0 
0 
0 
0 
0 
0 
0 
0 
0 
0 
0 
0 
0 
0 
0 
0 
0 
0 
0 
0 
0 
0 
0 
0 
0 
0 
0 
0 
0 
0 
0 
0 
0 
0 
0 
0 
98 
102 
103 
103 
102 
101 
99 
97 
95 
92 
89 
86 
83 
79 
75 
71 
67 
63 
58 
53 
189 
189 
188 
187 
185 
183 
181 
178 
176 
173 
169 
166 
162 
158 
154 
150 
145 
141 
136 
131 
126 
120 
115 
109 
103 
96 
90 
83 
75 
68 
60 
52 
43 
34 
24 
13 
1 
0 
0 
0 
0 
0 
0 
0 
0 
0 
0 
0 
0 
0 
0 
0 
0 
0 
0 
0 
0 
0 
0 
0 
0 
0 
0 
0 
0 
0 
0 
0 
0 
0 
0 
0 
0 
0 
0 
0 
0 
0 
0 
0 
0 
86 
92 
94 
94 
94 
92 
91 
89 
86 
83 
80 
77 
73 
70 
66 
61 
57 
52 
184 
184 
184 
183 
182 
181 
179 
177 
174 
172 
169 
165 
162 
158 
154 
150 
146 
142 
137 
132 
127 
122 
116 
111 
105 
98 
92 
85 
78 
71 
63 
55 
47 
37 
28 
18 
6 
0 
0 
0 
0 
0 
0 
0 
0 
0 
0 
0 
0 
0 
0 
0 
0 
0 
0 
0 
0 
0 
0 
0 
0 
0 
0 
0 
0 
0 
0 
0 
0 
0 
0 
0 
0 
0 
0 
0 
0 
0 
0 
0 
0 
0 
0 
0 
79 
83 
84 
83 
82 
81 
79 
76 
73 
70 
67 
63 
59 
54 
50 
45 
177 
178 
178 
178 
177 
176 
174 
172 
170 
167 
164 
161 
158 
154 
150 
146 
142 
138 
133 
128 
123 
118 
112 
106 
100 
94 
87 
81 
73 
66 
58 
50 
41 
31 
21 
11 
0 
0 
0 
0 
0 
0 
0 
0 
0 
0 
0 
0 
0 
0 
0 
0 
0 
0 
0 
0 
0 
0 
0 
0 
0 
0 
0 
0 
0 
0 
0 
0 
0 
0 
0 
0 
0 
0 
0 
0 
0 
0 
0 
0 
0 
0 
0 
0 
0 
0 
66 
70 
71 
70 
69 
67 
64 
61 
58 
54 
50 
46 
41 
36 
169 
171 
172 
172 
172 
171 
169 
167 
165 
162 
160 
157 
153 
150 
146 
142 
138 
133 
128 
124 
118 
113 
107 
102 
95 
89 
82 
75 
68 
60 
52 
44 
34 
25 
14 
3 
0 
0 
0 
0 
0 
0 
0 
0 
0 
0 
0 
0 
0 
0 
0 
0 
0 
0 
0 
0 
0 
0 
0 
0 
0 
0 
0 
0 
0 
0 
0 
0 
0 
0 
0 
0 
0 
0 
0 
0 
0 
0 
0 
0 
0 
0 
0 
0 
0 
0 
0 
0 
0 
52 
54 
54 
52 
50 
47 
43 
39 
35 
30 
25 
159 
162 
164 
165 
165 
164 
163 
161 
159 
157 
154 
151 
148 
145 
141 
137 
133 
128 
123 
119 
113 
108 
102 
96 
90 
84 
77 
70 
62 
54 
46 
37 
27 
17 
6 
0 
0 
0 
0 
0 
0 
0 
0 
0 
0 
0 
0 
0 
0 
0 
0 
0 
0 
0 
0 
0 
0 
0 
0 
0 
0 
0 
0 
0 
0 
0 
0 
0 
0 
0 
0 
0 
0 
0 
0 
0 
0 
0 
0 
0 
0 
0 
0 
0 
0 
0 
0 
0 
0 
0 
0 
0 
0 
0 
23 
22 
19 
15 
9 
128 
145 
152 
155 
157 
157 
157 
156 
155 
153 
151 
148 
146 
142 
139 
135 
131 
127 
123 
118 
113 
108 
102 
97 
91 
84 
78 
71 
63 
55 
47 
38 
29 
19 
8 
0 
0 
0 
0 
0 
0 
0 
0 
0 
0 
0 
0 
0 
0 
0 
0 
0 
0 
0 
0 
0 
0 
0 
0 
0 
0 
0 
0 
0 
0 
0 
0 
0 
0 
0 
0 
0 
0 
0 
0 
0 
0 
0 
0 
0 
0 
0 
0 
0 
0 
0 
0 
0 
0 
0 
0 
0 
0 
0 
0 
0 
0 
0 
0 
0 
0 
0 
136 
143 
146 
148 
149 
149 
148 
146 
144 
142 
139 
136 
133 
129 
125 
121 
117 
112 
107 
102 
96 
90 
84 
78 
71 
63 
56 
48 
39 
30 
20 
9 
0 
0 
0 
0 
0 
0 
0 
0 
0 
0 
0 
0 
0 
0 
0 
0 
0 
0 
0 
0 
0 
0 
0 
0 
0 
0 
0 
0 
0 
0 
0 
0 
0 
0 
0 
0 
0 
0 
0 
0 
0 
0 
0 
0 
0 
0 
0 
0 
0 
0 
0 
0 
0 
0 
0 
0 
0 
0 
0 
0 
0 
0 
0 
0 
0 
0 
0 
0 
0 
124 
133 
137 
138 
139 
139 
138 
136 
134 
132 
129 
126 
122 
118 
114 
110 
105 
100 
95 
89 
83 
77 
70 
63 
55 
47 
39 
30 
19 
8 
0 
0 
0 
0 
0 
0 
0 
0 
0 
0 
0 
0 
0 
0 
0 
0 
0 
0 
0 
0 
0 
0 
0 
0 
0 
0 
0 
0 
0 
0 
0 
0 
0 
0 
0 
0 
0 
0 
0 
0 
0 
0 
0 
0 
0 
0 
0 
0 
0 
0 
0 
0 
0 
0 
0 
0 
0 
0 
0 
0 
0 
0 
0 
0 
0 
0 
0 
0 
0 
0 
0 
105 
120 
125 
127 
128 
128 
127 
125 
123 
121 
117 
114 
110 
106 
102 
97 
92 
87 
81 
75 
68 
61 
54 
46 
37 
28 
18 
7 
0 
0 
0 
0 
0 
0 
0 
0 
0 
0 
0 
0 
0 
0 
0 
0 
0 
0 
0 
0 
0 
0 
0 
0 
0 
0 
0 
0 
0 
0 
0 
0 
0 
0 
0 
0 
0 
0 
0 
0 
0 
0 
0 
0 
0 
0 
0 
0 
0 
0 
0 
0 
0 
0 
0 
0 
0 
0 
0 
0 
0 
0 
0 
0 
0 
0 
0 
0 
0 
0 
0 
0 
0 
0 
101 
110 
114 
115 
115 
114 
113 
110 
108 
105 
101 
97 
93 
88 
83 
77 
71 
65 
58 
51 
43 
34 
25 
14 
2 
0 
0 
0 
0 
0 
0 
0 
0 
0 
0 
0 
0 
0 
0 
0 
0 
0 
0 
0 
0 
0 
0 
0 
0 
0 
0 
0 
0 
0 
0 
0 
0 
0 
0 
0 
0 
0 
0 
0 
0 
0 
0 
0 
0 
0 
0 
0 
0 
0 
0 
0 
0 
0 
0 
0 
0 
0 
0 
0 
0 
0 
0 
0 
0 
0 
0 
0 
0 
0 
0 
0 
0 
0 
0 
0 
0 
0 
87 
96 
99 
100 
99 
98 
96 
93 
90 
86 
81 
77 
71 
66 
59 
53 
45 
37 
29 
19 
8 
0 
0 
0 
0 
0 
0 
0 
0 
0 
0 
0 
0 
0 
0 
0 
0 
0 
0 
0 
0 
0 
0 
0 
0 
0 
0 
0 
0 
0 
0 
0 
0 
0 
0 
0 
0 
0 
0 
0 
0 
0 
0 
0 
0 
0 
0 
0 
0 
0 
0 
0 
0 
0 
0 
0 
0 
0 
0 
0 
0 
0 
0 
0 
0 
0 
0 
0 
0 
0 
0 
0 
0 
0 
0 
0 
0 
0 
0 
0 
0 
0 
0 
74 
78 
79 
79 
77 
74 
71 
67 
62 
57 
51 
44 
37 
28 
19 
7 
0 
0 
0 
0 
0 
0 
0 
0 
0 
0 
0 
0 
0 
0 
0 
0 
0 
0 
0 
0 
0 
0 
0 
0 
0 
0 
0 
0 
0 
0 
0 
0 
0 
0 
0 
0 
0 
0 
0 
0 
0 
0 
0 
0 
0 
0 
0 
0 
0 
0 
0 
0 
0 
0 
0 
0 
0 
0 
0 
0 
0 
0 
0 
0 
0 
0 
0 
0 
0 
0 
0 
0 
0 
0 
0 
0 
0 
0 
0 
0 
0 
0 
0 
0 
0 
0 
0 
0 
45 
47 
46 
43 
38 
33 
26 
17 
5 
0 
0 
0 
0 
0 
0 
0 
0 
0 
0 
0 
0 
0 
0 
0 
0 
0 
0 
0 
0 
0 
0 
0 
0 
0 
0 
0 
0 
0 
0 
0 
0 
0 
0 
0 
0 
0 
0 
0 
0 
0 
0 
0 
0 
0 
0 
0 
0 
0 
0 
0 
0 
0 
0 
0 
0 
0 
0 
0 
0 
0 
0 
0 
0 
0 
0 
0 
0 
0 
0 
0 
0 
0 
0 
0 
0 
0 
0 
0 
0 
0 
0 
0 
0 
0 
0 
0 
0 
0 
0 
0 
0 
0 
0 
0 
0 
0 
0 
0 
0 
0 
0 
0 
0 
0 
0 
0 
0 
0 
0 
0 
0 
0 
0 
0 
0 
0 
0 
0 
0 
0 
0 
0 
0 
0 
0 
0 
0 
0 
0 
0 
0 
0 
0 
0 
0 
0 
0 
0 
0 
0 
0 
0 
0 
0 
0 
0 
0 
0 
0 
0 
0 
0 
0 
0 
0 
0 
0 
0 
0 
0 
0 
0 
0 
0 
0 
0 
0 
0 
0 
0 
0 
0 
0 
0 
0 
0 
0 
0 
0 
0 
0 
0 
0 
0 
0 
0 
0 
0 
0 
0 
0 
0 
0 
0 
0 
0 
0 
0 
0 
0 
0 
0 
0 
0 
0 
0 
0 
0 
0 
0 
0 
0 
0 
0 
0 
0 
0 
0 
0 
0 
0 
0 
0 
0 
0 
0 
0 
0 
0 
0 
0 
0 
0 
0 
0 
0 
0 
0 
0 
0 
0 
0 
0 
0 
0 
0 
0 
0 
0 
0 
0 
0 
0 
0 
0 
0 
0 
0 
0 
0 
0 
0 
0 
0 
0 
0 
0 
0 
0 
0 
0 
0 
0 
0 
0 
0 
0 
0 
0 
0 
0 
0 
0 
0 
0 
0 
0 
0 
0 
0 
0 
0 
0 
0 
0 
0 
0 
0 
0 
0 
0 
0 
0 
0 
0 
0 
0 
0 
0 
0 
0 
0 
0 
0 
0 
0 
0 
0 
0 
0 
0 
0 
0 
0 
0 
0 
0 
0 
0 
0 
0 
0 
0 
0 
0 
0 
0 
0 
0 
0 
0 
0 
0 
0 
0 
0 
0 
0 
0 
0 
0 
0 
0 
0 
0 
0 
118 
86 
27 
0 
0 
0 
0 
0 
0 
0 
0 
0 
0 
109 
104 
56 
0 
0 
0 
0 
0 
0 
0 
0 
0 
0 
0 
115 
81 
15 
0 
0 
0 
0 
0 
0 
0 
0 
0 
0 
117 
100 
47 
0 
0 
0 
0 
0 
0 
0 
0 
0 
0 
102 
113 
74 
0 
0 
0 
0 
0 
0 
0 
0 
0 
0 
0 
0 
0 
0 
0 
0 
0 
0 
0 
0 
0 
0 
0 
0 
0 
0 
0 
0 
0 
0 
0 
0 
0 
0 
0 
0 
0 
0 
0 
0 
0 
0 
0 
165 
161 
121 
62 
0 
0 
0 
0 
0 
0 
0 
0 
0 
0 
171 
143 
93 
23 
0 
0 
0 
0 
0 
0 
0 
0 
0 
170 
160 
120 
60 
0 
0 
0 
0 
0 
0 
0 
0 
0 
152 
170 
142 
92 
16 
0 
0 
0 
0 
0 
0 
0 
0 
0 
172 
159 
119 
56 
0 
0 
0 
0 
0 
0 
0 
0 
0 
0 
0 
0 
0 
0 
0 
0 
0 
0 
0 
0 
0 
0 
0 
0 
0 
0 
0 
0 
0 
0 
0 
0 
0 
0 
0 
0 
0 
0 
0 
0 
5 
0 
189 
175 
133 
75 
0 
0 
0 
0 
0 
0 
0 
0 
0 
155 
187 
157 
107 
38 
0 
0 
0 
0 
0 
0 
0 
0 
0 
191 
175 
0 
75 
0 
0 
0 
0 
0 
0 
0 
0 
0 
180 
187 
158 
108 
35 
0 
0 
0 
0 
0 
0 
0 
0 
135 
191 
175 
136 
75 
0 
0 
0 
0 
0 
0 
0 
0 
0 
0 
0 
0 
0 
0 
0 
0 
0 
0 
0 
0 
0 
0 
0 
0 
0 
0 
0 
0 
0 
0 
0 
0 
0 
0 
0 
0 
0 
0 
120 
123 
86 
34 
0 
170 
129 
71 
0 
0 
0 
0 
0 
0 
0 
0 
131 
108 
64 
1 
102 
32 
0 
0 
0 
0 
0 
0 
0 
0 
0 
127 
124 
90 
37 
0 
0 
0 
0 
0 
0 
0 
0 
0 
161 
180 
153 
131 
111 
68 
1 
0 
0 
0 
0 
0 
0 
0 
182 
169 
131 
68 
129 
125 
94 
40 
0 
0 
0 
0 
0 
0 
0 
0 
0 
0 
0 
0 
0 
0 
0 
0 
0 
0 
0 
0 
0 
0 
0 
0 
0 
0 
0 
0 
0 
0 
0 
0 
0 
0 
173 
151 
112 
60 
0 
0 
104 
43 
0 
0 
0 
0 
0 
0 
0 
168 
167 
137 
92 
33 
0 
0 
0 
0 
0 
0 
0 
0 
0 
0 
0 
174 
157 
121 
70 
0 
0 
0 
0 
0 
0 
0 
0 
0 
0 
137 
168 
169 
144 
102 
43 
0 
0 
0 
0 
0 
0 
0 
118 
134 
97 
144 
174 
161 
129 
80 
7 
0 
0 
0 
0 
0 
0 
0 
0 
0 
0 
0 
0 
0 
0 
0 
0 
0 
0 
0 
0 
0 
0 
0 
0 
0 
0 
0 
0 
0 
0 
0 
0 
0 
188 
163 
123 
71 
6 
0 
0 
0 
0 
0 
0 
0 
0 
0 
0 
189 
180 
149 
105 
46 
0 
0 
0 
0 
0 
0 
0 
0 
0 
0 
163 
189 
170 
134 
84 
16 
0 
0 
0 
0 
0 
0 
0 
0 
0 
0 
188 
184 
158 
117 
59 
0 
0 
0 
0 
0 
0 
0 
0 
0 
0 
171 
190 
176 
144 
96 
27 
0 
0 
0 
0 
0 
0 
0 
0 
0 
0 
0 
0 
0 
0 
0 
0 
0 
0 
0 
0 
0 
0 
0 
0 
0 
0 
0 
0 
0 
59 
21 
0 
0 
186 
162 
122 
70 
4 
0 
0 
0 
0 
0 
0 
0 
0 
0 
66 
34 
0 
148 
104 
44 
0 
0 
0 
0 
0 
0 
0 
0 
0 
0 
0 
186 
70 
46 
0 
13 
0 
0 
0 
0 
0 
0 
0 
0 
0 
0 
182 
182 
157 
115 
71 
56 
13 
0 
0 
0 
0 
0 
0 
0 
0 
158 
187 
174 
143 
95 
24 
0 
68 
63 
28 
0 
0 
0 
0 
0 
0 
0 
0 
0 
0 
0 
0 
0 
0 
0 
0 
0 
0 
0 
0 
0 
0 
0 
136 
130 
101 
61 
10 
0 
158 
146 
108 
54 
0 
0 
0 
0 
0 
0 
0 
0 
117 
136 
114 
79 
31 
0 
87 
25 
0 
0 
0 
0 
0 
0 
0 
0 
0 
0 
0 
139 
125 
95 
52 
0 
0 
0 
0 
0 
0 
0 
0 
0 
0 
0 
122 
159 
138 
137 
133 
109 
71 
16 
0 
0 
0 
0 
0 
0 
0 
0 
157 
153 
123 
73 
0 
132 
137 
120 
89 
40 
0 
0 
0 
0 
0 
0 
0 
0 
0 
0 
0 
0 
0 
0 
0 
0 
0 
0 
0 
0 
0 
0 
172 
153 
121 
81 
32 
0 
0 
0 
62 
0 
0 
0 
0 
0 
0 
0 
0 
0 
172 
163 
137 
101 
55 
0 
0 
0 
0 
0 
0 
0 
0 
0 
0 
0 
0 
0 
166 
170 
151 
120 
78 
23 
0 
0 
0 
0 
0 
0 
0 
0 
0 
0 
0 
0 
153 
173 
161 
136 
99 
49 
0 
0 
0 
0 
0 
0 
0 
0 
0 
78 
61 
0 
133 
171 
168 
149 
118 
74 
11 
0 
0 
0 
0 
0 
0 
0 
0 
0 
0 
0 
0 
0 
0 
0 
0 
0 
0 
0 
0 
172 
185 
164 
131 
91 
42 
0 
0 
0 
0 
0 
0 
0 
0 
0 
0 
0 
0 
0 
189 
176 
149 
112 
67 
10 
0 
0 
0 
0 
0 
0 
0 
0 
0 
0 
0 
0 
186 
184 
164 
132 
91 
38 
0 
0 
0 
0 
0 
0 
0 
0 
0 
0 
0 
0 
177 
188 
175 
150 
113 
65 
0 
0 
0 
0 
0 
0 
0 
0 
0 
0 
0 
0 
163 
188 
183 
164 
133 
91 
32 
0 
0 
0 
0 
0 
0 
0 
0 
0 
0 
0 
0 
0 
0 
0 
0 
0 
0 
0 
0 
169 
187 
166 
134 
93 
44 
0 
0 
0 
0 
0 
0 
0 
0 
0 
0 
0 
0 
0 
190 
178 
152 
115 
69 
12 
0 
0 
0 
0 
0 
0 
0 
0 
0 
0 
0 
0 
187 
186 
166 
135 
93 
40 
0 
0 
0 
0 
0 
0 
0 
0 
0 
0 
0 
0 
177 
190 
178 
152 
116 
68 
1 
0 
0 
0 
0 
0 
0 
0 
0 
0 
0 
0 
159 
189 
185 
167 
136 
94 
35 
0 
0 
0 
0 
0 
0 
0 
0 
0 
0 
0 
0 
0 
0 
0 
27 
0 
0 
0 
0 
0 
177 
159 
127 
86 
36 
0 
0 
0 
0 
0 
0 
0 
0 
0 
0 
0 
31 
7 
0 
170 
144 
108 
61 
0 
0 
0 
0 
0 
0 
0 
0 
0 
0 
0 
0 
0 
164 
176 
30 
16 
0 
29 
0 
0 
0 
0 
0 
0 
0 
0 
0 
0 
0 
0 
133 
177 
168 
144 
107 
57 
19 
24 
0 
0 
0 
0 
0 
0 
0 
0 
0 
0 
0 
173 
175 
157 
127 
83 
19 
0 
0 
0 
0 
29 
0 
0 
0 
0 
0 
0 
0 
0 
113 
101 
75 
41 
0 
0 
0 
0 
0 
137 
109 
68 
14 
0 
0 
0 
0 
0 
0 
0 
0 
0 
106 
109 
89 
59 
20 
0 
123 
87 
37 
0 
0 
0 
0 
0 
0 
0 
0 
0 
0 
0 
0 
0 
0 
112 
100 
75 
40 
0 
0 
0 
0 
0 
0 
0 
0 
0 
0 
0 
0 
0 
0 
131 
140 
119 
81 
112 
108 
88 
58 
15 
0 
0 
0 
0 
0 
0 
0 
0 
0 
107 
142 
130 
100 
51 
0 
0 
0 
107 
112 
99 
75 
38 
0 
0 
0 
0 
0 
149 
146 
125 
97 
63 
23 
0 
0 
0 
0 
0 
0 
0 
0 
0 
0 
0 
0 
0 
0 
0 
0 
124 
151 
138 
115 
84 
47 
1 
0 
0 
0 
0 
0 
0 
0 
0 
0 
0 
0 
0 
0 
0 
0 
0 
151 
147 
130 
104 
70 
27 
0 
0 
0 
0 
0 
0 
0 
0 
0 
0 
0 
0 
0 
0 
0 
0 
145 
151 
141 
120 
91 
53 
1 
0 
0 
0 
0 
0 
0 
0 
0 
0 
0 
0 
0 
0 
0 
0 
135 
151 
148 
133 
110 
77 
32 
0 
0 
0 
0 
175 
162 
140 
111 
76 
37 
0 
0 
0 
0 
0 
0 
0 
0 
0 
0 
0 
0 
0 
0 
0 
0 
172 
172 
155 
131 
100 
63 
19 
0 
0 
0 
0 
0 
0 
0 
0 
0 
0 
0 
0 
0 
0 
0 
159 
175 
167 
148 
121 
88 
47 
0 
0 
0 
0 
0 
0 
0 
0 
0 
0 
0 
0 
0 
0 
0 
132 
173 
173 
161 
140 
111 
75 
27 
0 
0 
0 
0 
0 
0 
0 
0 
0 
0 
0 
0 
0 
0 
0 
166 
175 
169 
154 
131 
100 
59 
1 
0 
0 
0 
186 
171 
148 
118 
84 
45 
0 
0 
0 
0 
0 
0 
0 
0 
0 
0 
0 
0 
0 
0 
0 
0 
187 
182 
165 
140 
109 
72 
28 
0 
0 
0 
0 
0 
0 
0 
0 
0 
0 
0 
0 
0 
0 
0 
179 
187 
177 
158 
131 
98 
58 
8 
0 
0 
0 
0 
0 
0 
0 
0 
0 
0 
0 
0 
0 
0 
161 
187 
185 
172 
151 
123 
87 
41 
0 
0 
0 
0 
0 
0 
0 
0 
0 
0 
0 
0 
0 
0 
133 
181 
188 
181 
166 
143 
113 
73 
19 
0 
0 
0 
190 
174 
151 
121 
87 
47 
2 
0 
0 
0 
0 
0 
0 
0 
0 
0 
0 
0 
0 
0 
0 
0 
190 
186 
168 
143 
112 
75 
31 
0 
0 
0 
0 
0 
0 
0 
0 
0 
0 
0 
0 
0 
0 
0 
181 
191 
181 
162 
135 
102 
62 
11 
0 
0 
0 
0 
0 
0 
0 
0 
0 
0 
0 
0 
0 
0 
160 
190 
189 
176 
155 
127 
91 
46 
0 
0 
0 
0 
0 
0 
0 
0 
0 
0 
0 
0 
0 
0 
121 
183 
191 
185 
170 
148 
118 
78 
25 
0 
0 
0 
185 
172 
148 
119 
84 
44 
0 
0 
0 
0 
0 
0 
0 
0 
0 
0 
0 
0 
0 
0 
0 
0 
182 
182 
165 
141 
110 
72 
27 
0 
0 
0 
0 
0 
0 
0 
0 
0 
0 
0 
0 
0 
0 
0 
163 
185 
177 
159 
132 
99 
58 
5 
0 
0 
0 
0 
0 
0 
0 
0 
0 
0 
0 
0 
0 
0 
0 
181 
184 
172 
152 
124 
87 
40 
0 
0 
0 
0 
0 
0 
0 
0 
0 
0 
0 
0 
0 
0 
0 
172 
185 
181 
167 
145 
114 
74 
17 
0 
0 
0 
165 
161 
140 
111 
76 
35 
0 
0 
0 
0 
0 
0 
0 
0 
0 
0 
0 
0 
0 
0 
0 
0 
0 
167 
154 
131 
100 
61 
14 
0 
0 
0 
0 
0 
0 
0 
0 
0 
0 
0 
0 
0 
0 
0 
0 
165 
164 
147 
122 
88 
44 
0 
0 
0 
0 
0 
0 
0 
0 
0 
0 
0 
0 
0 
0 
0 
0 
153 
167 
159 
140 
111 
74 
22 
0 
0 
0 
0 
0 
0 
0 
0 
0 
0 
0 
0 
0 
0 
0 
129 
165 
166 
153 
131 
100 
56 
0 
0 
0 
0 
0 
130 
119 
93 
57 
12 
0 
0 
0 
0 
0 
0 
0 
0 
0 
0 
0 
0 
0 
0 
0 
0 
0 
0 
129 
109 
79 
37 
0 
0 
0 
0 
0 
0 
0 
0 
0 
0 
0 
0 
0 
0 
0 
0 
0 
0 
131 
122 
98 
62 
10 
0 
0 
0 
0 
0 
0 
0 
0 
0 
0 
0 
0 
0 
0 
0 
0 
0 
123 
129 
113 
84 
41 
0 
0 
0 
0 
0 
0 
0 
0 
0 
0 
0 
0 
0 
0 
0 
0 
0 
101 
131 
124 
103 
68 
7 
0 
0 
0 
0 
0 
0 
0 
0 
0 
0 
0 
0 
0 
0 
0 
0 
0 
0 
0 
0 
0 
83 
74 
55 
29 
0 
0 
0 
0 
0 
0 
0 
0 
0 
0 
0 
0 
0 
0 
0 
0 
0 
0 
0 
0 
0 
0 
0 
0 
72 
83 
72 
52 
25 
0 
0 
0 
0 
0 
0 
0 
0 
0 
0 
0 
0 
0 
0 
0 
0 
0 
0 
0 
0 
0 
0 
0 
0 
81 
81 
70 
49 
20 
0 
0 
0 
0 
0 
0 
0 
0 
0 
0 
0 
0 
0 
0 
0 
0 
0 
0 
0 
0 
0 
0 
0 
0 
0 
0 
0 
0 
0 
0 
0 
0 
0 
0 
0 
0 
0 
125 
118 
102 
80 
55 
24 
0 
0 
0 
0 
0 
0 
0 
0 
0 
0 
0 
0 
0 
0 
0 
0 
0 
0 
0 
0 
0 
0 
114 
125 
118 
103 
82 
56 
25 
0 
0 
0 
0 
0 
0 
0 
0 
0 
0 
0 
0 
0 
0 
0 
0 
0 
0 
0 
0 
0 
0 
120 
125 
118 
104 
84 
58 
25 
0 
0 
0 
0 
0 
0 
0 
0 
0 
0 
0 
0 
0 
0 
0 
0 
0 
0 
0 
0 
0 
0 
0 
0 
0 
0 
0 
0 
0 
0 
0 
0 
0 
0 
0 
150 
149 
137 
120 
98 
72 
42 
8 
0 
0 
0 
0 
0 
0 
0 
0 
0 
0 
0 
0 
0 
0 
0 
0 
0 
0 
0 
0 
0 
151 
150 
140 
123 
103 
77 
47 
10 
0 
0 
0 
0 
0 
0 
0 
0 
0 
0 
0 
0 
0 
0 
0 
0 
0 
0 
0 
0 
136 
151 
150 
141 
127 
107 
82 
52 
13 
0 
0 
0 
0 
0 
0 
0 
0 
0 
0 
0 
0 
0 
0 
0 
0 
0 
0 
0 
0 
0 
0 
0 
0 
0 
0 
0 
0 
0 
0 
0 
0 
0 
140 
171 
165 
151 
132 
110 
84 
55 
21 
0 
0 
0 
0 
0 
0 
0 
0 
0 
0 
0 
0 
0 
0 
0 
0 
0 
0 
0 
0 
159 
171 
166 
155 
138 
117 
92 
62 
27 
0 
0 
0 
0 
0 
0 
0 
0 
0 
0 
0 
0 
0 
0 
0 
0 
0 
0 
0 
0 
163 
171 
168 
158 
143 
124 
99 
70 
34 
0 
0 
0 
0 
0 
0 
0 
0 
0 
0 
0 
0 
0 
0 
0 
0 
0 
0 
0 
0 
0 
0 
0 
0 
0 
0 
0 
0 
0 
0 
0 
0 
0 
175 
183 
175 
160 
141 
118 
93 
63 
30 
0 
0 
0 
0 
0 
0 
0 
0 
0 
0 
0 
0 
0 
0 
0 
0 
0 
0 
0 
0 
177 
183 
177 
165 
148 
127 
102 
73 
38 
0 
0 
0 
0 
0 
0 
0 
0 
0 
0 
0 
0 
0 
0 
0 
0 
0 
0 
0 
143 
177 
183 
179 
169 
154 
135 
111 
83 
48 
4 
0 
0 
0 
0 
0 
0 
0 
0 
0 
0 
0 
0 
0 
0 
0 
0 
0 
0 
0 
0 
0 
0 
0 
0 
0 
0 
0 
0 
0 
0 
0 
0 
184 
189 
180 
165 
146 
123 
98 
68 
35 
0 
0 
0 
0 
0 
0 
0 
0 
0 
0 
0 
0 
0 
0 
0 
0 
0 
0 
0 
0 
184 
190 
183 
171 
154 
133 
108 
79 
45 
4 
0 
0 
0 
0 
0 
0 
0 
0 
0 
0 
0 
0 
0 
0 
0 
0 
0 
0 
152 
184 
190 
186 
176 
161 
142 
118 
90 
56 
13 
0 
0 
0 
0 
0 
0 
0 
0 
0 
0 
0 
0 
0 
0 
0 
0 
0 
0 
0 
0 
0 
0 
0 
0 
0 
0 
0 
0 
0 
0 
0 
0 
184 
191 
182 
167 
148 
125 
99 
70 
37 
0 
0 
0 
0 
0 
0 
0 
0 
0 
0 
0 
0 
0 
0 
0 
0 
0 
0 
0 
0 
184 
191 
185 
173 
156 
135 
110 
81 
47 
6 
0 
0 
0 
0 
0 
0 
0 
0 
0 
0 
0 
0 
0 
0 
0 
0 
0 
0 
139 
184 
191 
188 
178 
163 
144 
121 
93 
58 
15 
0 
0 
0 
0 
0 
0 
0 
0 
0 
0 
0 
0 
0 
0 
0 
0 
0 
0 
0 
0 
0 
0 
0 
0 
0 
0 
0 
0 
0 
0 
0 
0 
166 
187 
180 
166 
147 
124 
98 
68 
34 
0 
0 
0 
0 
0 
0 
0 
0 
0 
0 
0 
0 
0 
0 
0 
0 
0 
0 
0 
0 
173 
187 
183 
171 
155 
134 
109 
79 
44 
1 
0 
0 
0 
0 
0 
0 
0 
0 
0 
0 
0 
0 
0 
0 
0 
0 
0 
0 
0 
175 
186 
184 
176 
161 
143 
119 
90 
55 
9 
0 
0 
0 
0 
0 
0 
0 
0 
0 
0 
0 
0 
0 
0 
0 
0 
0 
0 
0 
0 
0 
0 
0 
0 
0 
0 
0 
0 
0 
0 
0 
0 
0 
174 
172 
160 
141 
119 
93 
62 
27 
0 
0 
0 
0 
0 
0 
0 
0 
0 
0 
0 
0 
0 
0 
0 
0 
0 
0 
0 
0 
0 
174 
174 
164 
148 
128 
102 
72 
35 
0 
0 
0 
0 
0 
0 
0 
0 
0 
0 
0 
0 
0 
0 
0 
0 
0 
0 
0 
0 
148 
173 
175 
168 
154 
136 
112 
82 
45 
0 
0 
0 
0 
0 
0 
0 
0 
0 
0 
0 
0 
0 
0 
0 
0 
0 
0 
0 
0 
0 
0 
0 
0 
0 
0 
0 
0 
0 
0 
0 
0 
0 
0 
0 
155 
147 
130 
108 
82 
50 
12 
0 
0 
0 
0 
0 
0 
0 
0 
0 
0 
0 
0 
0 
0 
0 
0 
0 
0 
0 
0 
0 
134 
156 
150 
135 
115 
89 
57 
16 
0 
0 
0 
0 
0 
0 
0 
0 
0 
0 
0 
0 
0 
0 
0 
0 
0 
0 
0 
0 
0 
142 
155 
152 
140 
121 
97 
65 
22 
0 
0 
0 
0 
0 
0 
0 
0 
0 
0 
0 
0 
0 
0 
0 
0 
0 
0 
0 
0 
0 
0 
0 
0 
0 
0 
0 
0 
0 
0 
0 
0 
0 
0 
0 
0 
119 
109 
88 
61 
25 
0 
0 
0 
0 
0 
0 
0 
0 
0 
0 
0 
0 
0 
0 
0 
0 
0 
0 
0 
0 
0 
0 
0 
0 
119 
110 
91 
64 
26 
0 
0 
0 
0 
0 
0 
0 
0 
0 
0 
0 
0 
0 
0 
0 
0 
0 
0 
0 
0 
0 
0 
0 
99 
119 
112 
94 
67 
26 
0 
0 
0 
0 
0 
0 
0 
0 
0 
0 
0 
0 
0 
0 
0 
0 
0 
0 
0 
0 
0 
0 
0 
0 
0 
0 
0 
0 
0 
0 
0 
0 
0 
0 
0 
0 
0 
0 
0 
0 
0 
0 
0 
0 
0 
0 
0 
0 
0 
0 
0 
0 
0 
0 
0 
0 
0 
0 
0 
0 
0 
0 
0 
0 
0 
0 
0 
0 
0 
0 
0 
0 
0 
0 
0 
0 
0 
0 
0 
0 
0 
0 
0 
0 
0 
0 
0 
0 
0 
0 
0 
0 
0 
0 
0 
0 
0 
0 
0 
0 
0 
0 
0 
0 
0 
0 
0 
0 
0 
0 
0 
0 
0 
0 
0 
0 
0 
0 