P2 100 100 255
0 
0 
0 
0 
0 
0 
0 
0 
0 
0 
0 
0 
0 
0 
0 
0 
0 
0 
0 
0 
0 
0 
0 
0 
0 
0 
0 
0 
0 
0 
0 
0 
0 
0 
0 
0 
0 
0 
0 
0 
0 
0 
0 
0 
0 
0 
0 
0 
0 
0 
0 
0 
0 
0 
0 
0 
59 
93 
110 
123 
133 
142 
149 
156 
162 
167 
172 
176 
180 
183 
186 
189 
191 
194 
196 
197 
199 
200 
201 
202 
203 
203 
204 
204 
204 
204 
203 
203 
202 
201 
200 
199 
197 
195 
193 
191 
188 
186 
183 
179 
0 
0 
0 
0 
0 
0 
0 
0 
0 
0 
0 
0 
0 
0 
0 
0 
0 
0 
0 
0 
0 
0 
0 
0 
0 
0 
0 
0 
0 
0 
0 
0 
0 
0 
0 
0 
0 
0 
0 
0 
0 
0 
0 
0 
0 
0 
0 
0 
0 
0 
0 
0 
0 
0 
0 
0 
68 
96 
112 
124 
134 
143 
150 
156 
162 
167 
172 
176 
180 
183 
186 
189 
191 
194 
196 
197 
199 
200 
201 
202 
203 
203 
204 
204 
204 
204 
203 
203 
202 
201 
200 
198 
197 
195 
193 
191 
188 
186 
183 
179 
0 
0 
0 
0 
0 
0 
0 
0 
0 
0 
0 
0 
0 
0 
0 
0 
0 
0 
0 
0 
0 
0 
0 
0 
0 
0 
0 
0 
0 
0 
0 
0 
0 
0 
0 
0 
0 
0 
0 
0 
0 
0 
0 
0 
0 
0 
0 
0 
0 
0 
0 
0 
0 
0 
0 
0 
73 
97 
113 
125 
135 
143 
150 
157 
162 
167 
172 
176 
180 
183 
186 
189 
191 
193 
195 
197 
199 
200 
201 
202 
203 
203 
203 
204 
204 
203 
203 
202 
202 
201 
200 
198 
197 
195 
193 
191 
188 
186 
183 
179 
0 
0 
0 
0 
0 
0 
0 
0 
0 
0 
0 
0 
0 
0 
0 
0 
0 
0 
0 
0 
0 
0 
0 
0 
0 
0 
0 
0 
0 
0 
0 
0 
0 
0 
0 
0 
0 
0 
0 
0 
0 
0 
0 
0 
0 
0 
0 
0 
0 
0 
0 
0 
0 
0 
0 
0 
76 
98 
113 
125 
135 
143 
150 
156 
162 
167 
171 
176 
179 
183 
186 
188 
191 
193 
195 
197 
198 
199 
201 
201 
202 
203 
203 
203 
203 
203 
203 
202 
201 
200 
199 
198 
196 
195 
193 
190 
188 
185 
182 
179 
0 
0 
0 
0 
0 
0 
0 
0 
0 
0 
0 
0 
0 
0 
0 
0 
0 
0 
0 
0 
0 
0 
0 
0 
0 
0 
0 
0 
0 
0 
0 
0 
0 
0 
0 
0 
0 
0 
0 
0 
0 
0 
0 
0 
0 
0 
0 
0 
0 
0 
0 
0 
0 
0 
0 
0 
77 
99 
113 
125 
134 
143 
150 
156 
161 
166 
171 
175 
179 
182 
185 
188 
190 
192 
194 
196 
198 
199 
200 
201 
202 
202 
202 
203 
203 
202 
202 
201 
201 
200 
199 
197 
196 
194 
192 
190 
187 
185 
182 
178 
0 
0 
0 
0 
0 
0 
0 
0 
0 
0 
0 
0 
0 
0 
0 
0 
0 
0 
0 
0 
0 
0 
0 
0 
0 
0 
0 
0 
0 
0 
0 
0 
0 
0 
0 
0 
0 
0 
0 
0 
0 
0 
0 
0 
0 
0 
0 
0 
0 
0 
0 
0 
0 
0 
0 
65 
85 
95 
103 
109 
134 
142 
149 
155 
161 
166 
170 
174 
178 
181 
184 
187 
189 
192 
194 
195 
197 
198 
199 
200 
201 
201 
202 
202 
202 
202 
201 
201 
200 
199 
198 
196 
195 
193 
191 
189 
187 
184 
181 
178 
0 
0 
0 
0 
0 
0 
0 
0 
0 
0 
0 
0 
0 
0 
0 
0 
0 
0 
0 
0 
0 
0 
0 
0 
0 
0 
0 
0 
0 
0 
0 
0 
0 
0 
0 
0 
0 
0 
0 
0 
0 
0 
0 
0 
0 
0 
0 
0 
0 
0 
0 
0 
0 
0 
72 
89 
99 
107 
113 
118 
123 
126 
148 
154 
160 
165 
169 
173 
177 
180 
183 
186 
188 
191 
193 
194 
196 
197 
198 
199 
200 
200 
201 
201 
201 
201 
200 
200 
199 
198 
197 
195 
194 
192 
190 
188 
186 
183 
180 
177 
0 
0 
0 
0 
0 
0 
0 
0 
0 
0 
0 
0 
0 
0 
0 
0 
0 
0 
0 
0 
0 
0 
0 
0 
0 
0 
0 
0 
0 
0 
0 
0 
0 
0 
0 
0 
0 
0 
0 
0 
0 
0 
0 
0 
0 
0 
0 
0 
0 
0 
0 
0 
0 
75 
91 
102 
109 
116 
121 
125 
129 
133 
135 
138 
140 
163 
168 
172 
176 
179 
182 
185 
187 
189 
191 
193 
195 
196 
197 
198 
199 
199 
199 
200 
200 
199 
199 
198 
198 
197 
196 
194 
193 
191 
189 
187 
184 
182 
179 
176 
0 
0 
0 
0 
0 
0 
0 
0 
0 
0 
0 
0 
0 
0 
0 
0 
0 
0 
0 
0 
0 
0 
0 
0 
0 
0 
0 
0 
0 
0 
0 
0 
0 
0 
0 
0 
0 
0 
0 
0 
0 
0 
0 
0 
0 
0 
0 
0 
0 
0 
0 
0 
76 
92 
103 
111 
117 
123 
128 
132 
135 
138 
140 
143 
145 
146 
147 
171 
174 
178 
181 
183 
186 
188 
190 
192 
193 
195 
196 
197 
197 
198 
198 
198 
198 
198 
198 
197 
196 
195 
194 
193 
191 
190 
188 
186 
183 
180 
177 
174 
0 
0 
0 
0 
0 
0 
0 
0 
0 
0 
0 
0 
0 
0 
0 
0 
0 
0 
0 
0 
0 
0 
0 
0 
0 
0 
0 
0 
0 
0 
0 
0 
0 
0 
0 
0 
0 
0 
0 
0 
0 
0 
0 
0 
0 
0 
0 
0 
0 
0 
0 
74 
92 
103 
111 
118 
124 
129 
133 
137 
140 
143 
145 
147 
149 
150 
151 
152 
153 
176 
179 
182 
184 
186 
188 
190 
192 
193 
194 
195 
196 
196 
197 
197 
197 
197 
196 
196 
195 
194 
193 
191 
190 
188 
186 
184 
182 
179 
176 
173 
0 
0 
0 
0 
0 
0 
0 
0 
0 
0 
0 
0 
0 
0 
0 
0 
0 
0 
0 
0 
0 
0 
0 
0 
0 
0 
0 
0 
0 
0 
0 
0 
0 
0 
0 
0 
0 
0 
0 
0 
0 
0 
0 
0 
0 
0 
0 
0 
0 
0 
69 
90 
102 
111 
118 
124 
130 
134 
138 
141 
144 
147 
149 
151 
153 
154 
155 
156 
157 
157 
157 
180 
182 
185 
187 
188 
190 
191 
192 
193 
194 
195 
195 
195 
195 
195 
195 
194 
193 
192 
191 
190 
188 
186 
184 
182 
180 
177 
174 
171 
0 
0 
0 
0 
0 
0 
0 
0 
0 
0 
0 
0 
0 
0 
0 
0 
0 
0 
0 
0 
0 
0 
0 
0 
0 
0 
0 
0 
0 
0 
0 
0 
0 
0 
0 
0 
0 
0 
0 
0 
0 
0 
0 
0 
0 
0 
0 
0 
0 
58 
86 
100 
110 
118 
124 
130 
134 
139 
142 
145 
148 
151 
153 
154 
156 
157 
158 
159 
160 
160 
160 
160 
160 
183 
185 
187 
188 
189 
191 
191 
192 
193 
193 
193 
193 
193 
193 
192 
191 
190 
189 
188 
186 
185 
183 
180 
178 
175 
172 
169 
0 
0 
0 
0 
0 
0 
0 
0 
0 
0 
0 
0 
0 
0 
0 
0 
0 
0 
0 
0 
0 
0 
0 
0 
0 
0 
0 
0 
0 
0 
0 
0 
0 
0 
0 
0 
0 
0 
0 
0 
0 
0 
0 
0 
0 
0 
0 
0 
0 
81 
97 
108 
116 
123 
129 
134 
139 
143 
146 
149 
152 
154 
156 
158 
159 
160 
161 
162 
163 
163 
163 
163 
163 
162 
162 
184 
186 
187 
188 
189 
190 
191 
191 
191 
191 
191 
191 
190 
189 
188 
187 
186 
184 
182 
180 
178 
176 
173 
170 
166 
0 
0 
0 
0 
0 
0 
0 
0 
0 
0 
0 
0 
0 
0 
0 
0 
0 
0 
0 
0 
0 
0 
0 
0 
0 
0 
0 
0 
0 
0 
0 
0 
0 
0 
0 
0 
0 
0 
0 
0 
0 
0 
0 
0 
0 
0 
0 
0 
72 
92 
105 
114 
122 
128 
133 
138 
142 
146 
149 
152 
155 
157 
159 
160 
162 
163 
164 
165 
165 
165 
166 
166 
165 
165 
164 
163 
162 
185 
186 
187 
188 
188 
189 
189 
189 
189 
188 
188 
187 
186 
185 
183 
182 
180 
178 
176 
173 
170 
167 
164 
0 
0 
0 
0 
0 
0 
0 
0 
0 
0 
0 
0 
0 
0 
0 
0 
0 
0 
0 
0 
0 
0 
0 
0 
0 
0 
0 
0 
0 
0 
0 
0 
0 
0 
0 
0 
0 
0 
0 
0 
0 
0 
0 
0 
0 
0 
0 
0 
85 
100 
111 
119 
126 
132 
137 
142 
145 
149 
152 
155 
157 
159 
161 
163 
164 
165 
166 
167 
167 
168 
168 
168 
168 
167 
166 
166 
165 
164 
162 
185 
185 
186 
186 
187 
187 
186 
186 
185 
185 
184 
182 
181 
179 
178 
175 
173 
171 
168 
165 
161 
0 
0 
0 
0 
0 
0 
0 
0 
0 
0 
0 
0 
0 
0 
0 
0 
0 
0 
0 
0 
0 
0 
0 
0 
0 
0 
0 
0 
0 
0 
0 
0 
0 
0 
0 
0 
0 
0 
0 
0 
0 
0 
0 
0 
0 
0 
0 
74 
94 
106 
116 
123 
130 
135 
140 
144 
148 
152 
155 
157 
160 
162 
163 
165 
166 
167 
168 
169 
169 
170 
170 
170 
169 
169 
168 
168 
167 
166 
164 
163 
161 
183 
184 
184 
184 
184 
183 
183 
182 
181 
180 
178 
177 
175 
173 
170 
168 
186 
185 
184 
0 
0 
0 
0 
0 
0 
0 
0 
0 
0 
0 
0 
0 
0 
0 
0 
0 
0 
0 
0 
0 
0 
0 
0 
0 
0 
0 
0 
0 
0 
0 
0 
0 
0 
0 
0 
0 
0 
0 
0 
0 
0 
0 
0 
0 
0 
0 
85 
100 
111 
120 
127 
133 
138 
143 
147 
151 
154 
157 
159 
162 
164 
165 
167 
168 
169 
170 
171 
171 
171 
172 
171 
171 
171 
170 
169 
168 
167 
166 
164 
163 
161 
159 
181 
181 
181 
180 
180 
179 
178 
177 
175 
174 
172 
192 
192 
192 
191 
191 
189 
0 
0 
0 
0 
0 
0 
0 
0 
0 
0 
0 
0 
0 
0 
0 
0 
0 
0 
0 
0 
0 
0 
0 
0 
0 
0 
0 
0 
0 
0 
0 
0 
0 
0 
0 
0 
0 
0 
0 
0 
0 
0 
0 
0 
0 
0 
71 
92 
105 
115 
123 
130 
136 
141 
145 
149 
153 
156 
159 
161 
163 
165 
167 
168 
170 
171 
172 
172 
173 
173 
173 
173 
173 
172 
172 
171 
170 
169 
168 
166 
164 
163 
160 
158 
178 
178 
177 
177 
176 
175 
174 
195 
196 
196 
197 
197 
197 
196 
196 
195 
0 
0 
0 
0 
0 
0 
0 
0 
0 
0 
0 
0 
0 
0 
0 
0 
0 
0 
0 
0 
0 
0 
0 
0 
0 
0 
0 
0 
0 
0 
0 
0 
0 
0 
0 
0 
0 
0 
0 
0 
0 
0 
0 
0 
0 
0 
81 
98 
110 
119 
126 
133 
138 
143 
147 
151 
155 
158 
160 
163 
165 
167 
168 
170 
171 
172 
173 
174 
174 
174 
174 
174 
174 
174 
173 
172 
171 
170 
169 
168 
166 
164 
162 
160 
157 
154 
174 
173 
195 
197 
198 
199 
200 
201 
201 
201 
201 
201 
200 
199 
0 
0 
0 
0 
0 
0 
0 
0 
0 
0 
0 
0 
0 
0 
0 
0 
0 
0 
0 
0 
0 
0 
0 
0 
0 
0 
0 
0 
0 
0 
0 
0 
0 
0 
0 
0 
0 
0 
0 
0 
0 
0 
0 
0 
0 
58 
88 
102 
113 
122 
129 
135 
140 
145 
149 
153 
156 
159 
162 
164 
166 
168 
170 
171 
172 
173 
174 
175 
175 
175 
175 
175 
175 
175 
174 
173 
173 
171 
170 
169 
167 
165 
163 
161 
158 
156 
153 
197 
199 
201 
202 
203 
204 
205 
205 
205 
205 
205 
204 
203 
0 
0 
0 
0 
0 
0 
0 
0 
0 
0 
0 
0 
0 
0 
0 
0 
0 
0 
0 
0 
0 
0 
0 
0 
0 
0 
0 
0 
0 
0 
0 
0 
0 
0 
0 
0 
0 
0 
0 
0 
0 
0 
0 
0 
0 
71 
92 
106 
116 
124 
131 
137 
142 
147 
151 
154 
157 
160 
163 
165 
167 
169 
171 
172 
173 
174 
175 
176 
176 
176 
176 
176 
176 
176 
175 
174 
173 
172 
171 
170 
168 
166 
164 
162 
160 
157 
199 
201 
203 
205 
206 
207 
208 
209 
209 
209 
209 
208 
208 
207 
0 
0 
0 
0 
0 
0 
0 
0 
0 
0 
0 
0 
0 
0 
0 
0 
0 
0 
0 
0 
0 
0 
0 
0 
0 
0 
0 
0 
0 
0 
0 
0 
0 
0 
0 
0 
0 
0 
0 
0 
0 
0 
0 
0 
0 
78 
96 
108 
118 
126 
132 
138 
143 
148 
152 
155 
159 
161 
164 
166 
168 
170 
172 
173 
174 
175 
176 
176 
177 
177 
177 
177 
177 
176 
176 
175 
174 
173 
172 
171 
169 
167 
165 
163 
160 
158 
202 
204 
206 
208 
209 
210 
211 
212 
212 
212 
212 
212 
211 
210 
0 
0 
0 
0 
0 
0 
0 
0 
0 
0 
0 
0 
0 
0 
0 
0 
0 
0 
0 
0 
0 
0 
0 
0 
0 
0 
0 
0 
0 
0 
0 
0 
0 
0 
0 
0 
0 
0 
0 
0 
0 
0 
0 
0 
0 
83 
99 
111 
120 
127 
134 
139 
144 
149 
153 
156 
159 
162 
165 
167 
169 
171 
172 
174 
175 
176 
176 
177 
177 
178 
178 
178 
177 
177 
176 
176 
175 
174 
173 
171 
170 
168 
166 
164 
161 
159 
205 
207 
209 
211 
212 
213 
214 
215 
215 
215 
215 
215 
214 
213 
0 
0 
0 
0 
0 
0 
0 
0 
0 
0 
0 
0 
0 
0 
0 
0 
0 
0 
0 
0 
0 
0 
0 
0 
0 
0 
0 
0 
0 
0 
0 
0 
0 
0 
0 
0 
0 
0 
0 
0 
0 
0 
0 
0 
54 
86 
101 
112 
121 
128 
135 
140 
145 
150 
153 
157 
160 
163 
165 
167 
169 
171 
173 
174 
175 
176 
177 
177 
178 
178 
178 
178 
178 
177 
177 
176 
175 
174 
173 
172 
170 
168 
166 
164 
162 
206 
208 
210 
212 
214 
215 
216 
217 
217 
218 
218 
218 
217 
217 
216 
0 
0 
0 
0 
0 
0 
0 
0 
0 
0 
0 
0 
0 
0 
0 
0 
0 
0 
0 
0 
0 
0 
0 
0 
0 
0 
0 
0 
0 
0 
0 
0 
0 
0 
0 
0 
0 
0 
0 
0 
0 
0 
0 
0 
63 
88 
103 
113 
122 
129 
135 
141 
146 
150 
154 
157 
160 
163 
166 
168 
170 
171 
173 
174 
175 
176 
177 
178 
178 
178 
178 
178 
178 
178 
177 
176 
176 
174 
173 
172 
170 
169 
167 
164 
162 
208 
211 
213 
214 
216 
217 
218 
219 
220 
220 
220 
220 
219 
219 
218 
0 
0 
0 
0 
0 
0 
0 
0 
0 
0 
0 
0 
0 
0 
0 
0 
0 
0 
0 
0 
0 
0 
0 
0 
0 
0 
0 
0 
0 
0 
0 
0 
0 
0 
0 
0 
0 
0 
0 
0 
0 
0 
0 
0 
67 
90 
104 
114 
123 
130 
136 
141 
146 
150 
154 
157 
161 
163 
166 
168 
170 
172 
173 
174 
176 
176 
177 
178 
178 
178 
178 
178 
178 
178 
177 
177 
176 
175 
173 
172 
170 
169 
167 
165 
162 
210 
213 
215 
216 
218 
219 
220 
221 
222 
222 
222 
222 
222 
221 
220 
0 
0 
0 
0 
0 
0 
0 
0 
0 
0 
0 
0 
0 
0 
0 
0 
0 
0 
0 
0 
0 
0 
0 
0 
0 
0 
0 
0 
0 
0 
0 
0 
0 
0 
0 
0 
0 
0 
0 
0 
0 
0 
0 
0 
69 
91 
104 
114 
123 
130 
136 
141 
146 
150 
154 
157 
161 
163 
166 
168 
170 
172 
173 
174 
175 
176 
177 
178 
178 
178 
178 
178 
178 
178 
177 
176 
176 
175 
173 
172 
170 
169 
167 
165 
210 
212 
215 
217 
218 
220 
221 
222 
223 
223 
224 
224 
224 
223 
223 
222 
0 
0 
0 
0 
0 
0 
0 
0 
0 
0 
0 
0 
0 
0 
0 
0 
0 
0 
0 
0 
0 
0 
0 
0 
0 
0 
0 
0 
0 
0 
0 
0 
0 
0 
0 
0 
0 
0 
0 
0 
0 
0 
0 
0 
70 
91 
104 
114 
123 
130 
136 
141 
146 
150 
154 
157 
160 
163 
165 
168 
170 
171 
173 
174 
175 
176 
177 
177 
178 
178 
178 
178 
178 
177 
177 
176 
175 
174 
173 
172 
170 
168 
166 
164 
212 
214 
216 
218 
220 
221 
223 
223 
224 
225 
225 
225 
225 
225 
224 
223 
0 
0 
0 
0 
0 
0 
0 
0 
0 
0 
0 
0 
0 
0 
0 
0 
0 
0 
0 
0 
0 
0 
0 
0 
0 
0 
0 
0 
0 
0 
0 
0 
0 
0 
0 
0 
0 
0 
0 
0 
0 
0 
0 
0 
70 
91 
104 
114 
122 
129 
135 
141 
145 
150 
153 
157 
160 
163 
165 
167 
169 
171 
172 
174 
175 
176 
176 
177 
177 
178 
178 
178 
177 
177 
177 
176 
175 
174 
173 
171 
170 
168 
166 
164 
213 
215 
218 
220 
221 
223 
224 
225 
226 
226 
226 
226 
226 
226 
226 
225 
0 
0 
0 
0 
0 
0 
0 
0 
0 
0 
0 
0 
0 
0 
0 
0 
0 
0 
0 
0 
0 
0 
0 
0 
0 
0 
0 
0 
0 
0 
0 
0 
0 
0 
0 
0 
0 
0 
0 
0 
0 
0 
0 
0 
69 
90 
103 
113 
122 
129 
135 
140 
145 
149 
153 
156 
159 
162 
164 
167 
169 
170 
172 
173 
174 
175 
176 
176 
177 
177 
177 
177 
177 
177 
176 
175 
174 
173 
172 
171 
169 
167 
166 
212 
214 
217 
219 
221 
222 
224 
225 
226 
227 
227 
227 
228 
227 
227 
227 
226 
0 
0 
0 
0 
0 
0 
0 
0 
0 
0 
0 
0 
0 
0 
0 
0 
0 
0 
0 
0 
0 
0 
0 
0 
0 
0 
0 
0 
0 
0 
0 
0 
0 
0 
0 
0 
0 
0 
0 
0 
0 
0 
0 
0 
66 
88 
102 
112 
121 
128 
134 
139 
144 
148 
152 
155 
158 
161 
164 
166 
168 
170 
171 
172 
173 
174 
175 
176 
176 
176 
177 
176 
176 
176 
175 
175 
174 
173 
171 
170 
168 
167 
165 
212 
215 
217 
220 
221 
223 
225 
226 
227 
227 
228 
228 
228 
228 
228 
227 
227 
0 
0 
0 
0 
0 
0 
0 
0 
0 
0 
0 
0 
0 
0 
0 
0 
0 
0 
0 
0 
0 
0 
0 
0 
0 
0 
0 
0 
0 
0 
0 
0 
0 
0 
0 
0 
0 
0 
0 
0 
0 
0 
0 
0 
62 
86 
100 
111 
119 
126 
133 
138 
143 
147 
151 
154 
157 
160 
163 
165 
167 
169 
170 
171 
173 
174 
174 
175 
175 
176 
176 
176 
175 
175 
174 
174 
173 
172 
171 
169 
168 
166 
164 
213 
216 
218 
220 
222 
224 
225 
226 
227 
228 
229 
229 
229 
229 
229 
228 
227 
0 
0 
0 
0 
0 
0 
0 
0 
0 
0 
0 
0 
0 
0 
0 
0 
0 
0 
0 
0 
0 
0 
0 
0 
0 
0 
0 
0 
0 
0 
0 
0 
0 
0 
0 
0 
0 
0 
0 
0 
0 
0 
0 
0 
56 
83 
98 
109 
117 
125 
131 
137 
141 
146 
150 
153 
156 
159 
162 
164 
166 
167 
169 
170 
172 
172 
173 
174 
174 
175 
175 
175 
174 
174 
173 
173 
172 
171 
169 
168 
167 
165 
211 
214 
216 
219 
221 
223 
224 
226 
227 
228 
228 
229 
229 
229 
229 
229 
228 
228 
0 
0 
0 
0 
0 
0 
0 
0 
0 
0 
0 
0 
0 
0 
0 
0 
0 
0 
0 
0 
0 
0 
0 
0 
0 
0 
0 
0 
0 
0 
0 
0 
0 
0 
0 
0 
0 
0 
0 
0 
0 
0 
0 
0 
43 
79 
95 
106 
115 
123 
129 
135 
140 
144 
148 
152 
155 
158 
160 
162 
164 
166 
168 
169 
170 
171 
172 
173 
173 
173 
173 
173 
173 
173 
172 
171 
171 
170 
168 
167 
165 
164 
211 
214 
216 
219 
221 
223 
224 
226 
227 
228 
229 
229 
229 
229 
229 
229 
229 
228 
0 
0 
0 
0 
0 
0 
0 
0 
0 
0 
0 
0 
0 
0 
0 
0 
0 
0 
0 
0 
0 
0 
0 
0 
0 
0 
0 
0 
0 
0 
0 
0 
0 
0 
0 
0 
0 
0 
0 
0 
0 
0 
0 
0 
0 
74 
91 
103 
113 
120 
127 
133 
138 
142 
146 
150 
153 
156 
159 
161 
163 
165 
166 
168 
169 
170 
171 
171 
172 
172 
172 
172 
172 
171 
171 
170 
169 
168 
167 
165 
164 
162 
211 
214 
216 
219 
221 
223 
224 
226 
227 
228 
229 
229 
229 
229 
229 
229 
229 
228 
0 
0 
0 
0 
0 
0 
0 
0 
0 
0 
0 
0 
0 
0 
0 
0 
0 
0 
0 
0 
0 
0 
0 
0 
0 
0 
0 
0 
0 
0 
0 
0 
0 
0 
0 
0 
0 
0 
0 
0 
0 
0 
0 
0 
0 
68 
87 
100 
110 
118 
125 
130 
136 
140 
144 
148 
151 
154 
157 
159 
161 
163 
165 
166 
167 
168 
169 
170 
170 
170 
170 
170 
170 
170 
169 
169 
168 
167 
165 
164 
162 
208 
211 
214 
216 
219 
221 
222 
224 
225 
227 
228 
228 
229 
229 
229 
229 
229 
228 
228 
0 
0 
0 
0 
0 
0 
0 
0 
0 
0 
0 
0 
0 
0 
0 
0 
0 
0 
0 
0 
0 
0 
0 
0 
0 
0 
0 
0 
0 
0 
0 
0 
0 
0 
0 
0 
0 
0 
0 
0 
0 
0 
0 
0 
0 
59 
82 
96 
106 
115 
122 
128 
133 
138 
142 
146 
149 
152 
155 
157 
159 
161 
163 
164 
165 
166 
167 
168 
168 
169 
169 
169 
168 
168 
168 
167 
166 
165 
164 
162 
161 
207 
210 
213 
216 
218 
220 
222 
224 
225 
226 
227 
228 
228 
229 
229 
229 
228 
228 
227 
0 
0 
0 
0 
0 
0 
0 
0 
0 
0 
0 
0 
0 
0 
0 
0 
0 
0 
0 
0 
0 
0 
0 
0 
0 
0 
0 
0 
0 
0 
0 
0 
0 
0 
0 
0 
0 
0 
0 
0 
0 
0 
0 
0 
0 
37 
75 
91 
102 
111 
118 
125 
130 
135 
139 
143 
147 
150 
153 
155 
157 
159 
161 
162 
163 
164 
165 
166 
166 
167 
167 
167 
167 
166 
166 
165 
164 
163 
162 
160 
159 
206 
210 
213 
215 
217 
220 
221 
223 
224 
226 
226 
227 
228 
228 
228 
228 
228 
227 
226 
0 
0 
0 
0 
0 
0 
0 
0 
0 
0 
0 
0 
0 
0 
0 
0 
0 
0 
0 
0 
0 
0 
0 
0 
0 
0 
0 
0 
0 
0 
0 
0 
0 
0 
0 
0 
0 
0 
0 
0 
0 
0 
0 
0 
0 
0 
67 
85 
97 
107 
115 
121 
127 
132 
137 
141 
144 
147 
150 
153 
155 
157 
158 
160 
161 
162 
163 
164 
164 
165 
165 
165 
164 
164 
163 
163 
162 
161 
159 
158 
202 
205 
209 
212 
214 
217 
219 
221 
222 
223 
225 
226 
226 
227 
227 
227 
227 
227 
226 
226 
0 
0 
0 
0 
0 
0 
0 
0 
0 
0 
0 
0 
0 
0 
0 
0 
0 
0 
0 
0 
0 
0 
0 
0 
0 
0 
0 
0 
0 
0 
0 
0 
0 
0 
0 
0 
0 
0 
0 
0 
0 
0 
0 
0 
0 
0 
54 
78 
92 
102 
111 
118 
124 
129 
133 
138 
141 
144 
147 
150 
152 
154 
156 
157 
159 
160 
161 
161 
162 
162 
162 
162 
162 
162 
161 
160 
160 
158 
157 
156 
201 
204 
208 
210 
213 
215 
218 
219 
221 
222 
224 
225 
225 
226 
226 
226 
226 
226 
225 
224 
0 
0 
0 
0 
0 
0 
0 
0 
0 
0 
0 
0 
0 
0 
0 
0 
0 
0 
0 
0 
0 
0 
0 
0 
0 
0 
0 
0 
0 
0 
0 
0 
0 
0 
0 
0 
0 
0 
0 
0 
0 
0 
0 
0 
0 
0 
0 
69 
85 
97 
106 
113 
120 
125 
130 
134 
138 
141 
144 
147 
149 
151 
153 
155 
156 
157 
158 
159 
159 
160 
160 
160 
160 
159 
159 
158 
157 
156 
155 
153 
199 
203 
206 
209 
212 
214 
216 
218 
220 
221 
222 
223 
224 
224 
225 
225 
225 
224 
224 
223 
0 
0 
0 
0 
0 
0 
0 
0 
0 
0 
0 
0 
0 
0 
0 
0 
0 
0 
0 
0 
0 
0 
0 
0 
0 
0 
0 
0 
0 
0 
0 
0 
0 
0 
0 
0 
0 
0 
0 
0 
0 
0 
0 
0 
0 
0 
0 
55 
77 
90 
100 
108 
115 
121 
126 
130 
134 
138 
141 
144 
146 
148 
150 
152 
153 
154 
155 
156 
157 
157 
157 
157 
157 
156 
156 
155 
154 
153 
152 
194 
198 
201 
204 
207 
210 
213 
215 
217 
218 
220 
221 
222 
222 
223 
223 
223 
223 
223 
222 
222 
0 
0 
0 
0 
0 
0 
0 
0 
0 
0 
0 
0 
0 
0 
0 
0 
0 
0 
0 
0 
0 
0 
0 
0 
0 
0 
0 
0 
0 
0 
0 
0 
0 
0 
0 
0 
0 
0 
0 
0 
0 
0 
0 
0 
0 
0 
0 
0 
66 
82 
94 
103 
110 
116 
122 
126 
130 
134 
137 
140 
143 
145 
147 
149 
150 
151 
152 
153 
154 
154 
154 
154 
154 
153 
153 
152 
151 
150 
149 
192 
196 
199 
203 
206 
208 
211 
213 
215 
216 
218 
219 
220 
221 
221 
222 
222 
222 
221 
221 
220 
0 
0 
0 
0 
0 
0 
0 
0 
0 
0 
0 
0 
0 
0 
0 
0 
0 
0 
0 
0 
0 
0 
0 
0 
0 
0 
0 
0 
0 
0 
0 
0 
0 
0 
0 
0 
0 
0 
0 
0 
0 
0 
0 
0 
0 
0 
0 
0 
49 
73 
86 
96 
104 
111 
117 
122 
126 
130 
133 
136 
139 
141 
143 
145 
147 
148 
149 
150 
150 
151 
151 
151 
151 
150 
150 
149 
148 
147 
145 
189 
193 
197 
200 
203 
206 
209 
211 
213 
214 
216 
217 
218 
219 
219 
220 
220 
220 
219 
219 
218 
0 
0 
0 
0 
0 
0 
0 
0 
0 
0 
0 
0 
0 
0 
0 
0 
0 
0 
0 
0 
0 
0 
0 
0 
0 
0 
0 
0 
0 
0 
0 
0 
0 
0 
0 
0 
0 
0 
0 
0 
0 
0 
0 
0 
0 
0 
0 
0 
0 
59 
77 
88 
97 
105 
111 
117 
121 
125 
129 
132 
135 
137 
139 
141 
143 
144 
145 
146 
147 
147 
147 
147 
147 
147 
146 
145 
144 
143 
142 
187 
191 
195 
198 
201 
204 
206 
209 
210 
212 
214 
215 
216 
217 
217 
217 
218 
217 
217 
217 
216 
0 
0 
0 
0 
0 
0 
0 
0 
0 
0 
0 
0 
0 
0 
0 
0 
0 
0 
0 
0 
0 
0 
0 
0 
0 
0 
0 
0 
0 
0 
0 
0 
0 
0 
0 
0 
0 
0 
0 
0 
0 
0 
0 
0 
0 
0 
0 
0 
0 
0 
64 
79 
90 
98 
105 
111 
116 
120 
124 
127 
130 
133 
135 
137 
139 
140 
141 
142 
143 
143 
143 
143 
143 
143 
142 
141 
140 
139 
179 
184 
188 
192 
195 
198 
201 
204 
206 
208 
210 
211 
212 
213 
214 
215 
215 
215 
215 
215 
214 
213 
0 
0 
0 
0 
0 
0 
0 
0 
0 
0 
0 
0 
0 
0 
0 
0 
0 
0 
0 
0 
0 
0 
0 
0 
0 
0 
0 
0 
0 
0 
0 
0 
0 
0 
0 
0 
0 
0 
0 
0 
0 
0 
0 
0 
0 
0 
0 
0 
0 
0 
42 
67 
80 
90 
98 
104 
110 
114 
118 
122 
125 
128 
130 
132 
134 
136 
137 
138 
138 
139 
139 
139 
139 
139 
138 
137 
136 
135 
175 
180 
185 
189 
192 
195 
198 
201 
203 
205 
207 
208 
210 
211 
211 
212 
212 
212 
212 
212 
211 
211 
0 
0 
0 
0 
0 
0 
0 
0 
0 
0 
0 
0 
0 
0 
0 
0 
0 
0 
0 
0 
0 
0 
0 
0 
0 
0 
0 
0 
0 
0 
0 
0 
0 
0 
0 
0 
0 
0 
0 
0 
0 
0 
0 
0 
0 
0 
0 
0 
0 
0 
0 
47 
68 
80 
89 
96 
103 
108 
112 
116 
120 
123 
125 
127 
129 
131 
132 
133 
134 
134 
135 
135 
135 
134 
134 
133 
132 
130 
172 
177 
181 
185 
189 
192 
195 
198 
200 
202 
204 
205 
207 
208 
208 
209 
209 
209 
209 
209 
208 
208 
0 
0 
0 
0 
0 
0 
0 
0 
0 
0 
0 
0 
0 
0 
0 
0 
0 
0 
0 
0 
0 
0 
0 
0 
0 
0 
0 
0 
0 
0 
0 
0 
0 
0 
0 
0 
0 
0 
0 
0 
0 
0 
0 
0 
0 
0 
0 
0 
0 
0 
0 
0 
48 
67 
79 
87 
95 
100 
105 
110 
113 
117 
119 
122 
124 
125 
127 
128 
129 
129 
130 
130 
130 
129 
128 
128 
127 
162 
167 
172 
177 
181 
185 
188 
191 
194 
197 
199 
200 
202 
203 
204 
205 
206 
206 
206 
206 
206 
205 
204 
0 
0 
0 
0 
0 
0 
0 
0 
0 
0 
0 
0 
0 
0 
0 
0 
0 
0 
0 
0 
0 
0 
0 
0 
0 
0 
0 
0 
0 
0 
0 
0 
0 
0 
0 
0 
0 
0 
0 
0 
0 
0 
0 
0 
0 
0 
0 
0 
0 
0 
0 
0 
0 
47 
65 
76 
85 
92 
97 
102 
106 
110 
113 
115 
118 
119 
121 
122 
123 
124 
124 
124 
124 
124 
123 
122 
121 
157 
163 
168 
173 
177 
181 
184 
187 
190 
193 
195 
197 
198 
200 
201 
202 
202 
203 
203 
202 
202 
201 
201 
0 
0 
0 
0 
0 
0 
0 
0 
0 
0 
0 
0 
0 
0 
0 
0 
0 
0 
0 
0 
0 
0 
0 
0 
0 
0 
0 
0 
0 
0 
0 
0 
0 
0 
0 
0 
0 
0 
0 
0 
0 
0 
0 
0 
0 
0 
0 
0 
0 
0 
0 
0 
0 
0 
42 
61 
73 
81 
88 
94 
98 
102 
105 
108 
111 
113 
114 
116 
117 
117 
118 
118 
118 
118 
117 
116 
115 
151 
157 
163 
168 
172 
176 
180 
183 
186 
189 
191 
193 
194 
196 
197 
198 
198 
199 
199 
199 
198 
198 
197 
0 
0 
0 
0 
0 
0 
0 
0 
0 
0 
0 
0 
0 
0 
0 
0 
0 
0 
0 
0 
0 
0 
0 
0 
0 
0 
0 
0 
0 
0 
0 
0 
0 
0 
0 
0 
0 
0 
0 
0 
0 
0 
0 
0 
0 
0 
0 
0 
0 
0 
0 
0 
0 
0 
0 
33 
56 
68 
76 
83 
89 
93 
97 
100 
103 
105 
107 
109 
110 
111 
111 
111 
111 
111 
110 
109 
108 
145 
152 
157 
163 
167 
171 
175 
178 
181 
184 
186 
188 
190 
191 
193 
193 
194 
194 
195 
194 
194 
193 
192 
0 
0 
0 
0 
0 
0 
0 
0 
0 
0 
0 
0 
0 
0 
0 
0 
0 
0 
0 
0 
0 
0 
0 
0 
0 
0 
0 
0 
0 
0 
0 
0 
0 
0 
0 
0 
0 
0 
0 
0 
0 
0 
0 
0 
0 
0 
0 
0 
0 
0 
0 
0 
0 
0 
0 
0 
0 
47 
61 
70 
77 
83 
87 
91 
94 
97 
99 
101 
102 
103 
103 
104 
104 
103 
102 
101 
130 
138 
145 
151 
157 
162 
166 
170 
173 
176 
179 
181 
183 
185 
187 
188 
189 
189 
190 
190 
190 
189 
189 
188 
0 
0 
0 
0 
0 
0 
0 
0 
0 
0 
0 
0 
0 
0 
0 
0 
0 
0 
0 
0 
0 
0 
0 
0 
0 
0 
0 
0 
0 
0 
0 
0 
0 
0 
0 
0 
0 
0 
0 
0 
0 
0 
0 
0 
0 
0 
0 
0 
0 
0 
0 
0 
0 
0 
0 
0 
0 
0 
32 
51 
62 
69 
75 
80 
84 
87 
89 
91 
93 
94 
95 
95 
95 
94 
94 
93 
121 
130 
138 
144 
150 
155 
160 
164 
168 
171 
174 
176 
178 
180 
182 
183 
184 
184 
185 
185 
185 
184 
183 
182 
0 
0 
0 
0 
0 
0 
0 
0 
0 
0 
0 
0 
0 
0 
0 
0 
0 
0 
0 
0 
0 
0 
0 
0 
0 
0 
0 
0 
0 
0 
0 
0 
0 
0 
0 
0 
0 
0 
0 
0 
0 
0 
0 
0 
0 
0 
0 
0 
0 
0 
0 
0 
0 
0 
0 
0 
0 
0 
0 
0 
35 
50 
59 
65 
70 
74 
77 
80 
82 
83 
84 
85 
85 
84 
83 
82 
111 
121 
129 
136 
143 
148 
153 
157 
161 
165 
168 
170 
172 
174 
176 
177 
178 
179 
179 
179 
179 
179 
178 
177 
0 
0 
0 
0 
0 
0 
0 
0 
0 
0 
0 
0 
0 
0 
0 
0 
0 
0 
0 
0 
0 
0 
0 
0 
0 
0 
0 
0 
0 
0 
0 
0 
0 
0 
0 
0 
0 
0 
0 
0 
0 
0 
0 
0 
0 
0 
0 
0 
0 
0 
0 
0 
0 
0 
0 
0 
0 
0 
0 
0 
0 
0 
27 
43 
52 
58 
62 
66 
68 
70 
71 
72 
72 
72 
71 
69 
99 
110 
120 
127 
134 
140 
145 
150 
154 
158 
161 
164 
166 
168 
170 
171 
172 
173 
173 
173 
173 
172 
172 
170 
0 
0 
0 
0 
0 
0 
0 
0 
0 
0 
0 
0 
0 
0 
0 
0 
0 
0 
0 
0 
0 
0 
0 
0 
0 
0 
0 
0 
0 
0 
0 
0 
0 
0 
0 
0 
0 
0 
0 
0 
0 
0 
0 
0 
0 
0 
0 
0 
0 
0 
0 
0 
0 
0 
0 
0 
0 
0 
0 
0 
0 
0 
0 
0 
0 
26 
38 
44 
49 
52 
54 
55 
55 
55 
54 
52 
84 
97 
108 
117 
125 
131 
137 
142 
146 
150 
154 
156 
159 
161 
163 
164 
165 
166 
166 
166 
166 
166 
165 
164 
0 
0 
0 
0 
0 
0 
0 
0 
0 
0 
0 
0 
0 
0 
0 
0 
0 
0 
0 
0 
0 
0 
0 
0 
0 
0 
0 
0 
0 
0 
0 
0 
0 
0 
0 
0 
0 
0 
0 
0 
0 
0 
0 
0 
0 
0 
0 
0 
0 
0 
0 
0 
0 
0 
0 
0 
0 
0 
0 
0 
0 
0 
0 
0 
0 
0 
0 
0 
0 
0 
16 
23 
25 
25 
23 
18 
62 
81 
94 
105 
113 
121 
127 
133 
137 
142 
145 
148 
151 
153 
155 
157 
158 
159 
159 
159 
159 
158 
157 
156 
0 
0 
0 
0 
0 
0 
0 
0 
0 
0 
0 
0 
0 
0 
0 
0 
0 
0 
0 
0 
0 
0 
0 
0 
0 
0 
0 
0 
0 
0 
0 
0 
0 
0 
0 
0 
0 
0 
0 
0 
0 
0 
0 
0 
0 
0 
0 
0 
0 
0 
0 
0 
0 
0 
0 
0 
0 
0 
0 
0 
0 
0 
0 
0 
0 
0 
0 
0 
0 
0 
0 
0 
0 
0 
0 
0 
0 
56 
76 
89 
100 
109 
116 
122 
127 
132 
136 
139 
142 
145 
147 
148 
149 
150 
151 
151 
151 
150 
149 
147 
0 
0 
0 
0 
0 
0 
0 
0 
0 
0 
0 
0 
0 
0 
0 
0 
0 
0 
0 
0 
0 
0 
0 
0 
0 
0 
0 
0 
0 
0 
0 
0 
0 
0 
0 
0 
0 
0 
0 
0 
0 
0 
0 
0 
0 
0 
0 
0 
0 
0 
0 
0 
0 
0 
0 
0 
0 
0 
0 
0 
0 
0 
0 
0 
0 
0 
0 
0 
0 
0 
0 
0 
0 
0 
0 
0 
0 
0 
45 
68 
83 
93 
102 
109 
115 
121 
125 
129 
132 
135 
137 
139 
140 
141 
141 
141 
141 
140 
139 
138 
0 
0 
0 
0 
0 
0 
0 
0 
0 
0 
0 
0 
0 
0 
0 
0 
0 
0 
0 
0 
0 
0 
0 
0 
0 
0 
0 
0 
0 
0 
0 
0 
0 
0 
0 
0 
0 
0 
0 
0 
0 
0 
0 
0 
0 
0 
0 
0 
0 
0 
0 
0 
0 
0 
0 
0 
0 
0 
0 
0 
0 
0 
0 
0 
0 
0 
0 
0 
0 
0 
0 
0 
0 
0 
0 
0 
0 
0 
0 
0 
56 
73 
85 
94 
101 
107 
112 
117 
120 
123 
126 
128 
129 
130 
131 
131 
130 
130 
128 
127 
0 
0 
0 
0 
0 
0 
0 
0 
0 
0 
0 
0 
0 
0 
0 
0 
0 
0 
0 
0 
0 
0 
0 
0 
0 
0 
0 
0 
0 
0 
0 
0 
0 
0 
0 
0 
0 
0 
0 
0 
0 
0 
0 
0 
0 
0 
0 
0 
0 
0 
0 
0 
0 
0 
0 
0 
0 
0 
0 
0 
0 
0 
0 
0 
0 
0 
0 
0 
0 
0 
0 
0 
0 
0 
0 
0 
0 
0 
0 
0 
0 
33 
59 
73 
83 
90 
97 
102 
106 
110 
113 
115 
117 
118 
118 
118 
118 
117 
115 
113 
0 
0 
0 
0 
0 
0 
0 
0 
0 
0 
0 
0 
0 
0 
0 
0 
0 
0 
0 
0 
0 
0 
0 
0 
0 
0 
0 
0 
0 
0 
0 
0 
0 
0 
0 
0 
0 
0 
0 
0 
0 
0 
0 
0 
0 
0 
0 
0 
0 
0 
0 
0 
0 
0 
0 
0 
0 
0 
0 
0 
0 
0 
0 
0 
0 
0 
0 
0 
0 
0 
0 
0 
0 
0 
0 
0 
0 
0 
0 
0 
0 
0 
0 
27 
54 
67 
76 
83 
89 
93 
97 
99 
101 
103 
103 
103 
103 
101 
100 
97 
0 
0 
0 
0 
0 
0 
0 
0 
0 
0 
0 
0 
0 
0 
0 
0 
0 
0 
0 
0 
0 
0 
0 
0 
0 
0 
0 
0 
0 
0 
0 
0 
0 
0 
0 
0 
0 
0 
0 
0 
0 
0 
0 
0 
0 
0 
0 
0 
0 
0 
0 
0 
0 
0 
0 
0 
0 
0 
0 
0 
0 
0 
0 
0 
0 
0 
0 
0 
0 
0 
0 
0 
0 
0 
0 
0 
0 
0 
0 
0 
0 
0 
0 
0 
0 
0 
37 
53 
63 
69 
74 
78 
81 
83 
83 
83 
83 
81 
78 
74 
0 
0 
0 
0 
0 
0 
0 
0 
0 
0 
0 
0 
0 
0 
0 
0 
0 
0 
0 
0 
0 
0 
0 
0 
0 
0 
0 
0 
0 
0 
0 
0 
0 
0 
0 
0 
0 
0 
0 
0 
0 
0 
0 
0 
0 
0 
0 
0 
0 
0 
0 
0 
0 
0 
0 
0 
0 
0 
0 
0 
0 
0 
0 
0 
0 
0 
0 
0 
0 
0 
0 
0 
0 
0 
0 
0 
0 
0 
0 
0 
0 
0 
0 
0 
0 
0 
0 
0 
0 
0 
27 
40 
46 
50 
52 
52 
50 
46 
38 
0 
0 
0 
0 
0 
0 
0 
0 
0 
0 
0 
0 
0 
0 
0 
0 
0 
0 
0 
0 
0 
0 
0 
0 
0 
0 
0 
0 
0 
0 
0 
0 
0 
0 
0 
0 
0 
0 
0 
0 
0 
0 
0 
0 
0 
0 
0 
0 
0 
0 
0 
0 
0 
0 
0 
0 
0 
0 
0 
0 
0 
0 
0 
0 
0 
0 
0 
0 
0 
0 
0 
0 
0 
0 
0 
0 
0 
0 
0 
0 
0 
0 
0 
0 
0 
0 
0 
0 
0 
0 
0 
0 
0 
0 
0 
0 
0 
0 
0 
0 
0 
0 
0 
0 
0 
0 
0 
0 
0 
0 
0 
0 
0 
0 
0 
0 
0 
0 
0 
0 
0 
0 
0 
0 
0 
0 
0 
0 
0 
0 
0 
0 
0 
0 
0 
0 
0 
0 
0 
0 
0 
0 
0 
0 
0 
0 
0 
0 
0 
0 
0 
0 
0 
0 
0 
0 
0 
0 
0 
0 
0 
0 
0 
0 
0 
0 
0 
0 
0 
0 
0 
0 
0 
0 
0 
0 
0 
0 
0 
0 
0 
0 
0 
0 
0 
0 
0 
0 
0 
0 
0 
0 
0 
0 
0 
0 
0 
0 
0 
0 
0 
0 
0 
0 
0 
0 
0 
0 
0 
0 
0 
0 
0 
0 
0 
0 
0 
0 
0 
0 
0 
0 
0 
0 
0 
0 
0 
0 
0 
0 
0 
0 
0 
0 
0 
0 
0 
0 
0 
0 
0 
0 
0 
0 
0 
0 
0 
0 
0 
0 
0 
0 
0 
0 
0 
0 
0 
0 
0 
0 
0 
0 
0 
0 
0 
0 
0 
0 
0 
0 
0 
0 
0 
0 
0 
0 
0 
0 
0 
0 
0 
0 
0 
0 
0 
0 
0 
0 
0 
0 
0 
0 
0 
0 
0 
0 
0 
0 
0 
0 
0 
0 
0 
0 
0 
0 
0 
0 
0 
0 
0 
0 
0 
0 
0 
0 
0 
0 
0 
0 
0 
0 
0 
0 
0 
0 
0 
0 
0 
0 
0 
0 
0 
0 
0 
0 
0 
0 
0 
0 
0 
0 
0 
0 
0 
0 
0 
0 
0 
0 
0 
0 
0 
0 
0 
0 
0 
0 
0 
0 
47 
110 
108 
60 
0 
0 
0 
0 
0 
0 
0 
0 
0 
0 
97 
114 
87 
0 
0 
0 
0 
0 
0 
0 
0 
0 
0 
72 
112 
104 
30 
0 
0 
0 
0 
0 
0 
0 
0 
0 
27 
0 
0 
0 
0 
0 
0 
0 
0 
0 
0 
0 
0 
0 
0 
0 
0 
0 
0 
0 
0 
0 
0 
0 
0 
0 
0 
0 
0 
0 
0 
0 
0 
0 
0 
0 
0 
0 
0 
0 
0 
0 
0 
0 
0 
0 
0 
0 
0 
0 
0 
0 
0 
0 
0 
0 
0 
0 
0 
0 
141 
168 
163 
129 
36 
0 
0 
0 
0 
0 
0 
0 
0 
109 
160 
169 
149 
88 
0 
0 
0 
0 
0 
0 
0 
0 
56 
144 
169 
163 
123 
0 
0 
0 
0 
0 
0 
0 
0 
0 
119 
0 
0 
0 
0 
0 
0 
0 
0 
0 
0 
0 
0 
0 
0 
0 
0 
0 
0 
0 
0 
0 
0 
0 
0 
0 
0 
0 
0 
0 
0 
0 
0 
0 
0 
0 
0 
0 
0 
0 
0 
0 
0 
0 
0 
0 
0 
0 
0 
0 
0 
0 
0 
0 
0 
0 
0 
0 
0 
59 
166 
189 
184 
151 
72 
0 
0 
0 
0 
0 
0 
0 
0 
139 
182 
190 
171 
116 
0 
0 
0 
0 
0 
0 
0 
0 
96 
167 
0 
184 
148 
0 
0 
0 
0 
0 
0 
0 
0 
0 
143 
0 
0 
0 
0 
0 
0 
0 
0 
0 
0 
0 
0 
0 
0 
0 
0 
0 
0 
0 
0 
0 
0 
0 
0 
0 
0 
0 
0 
0 
0 
0 
0 
0 
0 
0 
0 
0 
0 
0 
0 
0 
0 
0 
0 
0 
0 
0 
0 
0 
0 
0 
0 
0 
0 
55 
118 
127 
109 
56 
156 
183 
177 
141 
45 
0 
0 
0 
0 
0 
0 
99 
126 
122 
88 
183 
163 
101 
0 
0 
0 
0 
0 
0 
0 
0 
65 
116 
127 
110 
44 
0 
0 
0 
0 
0 
0 
0 
0 
0 
132 
0 
0 
0 
0 
0 
0 
0 
0 
0 
0 
0 
0 
0 
0 
0 
0 
0 
0 
0 
0 
0 
0 
0 
0 
0 
0 
0 
0 
0 
0 
0 
0 
0 
0 
0 
0 
0 
0 
0 
0 
0 
0 
0 
0 
0 
0 
0 
0 
0 
0 
0 
0 
0 
0 
134 
166 
170 
153 
113 
10 
139 
135 
84 
0 
0 
0 
0 
0 
0 
93 
152 
170 
166 
139 
75 
114 
0 
0 
0 
0 
0 
0 
0 
0 
0 
128 
163 
171 
157 
116 
0 
0 
0 
0 
0 
0 
0 
0 
0 
52 
0 
0 
0 
0 
0 
0 
0 
0 
0 
0 
0 
0 
0 
0 
0 
0 
0 
0 
0 
0 
0 
0 
0 
0 
0 
0 
0 
0 
0 
0 
0 
0 
0 
0 
0 
0 
0 
0 
0 
0 
0 
0 
0 
0 
0 
0 
0 
0 
0 
0 
0 
0 
0 
0 
158 
185 
188 
172 
133 
49 
0 
0 
0 
0 
0 
0 
0 
0 
0 
124 
173 
189 
184 
159 
102 
0 
0 
0 
0 
0 
0 
0 
0 
0 
64 
151 
182 
189 
177 
139 
0 
0 
0 
0 
0 
0 
0 
0 
0 
0 
0 
0 
0 
0 
0 
0 
0 
0 
0 
0 
0 
0 
0 
0 
0 
0 
0 
0 
0 
0 
0 
0 
0 
0 
0 
0 
0 
0 
0 
0 
0 
0 
0 
0 
0 
0 
0 
0 
0 
0 
0 
0 
0 
0 
0 
0 
0 
0 
0 
54 
64 
40 
0 
0 
154 
184 
187 
169 
128 
28 
0 
0 
0 
0 
0 
0 
0 
43 
65 
50 
170 
187 
182 
156 
93 
0 
0 
0 
0 
0 
0 
0 
0 
0 
33 
28 
63 
58 
0 
134 
0 
0 
0 
0 
0 
0 
0 
0 
0 
0 
0 
0 
0 
0 
0 
0 
0 
0 
0 
0 
0 
0 
0 
0 
0 
0 
0 
0 
0 
0 
0 
0 
0 
0 
0 
0 
0 
0 
0 
0 
0 
0 
0 
0 
0 
0 
0 
0 
0 
0 
0 
0 
0 
0 
0 
0 
0 
0 
110 
132 
132 
114 
75 
0 
112 
157 
162 
143 
90 
0 
0 
0 
0 
0 
0 
0 
93 
126 
134 
123 
92 
5 
157 
124 
0 
0 
0 
0 
0 
0 
0 
0 
0 
0 
72 
118 
133 
130 
106 
42 
0 
0 
0 
0 
0 
0 
0 
0 
0 
0 
0 
0 
0 
0 
0 
0 
0 
0 
0 
0 
0 
0 
0 
0 
0 
0 
0 
0 
0 
0 
0 
0 
0 
0 
0 
0 
0 
0 
0 
0 
0 
0 
0 
0 
0 
0 
0 
0 
0 
0 
0 
0 
0 
0 
0 
0 
0 
109 
154 
168 
166 
150 
117 
54 
0 
0 
87 
46 
0 
0 
0 
0 
0 
0 
0 
76 
140 
164 
169 
159 
133 
80 
76 
0 
0 
0 
0 
0 
0 
0 
0 
0 
0 
26 
123 
156 
169 
166 
147 
104 
0 
0 
0 
0 
0 
0 
0 
0 
0 
0 
0 
0 
0 
0 
0 
0 
0 
0 
0 
0 
0 
0 
0 
0 
0 
0 
0 
0 
0 
0 
0 
0 
0 
0 
0 
0 
0 
0 
0 
0 
0 
0 
0 
0 
0 
0 
0 
0 
0 
0 
0 
0 
0 
0 
0 
0 
0 
138 
174 
187 
184 
167 
136 
79 
0 
0 
0 
0 
0 
0 
0 
0 
0 
0 
0 
110 
162 
183 
187 
177 
152 
104 
0 
0 
0 
0 
0 
0 
0 
0 
0 
0 
0 
75 
145 
175 
186 
184 
166 
127 
0 
0 
0 
0 
0 
0 
0 
0 
0 
0 
0 
0 
0 
0 
0 
0 
0 
0 
0 
0 
0 
0 
0 
0 
0 
0 
0 
0 
0 
0 
0 
0 
0 
0 
0 
0 
0 
0 
0 
0 
0 
0 
0 
0 
0 
0 
0 
0 
0 
0 
0 
0 
0 
0 
0 
0 
0 
142 
178 
190 
187 
170 
138 
78 
0 
0 
0 
0 
0 
0 
0 
0 
0 
0 
0 
112 
165 
186 
191 
180 
155 
105 
0 
0 
0 
0 
0 
0 
0 
0 
0 
0 
0 
74 
148 
179 
190 
187 
169 
130 
0 
0 
0 
0 
0 
0 
0 
0 
0 
0 
0 
0 
0 
0 
0 
0 
0 
0 
0 
0 
0 
0 
0 
0 
0 
0 
0 
0 
0 
0 
0 
0 
0 
0 
0 
0 
0 
0 
0 
0 
0 
0 
0 
0 
0 
0 
0 
0 
0 
0 
0 
23 
4 
0 
0 
0 
0 
116 
165 
179 
176 
158 
121 
44 
0 
0 
0 
0 
0 
0 
0 
0 
0 
22 
13 
70 
150 
175 
180 
169 
140 
78 
0 
0 
0 
0 
0 
0 
0 
0 
0 
0 
0 
0 
130 
18 
19 
176 
156 
107 
0 
0 
0 
0 
0 
0 
0 
0 
0 
0 
0 
0 
0 
0 
0 
0 
0 
0 
0 
0 
0 
0 
0 
0 
0 
0 
0 
0 
0 
0 
0 
0 
0 
0 
0 
0 
0 
0 
0 
0 
0 
0 
0 
0 
0 
0 
0 
0 
0 
86 
104 
104 
91 
63 
5 
0 
0 
0 
120 
146 
145 
123 
70 
0 
0 
0 
0 
0 
0 
0 
0 
69 
98 
106 
99 
77 
28 
139 
148 
135 
94 
0 
0 
0 
0 
0 
0 
0 
0 
0 
0 
0 
0 
47 
89 
104 
104 
89 
51 
0 
0 
0 
0 
0 
0 
0 
0 
0 
0 
0 
0 
0 
0 
0 
0 
0 
0 
0 
0 
0 
0 
0 
0 
0 
0 
0 
0 
0 
0 
0 
0 
0 
0 
0 
0 
0 
0 
0 
0 
0 
0 
0 
0 
0 
0 
0 
0 
0 
108 
137 
146 
144 
131 
107 
68 
0 
0 
0 
0 
0 
0 
0 
0 
0 
0 
0 
0 
0 
0 
0 
81 
124 
142 
146 
140 
122 
88 
19 
0 
0 
0 
0 
0 
0 
0 
0 
0 
0 
0 
0 
0 
0 
46 
108 
134 
145 
145 
133 
108 
52 
0 
0 
0 
0 
0 
0 
0 
0 
0 
0 
0 
0 
0 
0 
0 
0 
0 
0 
0 
0 
0 
0 
0 
0 
0 
0 
0 
0 
0 
0 
0 
0 
0 
0 
0 
0 
0 
0 
0 
0 
0 
0 
0 
0 
0 
0 
0 
89 
144 
165 
171 
168 
155 
133 
98 
39 
0 
0 
0 
0 
0 
0 
0 
0 
0 
0 
0 
0 
0 
0 
123 
154 
168 
171 
165 
148 
119 
67 
0 
0 
0 
0 
0 
0 
0 
0 
0 
0 
0 
0 
0 
0 
95 
139 
161 
170 
170 
160 
138 
96 
0 
0 
0 
0 
0 
0 
0 
0 
0 
0 
0 
0 
0 
0 
0 
0 
0 
0 
0 
0 
0 
0 
0 
0 
0 
0 
0 
0 
0 
0 
0 
0 
0 
0 
0 
0 
0 
0 
0 
0 
0 
0 
0 
0 
0 
0 
0 
120 
163 
181 
186 
182 
169 
147 
113 
59 
0 
0 
0 
0 
0 
0 
0 
0 
0 
0 
0 
0 
0 
72 
142 
170 
183 
186 
179 
163 
135 
87 
0 
0 
0 
0 
0 
0 
0 
0 
0 
0 
0 
0 
0 
0 
116 
155 
176 
185 
185 
175 
154 
115 
0 
0 
0 
0 
0 
0 
0 
0 
0 
0 
0 
0 
0 
0 
0 
0 
0 
0 
0 
0 
0 
0 
0 
0 
0 
0 
0 
0 
0 
0 
0 
0 
0 
0 
0 
0 
0 
0 
0 
0 
0 
0 
0 
0 
0 
0 
0 
126 
169 
186 
191 
187 
174 
151 
117 
60 
0 
0 
0 
0 
0 
0 
0 
0 
0 
0 
0 
0 
0 
76 
148 
176 
189 
191 
184 
167 
139 
90 
0 
0 
0 
0 
0 
0 
0 
0 
0 
0 
0 
0 
0 
0 
121 
160 
181 
190 
190 
180 
159 
120 
0 
0 
0 
0 
0 
0 
0 
0 
0 
0 
0 
0 
0 
0 
0 
0 
0 
0 
0 
0 
0 
0 
0 
0 
0 
0 
0 
0 
0 
0 
0 
0 
0 
0 
0 
0 
0 
0 
0 
0 
0 
0 
0 
0 
0 
0 
0 
109 
162 
182 
187 
183 
169 
145 
108 
38 
0 
0 
0 
0 
0 
0 
0 
0 
0 
0 
0 
0 
0 
0 
139 
171 
184 
187 
180 
162 
131 
74 
0 
0 
0 
0 
0 
0 
0 
0 
0 
0 
0 
0 
0 
0 
108 
154 
176 
186 
186 
175 
152 
108 
0 
0 
0 
0 
0 
0 
0 
0 
0 
0 
0 
0 
0 
0 
0 
0 
0 
0 
0 
0 
0 
0 
0 
0 
0 
0 
0 
0 
0 
0 
0 
0 
0 
0 
0 
0 
0 
0 
0 
0 
0 
0 
0 
0 
0 
0 
0 
0 
137 
164 
172 
168 
153 
126 
79 
0 
0 
0 
0 
0 
0 
0 
0 
0 
0 
0 
0 
0 
0 
0 
105 
151 
168 
172 
164 
144 
106 
0 
0 
0 
0 
0 
0 
0 
0 
0 
0 
0 
0 
0 
0 
0 
52 
131 
159 
171 
170 
158 
130 
61 
0 
0 
0 
0 
0 
0 
0 
0 
0 
0 
0 
0 
0 
0 
0 
0 
0 
0 
0 
0 
0 
0 
0 
0 
0 
0 
0 
0 
0 
0 
0 
0 
0 
0 
0 
0 
0 
0 
0 
0 
0 
0 
0 
0 
0 
0 
0 
0 
0 
121 
137 
135 
117 
78 
0 
0 
0 
0 
0 
0 
0 
0 
0 
0 
0 
0 
0 
0 
0 
0 
0 
98 
131 
138 
129 
100 
0 
0 
0 
0 
0 
0 
0 
0 
0 
0 
0 
0 
0 
0 
0 
0 
0 
57 
119 
136 
136 
118 
64 
0 
0 
0 
0 
0 
0 
0 
0 
0 
0 
0 
0 
0 
0 
0 
0 
0 
0 
0 
0 
0 
0 
0 
0 
0 
0 
0 
0 
0 
0 
0 
0 
0 
0 
0 
0 
60 
73 
72 
62 
43 
8 
0 
0 
0 
0 
0 
0 
0 
0 
0 
0 
0 
0 
0 
0 
0 
0 
0 
0 
0 
0 
0 
0 
31 
63 
73 
71 
60 
35 
0 
0 
0 
0 
0 
0 
0 
0 
0 
0 
0 
0 
0 
0 
0 
0 
0 
0 
0 
0 
0 
0 
0 
43 
66 
73 
70 
56 
22 
0 
0 
0 
0 
0 
0 
0 
0 
0 
0 
0 
0 
0 
0 
0 
0 
0 
0 
0 
0 
0 
0 
0 
0 
0 
0 
0 
0 
0 
0 
0 
0 
0 
0 
0 
49 
97 
112 
116 
113 
103 
86 
61 
22 
0 
0 
0 
0 
0 
0 
0 
0 
0 
0 
0 
0 
0 
0 
0 
0 
0 
0 
0 
0 
63 
97 
112 
116 
113 
103 
85 
55 
0 
0 
0 
0 
0 
0 
0 
0 
0 
0 
0 
0 
0 
0 
0 
0 
0 
0 
0 
0 
0 
69 
97 
111 
116 
114 
104 
83 
45 
0 
0 
0 
0 
0 
0 
0 
0 
0 
0 
0 
0 
0 
0 
0 
0 
0 
0 
0 
0 
0 
0 
0 
0 
0 
0 
0 
0 
0 
0 
0 
0 
0 
0 
111 
134 
143 
145 
140 
130 
114 
92 
59 
7 
0 
0 
0 
0 
0 
0 
0 
0 
0 
0 
0 
0 
0 
0 
0 
0 
0 
0 
61 
110 
131 
142 
145 
142 
132 
116 
91 
51 
0 
0 
0 
0 
0 
0 
0 
0 
0 
0 
0 
0 
0 
0 
0 
0 
0 
0 
0 
70 
108 
129 
141 
145 
143 
134 
118 
90 
34 
0 
0 
0 
0 
0 
0 
0 
0 
0 
0 
0 
0 
0 
0 
0 
0 
0 
0 
0 
0 
0 
0 
0 
0 
0 
0 
0 
0 
0 
0 
0 
0 
105 
141 
158 
164 
165 
160 
149 
134 
112 
82 
39 
0 
0 
0 
0 
0 
0 
0 
0 
0 
0 
0 
0 
0 
0 
0 
0 
0 
0 
103 
137 
155 
163 
165 
162 
152 
137 
114 
79 
15 
0 
0 
0 
0 
0 
0 
0 
0 
0 
0 
0 
0 
0 
0 
0 
0 
0 
34 
103 
133 
151 
162 
165 
163 
155 
140 
116 
75 
0 
0 
0 
0 
0 
0 
0 
0 
0 
0 
0 
0 
0 
0 
0 
0 
0 
0 
0 
0 
0 
0 
0 
0 
0 
0 
0 
0 
0 
0 
0 
0 
131 
160 
173 
179 
178 
173 
162 
147 
126 
97 
55 
0 
0 
0 
0 
0 
0 
0 
0 
0 
0 
0 
0 
0 
0 
0 
0 
0 
41 
126 
154 
170 
178 
179 
175 
166 
151 
129 
96 
41 
0 
0 
0 
0 
0 
0 
0 
0 
0 
0 
0 
0 
0 
0 
0 
0 
0 
69 
122 
149 
166 
176 
179 
177 
170 
155 
133 
96 
0 
0 
0 
0 
0 
0 
0 
0 
0 
0 
0 
0 
0 
0 
0 
0 
0 
0 
0 
0 
0 
0 
0 
0 
0 
0 
0 
0 
0 
0 
0 
0 
144 
170 
183 
188 
187 
181 
170 
154 
133 
104 
62 
0 
0 
0 
0 
0 
0 
0 
0 
0 
0 
0 
0 
0 
0 
0 
0 
0 
72 
137 
164 
179 
186 
188 
184 
174 
159 
137 
105 
51 
0 
0 
0 
0 
0 
0 
0 
0 
0 
0 
0 
0 
0 
0 
0 
0 
0 
82 
132 
159 
175 
184 
188 
186 
178 
164 
142 
106 
0 
0 
0 
0 
0 
0 
0 
0 
0 
0 
0 
0 
0 
0 
0 
0 
0 
0 
0 
0 
0 
0 
0 
0 
0 
0 
0 
0 
0 
0 
0 
0 
147 
173 
186 
191 
190 
184 
173 
156 
134 
104 
60 
0 
0 
0 
0 
0 
0 
0 
0 
0 
0 
0 
0 
0 
0 
0 
0 
0 
65 
140 
167 
183 
190 
191 
187 
177 
162 
139 
105 
46 
0 
0 
0 
0 
0 
0 
0 
0 
0 
0 
0 
0 
0 
0 
0 
0 
0 
80 
133 
161 
178 
188 
191 
189 
181 
167 
144 
106 
0 
0 
0 
0 
0 
0 
0 
0 
0 
0 
0 
0 
0 
0 
0 
0 
0 
0 
0 
0 
0 
0 
0 
0 
0 
0 
0 
0 
0 
0 
0 
0 
139 
170 
183 
189 
188 
181 
170 
153 
129 
96 
44 
0 
0 
0 
0 
0 
0 
0 
0 
0 
0 
0 
0 
0 
0 
0 
0 
0 
0 
132 
163 
180 
187 
189 
184 
174 
158 
133 
96 
6 
0 
0 
0 
0 
0 
0 
0 
0 
0 
0 
0 
0 
0 
0 
0 
0 
0 
52 
126 
157 
175 
185 
189 
187 
179 
163 
138 
95 
0 
0 
0 
0 
0 
0 
0 
0 
0 
0 
0 
0 
0 
0 
0 
0 
0 
0 
0 
0 
0 
0 
0 
0 
0 
0 
0 
0 
0 
0 
0 
0 
109 
156 
173 
180 
179 
173 
161 
142 
116 
77 
0 
0 
0 
0 
0 
0 
0 
0 
0 
0 
0 
0 
0 
0 
0 
0 
0 
0 
0 
106 
150 
169 
178 
180 
176 
165 
147 
118 
70 
0 
0 
0 
0 
0 
0 
0 
0 
0 
0 
0 
0 
0 
0 
0 
0 
0 
0 
0 
104 
144 
165 
176 
180 
178 
169 
152 
122 
55 
0 
0 
0 
0 
0 
0 
0 
0 
0 
0 
0 
0 
0 
0 
0 
0 
0 
0 
0 
0 
0 
0 
0 
0 
0 
0 
0 
0 
0 
0 
0 
0 
0 
122 
151 
161 
162 
156 
142 
121 
88 
20 
0 
0 
0 
0 
0 
0 
0 
0 
0 
0 
0 
0 
0 
0 
0 
0 
0 
0 
0 
0 
118 
147 
160 
163 
158 
145 
124 
86 
0 
0 
0 
0 
0 
0 
0 
0 
0 
0 
0 
0 
0 
0 
0 
0 
0 
0 
0 
0 
0 
114 
143 
158 
163 
160 
149 
127 
81 
0 
0 
0 
0 
0 
0 
0 
0 
0 
0 
0 
0 
0 
0 
0 
0 
0 
0 
0 
0 
0 
0 
0 
0 
0 
0 
0 
0 
0 
0 
0 
0 
0 
0 
0 
92 
124 
129 
123 
106 
75 
0 
0 
0 
0 
0 
0 
0 
0 
0 
0 
0 
0 
0 
0 
0 
0 
0 
0 
0 
0 
0 
0 
0 
94 
122 
129 
124 
107 
68 
0 
0 
0 
0 
0 
0 
0 
0 
0 
0 
0 
0 
0 
0 
0 
0 
0 
0 
0 
0 
0 
0 
0 
95 
121 
129 
125 
108 
52 
0 
0 
0 
0 
0 
0 
0 
0 
0 
0 
0 
0 
0 
0 
0 
0 
0 
0 
0 
0 
0 
0 
0 
0 
0 
0 
0 
0 
0 
0 
0 
0 
0 
0 
0 
0 
0 
0 
0 
0 
0 
0 
0 
0 
0 
0 
0 
0 
0 
0 
0 
0 
0 
0 
0 
0 
0 
0 
0 
0 
0 
0 
0 
0 
0 
0 
0 
0 
0 
0 
0 
0 
0 
0 
0 
0 
0 
0 
0 
0 
0 
0 
0 
0 
0 
0 
0 
0 
0 
0 
0 
0 
0 
0 
0 
0 
0 
0 
0 
0 
0 
0 
0 
0 
0 
0 
0 
0 
0 
0 
0 
0 